<svg xmlns="http://www.w3.org/2000/svg" viewBox="0 0 731.61 292.64"><defs><style>.cls-1{fill:#292929;}.cls-2{fill:#ae3c31;}.cls-3{fill:#f9d7b8;}.cls-4{fill:#c0d1eb;}.cls-5{fill:#dbdada;}.cls-6{fill:#936946;}.cls-7{fill:#4b60aa;}.cls-8{fill:#191514;}.cls-9{fill:#26160c;}.cls-10{fill:#f0b074;}.cls-11{fill:#c18382;}.cls-12{fill:#dc822f;}.cls-13{fill:#cf7b32;}.cls-14{fill:#e12326;}.cls-15{fill:#8386bb;}.cls-16{fill:#87b777;}.cls-17{fill:#68895d;}.cls-18{fill:#7ca76e;}.cls-19{fill:#2b313d;}.cls-20{fill:#c2c7d2;}.cls-21{fill:#e7a76e;}.cls-22{fill:#452112;}.cls-23{fill:#a7d38c;}.cls-24{fill:#f4c083;}.cls-25{fill:#8fc27c;}.cls-26{fill:#77a06b;}.cls-27{fill:#413328;}.cls-28{fill:#914820;}.cls-29{fill:#2d2b29;}.cls-30{fill:#cdaa88;}</style></defs><g id="Layer_2" data-name="Layer 2"><g id="Layer_1-2" data-name="Layer 1"><path class="cls-1" d="M731.61,292.64H0V0H731.61ZM11.2,260.78h0l-1.12,1L9.4,273.65c5,1,9.51,2.19,14.05,2.72,5.49.65,11,.76,16.54,1.06,2,.1,4,0,5.95.14,5.68.45,11.36,1.37,17,1.4,8.71.06,17.43-.2,26.12-.85,6.79-.5,13.56-1.63,20.31-2.79a52.47,52.47,0,0,0,8.84-2.76,12.22,12.22,0,0,0,2.66-1.92l4-.09c5.49-.5,11-1.05,16.48-1.5q9.6-.76,19.21-1.39c2.34-.15,4.69,0,7-.22,8.33-.7,16.65-1.54,25-2.22,9.22-.76,18.45-1.37,27.68-2.15a11.67,11.67,0,0,0,3.17-1.3l1.4-.21c0,4.77,0,9.38,0,14,0,1.62-.22,3.23-.36,5.11l3.39-.3q10.14-.86,20.27-1.68c.53-.05,1.06.22,1.58.17a19.08,19.08,0,0,0,2.2-.45H253c2.27-.38,4.54-.84,6.82-1.11a32.13,32.13,0,0,1,5.19-.17c4.49.21,9,.7,13.47.77a84.8,84.8,0,0,0,12.23-.54,101.89,101.89,0,0,0,10.57-2.51c.39.21.78.58,1.17.59q6.21.17,12.41.23c5.34.06,10.67,0,16,.16,5.52.13,11,.81,16.54.46,6.07-.38,12.09-2.06,18.19-.9a4,4,0,0,0,1.08-.06c5.38-.42,10.76-1.22,16.13-1.13,3.53.07,6.92-.06,10.25-1.69.64.35,1.29,1,1.93,1,3.41,0,6.81-.11,10.22-.25,4.72-.19,9.44-.44,14.16-.67.22,2.66.38,5.33.68,8,.26,2.33,1.15,3,2.9,2.7,2.49-.38,5-.73,7.5-.86,2.8-.15,5.62,0,8.43-.06a2,2,0,0,0,1.88-2.93c-1.32-2.84-.65-5.87-.77-8.81,0-.46.4-1.29.71-1.37,2.68-.77,5.37-1.93,8.06-2,6.64-.07,13.15-.81,19.54-3.45,3.47-1.43,7.06-2.36,11-3.64,0,2.22,0,4.06,0,5.89-.1,6,0,11.9,1.36,17.64.84,3.43,2.72,4.06,4.63,1.56,1.65-2.18,2-5,1.91-7.88-.2-5.68-.65-11.34-.91-17,0-.64.4-1.8.76-1.92a21.19,21.19,0,0,1,3.73-.61c1-.14,1.4.42,1.55,1.91q1,9.42,2.22,18.77c.1.72,1,1.22,1.59,1.83l.81-2c0-.72,0-1.44,0-2.15.14-5.68.32-11.35.39-17,0-1.63.4-2.05,1.62-2.37a78.43,78.43,0,0,0,7.81-2.9l2.79-1c.78,0,1.56,0,2.33-.13,5.63-.75,11.28-1.39,16.89-2.36a92.25,92.25,0,0,0,9.07-2.46L557.16,246c4.61-.29,9.21-.82,13.81-.82,5,0,10.06.62,15.08.69,5.28.07,10.55-.15,15.82-.3,8.26-.24,16.52-.49,24.78-.82,1.22-.05,1.63.7,1.72,2.1.25,3.71.54,7.43.72,11.15.29,5.68.54,11.36.72,17,.06,2.11.61,3.32,2.23,3.67,2,.42,4.14-1.07,4.78-4.34a111.42,111.42,0,0,0,2-13.81c.33-4.69.08-9.46.07-14.19,0-1.22,0-2.32,1.27-2.28,2,.06,4-.09,6,.09.5.05,1.26,1,1.38,1.62.64,3.8,1.12,7.65,1.65,11.48v.05a53.33,53.33,0,0,0,.07,5.52c.05.49,1,.79,1.6,1.18a10.4,10.4,0,0,0,.69-2.27c.41-5.4.8-10.81,1.07-16.23.08-1.75.69-2,1.72-1.91a15.51,15.51,0,0,0,3,.33c2.44-.19,4.87-.75,7.31-.8,6.12-.12,12.24,0,18.36-.07a38.22,38.22,0,0,0,5.88-.78c3.79-.67,7.58-1.31,11.34-2.21.9-.21,1.69-1.36,2.52-2.07l-.12-2.27-.74-2.33a13.68,13.68,0,0,1,3.32-.61c5.42.24,10.48-1.9,15.53-4.13,2.21-1,2.23-1,1.42-4.11.34-1.45.46-2.78-1-3.22-1.23-2.66-2.68-2.16-4.38-.8a7,7,0,0,1-3.18,1.47,54.62,54.62,0,0,1-8,1c-5.32.14-10.65.3-16,0-4.82-.29-9.28-2.55-13.14-6.56-4.42-4.58-8.67-9.48-13.14-14a55.94,55.94,0,0,1-10.44-13.93c-1.81-3.53-3.43-7.26-5.27-10.76-.88-1.68-1.88-3.75-3.17-4.43a40.13,40.13,0,0,0-8.13-2.68c-1-.29-1.9.31-2.13,1.92a22.47,22.47,0,0,0-4.67,1.81,30.76,30.76,0,0,0-5,4.3c-3.79,3.86-7.51,7.84-11.25,11.79-7.09,7.49-14.08,15.13-21.28,22.43-4,4.07-8.29,7.73-12.57,11.28C573.23,229.24,567,234,560.77,239a17.26,17.26,0,0,1-10.26,4c-8.14.36-16.28.4-24.42.54a9.13,9.13,0,0,1-2.14-.3c-8.1-1.79-15.71-5.88-23.5-9.16-2.88-1.21-2.89-1.31-3.08-5.43,0-.32,0-.65,0-1-.19-5.59-4.88-11.41-9.13-9.85-2.11.78-4.65,2.41-6.71-.76-.66,3.24-1.37,6.1-1.8,9-.28,2,.13,4.15-.25,6.07-1.35,6.85-3.83,12.81-8.12,17.12-4.7,4.73-9.6,8.33-15.79,8.19-2.19-.05-4.69,1.61-6.56,3.42-2.21,2.14-4.23,3.95-7.07,4-1.82,0-2.05,0-1.95-2.54.27-6.83.66-13.65.68-20.48,0-10.85-.24-21.7-.31-32.55-.05-8.88-.05-17.74-1.79-26.42-.61-3-1-4-3.37-4-4.35,0-8.71.21-13.05.58-1.07.09-2.09,1.15-3.14,1.77-1.14.39-1.35,1.5-1.43,2.94a23.22,23.22,0,0,1-.75,5.7c-2.63,7.81-3.5,16.1-3.91,24.54-.05.89.06,1.8.09,2.7l-.11.94-.69.89-17.71.5h-.34l-.72.09-1.74-.68a16.34,16.34,0,0,0-.27,2.49c.13,2.51.32,5,.56,7.51s-.56,3.11-2.24,2.94c-2.87-.28-5.75-.26-8.62-.56a12.61,12.61,0,0,1-4.55-1.21c-2.9-1.55-5.64-3.62-8.54-5.15-3.35-1.76-5.07-5.29-5.65-9.69-.92-7-1.71-14.12-2.1-21.22-.42-7.71-.31-15.48-.43-23.22-.05-4-1-5.32-4-5.13-3.83.25-7.65.55-11.47,1-4.25.51-4.82.9-5,4.81-.21,5.2-.16,10.44.08,15.64.15,3.25.12,3.89-2.28,4-2.21,0-4.43-.28-6.64-.42-5.21-.34-10.41-.69-15.62-1-1-.05-1.51-.43-1.74-1.85-1.08-6.64-4.68-9.49-9.15-10.82-2.34-.69-2.71-1.05-2.68-4.46q.17-21.78.37-43.55c0-2.27.18-4.55.42-6.8a64.44,64.44,0,0,0-.89-18.62,11.75,11.75,0,0,0-1.69-3.18l-.35-.47c-.13-1.7-.32-3.39-.38-5.08-.27-7.55-.43-15.1-.77-22.63-.17-3.89-1-7.33-4.29-8.53a3.06,3.06,0,0,1-1-2.22c0-5.2.18-10.4.33-15.6a107.32,107.32,0,0,1,.46-11.66c.47-3.4.13-5.67-2.34-7,.66-1.77,1.38-3.49,1.95-5.3a6.51,6.51,0,0,0-.76-5.65c-.45-.67-1.68-.72-2.49-.52s-1.34,1.1-1.81,1.51a9.76,9.76,0,0,0-2.18-1.59c-1.13-.42-2,.23-2.64,1.67a5.28,5.28,0,0,0,.42,5.14c1,1.7,2.15,3.28,3.23,4.92a4,4,0,0,1-1.15.57c-1.72.18-2.26,1.34-2.14,3.67.17,3.17.08,6.37,0,9.55,0,1.52.18,2.63,1.35,3.32a3.08,3.08,0,0,1,.79,2.1c-.05,4.88,0,9.81-.44,14.63-.22,2.17-1.29,5-2.6,6-2.65,1.88-3.16,4.51-3.06,8q.24,8.79.35,17.59c.05,3.6-.35,4.16-3,4.16-1.19,0-1.72.38-1.73,2.18-.07,10-.29,20.06-.31,30.09,0,7.17.19,14.34.34,21.51.07,3.41.24,6.82.33,10.24.26,9.6.44,19.21.77,28.8.13,3.69-1.35,7.29-.25,11,0,.09-.1.26-.19.46-3.13.38-6.28.84-9.43,1.07a3.28,3.28,0,0,1-2.16-1.18c-1-1-1.73-.89-2.07.86a20.92,20.92,0,0,0-.35,3.37c-.05,2.2.18,4.46-.08,6.6-.24,1.94.25,4.24-1.43,5.74a6.27,6.27,0,0,0-2,3.69,59.07,59.07,0,0,0,.17,10.13c.53,5.19-.28,8.1-3.38,10.76a3.57,3.57,0,0,0-1.16,2.24c-.08,5.55.06,11.1,0,16.65-.06,4.11-.33,8.22-.53,12.33a10.55,10.55,0,0,1-.33,1.49l-1.69-4q-.71-21-1.4-42c-.1-3.09,0-6.19,0-9.29-.13-9.21-.3-18.42-.45-27.64a24.44,24.44,0,0,0,.36-2.55c.15-4.7.22-9.41.37-14.12.4-12,.68-24,1.3-35.92a57.94,57.94,0,0,0-2.05-18.85,13,13,0,0,0-1-2.09c-.25-2.34-.51-4.67-.73-7-.26-2.74-.7-3.31-2.78-3.28a35,35,0,0,0-4.57.3c-.35,0-.85.76-.93,1.27a28.5,28.5,0,0,0-.66,5.71c.21,4.61.72,9.19,1,13.8.17,2.75.19,5.53.2,8.29q.09,20.68.15,41.37c0,6.8-.17,13.61,0,20.41.22,9.36.68,18.72,1,28.08a6.93,6.93,0,0,1-.58,1.67c-.38-6.68-.79-12.77-1-18.86-.31-7.81-.59-15.62-.7-23.44-.06-4.48.43-9,.35-13.45q-.52-30.21-1.27-60.43c-.09-4.14-.65-4.64-3.92-4.74-.11-.27-.18-.66-.35-.79-2.49-1.94-6.91-.13-8.09,3.35-.51,1.53,0,2.3,1.19,2.35L226.7,126a7.71,7.71,0,0,0-.37,1.79q.31,10,.74,20c0,.43.43.82.66,1.23,0,.82,0,1.63,0,2.45-.37,4.56-1,9.12-1.05,13.69-.17,9-.12,18,0,27.06,0,2.76.53,5.51.81,8.26,0,2.63.06,5.25.08,7.88a1.86,1.86,0,0,0,0,2.8s-.06.19-.08.18a20,20,0,0,0-.51,2.95c-.17,4.87-.09,9.78-.45,14.63A84.91,84.91,0,0,1,225,238l-.5.09a15.36,15.36,0,0,1-1.36-2.72c-1.28-4.3-2.48-8.63-3.67-13-.71-2.57-1.43-5.28-3.74-5.62a21.14,21.14,0,0,0-5.38.23c-2.38.27-4.92,1.63-7.08.87-6.24-2.19-10.82-7.6-12.55-16.19-1.1-5.53-1.36-11.37-1.88-17.09-.13-1.45-.83-3.21.48-4.5,0,0-.39-1.44-.67-1.5a18.73,18.73,0,0,0-4.46-.51c-6.17.22-12.33.73-18.5.71-1.55,0-1.92.71-2.08,2.25-.22,2-.31,4-.46,6.07s-.48,3.17-2.36,3.19c-4.31,0-8.61.66-12.91.82-1.83.07-2.25,1.49-2.37,3.41-.11,1.7-.12,3.42-.12,5.13q0,7.19,0,14.37c0,4.05,0,8.1,0,12.33-.7-.14-1.21-.26-1.73-.34-2.88-.4-6.19,2.43-6.76,6.17-.65,4.37-1.11,8.81-1.48,13.24-.61,7.28-2.28,13.8-6.59,18.65-3.14,3.54-7.14,5.73-10.07.7a27.75,27.75,0,0,1-1.66-4.71,4.44,4.44,0,0,0-.37-1.15c-1.13-1.51-2.3-3-3.6-4.62-3.48-.05-7.32,1-11-1.32h0l-1.91-2.42c-.09-.33-.17-.66-.26-1l-.36-12.31c.35-.45.65-1.22,1-1.32,2-.49,2.8-2.54,1.74-4.81-1.79-3.82-3.47-7.76-5.43-11.42-2.81-5.27-2.79-10.91-1.6-16.78.67-3.27,1.65-6.44,2.18-9.74.19-1.25-.45-2.8-.84-4.14-.21-.71-.85-1.18-1.08-1.89-2.07-6.58-4.14-13.16-6.13-19.79a27.66,27.66,0,0,1-.64-13.44c1.23-6.11,2.45-12.29,4.23-18.12,1-3.46,2.86-6.46,3.64-10.24A68.36,68.36,0,0,0,98.5,110a13,13,0,0,0-.71-4c-.67-1.88-2.67-2.19-3.18-.51-.94,3.09-2.91,3-4.78,3.33-1,.18-1.44-.4-1.41-1.8,0-2.42.1-4.85,0-7.26a23,23,0,0,1,1.6-9.6,39.23,39.23,0,0,0,1.63-7.45,7.89,7.89,0,0,0-.57-2.6,7.83,7.83,0,0,0-1.63,1.19c-.78,1-1.46,2.06-2.38,3.39-.2-1.84-.27-3.37-.56-4.83a6.05,6.05,0,0,0-1-1.79,5.64,5.64,0,0,0-1.13,1.35c-.51,1.23-.89,2.57-1.48,4.32a16.39,16.39,0,0,0-1.08-2.29A11.84,11.84,0,0,0,80.29,80a10,10,0,0,0-.85,2.14,16.41,16.41,0,0,0,0,2.71L77,85.35c0-.81-.09-1.6-.07-2.39.1-3.41.38-6.83.31-10.24-.13-6.75-.41-13.49-.74-20.23-.08-1.54-.46-2.9.53-4.27a4.23,4.23,0,0,0-.51-2.77,20.35,20.35,0,0,0-3.12-3.67c-2.13-2-2.29-1.88-3.62,1.08l0,.17-.09.11c-1.32,1.35-.84,2.91-.28,4.47,0,1.21,0,2.42.14,3.62.38,4.81.8,9.61,1.21,14.42l.34,6c.25,1.55.6,3.1.72,4.67.33,4.29.54,8.58.82,12.87.45,6.83,1.14,13.64,1.32,20.47.38,14.92-.44,29.78-1.35,44.64a124.24,124.24,0,0,1-4.73,26c-1,3.59-2.12,7.11-3.18,10.66l0,3c-.11,1-.22,2.09-.34,3.14-.28,2.45.54,4.62,2.28,4.64,2.35,0,2.45,2,2.65,4.19a18,18,0,0,1,0,2.2C69.18,215,69,221.92,69,228.85c-.06,5.64,0,5.64-4.16,6-.24,0-.54-.07-.7.09a2.71,2.71,0,0,0-.75,1.13,35.8,35.8,0,0,1-1.19,4.67c-1.24,2.77-2.76,5.31-4.09,8-1.81,3.68-2.93,8-6,10.53l1.67,1.43c-2.14,1.31-2.26,2.27-.67,5.48a9.82,9.82,0,0,1-1.91-.59c-3.73-2-7.46-3.95-11.15-6.06A35.56,35.56,0,0,0,18.43,255,5.78,5.78,0,0,0,13,258.82l0,0-1,1h0Z"/><path class="cls-2" d="M393.1,272.51c-3.33,1.63-6.72,1.76-10.25,1.69-5.37-.09-10.75.71-16.13,1.13a4,4,0,0,1-1.08.06c-6.1-1.16-12.12.52-18.19.9-5.49.35-11-.33-16.54-.46-5.34-.12-10.67-.1-16-.16q-6.21-.07-12.41-.23c-.39,0-.78-.38-1.17-.59a18,18,0,0,1-.61-3.13c-.11-7.57-.1-15.15-.22-22.72-.09-5.61-.32-11.21-.49-16.82.06-2.88,1.47-3.77,3.24-3.67,2,.12,3.92.79,5.88.85,3.54.12,7.09,0,10.64-.12a6.66,6.66,0,0,0,3.07-1.09,2.78,2.78,0,0,0,.82-2,90.93,90.93,0,0,0-5-21.52c-.73-2-1.62-3.06-3.28-3.09-.48,0-1.35-.55-1.38-1-.23-2.7-.27-5.44-.38-8.36,1.56,0,2.87-.09,4.16,0,3.06.25,6.1.71,9.15.88s6.31-.37,9.37.25,5.24-2.05,4.88-6.39c-.41-5-.53-10.08-.86-15.12-.15-2.34.79-3.12,2.22-3.14,4.21-.08,8.42-.16,12.62,0,1.16,0,2.4.47,2.55,2.88.88,14.11,2,28.21,2.74,42.34a19.45,19.45,0,0,0,7.48,15c1.39,1.15,3.22,1.26,4.73,2.19,5.16,3.2,10.67,2.52,16.06,2.57,1.95,0,3.59.18,5.08,1.87a8.68,8.68,0,0,0-.34,1.86c.08,5,.21,9.93.33,14.89,0,.86.09,1.72.14,2.58Q393.53,263.69,393.1,272.51Z"/><path class="cls-3" d="M223.43,261.78a11.67,11.67,0,0,1-3.17,1.3c-9.23.78-18.46,1.39-27.68,2.15-8.33.68-16.65,1.52-25,2.22-2.33.2-4.68.07-7,.22q-9.6.63-19.21,1.39c-5.5.45-11,1-16.48,1.5a7.36,7.36,0,0,1,.7-.55c4.41-2.69,7.69-6.69,9.52-13.08,1.62-5.67,1.65-11.59,2.41-17.39.33-2.55.42-5.2,1-7.64a5.19,5.19,0,0,1,5.09-4.12c1.8.11,3.64,2.25,4.33,5.19.66,2.78,1.15,5.64,1.91,8.37.19.71,1.1,1.06,1.68,1.57.18-.88.69-1.95.49-2.63-1.16-4-2.51-7.91-3.73-11.89a14.83,14.83,0,0,1-.61-3.48c-.3-6.22-.55-12.45-.8-18.69-.14-3.64-.24-7.3-.33-10.95,0-2.09.89-3.16,2.28-3.23,3.9-.21,7.81-.25,11.71-.33,2-.05,2.82.8,2.6,3.5-.78,9.53,1.88,18.51,2.27,27.85,0,1,1.13,1.94,1.84,2.73.16.18,1-.26,1.15-.67a15,15,0,0,0,1.53-4.61c.41-6.25.76-12.53.76-18.8,0-5.64-2.89-10.56-6.81-11.47.35-3.25.69-6.5,1-9.49h22.91c.06,1.57.06,2.79.15,4,.38,4.86.58,9.77,1.27,14.55.54,3.75,1.08,8,2.74,10.83,2.22,3.78,5.4,6.65,8.41,9.41a7.59,7.59,0,0,0,5.09,1.86,35,35,0,0,0,8.72-1.48c1.55-.44,2.29.45,2.86,1.93,1,2.52,1.76,5.15,2.67,7.71,1.46,4.07,3,8.11,4.45,12.16,1.37,1.66,1.56,3.78,1.47,6.14-.11,3-.05,6,0,9,0,2,.27,4.16-2,4.28C223.57,261.15,223.5,261.56,223.43,261.78Z"/><path class="cls-4" d="M300,232.18c.17,5.61.4,11.21.49,16.82.12,7.57.11,15.15.22,22.72a18,18,0,0,0,.61,3.13,101.89,101.89,0,0,1-10.57,2.51,84.8,84.8,0,0,1-12.23.54c-4.49-.07-9-.56-13.47-.77a32.13,32.13,0,0,0-5.19.17c-2.28.27-4.55.73-6.82,1.11a14.65,14.65,0,0,1,.39-1.93c.65-1.78,1.87-3.48,2-5.29.36-7.05.53-14.13.43-21.2,0-3.23,0-5.7,2.39-7.59,2.86-2.31,3.64-5.8,2.52-10.05a23.45,23.45,0,0,1-.58-9.07c.19-1.61.53-2.56,1.67-3.33a4.85,4.85,0,0,0,1.82-3c.41-3.26.46-6.61.64-9.93.06-1.17.12-2.34.16-3.17h12.21c.2,1.54.34,2.66.48,3.78a21.41,21.41,0,0,0,.51,3.59,37.2,37.2,0,0,0,2.3,6c1.11,2.14,4.78,1.76,5.69-.38,2.09-4.91-.3-13-4.25-14.49-3.22-1.17-3.23-1.17-3.41-5.82-.05-1.23,0-2.45-.05-3.68-.11-7.39-.16-14.78-.35-22.17-.31-12.87-.79-25.74-1.05-38.61-.22-10.76-.25-21.52-.3-32.29a2.82,2.82,0,0,1,.89-1.94c1.52-.9,3.55.21,4.46,2.15a5.58,5.58,0,0,0,.73,1l1.36,1a15.34,15.34,0,0,0,3.65.94c1.23,0,1.51.73,1.56,2.13.09,2.58.25,5.16.38,7.74l.23,1.44,0,0,.32.57.06.9c0,1.22,0,2.44,0,3.66-.12,7.18-1.45,14.09-2.7,21q-1.69,9.45-3.53,18.85c-1.13,5.8-2.34,11.58-3.51,17.38a17.23,17.23,0,0,0-.17,1.79,38.15,38.15,0,0,0,1.95-6.8c.81-4,1.46-8,2.35-12,2.42-10.68,4.93-21.32,5.83-32.51a6.84,6.84,0,0,1,.58-1.64c.06,1.29.13,2.57.19,3.86,0,.07-.09.14-.08.2a3.25,3.25,0,0,0,.11.42c.13,5.86.22,11.72.41,17.58.1,3.37.34,6.73.55,10.09.45,7.22,3.68,13.17,5,20a1.38,1.38,0,0,0,.24.64c1,1,1.55,3.16,3.25,2.13-.13,6.09-.21,12.19-.4,18.27-.17,5.53-.66,11.06-.65,16.58S299.74,226.52,300,232.18Z"/><path class="cls-5" d="M223.43,261.78c.07-.22.14-.63.21-.64,2.23-.12,2-2.24,2-4.28,0-3-.1-6,0-9,.09-2.36-.1-4.48-1.47-6.14,1.19,1.49,1.75,1.25,2.24-.76,2.38-9.72,1.43-19.69,1.2-29.61a1.33,1.33,0,0,0,0-.19c0-.93,0-1.87,0-2.8,0-2.63-.05-5.25-.08-7.88.1-5.52.25-11,.27-16.57,0-10.81,0-21.63,0-32.44,0-.82,0-1.63,0-2.45-.16-5.6-.29-11.2-.49-16.8-.08-2.09-.35-4.17-.54-6.25l.29-12.73c.45-4.37.45-4.31,3.75-4.33a22.42,22.42,0,0,0,3.5-.58c3.27.1,3.83.6,3.92,4.74q.72,30.21,1.27,60.43c.08,4.48-.41,9-.35,13.45.11,7.82.39,15.63.7,23.44.25,6.09.66,12.18,1,18.86a6.93,6.93,0,0,0,.58-1.67c-.34-9.36-.8-18.72-1-28.08-.16-6.8,0-13.61,0-20.41q0-20.69-.15-41.37c0-2.76,0-5.54-.2-8.29-.28-4.61-.79-9.19-1-13.8a28.5,28.5,0,0,1,.66-5.71c.08-.51.58-1.22.93-1.27a35,35,0,0,1,4.57-.3c2.08,0,2.52.54,2.78,3.28.22,2.34.48,4.67.73,7,0,1.06,0,2.12.08,3.17.32,8.15.79,16.29.92,24.43.07,4.63-.57,9.27-.58,13.9,0,8.16.2,16.31.34,24.47.05,2.52.18,5,.28,7.56.15,9.22.32,18.43.45,27.64,0,3.1-.1,6.2,0,9.29q.66,21,1.4,42l.3,7.33a19.08,19.08,0,0,1-2.2.45c-.52.05-1-.22-1.58-.17q-10.14.81-20.27,1.68l-3.39.3c.14-1.88.34-3.49.36-5.11,0-4.61,0-9.22,0-14Z"/><path class="cls-6" d="M100,249.56c.09.33.17.66.26,1,.64.81,1.27,1.62,1.91,2.42h0c.11.67.23,1.34.34,2a4.59,4.59,0,0,0-.79,1.45c-.45,3.3-.58,3.45-3,3.44a13.36,13.36,0,0,0-2.38.42c-.92,0-2-.4-2.74.12-2.5,1.81-4.75,4.37-7.34,5.85-2.94,1.68-6.14,2.51-9.24,3.67a5.15,5.15,0,0,1-1.25.11c-1.94.23-4,0-5.8.84-2.17,1-3.81-.05-5.63-1.05a7.12,7.12,0,0,0-2.14-.51c-.68-.14-1.38-.18-2.05-.38s-1.36-.94-1.85-.71c-2.16,1-3.68-.42-5.2-2.07-1.59-3.21-1.47-4.17.67-5.47.76-1.51,1.56-3,2.28-4.53,3-6.28,5.92-12.59,8.92-19,1-.12,2.23-.32,3.47-.41,2.52-.17,3-.4,2.92-3.79q-.15-14.3-.72-28.57c-.09-2,.15-2.55,1.57-2.59,2.08-.07,4.15-.4,6.23-.6,4.79-.45,9.57-.9,14.36-1.31.26,0,.53.24.8.38a4.5,4.5,0,0,1,0,.83c-2.91,9.42-.42,17.43,3.81,24.7,1,1.76,1.17,3.37,1.56,5.42l-1.52-.31c-.27-.7-.42-1.74-.84-2a10.83,10.83,0,0,0-2.7-1c-2.92-1-5.81-2.67-8.77-2.95s-6.14,1.17-8.73,3.72c-2.24,2.21-2,4.83.52,6.46a8.15,8.15,0,0,0,5.67,1.33c5-.5,10-.54,15.08-.61.56,0,1.12.91,1.69,1.39A26.12,26.12,0,0,0,100,249.56Z"/><path class="cls-7" d="M96.34,260.28a13.36,13.36,0,0,1,2.38-.42c2.37,0,2.5-.14,3-3.44a4.59,4.59,0,0,1,.79-1.45c2.3,2,4.84,1.8,7.4,1.57,2-.18,3.49.72,4.56,3.19a44.19,44.19,0,0,0,3,5.3c1.14,1.9,2.33,3.75,3.49,5.62a12.22,12.22,0,0,1-2.66,1.92,52.47,52.47,0,0,1-8.84,2.76c-6.75,1.16-13.52,2.29-20.31,2.79-8.69.65-17.41.91-26.12.85-5.68,0-11.36-1-17-1.4-2-.16-4,0-5.95-.14-5.52-.3-11-.41-16.54-1.06-4.54-.53-9-1.72-14-2.72.24-4.22.45-8,.66-11.88.38-.32.75-.65,1.12-1h0c.24-.32.49-.64.74-.95h0c.35-.33.7-.66,1-1l0,0a2.51,2.51,0,0,0,1-.4,8.93,8.93,0,0,1,7.14-2.49,53.17,53.17,0,0,1,5.69.95c2.11.42,4.32.55,6.32,1.48a160.81,160.81,0,0,1,17.25,8.78c6.68,4.16,13.79,4.22,20.8,5.39,2.67.44,5.17-.65,7.68-1.83,3.74-1.75,7.59-3.11,11.3-4.94a41.22,41.22,0,0,0,5.89-4C96.3,261.58,96.26,260.78,96.34,260.28Z"/><path class="cls-8" d="M394,254.85c0-.86-.1-1.72-.14-2.58.47.34,1.11.52,1.38,1,1.75,3.51,4,6.08,7.11,6.93,5.21,1.44,10.45,2.69,15.68,4,1.44.36,2-.57,1.75-2.47.12-1,.23-1.95.35-2.93a38.57,38.57,0,0,1,.36,4.53c-.07,2.21.81,3,2.19,3.4v.82l-2.31.56c.27,3.54.58,7.08.79,10.63.15,2.5,1.21,2.81,2.75,2.47a44.39,44.39,0,0,1,5.68-1c2.69-.23,5.38-.24,8.07-.32,1.22,0,1.7-.56,1.38-2.43a25.62,25.62,0,0,1-.35-5.81c.14-2.65.76-5.26.88-7.91.24-5,.42-10,.36-14.92-.13-12.39-.22-24.79-.69-37.16-.35-9.33-1.2-18.63-1.95-27.93-.28-3.5-.61-3.81-3.22-3.78-3.48.05-7,.29-10.44.56-1.53.12-3,.52-4.56.79l0,0c1.05-.62,2.07-1.68,3.14-1.77,4.34-.37,8.7-.57,13.05-.58,2.34,0,2.76,1,3.37,4,1.74,8.68,1.74,17.54,1.79,26.42.07,10.85.34,21.7.31,32.55,0,6.83-.41,13.65-.68,20.48-.1,2.57.13,2.58,1.95,2.54,2.84-.05,4.86-1.86,7.07-4,1.87-1.81,4.37-3.47,6.56-3.42,6.19.14,11.09-3.46,15.79-8.19,4.29-4.31,6.77-10.27,8.12-17.12.38-1.92,0-4.1.25-6.07.43-2.94,1.14-5.8,1.8-9,2.06,3.17,4.6,1.54,6.71.76,4.25-1.56,8.94,4.26,9.13,9.85,0,.33,0,.66,0,1,.19,4.12.2,4.22,3.08,5.43,7.79,3.28,15.4,7.37,23.5,9.16a9.13,9.13,0,0,0,2.14.3c8.14-.14,16.28-.18,24.42-.54a17.26,17.26,0,0,0,10.26-4c6.18-5,12.46-9.79,18.61-14.88,4.28-3.55,8.55-7.21,12.57-11.28,7.2-7.3,14.19-14.94,21.28-22.43,3.74-3.95,7.46-7.93,11.25-11.79a30.76,30.76,0,0,1,5-4.3,22.47,22.47,0,0,1,4.67-1.81l0,.05-4,7.81-.38-.57.31-2.33a9.23,9.23,0,0,0-2.33,1.09,60,60,0,0,0-4.54,4.36c-7.13,7.68-14.22,15.44-21.35,23.13a210.49,210.49,0,0,1-26.23,24.34c-3.75,2.86-7.44,5.86-11.15,8.8l-.37.1L561.93,241l-1.39,1.16-1.19.89c-1.83.34-3.66.8-5.5,1-5.49.58-11,1.06-16.47,1.58-1.73-.12-3.5-.61-5.19-.29-6.69,1.28-12.94-1-19.15-3.89-3.17-1.47-6.39-2.76-9.59-4.09-1.88-.77-3.78-1.45-5.67-2.17-.83-.83-1.23-.26-1.21.87.09,5,.24,10,.37,15,0,3.58,0,3.86,2.61,3.86a45.88,45.88,0,0,0,7.22-1,78.43,78.43,0,0,1-7.81,2.9c-1.22.32-1.59.74-1.62,2.37-.07,5.67-.25,11.34-.39,17-.08-.87-.21-1.74-.24-2.61-.17-4.91-.32-9.81-.48-14.72-.26-6.63-.64-13.26-.72-19.9,0-3.13.09-6.07-2.12-8l.52-.57,1.53.63a12.47,12.47,0,0,0,.09-2.19c-.13-1-.43-1.92-.65-2.88a13.64,13.64,0,0,0-1.2-3.34c-2.14-2.91-6.71-3.14-9.51-.63a5.88,5.88,0,0,0-.58-.86,6.81,6.81,0,0,0-1.16-.7c-.58,6.17-1.46,12-1.61,17.85-.34,12.62-.35,25.27-.38,37.91a24.78,24.78,0,0,0,.87,5.94,7.71,7.71,0,0,0,1.55,2.3c.61-.83,1.55-1.54,1.74-2.53a41,41,0,0,0,.76-7.2c.1-6,0-12,0-18.17a22.65,22.65,0,0,1,5-.94c1.77.05,1.75-1.12,1.47-2.74-.65-3.63-1.34-7.25-2-10.88a8.62,8.62,0,0,1,.32-1.88c.46,1.76.83,2.79,1,3.87.88,5.64,1.7,11.3,2.54,17,.4,4.39.77,8.79,1.23,13.18a27.19,27.19,0,0,0,.78,3.92c.22.89.63,1.43,1.23.37l-.81,2c-.55-.61-1.49-1.11-1.59-1.83q-1.26-9.34-2.22-18.77c-.15-1.49-.51-2.05-1.55-1.91a21.19,21.19,0,0,0-3.73.61c-.36.12-.79,1.28-.76,1.92.26,5.67.71,11.33.91,17,.1,2.85-.26,5.7-1.91,7.88-1.91,2.5-3.79,1.87-4.63-1.56-1.4-5.74-1.46-11.68-1.36-17.64,0-1.83,0-3.67,0-5.89-3.92,1.28-7.51,2.21-11,3.64-6.39,2.64-12.9,3.38-19.54,3.45-2.69,0-5.38,1.19-8.06,2-.31.08-.73.91-.71,1.37.12,2.94-.55,6,.77,8.81a2,2,0,0,1-1.88,2.93c-2.81,0-5.63-.09-8.43.06-2.51.13-5,.48-7.5.86-1.75.27-2.64-.37-2.9-2.7-.3-2.64-.46-5.31-.68-8,1.23-.9.56-2.17.18-3.11a3.28,3.28,0,0,0-1.6-1.82c-3.95-1.21-8-1.89-11.88-3.46s-7.68-2.84-10.41-7.21A22.71,22.71,0,0,0,394,254.85Zm73,.83a20.91,20.91,0,0,1-10.48,3.8,10.63,10.63,0,0,0-8.78,5.88,11.79,11.79,0,0,0,2.42.23c9.45-1.13,18.69-3.91,27.89-7,1.27-.41,1.55-1.06,1.58-2.76.1-5.2.39-10.39.56-15.59a8.51,8.51,0,0,0-.4-1.93,5.55,5.55,0,0,0-1.3,1.21c-1.6,2.83-2.92,6-4.74,8.51a87.51,87.51,0,0,1-6.74,7.59Z"/><path class="cls-8" d="M97.4,230.94l1.52.31c-.39-2.05-.54-3.66-1.56-5.42-4.23-7.27-6.72-15.28-3.81-24.7a4.5,4.5,0,0,0,0-.83c-.27-.14-.54-.41-.8-.38-4.79.41-9.57.86-14.36,1.31-2.08.2-4.15.53-6.23.6-1.42,0-1.66.54-1.57,2.59q.58,14.27.72,28.57c0,3.39-.4,3.62-2.92,3.79-1.24.09-2.48.29-3.47.41-3,6.37-5.95,12.68-8.92,19-.72,1.54-1.52,3-2.28,4.53l-1.67-1.44c3-2.48,4.15-6.85,6-10.53,1.33-2.71,2.85-5.25,4.09-8A35.8,35.8,0,0,0,63.34,236a2.71,2.71,0,0,1,.75-1.13c.16-.16.46-.07.7-.09,4.15-.31,4.1-.31,4.16-6,.07-6.93.23-13.85.34-20.78a18,18,0,0,0,0-2.2c-.2-2.16-.3-4.16-2.65-4.19-1.74,0-2.56-2.19-2.28-4.64.12-1,.23-2.09.34-3.14a3.57,3.57,0,0,1,.34.81c.62,4.51.62,4.52,3.94,4.71.47,0,.94,0,1.41,0l6.55,0a18.72,18.72,0,0,0,9-1.35c3.07-1.24,6.25-2,9.39-2.94,1.62-.9,1.25-1.92.09-3l-.13-.13-1.73-.37a14.27,14.27,0,0,1-.54-2.09c-.09-.87.12-1.83,0-2.65-.47-2.16-1-4.28-1.65-6.38a13.44,13.44,0,0,0-1-2.12h0l-.78-2.87v0L89.15,174h0l-.4-1.42v0l-1-3.06v0l-.74-3.39-.59-4,0-.08-.23-1.26v-1.45l3-16,.35-2,0,0,.33-.57a1,1,0,0,0,.06-.34c.31-.88,1-1.93.85-2.6a6.94,6.94,0,0,1,.58-4.33v0c0-1.87,0-3.73,0-5.59-.13-1.7-.34-3.39-.38-5.09,0-1.53-.07-2.65-1.63-2.56-1.06.07-1.54-.86-.64-2.22.51-.79,1-1.62,1.47-2.45.76-1.28.68-2-.5-3a32.82,32.82,0,0,1-3.79-4.52l.3-.57v-3l0-1A46.09,46.09,0,0,1,88.73,87c-2.64,1.61-2.55-2.25-3.51-2.82-1.2.42-2.1,1.09-3,1-2.45-.33-4,1.91-3.3,5.18l0,1.82-.13.89.22,1.56v.5a12.4,12.4,0,0,0-.5,1.78c-.38,3-.63,6-1.11,8.89-.14.81-.92,1.42-1.4,2.12a8.8,8.8,0,0,1-.66-2.36c0-6.1.18-12.2.29-18.3.08-8,.22-16.09.22-24.14,0-3.57-.3-7.15-.46-10.72a10.92,10.92,0,0,0-.4-3c-.67-1.42-.3-4.11-2.38-3.94l0-.07-.46-.76-2.47-1.71c1.33-3,1.49-3.07,3.62-1.08a20.35,20.35,0,0,1,3.12,3.67A4.23,4.23,0,0,1,77,48.22c-1,1.37-.61,2.73-.53,4.27.33,6.74.61,13.48.74,20.23.07,3.41-.21,6.83-.31,10.24,0,.79,0,1.58.07,2.39l2.45-.53a16.41,16.41,0,0,1,0-2.71A10,10,0,0,1,80.29,80a11.84,11.84,0,0,1,1.46,1.46,16.39,16.39,0,0,1,1.08,2.29c.59-1.75,1-3.09,1.48-4.32a5.64,5.64,0,0,1,1.13-1.35,6.05,6.05,0,0,1,1,1.79c.29,1.46.36,3,.56,4.83.92-1.33,1.6-2.44,2.38-3.39a7.83,7.83,0,0,1,1.63-1.19,7.89,7.89,0,0,1,.57,2.6A39.23,39.23,0,0,1,90,90.14a23,23,0,0,0-1.6,9.6c.12,2.41.06,4.84,0,7.26,0,1.4.44,2,1.41,1.8,1.87-.35,3.84-.24,4.78-3.33.51-1.68,2.51-1.37,3.18.51a13,13,0,0,1,.71,4,68.36,68.36,0,0,1-1.78,15.6c-.78,3.78-2.59,6.78-3.64,10.24-1.78,5.83-3,12-4.23,18.12a27.66,27.66,0,0,0,.64,13.44c2,6.63,4.06,13.21,6.13,19.79.23.71.87,1.18,1.08,1.89.39,1.34,1,2.89.84,4.14-.53,3.3-1.51,6.47-2.18,9.74-1.19,5.87-1.21,11.51,1.6,16.78,2,3.66,3.64,7.6,5.43,11.42,1.06,2.27.27,4.32-1.74,4.81-.39.1-.69.87-1,1.32h-.29c-.57-.48-1.13-1.4-1.69-1.39-5,.07-10.07.11-15.08.61a8.15,8.15,0,0,1-5.67-1.33c-2.47-1.63-2.76-4.25-.52-6.46,2.59-2.55,5.65-4,8.73-3.72s5.85,1.92,8.77,2.95l-.21.35c-2.45-.73-4.88-1.59-7.35-2.14-3.24-.73-6.16.69-8.74,3.27a4.33,4.33,0,0,0-.94,2.87c.06.68,1,1.27,1.68,1.75a2,2,0,0,0,1.23.26c5.21,0,10.43.09,15.64,0a22,22,0,0,0,4.22-.94l-2-2.39ZM93.7,128c2.5-5.37,2.6-10.92,2.64-16.81C90.09,117.32,91.42,120.51,93.7,128Z"/><path class="cls-8" d="M300,232.18c-.26-5.66-.71-11.31-.73-17s.48-11.05.65-16.58c.19-6.08.27-12.18.4-18.27l0,.07a7.17,7.17,0,0,0,.27-1.5c-.07-3.3-.25-6.6-.26-9.9,0-5.29.08-10.57.12-15.86,0-3.88,0-7.76.11-11.64.23-9.26.74-18.53.69-27.79,0-4.42-1.06-8.84-1.64-13.26v0a11.75,11.75,0,0,1,1.69,3.18,64.44,64.44,0,0,1,.89,18.62c-.24,2.25-.4,4.53-.42,6.8q-.22,21.78-.37,43.55c0,3.41.34,3.77,2.68,4.46,4.47,1.33,8.07,4.18,9.15,10.82.23,1.42.76,1.8,1.74,1.85,5.21.29,10.41.64,15.62,1,2.21.14,4.43.47,6.64.42,2.4-.06,2.43-.7,2.28-4-.24-5.2-.29-10.44-.08-15.64.16-3.91.73-4.3,5-4.81,3.82-.46,7.64-.76,11.47-1,3-.19,3.93,1.15,4,5.13.12,7.74,0,15.51.43,23.22.39,7.1,1.18,14.2,2.1,21.22.58,4.4,2.3,7.93,5.65,9.69,2.9,1.53,5.64,3.6,8.54,5.15a12.61,12.61,0,0,0,4.55,1.21c2.87.3,5.75.28,8.62.56,1.68.17,2.49-.48,2.24-2.94s-.43-5-.56-7.51a16.34,16.34,0,0,1,.27-2.49l1.74.68-1,.54c.11,3.25.32,6.09.28,8.93-.08,5.58,2.35,6.26,5.53,6.15,2.3-.08,4.59-.59,6.88-.89,4.24-.54,8.48-1,12.71-1.65a2.14,2.14,0,0,0,1.31-1.5c-.2-3.87-.56-7.73-.87-11.59.38-8.25.26-16.45-1.55-24.6a89.9,89.9,0,0,0-1.95,9.34c-.65,4.26-1.16,8.56-1.73,12.84,0-.9-.14-1.81-.09-2.7.41-8.44,1.28-16.73,3.91-24.54a23.22,23.22,0,0,0,.75-5.7c.08-1.44.29-2.55,1.43-2.94l0,0a57.43,57.43,0,0,0-.64,6.76c.07,4.31.44,8.61.66,12.91.29,5.48.48,11,.84,16.44.38,5.76,1.15,11.5-.24,17.2-.16-.09-.34-.29-.49-.26-4.12.74-8.23,1.81-12.38,2.18-4.32.39-8.71.83-12.95-1.07-1.49-1.69-3.13-1.86-5.08-1.87-5.39-.05-10.9.63-16.06-2.57-1.51-.93-3.34-1-4.73-2.19a19.45,19.45,0,0,1-7.48-15c-.75-14.13-1.86-28.23-2.74-42.34-.15-2.41-1.39-2.84-2.55-2.88-4.2-.17-8.41-.09-12.62,0-1.43,0-2.37.8-2.22,3.14.33,5,.45,10.1.86,15.12.36,4.34-1.8,7-4.88,6.39s-6.24-.08-9.37-.25-6.09-.63-9.15-.88c-1.29-.11-2.6,0-4.16,0,.11,2.92.15,5.66.38,8.36,0,.41.9,1,1.38,1,1.66,0,2.55,1.11,3.28,3.09a90.93,90.93,0,0,1,5,21.52,2.78,2.78,0,0,1-.82,2,6.66,6.66,0,0,1-3.07,1.09c-3.55.16-7.1.24-10.64.12-2-.06-3.91-.73-5.88-.85C301.47,228.41,300.06,229.3,300,232.18Zm7.88-40c0-.15,0-.29,0-.44a7.26,7.26,0,0,0,2.44-.63,2.83,2.83,0,0,0,1.12-1.95c-.69-6.14-4.31-10.27-8.61-10.27-1.07,0-1.33.59-1.53,2-.57,4,0,7.9,0,11.83-.06,9-.6,17.91-.86,26.87-.07,2.39.18,4.8.27,7.18,1.29-.08,2.3-.18,3.32-.19,5.21,0,10.43-.1,15.65,0,1.57,0,2.05-.64,1.58-2.72-1.15-5.12-2.08-10.34-3.44-15.34-.48-1.75-.75-4.46-3-4.5-2,0-2.51-.87-2.55-3.53s0-5.35,0-8.28Z"/><path class="cls-9" d="M702.68,238c-.83.71-1.62,1.86-2.52,2.07-3.76.9-7.55,1.54-11.34,2.21a38.22,38.22,0,0,1-5.88.78c-6.12.1-12.24,0-18.36.07-2.44.05-4.87.61-7.31.8a15.51,15.51,0,0,1-3-.33c-1-.13-1.64.16-1.72,1.91-.27,5.42-.66,10.83-1.07,16.23a10.4,10.4,0,0,1-.69,2.27c-.56-.39-1.55-.69-1.6-1.18a53.33,53.33,0,0,1-.07-5.52c-.17,4.46,0,4.93,2,5.21V243.91c-2-.32-2.21-.12-2.09,2.58.06,1.46.27,2.9.4,4.35q-.14,3.24-.29,6.46c-.53-3.83-1-7.68-1.65-11.48-.12-.67-.88-1.57-1.38-1.62-2-.18-4,0-6-.09-1.27,0-1.27,1.06-1.27,2.28,0,4.73.26,9.5-.07,14.19a111.42,111.42,0,0,1-2,13.81c-.64,3.27-2.78,4.76-4.78,4.34-1.62-.35-2.17-1.56-2.23-3.67-.18-5.68-.43-11.36-.72-17-.18-3.72-.47-7.44-.72-11.15-.09-1.4-.5-2.15-1.72-2.1-8.26.33-16.52.58-24.78.82-5.27.15-10.54.37-15.82.3-5-.07-10-.7-15.08-.69-4.6,0-9.2.53-13.81.82,2.67-.53,5.33-1.42,8-1.52,7.86-.3,15.74-.38,23.6-.37,12.56,0,25.12.08,37.65-1.39,1.74-.2,2-1.25,2-3l.3-4.42c.12,1.85.16,3.72.39,5.54.06.48.68.83,1,1.24,1.8,0,3.59,0,5.39,0,1.3,0,2-.84,1.76-2.79-.17-1.69-.12-3.41-.16-5.11l.18-6.48c0-1,0-2.09,0-3.14.29-4.09.63-8.18.85-12.28.33-6.15.72-12.31.83-18.47s-.2-12.2-1.91-18c-.5-1.7-1.13-3.51-2.92-3.25l0-.05c.23-1.61,1.09-2.21,2.13-1.92a40.13,40.13,0,0,1,8.13,2.68c1.29.68,2.29,2.75,3.17,4.43,1.84,3.5,3.46,7.23,5.27,10.76a55.94,55.94,0,0,0,10.44,13.93c4.47,4.5,8.72,9.4,13.14,14,3.86,4,8.32,6.27,13.14,6.56,5.31.33,10.64.17,16,0a54.62,54.62,0,0,0,8-1,7,7,0,0,0,3.18-1.47c1.7-1.36,3.15-1.86,4.38.8a15.6,15.6,0,0,1-9,3.63c-7.57.21-15.14.35-22.7.53a12,12,0,0,1-8.85-3.44c-4.82-4.57-9.63-9.15-14.31-14-3.82-3.93-7.43-8.22-11.14-12.36l-2-2.53c.22,4.36.41,8,.6,11.61a349,349,0,0,1-1.48,35.88c-.15,1.78.52,2,1.6,1.94,5.21-.51,10.43-1,15.64-1.44,8.33-.7,16.67-1.31,25-2C697.21,238.93,699.94,238.42,702.68,238Zm-51.54-46.39h0c-.4-1.11-.79-2.23-1.19-3.34v-.59a12.22,12.22,0,0,0-.43-3c-1.12-2.58-2.42-5-3.61-7.52-2.14-4.58-5.55-5-9.44-5.47l1.76,4.38a.26.26,0,0,0,.06.23q.66,3.08,1.33,6.15l0,.9c0,1.3-.1,2.61,0,3.9.71,10.62-.32,21.14-.81,31.7-.33,7.13-.54,14.28-.7,21.43,0,.77.65,2.26,1,2.26,4.1-.05,8.2-.31,12.52-.53.16-5.9.32-11.5.48-17.1l.38-5.42c.11-6.37.23-12.74.32-19.11a7,7,0,0,0-.34-1.6c0-.26,0-.51,0-.77C652.61,195.75,652.5,193.45,651.14,191.65Zm-21.73,52.6c0,1.31,0,2.52,0,3.71.27,5.69.52,11.38.88,17,.21,3.13.55,6.25,1,9.33.31,2.16,1.74,2.75,3,1.3a5.81,5.81,0,0,0,1.29-2.56,55,55,0,0,0,1.11-8.09c.23-6.67.19-13.35.34-20,0-1.55-.41-1.8-1.39-1.64C633.65,243.66,631.69,243.91,629.41,244.25Z"/><path class="cls-8" d="M251.9,278.41l-.3-7.33,1.69,4a10.55,10.55,0,0,0,.33-1.49c.2-4.11.47-8.22.53-12.33.08-5.55-.06-11.1,0-16.65a3.57,3.57,0,0,1,1.16-2.24c3.1-2.66,3.91-5.57,3.38-10.76a59.07,59.07,0,0,1-.17-10.13,6.27,6.27,0,0,1,2-3.69c1.68-1.5,1.19-3.8,1.43-5.74.26-2.14,0-4.4.08-6.6a20.92,20.92,0,0,1,.35-3.37c.34-1.75,1-1.91,2.07-.86a3.28,3.28,0,0,0,2.16,1.18c3.15-.23,6.3-.69,9.43-1.07.09-.2.22-.37.19-.46-1.1-3.71.38-7.31.25-11-.33-9.59-.51-19.2-.77-28.8-.09-3.42-.26-6.83-.33-10.24-.15-7.17-.35-14.34-.34-21.51,0-10,.24-20.06.31-30.09,0-1.8.54-2.18,1.73-2.18,2.62,0,3-.56,3-4.16q-.12-8.79-.35-17.59c-.1-3.49.41-6.12,3.06-8,1.31-.93,2.38-3.8,2.6-6,.48-4.82.39-9.75.44-14.63a3.08,3.08,0,0,0-.79-2.1c-1.17-.69-1.38-1.8-1.35-3.32.05-3.18.14-6.38,0-9.55-.12-2.33.42-3.49,2.14-3.67a4,4,0,0,0,1.15-.57c1.47,1.45,2.87.6,4.28-.18,2.47,1.29,2.81,3.56,2.34,7a107.32,107.32,0,0,0-.46,11.66c-.15,5.2-.3,10.4-.33,15.6a3.06,3.06,0,0,0,1,2.22c3.29,1.2,4.12,4.64,4.29,8.53.34,7.53.5,15.08.77,22.63.06,1.69.25,3.38.38,5.08l0,0L298,102.28c-.22-1.41-.34-2.21-.53-3.48-1.51,4.48-4.24,3.94-6.65,4-1,0-1.12.27-1.1,1.34,0,2,.05,4.08.07,6.12l.33,3.44a.6.6,0,0,1,.05.44l-.32,1.49-.06-.9-.32-.57,0,0c-.07-.48-.15-1-.23-1.44-.13-2.58-.29-5.16-.38-7.74-.05-1.4-.33-2.12-1.56-2.13a15.34,15.34,0,0,1-3.65-.94c.36-.24.71-.71,1.06-.7,1.21,0,2.41.21,3.76.35a20.6,20.6,0,0,0-.52-3c-.21-.62-.7-1.5-1.07-1.51a39.78,39.78,0,0,0-4.59.37V101a5.58,5.58,0,0,1-.73-1c-.91-1.94-2.94-3-4.46-2.15a2.82,2.82,0,0,0-.89,1.94c0,10.77.08,21.53.3,32.29.26,12.87.74,25.74,1.05,38.61.19,7.39.24,14.78.35,22.17,0,1.23,0,2.45.05,3.68.18,4.65.19,4.65,3.41,5.82,3.95,1.45,6.34,9.58,4.25,14.49-.91,2.14-4.58,2.52-5.69.38a37.2,37.2,0,0,1-2.3-6,21.41,21.41,0,0,1-.51-3.59c-.14-1.12-.28-2.24-.48-3.78H264.44c0,.83-.1,2-.16,3.17-.18,3.32-.23,6.67-.64,9.93a4.85,4.85,0,0,1-1.82,3c-1.14.77-1.48,1.72-1.67,3.33a23.45,23.45,0,0,0,.58,9.07c1.12,4.25.34,7.74-2.52,10.05-2.36,1.89-2.43,4.36-2.39,7.59.1,7.07-.07,14.15-.43,21.2-.09,1.81-1.31,3.51-2,5.29a14.65,14.65,0,0,0-.39,1.93ZM297.62,98.53c0-.68.13-1.36.1-2-.35-7.95-.69-15.9-1.09-23.85-.16-3.26-1.22-5.62-3.68-6.77a3.68,3.68,0,0,1-1.58-2.67c.18-8,.58-16,.85-23.93.1-3.21,0-6.44,0-9.9-2.31,0-4.46-.07-6.6.06-.38,0-1.05.86-1.06,1.34-.09,3.9-.05,7.8-.05,11.68,2,.43,2.52,1.79,2.47,4-.09,5,0,10-.07,14.93a8.13,8.13,0,0,1-.93,3.75c-1,1.62-2.36,2.78-3.41,4.32a6.24,6.24,0,0,0-1.24,3.21c0,5.86.23,11.72.4,17.58.05,2,.18,4,.27,5.86,3.22-.42,6.24-.86,9.26-1.22C295.22,94.44,296.14,95,297.62,98.53ZM278.3,204.11c.25,2.47.35,4.82.77,7.06a12.37,12.37,0,0,0,1.59,4,1.93,1.93,0,0,0,3.55-.2c.86-1.91.77-6.36-.3-8.17C282.53,204.46,280.68,203.65,278.3,204.11Zm10.95-102.73c1.82-.33,3.54-.56,5.22-1a2,2,0,0,0,1.08-1.5c0-.59-.58-1.64-1-1.7-2-.29-4.07-.33-6.26-.47C288.69,98.54,288.94,99.79,289.25,101.38Z"/><path class="cls-8" d="M120.91,270.65c-1.16-1.87-2.35-3.72-3.49-5.62a44.19,44.19,0,0,1-3-5.3c-1.07-2.47-2.58-3.37-4.56-3.19-2.56.23-5.1.45-7.4-1.57-.11-.67-.23-1.34-.34-2,3.64,2.35,7.48,1.27,11,1.32,1.3,1.66,2.47,3.11,3.6,4.62a4.44,4.44,0,0,1,.37,1.15,27.75,27.75,0,0,0,1.66,4.71c2.93,5,6.93,2.84,10.07-.7,4.31-4.85,6-11.37,6.59-18.65.37-4.43.83-8.87,1.48-13.24.57-3.74,3.88-6.57,6.76-6.17.52.08,1,.2,1.73.34,0-4.23,0-8.28,0-12.33q0-7.19,0-14.37c0-1.71,0-3.43.12-5.13.12-1.92.54-3.34,2.37-3.41,4.3-.16,8.6-.78,12.91-.82,1.88,0,2.23-1.24,2.36-3.19s.24-4.06.46-6.07c.16-1.54.53-2.25,2.08-2.25,6.17,0,12.33-.49,18.5-.71a18.73,18.73,0,0,1,4.46.51c.28.06.71,1.46.67,1.5-1.31,1.29-.61,3.05-.48,4.5.52,5.72.78,11.56,1.88,17.09,1.73,8.59,6.31,14,12.55,16.19,2.16.76,4.7-.6,7.08-.87a21.14,21.14,0,0,1,5.38-.23c2.31.34,3,3.05,3.74,5.62,1.19,4.35,2.39,8.68,3.67,13a15.36,15.36,0,0,0,1.36,2.72l.5-.09a84.91,84.91,0,0,0,1.63-9.07c.36-4.85.28-9.76.45-14.63a18.48,18.48,0,0,1,.52-2.94c.24,9.92,1.19,19.89-1.19,29.61-.49,2-1,2.25-2.24.76-1.48-4.05-3-8.09-4.45-12.16-.91-2.56-1.71-5.19-2.67-7.71-.57-1.48-1.31-2.37-2.86-1.93a35,35,0,0,1-8.72,1.48,7.59,7.59,0,0,1-5.09-1.86c-3-2.76-6.19-5.63-8.41-9.41-1.66-2.83-2.2-7.08-2.74-10.83-.69-4.78-.89-9.69-1.27-14.55-.09-1.2-.09-2.42-.15-4H164.87c-.31,3-.65,6.24-1,9.49,3.92.91,6.8,5.83,6.81,11.47,0,6.27-.35,12.55-.76,18.8a15,15,0,0,1-1.53,4.61c-.17.41-1,.85-1.15.67-.71-.79-1.8-1.76-1.84-2.73-.39-9.34-3.05-18.32-2.27-27.85.22-2.7-.58-3.55-2.6-3.5-3.9.08-7.81.12-11.71.33-1.39.07-2.33,1.14-2.28,3.23.09,3.65.19,7.31.33,10.95.25,6.24.5,12.47.8,18.69a14.83,14.83,0,0,0,.61,3.48c1.22,4,2.57,7.88,3.73,11.89.2.68-.31,1.75-.49,2.63-.58-.51-1.49-.86-1.68-1.57-.76-2.73-1.25-5.59-1.91-8.37-.69-2.94-2.53-5.08-4.33-5.19a5.19,5.19,0,0,0-5.09,4.12c-.57,2.44-.66,5.09-1,7.64-.76,5.8-.79,11.72-2.41,17.39-1.83,6.39-5.11,10.39-9.52,13.08a7.36,7.36,0,0,0-.7.55Zm43.08-78c.64,10.73,1.31,21.18,3.43,31.37a6.23,6.23,0,0,0,.74-2.55c.27-6.26.53-12.53.72-18.79a15.44,15.44,0,0,0-.36-4.1C167.81,195.73,166.73,193.27,164,192.6Z"/><path class="cls-10" d="M653.7,204.83c-.19-3.63-.38-7.25-.6-11.61l2,2.53a19.6,19.6,0,0,0,1.88,3.18c4.72,5.41,9.35,11,14.32,16,4.18,4.2,8.54,8.36,13.25,11.21,6.24,3.78,13.13,2.73,19.73,1.9,5.29-.67,10.5-2.56,15.75-3.82.65-.16,1.36.25,2.05.39.81,3.06.79,3.13-1.42,4.11-5,2.23-10.11,4.37-15.53,4.13a13.68,13.68,0,0,0-3.32.61l.74,2.33c-2.2.37-4.39.79-6.59,1.1-6.8.94-13.59,2-20.4,2.7-7.27.76-14.56,1.2-22.2,1.8,0-.73,0-2,0-3.21.31-8,.74-15.92.93-23.89C654.37,211.13,653.91,208,653.7,204.83Zm38.2,28.07a30.25,30.25,0,0,1-5.41-1.68c-11.42-5.95-21-15.57-29.41-27.49a9.91,9.91,0,0,0-.74-.86c.36,11.38.71,22.73,1.07,34.28l35.2-3.37,6.63-.65v-.23Z"/><path class="cls-11" d="M418.23,219.62c.31,3.86.67,7.72.87,11.59a2.14,2.14,0,0,1-1.31,1.5c-4.23.64-8.47,1.11-12.71,1.65-2.29.3-4.58.81-6.88.89-3.18.11-5.61-.57-5.53-6.15,0-2.84-.17-5.68-.28-8.93l1-.54.72-.09.17,0,.17-.05,17.71-.5.75,0Z"/><path class="cls-11" d="M394,254.85A22.71,22.71,0,0,1,395.7,257c2.73,4.37,6.67,5.69,10.41,7.21s7.93,2.25,11.88,3.46a3.28,3.28,0,0,1,1.6,1.82c.38.94,1.05,2.21-.18,3.11-4.72.23-9.44.48-14.16.67-3.41.14-6.81.26-10.22.25-.64,0-1.29-.64-1.93-1Q393.52,263.69,394,254.85Z"/><path class="cls-12" d="M628.38,239.72c0,1.77-.22,2.82-2,3-12.53,1.47-25.09,1.39-37.65,1.39-7.86,0-15.74.07-23.6.37-2.68.1-5.34,1-8,1.52L537.85,248l-7.59.23c1.71-1.15,3.37-2.48,5.42-2.16a4.63,4.63,0,0,0,1.7-.38c5.49-.52,11-1,16.47-1.58,1.84-.2,3.67-.66,5.5-1l1.19-.89,1.39-1.16c.26.18.69.6.76.51a26.49,26.49,0,0,0,1.45-2.22l.37-.1.74,1c-.54.6-1.09,1.19-2.07,2.26a11.12,11.12,0,0,0,2.5.65c2.87-.08,5.74-.38,8.62-.4,2.33,0,4.67.39,7,.34q19.26-.37,38.53-.92a34.1,34.1,0,0,0,6.23-.93,2.19,2.19,0,0,0,1-1.67c-.21-12.79-.54-25.57-.73-38.36,0-2.72.39-5.45.61-8.19,0,5.71,0,11.41.06,17.11,0,3.73.14,7.46.22,11.19.13,2.4.26,4.79.41,7.19Q628,234.11,628.38,239.72Z"/><path class="cls-8" d="M96.34,260.28c-.08.5,0,1.3-.26,1.46a41.22,41.22,0,0,1-5.89,4c-3.71,1.83-7.56,3.19-11.3,4.94-2.51,1.18-5,2.27-7.68,1.83-7-1.17-14.12-1.23-20.8-5.39a160.81,160.81,0,0,0-17.25-8.78c-2-.93-4.21-1.06-6.32-1.48a53.17,53.17,0,0,0-5.69-.95A8.93,8.93,0,0,0,14,258.42a2.51,2.51,0,0,1-1,.4A5.78,5.78,0,0,1,18.43,255,35.56,35.56,0,0,1,40,259.5c3.69,2.11,7.42,4.08,11.15,6.06a9.82,9.82,0,0,0,1.91.59c1.52,1.65,3,3.11,5.2,2.07.49-.23,1.21.53,1.85.71s1.37.24,2.05.38a7.12,7.12,0,0,1,2.14.51c1.82,1,3.46,2.09,5.63,1.05,1.79-.85,3.86-.61,5.8-.84a5.15,5.15,0,0,0,1.25-.11c3.1-1.16,6.3-2,9.24-3.67,2.59-1.48,4.84-4,7.34-5.85C94.33,259.88,95.42,260.29,96.34,260.28Z"/><path class="cls-8" d="M64.69,191c1.06-3.55,2.19-7.07,3.18-10.66a124.24,124.24,0,0,0,4.73-26c.91-14.86,1.73-29.72,1.35-44.64-.18-6.83-.87-13.64-1.32-20.47-.28-4.29-.49-8.58-.82-12.87-.12-1.57-.47-3.12-.72-4.67.27.16.7.23.77.49.27,1,.41,2,.6,3,.29,3.23.57,6.45.86,9.67l.21,1.67.09,1.28c0,1.54-.08,3.09,0,4.61.7,8.44,1.45,16.88,2.18,25.31l-.33,1.44,0,1,.3,5.88,0,.89-.28,6,0,1.47q-.87,11.28-1.73,22.55l-.11,1-.36,4.93a.31.31,0,0,0,0,.31l-.78,5,0,0-.37,1.5h0L71.7,172l0-.07L71.06,173l-.29,1.57h0c-1.29,4.07-2.91,8-3.73,12.27C66.62,189,66.1,190.21,64.69,191Z"/><path class="cls-13" d="M722.09,224.59c-.69-.14-1.4-.55-2.05-.39-5.25,1.26-10.46,3.15-15.75,3.82-6.6.83-13.49,1.88-19.73-1.9-4.71-2.85-9.07-7-13.25-11.21-5-5-9.6-10.57-14.32-16a19.6,19.6,0,0,1-1.88-3.18c3.71,4.14,7.32,8.43,11.14,12.36,4.68,4.83,9.49,9.41,14.31,14a12,12,0,0,0,8.85,3.44c7.56-.18,15.13-.32,22.7-.53a15.6,15.6,0,0,0,9-3.63C722.55,221.81,722.43,223.14,722.09,224.59Z"/><path class="cls-13" d="M537.38,245.66a4.63,4.63,0,0,1-1.7.38c-2-.32-3.71,1-5.42,2.16-3.47.63-7,1.15-10.41,1.94S513,252,509.56,252.92l-2.79,1a45.88,45.88,0,0,1-7.22,1c-2.6,0-2.6-.28-2.61-3.86,0-4.52,0-9,0-13.56a7.58,7.58,0,0,1,.8-2.28c1.89.72,3.79,1.4,5.67,2.17,3.2,1.33,6.42,2.62,9.59,4.09,6.21,2.88,12.46,5.17,19.15,3.89C533.88,245.05,535.65,245.54,537.38,245.66ZM522,248.11v-.86c-1.29-.59-2.58-1.2-3.88-1.76-6.17-2.63-12.36-5.19-18.51-7.89-1.76-.78-2,.25-1.87,2.2.17,3.74.27,7.48.39,11.22.09,2.69.49,3.3,2.41,2.8C507.68,252,514.83,250,522,248.11Z"/><path class="cls-8" d="M249.75,192.16c-.1-2.52-.23-5-.28-7.56-.14-8.16-.36-16.31-.34-24.47,0-4.63.65-9.27.58-13.9-.13-8.14-.6-16.28-.92-24.43,0-1,0-2.11-.08-3.17a13,13,0,0,1,1,2.09,57.94,57.94,0,0,1,2.05,18.85c-.62,12-.9,23.94-1.3,35.92-.15,4.71-.22,9.42-.37,14.12A24.44,24.44,0,0,1,249.75,192.16Z"/><path class="cls-13" d="M653.7,204.83c.21,3.15.67,6.3.6,9.44-.19,8-.62,15.93-.93,23.89,0,1.24,0,2.48,0,3.21,7.64-.6,14.93-1,22.2-1.8,6.81-.72,13.6-1.76,20.4-2.7,2.2-.31,4.39-.73,6.59-1.1l.12,2.27c-2.74.38-5.47.89-8.22,1.13-8.33.73-16.67,1.34-25,2-5.21.44-10.43.93-15.64,1.44-1.08.1-1.75-.16-1.6-1.94A349,349,0,0,0,653.7,204.83Z"/><path class="cls-14" d="M291.22,27.29c-1.41.78-2.81,1.63-4.28.18-1.08-1.64-2.21-3.22-3.23-4.92a5.28,5.28,0,0,1-.42-5.14c.63-1.44,1.51-2.09,2.64-1.67a9.76,9.76,0,0,1,2.18,1.59c.47-.41,1.09-1.33,1.81-1.51s2-.15,2.49.52a6.51,6.51,0,0,1,.76,5.65C292.6,23.8,291.88,25.52,291.22,27.29ZM289,25.54c1.83-2,2.67-5,2.18-6.85a1.42,1.42,0,0,0-.72-.83c-.13-.06-.53.41-.57.7C289.62,20.68,289.37,22.81,289,25.54Z"/><path class="cls-15" d="M418.23,219.62l-5.28-.55-.06-.93c0-.31.07-.63.11-.94.57-4.28,1.08-8.58,1.73-12.84a89.9,89.9,0,0,1,1.95-9.34C418.49,203.17,418.61,211.37,418.23,219.62Z"/><path class="cls-8" d="M227.77,151.46c0,10.81,0,21.63,0,32.44,0,5.53-.17,11-.27,16.57-.28-2.75-.78-5.5-.81-8.26-.1-9-.15-18.05,0-27.06C226.8,160.58,227.4,156,227.77,151.46Z"/><path class="cls-16" d="M69.74,42.86l2.47,1.71,0,1-.41,0-.11-.08.1.09q.5,9.75,1,19.5a3.91,3.91,0,0,1-.25,1.09l-1.79-.53c-.41-4.81-.83-9.61-1.21-14.42-.1-1.2-.1-2.41-.14-3.62.09-1.49.18-3,.28-4.47l.09-.11Z"/><path class="cls-12" d="M496.23,258.82c.16,4.91.31,9.81.48,14.72,0,.87.16,1.74.24,2.61s0,1.44,0,2.16c-.6,1.06-1,.52-1.23-.37A27.19,27.19,0,0,1,495,274c-.46-4.39-.83-8.79-1.23-13.18,0-1.57.08-3,1.14-3.43Z"/><path class="cls-9" d="M509.56,252.92c3.43-.94,6.84-2,10.29-2.78s6.94-1.31,10.41-1.94l7.59-.23a92.25,92.25,0,0,1-9.07,2.46c-5.61,1-11.26,1.61-16.89,2.36C511.12,252.9,510.34,252.88,509.56,252.92Z"/><path class="cls-17" d="M64.69,191c1.41-.74,1.93-1.95,2.35-4.14.82-4.24,2.44-8.2,3.73-12.27-.17,1.43-.27,2.88-.54,4.27a17.74,17.74,0,0,1-.92,2.56l-.44,2a.47.47,0,0,0,0,.31,1.4,1.4,0,0,0-.25.35c-1.14,2.58-.75,6.12-2.78,8.19-.21.21-.12,1.09-.07,1.64.3,3.18,1,4.06,3.56,4.7l1,.85c-.47,0-.94.06-1.41,0-3.32-.19-3.32-.2-3.94-4.71a3.57,3.57,0,0,0-.34-.81C64.68,192.92,64.68,191.93,64.69,191Z"/><path class="cls-8" d="M226.7,126c.19,2.08.46,4.16.54,6.25.2,5.6.33,11.2.49,16.8-.23-.41-.64-.8-.66-1.23q-.44-10-.74-20A7.71,7.71,0,0,1,226.7,126Z"/><path class="cls-8" d="M234.24,108.32a22.42,22.42,0,0,1-3.5.58c-3.3,0-3.3,0-3.75,4.33-1.2,0-1.7-.82-1.19-2.35,1.18-3.48,5.6-5.29,8.09-3.35C234.06,107.66,234.13,108.05,234.24,108.32Z"/><path class="cls-18" d="M70.75,65.65l1.79.53q0,4.48-.08,8.95c-.19-1-.33-2-.6-3-.07-.26-.5-.33-.77-.49Z"/><path class="cls-9" d="M99.32,237.25h.29l.36,12.31A26.12,26.12,0,0,1,99.32,237.25Z"/><path class="cls-8" d="M69.68,43.14c-.1,1.49-.19,3-.28,4.47C68.84,46.05,68.36,44.49,69.68,43.14Z"/><path class="cls-8" d="M102.14,253c-.64-.8-1.27-1.61-1.91-2.42C100.87,251.36,101.5,252.17,102.14,253Z"/><path class="cls-8" d="M227.59,208.35c0,.93,0,1.87,0,2.8A1.86,1.86,0,0,1,227.59,208.35Z"/><path class="cls-8" d="M13,258.84c-.34.34-.69.67-1,1C12.28,259.51,12.63,259.18,13,258.84Z"/><path class="cls-8" d="M412.89,218.14l.06.93-.75,0Z"/><path class="cls-8" d="M11.18,260.79c-.37.33-.74.66-1.12,1Z"/><path class="cls-8" d="M11.94,259.83c-.25.31-.5.63-.74.95Z"/><path class="cls-8" d="M299.25,100c.11.16.23.31.35.47v0l-.37-.49Z"/><path class="cls-8" d="M394.49,219.53l-.17.05-.17,0Z"/><path class="cls-11" d="M393.83,235.52c4.24,1.9,8.63,1.46,12.95,1.07,4.15-.37,8.26-1.44,12.38-2.18.15,0,.33.17.49.26,0,.66,0,1.33,0,2a47,47,0,0,0-.43,5c.11,6.7.33,13.39.5,20.09.25,1.9-.31,2.83-1.75,2.47-5.23-1.3-10.47-2.55-15.68-4-3.08-.85-5.36-3.42-7.11-6.93-.27-.53-.91-.71-1.38-1-.12-5-.25-9.93-.33-14.89A8.68,8.68,0,0,1,393.83,235.52Z"/><path class="cls-19" d="M289.88,115.67c.1-.5.21-1,.32-1.49.12.69.29,1.36.35,2,.24,2.6.45,5.21.66,7.81l-.52,1.39a6.84,6.84,0,0,0-.58,1.64c-.9,11.19-3.41,21.83-5.83,32.51-.89,3.94-1.54,8-2.35,12a38.15,38.15,0,0,1-1.95,6.8,17.23,17.23,0,0,1,.17-1.79c1.17-5.8,2.38-11.58,3.51-17.38q1.83-9.41,3.53-18.85c1.25-6.91,2.58-13.82,2.7-21C289.91,118.11,289.88,116.89,289.88,115.67Zm.45,8.06h.09v-.89h-.09Z"/><path class="cls-1" d="M290.69,125.43c.18-.46.35-.93.52-1.39q.41,9.11.81,18.21a122.39,122.39,0,0,0,.69,12.32c.81,5.51,2.12,10.89,3.29,16.3.8,3.69,2,7.08,4.3,9.56l0-.07c-1.7,1-2.25-1.18-3.25-2.13a1.38,1.38,0,0,1-.24-.64c-1.28-6.84-4.51-12.79-5-20-.21-3.36-.45-6.72-.55-10.09-.19-5.86-.28-11.72-.41-17.58l0-.62C290.82,128,290.75,126.72,290.69,125.43Z"/><path class="cls-20" d="M282.3,101V97.44a39.78,39.78,0,0,1,4.59-.37c.37,0,.86.89,1.07,1.51a20.6,20.6,0,0,1,.52,3c-1.35-.14-2.55-.33-3.76-.35-.35,0-.7.46-1.06.7Z"/><path class="cls-19" d="M289.25,112.74c.08.48.16,1,.23,1.44Z"/><path class="cls-19" d="M290.88,129.29l0,.62a3.25,3.25,0,0,1-.11-.42C290.79,129.43,290.85,129.36,290.88,129.29Z"/><path class="cls-19" d="M289.5,114.2c.1.19.21.38.32.57C289.71,114.58,289.6,114.39,289.5,114.2Z"/><path class="cls-8" d="M93.86,227.91a10.83,10.83,0,0,1,2.7,1c.42.29.57,1.33.84,2h0l-3.76-2.68Z"/><path class="cls-15" d="M419.67,236.67c0-.67,0-1.34,0-2,1.39-5.7.62-11.44.24-17.2-.36-5.47-.55-11-.84-16.44-.22-4.3-.59-8.6-.66-12.91a57.43,57.43,0,0,1,.64-6.76c1.52-.27,3-.67,4.56-.79,3.47-.27,7-.51,10.44-.56,2.61,0,2.94.28,3.22,3.78.75,9.3,1.6,18.6,1.95,27.93.47,12.37.56,24.77.69,37.16.06,5-.12,9.95-.36,14.92-.12,2.65-.74,5.26-.88,7.91a25.62,25.62,0,0,0,.35,5.81c.32,1.87-.16,2.39-1.38,2.43-2.69.08-5.38.09-8.07.32a44.39,44.39,0,0,0-5.68,1c-1.54.34-2.6,0-2.75-2.47-.21-3.55-.52-7.09-.79-10.63l2.31-.56,15.13-.21,0-.61H422.64c-1.38-.37-2.26-1.19-2.19-3.4a38.57,38.57,0,0,0-.36-4.53Z"/><path class="cls-13" d="M496.23,258.82l-1.36-1.41c-1.06.38-1.15,1.86-1.14,3.43-.84-5.66-1.66-11.32-2.54-17-.16-1.08-.53-2.11-1-3.87a8.62,8.62,0,0,0-.32,1.88c.64,3.63,1.33,7.25,2,10.88.28,1.62.3,2.79-1.47,2.74a22.65,22.65,0,0,0-5,.94c0,6.16.07,12.17,0,18.17a41,41,0,0,1-.76,7.2c-.19,1-1.13,1.7-1.74,2.53a7.71,7.71,0,0,1-1.55-2.3,24.78,24.78,0,0,1-.87-5.94c0-12.64,0-25.29.38-37.91.15-5.86,1-11.68,1.61-17.85a6.81,6.81,0,0,1,1.16.7,5.88,5.88,0,0,1,.58.86c2.8-2.51,7.37-2.28,9.51.63a13.64,13.64,0,0,1,1.2,3.34c-.05.05-.09.13-.14.14s-.15,0-.17-.05c-1.8-4.18-5.29-5.95-8.62-4.3-.23.12-.32.74-.47,1.13a7.29,7.29,0,0,0,1,1.84c2.27,2.14,4.59,4.17,6.89,6.25s2.09,4.9,2.12,8C495.59,245.56,496,252.19,496.23,258.82Zm-11.5-18.59L484.9,255l1-.05q-.41-7.38-.8-14.77l.18-1a3.76,3.76,0,0,1,.51,1.15c.18,2.59.26,5.19.45,7.78.1,1.45.32,2.89.52,4.32.25,1.77,1.11,1.57,2.07,1.19s1.77-.3,1.42-2.26c-1-5.29-1.69-10.66-2.68-15.94a54.75,54.75,0,0,0-1.92-6.15l-.38.2c0,2.63,0,5.27,0,7.9q-.32-3.15-.65-6.3l-.34,0Zm-2.81,19c-.13,3.9-.37,7.79-.36,11.69a67,67,0,0,0,.62,7.48c.06.53.6.95.92,1.42a7.43,7.43,0,0,0,.85-1.63,7.67,7.67,0,0,0,.08-1.93l-.39-17.05.09-2.26a6.43,6.43,0,0,0,.27-1.39q-.24-9.4-.54-18.81c0-.79-.18-1.58-.28-2.37l-.2,0-.12.93-.28.53a3.54,3.54,0,0,0-.36,1.05c-.25,5.08-.52,10.16-.68,15.24a45.17,45.17,0,0,0,.34,4.78C481.89,257.75,481.91,258.51,481.92,259.27Zm12.43-7.44.69-.11c0-1.16.16-2.33.1-3.48-.19-3.24-.47-6.48-.67-9.72-.28-4.48-3.39-9.48-6.61-10.64Q491.09,239.82,494.35,251.83ZM482.85,231h-.16v1.76h.16Z"/><path class="cls-13" d="M565.25,240.21l-.74-1c3.71-2.94,7.4-5.94,11.15-8.8a210.49,210.49,0,0,0,26.23-24.34c7.13-7.69,14.22-15.45,21.35-23.13a60,60,0,0,1,4.54-4.36,9.23,9.23,0,0,1,2.33-1.09l-.31,2.33A14.75,14.75,0,0,0,629,182c-.63,3.07-1.2,6.16-1.8,9.25l1-11.21a19.69,19.69,0,0,0-2.16,1.7c-3.18,3.21-6.38,6.39-9.48,9.76-4.91,5.34-9.71,10.89-14.63,16.23-4.17,4.52-8.32,9.09-12.69,13.22-4.19,4-8.6,7.46-13,11C572.64,234.8,568.92,237.45,565.25,240.21Z"/><path class="cls-13" d="M467,255.66a87.51,87.51,0,0,0,6.74-7.59c1.82-2.52,3.14-5.68,4.74-8.51a5.55,5.55,0,0,1,1.3-1.21,8.51,8.51,0,0,1,.4,1.93c-.17,5.2-.46,10.39-.56,15.59,0,1.7-.31,2.35-1.58,2.76-9.2,3.05-18.44,5.83-27.89,7a11.79,11.79,0,0,1-2.42-.23,10.63,10.63,0,0,1,8.78-5.88A21,21,0,0,0,467,255.69c-.52.59-1,1.49-1.56,1.73-2.95,1.22-5.94,2.27-8.92,3.38l-5.48,2,.14.82.84.07.12,0,.11,0a9.76,9.76,0,0,0,2.08.19c1.31-.16,2.61-.46,3.91-.72a59.72,59.72,0,0,0,18.84-7.12c.5-.3,1.22-1,1.24-1.55.07-2.89-.05-5.78-.11-8.75-3.16,3.1-5.94,5.9-8.78,8.57A9.71,9.71,0,0,1,467,255.66Z"/><path class="cls-13" d="M634.18,172.59c1.79-.26,2.42,1.55,2.92,3.25,1.71,5.77,2,11.87,1.91,18s-.5,12.32-.83,18.47c-.22,4.1-.56,8.19-.85,12.28-.06-5.36-.33-10.74-.11-16.08.37-9,1-18-.18-27-.37-2.72-1.06-5.25-2.81-7-2.64,3.71-4.94,11.36-5.08,16.82q-.12,4.89-.13,9.79c0,7.81,0,15.62,0,23.43,0,3-.13,6-.2,9-.16-2.63-.33-5.27-.5-7.9,0-2.68.07-5.37,0-8-.05-2.25-.22-4.49-.33-6.73-.38-10.28-.56-20.53,2.16-30.4Z"/><path class="cls-21" d="M485.48,222.8c.15-.39.24-1,.47-1.13,3.33-1.65,6.82.12,8.62,4.3,0,.05.12.07.17.05s.09-.09.14-.14c.22,1,.52,1.9.65,2.88a12.47,12.47,0,0,1-.09,2.19l-1.53-.63Zm3,0-.25.67,4.16,3.14.39-1Q490.67,224.18,488.53,222.78Z"/><path class="cls-22" d="M630.18,180.4c-2.72,9.87-2.54,20.12-2.16,30.4q.15,7.38.31,14.77c.17,2.63.34,5.27.5,7.9l0,.79-.17,1-.3,4.42q-.37-5.61-.74-11.24c-.15-2.4-.28-4.79-.41-7.19q0-14.5-.07-29l.07-1.05c.6-3.09,1.17-6.18,1.8-9.25a14.75,14.75,0,0,1,.77-2.14Z"/><path class="cls-19" d="M419.67,236.67l.42,22.17c-.12,1-.23,2-.35,2.93-.17-6.7-.39-13.39-.5-20.09A47,47,0,0,1,419.67,236.67Z"/><path class="cls-19" d="M422.64,266.77h15.11l0,.61-15.13.21Z"/><path class="cls-22" d="M485.48,222.8l8.43,7.52-.52.57c-2.3-2.08-4.62-4.11-6.89-6.25A7.29,7.29,0,0,1,485.48,222.8Z"/><path class="cls-6" d="M497.78,235.22a7.58,7.58,0,0,0-.8,2.28c-.08,4.52,0,9,0,13.56-.13-5-.28-10-.37-15C496.55,235,497,234.39,497.78,235.22Z"/><path class="cls-13" d="M564.14,239.32a26.49,26.49,0,0,1-1.45,2.22c-.07.09-.5-.33-.76-.51Z"/><path class="cls-13" d="M560.54,242.19l-1.19.89Z"/><path class="cls-23" d="M68.85,183.65a.47.47,0,0,1,0-.31c.15-.66.29-1.32.44-2a17.74,17.74,0,0,0,.92-2.56c.27-1.39.37-2.84.54-4.27h0l.34-.51.39-.45c1.1-1.24,2.25-2.28,2.56-4.54.26-1.88.19-4,1.74-5.46a5.86,5.86,0,0,0,.84-4.38,7.23,7.23,0,0,1,.36-6.85,32.39,32.39,0,0,1,3.06-5.22c.36-.46,2.22.28,2.21.4-.07,2.22,2.15,3.26,1.56,5.72-.09.37.42.95.53,1.48a3.79,3.79,0,0,1,.11,1.78c-.74,2.16.18,2.6,1.42,2.82h.37v1.45c.07.42.15.84.23,1.26l0,.08-2,4.65-.69.1-.69-2.34c-1,3.94-1.41,7.18.1,10.52,1.41-1.6,2.88-2.06,4.27-.13a15.19,15.19,0,0,1,1.43,2.5c2.4,5.19-.19,12-4.64,12.3-.3,0-.65-.13-.89,0A12.39,12.39,0,0,0,82,191c.4.54.74,1.38,1.21,1.54a18.63,18.63,0,0,0,2.5.17,6.67,6.67,0,0,1,1.64.83l-.07,1.13c-3,1-6.09,1.93-9.13,2.94a5.9,5.9,0,0,0-1.33.86l-1.75.07-1.11,0-3.56-.07a28.82,28.82,0,0,1-2.66-3.14c-1.11-1.71-.63-3.14,1-3.62a12.44,12.44,0,0,0,2-1.07c-2.32-1.58-2.42-1.91-2-4.75C68.83,185.11,68.81,184.37,68.85,183.65Z"/><path class="cls-18" d="M86.26,159.32h-.37a23.65,23.65,0,0,0,.22-2.66c-.07-3.19.37-6.7-.47-9.48-.91-3-3-5.37-4.68-7.9-.7-1.05-1.18-.36-1.58.75s-1.1,2-1.56,3.07a52.48,52.48,0,0,0-2.37,6c-.73,2.5-1.17,5.16-1.74,7.75q.87-11.27,1.73-22.55c1.34.44,2.93.41,4,1.43,1.39,1.39,2.08.52,2.86-.67,2.67-4.07,3.13-8.86,2.35-14l-1.34.38L81,117l-2.08,3.63-2.75-2.94v-8.91l2,1.38c.12-2,.22-3.79.33-5.55q.3-4.75.62-9.51v-.5l2.34-.41-1.52,7.55.34.72c1.46-3.5,2.91-2.06,4.37-.64.4.39.83.74,1.25,1.12l.35.49c0,.32,0,.64,0,1,0,.49,0,1,0,1.48v1.47l-.3.57a32.82,32.82,0,0,0,3.79,4.52c1.18,1,1.26,1.74.5,3-.49.83-1,1.66-1.47,2.45-.9,1.36-.42,2.29.64,2.22,1.56-.09,1.59,1,1.63,2.56,0,1.7.25,3.39.38,5.09,0,1.86,0,3.72,0,5.59v0l-1.36,1c-1.46,1-2.47.45-3.11-1.67l.15-2.84c.13.53.16,1.35.42,1.53.53.38,1.45.84,1.76.51,1.28-1.38,1.35-6.38.17-8.28l-1.94,2.86c.27-1.14.59-2.27.78-3.44a10.25,10.25,0,0,0,0-1.91c-.45.24-1.18.32-1.29.73-.56,2-1,4-1.39,6.05a49.53,49.53,0,0,0-.25,5.69c.15,2.18,1,3.75,2.89,3.67,1.46,0,2.2,1,1.79,3.06a1,1,0,0,1-.06.34l-.33.57,0,0c-.12.67-.23,1.35-.35,2Zm3.21-45c-.26-.45-.39-.71-.54-.95-1.08-1.74-2.08-3.37-4.09-1.89-.46.34-1.47-.7-1.85-.9.53-1.31,1.12-2.12,1-2.69-.13-.74-.82-1.3-1.27-1.93-.3.74-.6,1.47-.89,2.21a15.27,15.27,0,0,1-.93,2.21c-1.46,2.27-1.51,3.24.31,4.9.61.55,1.72.08,3.11.08L87,118.52Z"/><path class="cls-24" d="M93.65,228.26l3.76,2.68,2,2.39a22,22,0,0,1-4.22.94c-5.21.09-10.43,0-15.64,0A2,2,0,0,1,78.3,234c-.64-.48-1.62-1.07-1.68-1.75a4.33,4.33,0,0,1,.94-2.87c2.58-2.58,5.5-4,8.74-3.27C88.77,226.67,91.2,227.53,93.65,228.26Z"/><path class="cls-25" d="M76.84,198.43a6.21,6.21,0,0,1,1.33-.85c3-1,6.08-2,9.13-2.94l.07-1.13a6.67,6.67,0,0,0-1.64-.83,18.63,18.63,0,0,1-2.5-.17c-.47-.16-.81-1-1.21-1.54a12.39,12.39,0,0,1,1.31-1.22c.24-.17.59,0,.89,0,4.45-.28,7-7.11,4.64-12.3a15.19,15.19,0,0,0-1.43-2.5c-1.39-1.93-2.86-1.47-4.27.13-1.51-3.34-1.09-6.58-.1-10.52l.69,2.34.69-.1,2-4.65c.2,1.33.39,2.66.59,4,.24,1.13.49,2.26.74,3.39v0c.32,1,.63,2,1,3.06v0l.4,1.42h0l.35,1.47v0l.78,2.87h0c.41,2.27.76,4.56,1.24,6.8.5,2.39.17,3.44-1.28,4.18-.59.3-1,1.07-1.57,1.63.59.37,1.19.7,1.76,1.11a16,16,0,0,1,1.23,1.12c-.26.49-.43,1.21-.78,1.44a12.32,12.32,0,0,1-2.82,1.44c-2.51.87-5,1.62-7.57,2.42Z"/><path class="cls-25" d="M72.46,75.13q0-4.47.08-8.95a3.91,3.91,0,0,0,.25-1.09q-.47-9.75-1-19.5h0l.41,0,.43-.21,0,.07c.33,2.76-.16,6.13,2.78,7C75.66,56,76,59.53,76,63.1c0,8.05-.14,16.09-.22,24.14-.35,1.05-.69,2.11-1.18,3.62l-.94-3.11-.09-1.28-.21-1.67C73,81.58,72.75,78.36,72.46,75.13Z"/><path class="cls-26" d="M85.89,103c-.42-.38-.85-.73-1.25-1.12-1.46-1.42-2.91-2.86-4.37.64l-.34-.72,1.52-7.55-2.34.41-.21-1.56.12-.89c0-.61,0-1.21,0-1.82.65-2.17,2.82-2.75,4.22-1.16.43.49,1,1.22,1.43,1.21,1.92,0,2.46.88,1.62,3.28C85.17,96.72,85.4,99.81,85.89,103Zm-3.2-4.66c1.6-1.12,2.31-2.32,2-4.09-.08-.57-.73-1.08-1.21-1.4-.13-.1-.77.54-.79.89C82.63,95.07,82.69,96.46,82.69,98.29Z"/><path class="cls-17" d="M80.49,198.53c2.52-.8,5.06-1.55,7.57-2.42a12.32,12.32,0,0,0,2.82-1.44c.35-.23.52-.95.78-1.44a16,16,0,0,0-1.23-1.12c-.57-.41-1.17-.74-1.76-1.11.52-.56,1-1.33,1.57-1.63,1.45-.74,1.78-1.79,1.28-4.18-.48-2.24-.83-4.53-1.24-6.8a13.44,13.44,0,0,1,1,2.12c.61,2.1,1.18,4.22,1.65,6.38.17.82,0,1.78,0,2.65a14.27,14.27,0,0,0,.54,2.09l1.73.37.13.13-.09,3c-3.14,1-6.32,1.7-9.39,2.94a18.72,18.72,0,0,1-9,1.35Z"/><path class="cls-16" d="M93.7,128c-2.28-7.53-3.61-10.72,2.64-16.81C96.3,117.12,96.2,122.67,93.7,128Z"/><path class="cls-26" d="M73.62,87.75l.94,3.11c.49-1.51.83-2.57,1.18-3.62-.11,6.1-.24,12.2-.29,18.3a8.8,8.8,0,0,0,.66,2.36c.48-.7,1.26-1.31,1.4-2.12.48-2.92.73-5.92,1.11-8.89a12.4,12.4,0,0,1,.5-1.78q-.32,4.76-.62,9.51c-.11,1.76-.21,3.52-.33,5.55l-2-1.38v8.91a.62.62,0,0,1-.33,0c-.73-8.43-1.48-16.87-2.18-25.31C73.54,90.84,73.63,89.29,73.62,87.75Z"/><path class="cls-17" d="M85.89,103c-.49-3.14-.72-6.23.35-9.28.84-2.4.3-3.31-1.62-3.28-.48,0-1-.72-1.43-1.21-1.4-1.59-3.57-1-4.22,1.16-.66-3.27.85-5.51,3.3-5.18.85.11,1.75-.56,3-1,1,.57.87,4.43,3.51,2.82a46.09,46.09,0,0,0-2.49,16.44Z"/><path class="cls-17" d="M86.91,132.72c.64,2.12,1.65,2.66,3.11,1.67l1.36-1a6.94,6.94,0,0,0-.58,4.33c.16.67-.54,1.72-.85,2.6.41-2.11-.33-3.11-1.79-3.06-1.93.08-2.74-1.49-2.89-3.67a49.53,49.53,0,0,1,.25-5.69,16.58,16.58,0,0,0,.1,3.32C85.75,131.86,86.46,132.23,86.91,132.72Z"/><path class="cls-17" d="M75.5,52.38c-2.94-.85-2.45-4.22-2.78-7,2.08-.17,1.71,2.52,2.38,3.94A10.92,10.92,0,0,1,75.5,52.38Z"/><path class="cls-26" d="M80.49,198.53l-3.58.87-6.55,0-1-.85,1.11-.13,3.56.07,1.11,0,1.75-.07Z"/><path class="cls-27" d="M95.33,195.11l.09-3C96.58,193.19,97,194.21,95.33,195.11Z"/><path class="cls-17" d="M91.38,133.38c0-1.87,0-3.73,0-5.59C91.39,129.65,91.39,131.51,91.38,133.38Z"/><path class="cls-17" d="M87.79,169.49c-.25-1.13-.5-2.26-.74-3.39C87.29,167.23,87.54,168.36,87.79,169.49Z"/><path class="cls-17" d="M88.75,172.58c-.32-1-.63-2-1-3.06C88.12,170.54,88.43,171.56,88.75,172.58Z"/><path class="cls-17" d="M90.28,178.38l-.78-2.87Z"/><path class="cls-17" d="M89.23,143.27c.12-.68.23-1.36.35-2C89.46,141.91,89.35,142.59,89.23,143.27Z"/><path class="cls-27" d="M95.29,192l-1.73-.37Z"/><path class="cls-25" d="M86.48,162c-.08-.42-.16-.84-.23-1.26Z"/><path class="cls-17" d="M86.23,105.89c0-.5,0-1,0-1.48C86.22,104.9,86.23,105.39,86.23,105.89Z"/><path class="cls-17" d="M89.5,175.49,89.15,174Z"/><path class="cls-17" d="M89.15,174l-.4-1.42Z"/><path class="cls-17" d="M79,92.16l-.12.89Z"/><path class="cls-17" d="M72.67,45.33l-.43.21,0-1C72.36,44.83,72.52,45.08,72.67,45.33Z"/><path class="cls-17" d="M89.56,141.26l.33-.57Z"/><path class="cls-26" d="M85.93,107.93l.3-.57Z"/><path class="cls-2" d="M307.88,192.14h4.38c0,2.93,0,5.61,0,8.28s.59,3.5,2.55,3.53c2.25,0,2.52,2.75,3,4.5,1.36,5,2.29,10.22,3.44,15.34.47,2.08,0,2.74-1.58,2.72-5.22-.08-10.44,0-15.65,0-1,0-2,.11-3.32.19-.09-2.38-.34-4.79-.27-7.18.26-9,.8-17.91.86-26.87,0-3.93-.58-7.85,0-11.83.2-1.4.46-2,1.53-2,4.3,0,7.92,4.13,8.61,10.27a2.83,2.83,0,0,1-1.12,1.95,7.26,7.26,0,0,1-2.44.63h-5.65l.06,1.15Z"/><path class="cls-4" d="M300.3,180.43c-2.28-2.48-3.5-5.87-4.3-9.56-1.17-5.41-2.48-10.79-3.29-16.3a122.39,122.39,0,0,1-.69-12.32q-.42-9.1-.81-18.21c-.21-2.6-.42-5.21-.66-7.81-.06-.69-.23-1.36-.35-2a.6.6,0,0,0-.05-.44l-.33-3.44c0-2,0-4.08-.07-6.12,0-1.07.15-1.3,1.1-1.34,2.41-.1,5.14.44,6.65-4,.19,1.27.31,2.07.53,3.48l1.19-2.29.37.49c.58,4.42,1.62,8.84,1.64,13.26,0,9.26-.46,18.53-.69,27.79-.1,3.88-.07,7.76-.11,11.64,0,5.29-.13,10.57-.12,15.86,0,3.3.19,6.6.26,9.9A7.17,7.17,0,0,1,300.3,180.43Z"/><path class="cls-22" d="M307.88,192.14l-5.6.71-.06-1.15h5.65C307.88,191.85,307.88,192,307.88,192.14Z"/><path class="cls-10" d="M639.68,183.36c0-.3,0-.6,0-.9.5-2.48,0-4.91-1.33-6.15a.26.26,0,0,1-.06-.23c.06-.77.11-1.54.16-2.36.16-.05.34-.18.5-.15,3.29.7,8.62,7.45,9.28,11.75a4.59,4.59,0,0,1,0,1c-.23,3.64-.55,7.28-.67,10.94q-.6,17.22-1,34.46c0,2.27.15,4.55.29,6.82s-.68,3.26-2.36,3.12a14,14,0,0,0-3.24,0c-1.74.27-2.17-.75-2.06-3,.42-8.46.9-16.92,1.07-25.39.2-9.29.09-18.59.07-27.88A8,8,0,0,0,639.68,183.36Zm3.17,32.45c-.12,6.33-.26,12.66-.33,19a7.11,7.11,0,0,0,.54,1.95,6.34,6.34,0,0,0,.77-1.94c.23-5.1.36-10.21.53-15.31a44.75,44.75,0,0,0,.57-5c.07-7.16,0-14.31,0-21.47a32.59,32.59,0,0,1,.07-4.85c.53-3.42-1.19-4.77-2.77-6.47.2,3.89.4,7.61.59,11.32Z"/><path class="cls-10" d="M628.85,234.26l0-.79c.07-3,.2-6,.2-9,0-7.81,0-15.62,0-23.43q0-4.9.13-9.79c.14-5.46,2.44-13.11,5.08-16.82,1.75,1.74,2.44,4.27,2.81,7,1.22,9,.55,18,.18,27-.22,5.34,0,10.72.11,16.08,0,1.05,0,2.09,0,3.14q-.09,3.23-.18,6.48c0,1.7,0,3.42.16,5.11.19,2-.46,2.75-1.76,2.79-1.8,0-3.59,0-5.39,0-.23-1-.51-1.91-.67-2.9C629.2,237.55,629,235.9,628.85,234.26Zm5.23,2.49c0-1.24,0-2.2,0-3.17.06-5.46.09-10.93.19-16.4.18-10.09.45-20.18.58-30.27a60.44,60.44,0,0,0-.58-6.26l-.62,0c-.55,3.48-1.43,6.93-1.59,10.43-.41,9.44-.62,18.9-.68,28.35,0,5.76.36,11.53.57,17.34Z"/><path class="cls-13" d="M639.68,183.36a8,8,0,0,1,.58,2.07c0,9.29.13,18.59-.07,27.88-.17,8.47-.65,16.93-1.07,25.39-.11,2.2.32,3.22,2.06,3a14,14,0,0,1,3.24,0c1.68.14,2.5-.74,2.36-3.12s-.34-4.55-.29-6.82q.45-17.23,1-34.46c.12-3.66.44-7.3.67-10.94a4.59,4.59,0,0,0,0-1c-.66-4.3-6-11-9.28-11.75-.16,0-.34.1-.5.15,0,.82-.1,1.59-.16,2.36l-1.76-4.38c3.89.46,7.3.89,9.44,5.47,1.19,2.52,2.49,4.94,3.61,7.52a12.22,12.22,0,0,1,.43,3c0,.2,0,.39,0,.59.4,1.11.79,2.23,1.19,3.34-1.12-.48-1.09.47-1.11,1.54-.25,8.92-.46,17.85-.81,26.77-.14,3.62-.58,7.22-.88,10.83,0-2.77-.08-5.53-.13-8.3l.9-18.31-.49,0-.72,18.47v12.58l.21,0c.08-.44.16-.88.23-1.32.21,1.83.36,3.68.66,5.48a6.13,6.13,0,0,0,.92,1.75,8.29,8.29,0,0,0,1.09-1.59,6.52,6.52,0,0,0,.1-1.69q.51-6.4,1-12.83c-.16,5.6-.32,11.2-.48,17.1-4.32.22-8.42.48-12.52.53-.35,0-1-1.49-1-2.26.16-7.15.37-14.3.7-21.43.49-10.56,1.52-21.08.81-31.7C639.58,186,639.67,184.66,639.68,183.36Zm9.55,18.94.16,0v-13l-.16,0Z"/><path class="cls-21" d="M629.41,244.25c2.28-.34,4.24-.59,6.2-.93,1-.16,1.42.09,1.39,1.64-.15,6.68-.11,13.36-.34,20a55,55,0,0,1-1.11,8.09,5.81,5.81,0,0,1-1.29,2.56c-1.23,1.45-2.66.86-3-1.3-.44-3.08-.78-6.2-1-9.33-.36-5.67-.61-11.36-.88-17C629.36,246.77,629.41,245.56,629.41,244.25ZM633.05,268l.78,0c.31-7,.62-13.94.93-21a10.82,10.82,0,0,0-1.36,0c-.34.05-.67.16-1.35.34C632.39,254.34,632.72,261.19,633.05,268Z"/><path class="cls-21" d="M652.16,225q-.52,6.42-1,12.83a6.52,6.52,0,0,1-.1,1.69,8.29,8.29,0,0,1-1.09,1.59,6.13,6.13,0,0,1-.92-1.75c-.3-1.8-.45-3.65-.66-5.49v-3.11c.3-3.61.74-7.21.88-10.83.35-8.92.56-17.85.81-26.77,0-1.07,0-2,1.11-1.54h0c.45,2.16.91,4.31,1.36,6.47l0,.77a18.69,18.69,0,0,0-.29,2.34c0,4.86,0,9.71,0,14.57,0,1.27.18,2.54.28,3.8C652.41,221.41,652.29,223.22,652.16,225Zm-2.71,14.21.71,0c.88-14.54,2-29.06.67-43.69Z"/><path class="cls-21" d="M649.39,250.84c-.13-1.45-.34-2.89-.4-4.35-.12-2.7.09-2.9,2.09-2.58v16.81c-.09-2.54-.22-5.07-.23-7.61C650.84,251.68,650.58,250.77,649.39,250.84Z"/><path class="cls-12" d="M649.39,250.84c1.19-.07,1.45.84,1.46,2.27,0,2.54.14,5.07.23,7.61v1.84c-2-.28-2.15-.75-2-5.21v-.05Q649.25,254.08,649.39,250.84Z"/><path class="cls-13" d="M652.54,219.6c-.1-1.26-.27-2.53-.28-3.8,0-4.86,0-9.71,0-14.57a20.73,20.73,0,0,1,.28-2.34,6.56,6.56,0,0,1,.35,1.6C652.77,206.86,652.65,213.23,652.54,219.6Z"/><path class="cls-13" d="M638.31,176.31c1.3,1.24,1.83,3.67,1.33,6.15Q639,179.39,638.31,176.31Z"/><path class="cls-13" d="M628.85,234.26c.19,1.64.35,3.29.6,4.92.16,1,.44,1.93.67,2.9-.37-.41-1-.76-1-1.24-.23-1.82-.27-3.69-.39-5.54Z"/><path class="cls-13" d="M652.5,198.12c-.45-2.16-.91-4.31-1.36-6.47C652.5,193.45,652.61,195.75,652.5,198.12Z"/><path class="cls-13" d="M637.11,234.18q.09-3.26.18-6.48Z"/><path class="cls-28" d="M650,188.3c0-.2,0-.39,0-.59C650,187.91,650,188.1,650,188.3Z"/><path class="cls-20" d="M297.62,98.53c-1.48-3.51-2.4-4.09-6.35-3.62-3,.36-6,.8-9.26,1.22-.09-1.88-.22-3.87-.27-5.86-.17-5.86-.38-11.72-.4-17.58a6.24,6.24,0,0,1,1.24-3.21c1.05-1.54,2.43-2.7,3.41-4.32a8.13,8.13,0,0,0,.93-3.75c.1-5,0-10,.07-14.93.05-2.24-.47-3.6-2.47-4,0-3.88,0-7.78.05-11.68,0-.48.68-1.32,1.06-1.34,2.14-.13,4.29-.06,6.6-.06,0,3.46.09,6.69,0,9.9-.27,8-.67,15.95-.85,23.93A3.68,3.68,0,0,0,293,65.87c2.46,1.15,3.52,3.51,3.68,6.77.4,8,.74,15.9,1.09,23.85C297.75,97.17,297.65,97.85,297.62,98.53Z"/><path class="cls-4" d="M278.3,204.11c2.38-.46,4.23.35,5.61,2.69,1.07,1.81,1.16,6.26.3,8.17a1.93,1.93,0,0,1-3.55.2,12.37,12.37,0,0,1-1.59-4C278.65,208.93,278.55,206.58,278.3,204.11Z"/><path class="cls-20" d="M289.25,101.38c-.31-1.59-.56-2.84-.93-4.69,2.19.14,4.23.18,6.26.47.39.06,1,1.11,1,1.7a2,2,0,0,1-1.08,1.5C292.79,100.82,291.07,101.05,289.25,101.38Z"/><path class="cls-19" d="M289.82,110.3l.33,3.44Z"/><path class="cls-3" d="M164,192.6c2.74.67,3.82,3.13,4.53,5.93a15.44,15.44,0,0,1,.36,4.1c-.19,6.26-.45,12.53-.72,18.79a6.23,6.23,0,0,1-.74,2.55C165.3,213.78,164.63,203.33,164,192.6Z"/><path class="cls-29" d="M692.61,233.78l-35.2,3.37c-.36-11.55-.71-22.9-1.07-34.28a9.91,9.91,0,0,1,.74.86c8.4,11.92,18,21.54,29.41,27.49a30.25,30.25,0,0,0,5.41,1.68Z"/><path class="cls-6" d="M692.61,233.78l-.71-.88h7.34v.23Z"/><path class="cls-10" d="M627.23,191.22c0,.35-.05.7-.07,1.05L627,193c-.22,2.74-.65,5.47-.61,8.19.19,12.79.52,25.57.73,38.36a2.19,2.19,0,0,1-1,1.67,34.1,34.1,0,0,1-6.23.93q-19.27.56-38.53.92c-2.33.05-4.67-.36-7-.34-2.88,0-5.75.32-8.62.4a11.12,11.12,0,0,1-2.5-.65c1-1.07,1.53-1.66,2.07-2.26,3.67-2.76,7.39-5.41,11-8.31,4.39-3.52,8.8-7,13-11,4.37-4.13,8.52-8.7,12.69-13.22,4.92-5.34,9.72-10.89,14.63-16.23,3.1-3.37,6.3-6.55,9.48-9.76a19.69,19.69,0,0,1,2.16-1.7ZM573.52,239.8c.28.13.56.37.83.37,3.7,0,7.4,0,11.11,0,.31,0,.63-.31.95-.47,5.09-.48,10.18-1.13,15.27-1.41,7.19-.4,14.38-.53,21.74-.79-.47-16.31-.37-32.41,1.35-48.11-4.08,4.64-8.19,9.35-12.32,14-1.66,1.88-3.37,3.68-5,5.55-10.36,11.64-20.49,23.77-33.48,30C573.74,239.06,573.66,239.52,573.52,239.8Z"/><path class="cls-11" d="M627,193l.21-.72q0,14.52.07,29c-.08-3.73-.18-7.46-.22-11.19C627,204.4,627,198.7,627,193Z"/><path class="cls-25" d="M75.85,117.67a.62.62,0,0,0,.33,0l2.75,2.94L81,117l2.25,4.39L84.6,121c.78,5.19.32,10-2.35,14-.78,1.19-1.47,2.06-2.86.67-1-1-2.61-1-4-1.43l0-1.47c1.12-1.9.42-4,.28-6l0-.89c1.06-2,.27-3.92,0-5.88l-.28-1Z"/><path class="cls-25" d="M73.71,156.86c.57-2.59,1-5.25,1.74-7.75a52.48,52.48,0,0,1,2.37-6c.46-1.07,1.17-2,1.56-3.07s.88-1.8,1.58-.75c1.68,2.53,3.77,4.9,4.68,7.9.84,2.78.4,6.29.47,9.48a23.65,23.65,0,0,1-.22,2.66c-1.24-.22-2.16-.66-1.42-2.82a3.79,3.79,0,0,0-.11-1.78c-.11-.53-.62-1.11-.53-1.48.59-2.46-1.63-3.5-1.56-5.72,0-.12-1.85-.86-2.21-.4A32.39,32.39,0,0,0,77,152.34a7.23,7.23,0,0,0-.36,6.85,5.86,5.86,0,0,1-.84,4.38c-1.55,1.48-1.48,3.58-1.74,5.46-.31,2.26-1.46,3.3-2.56,4.54.08-.56.16-1.11.23-1.67l0,.07c.13-.82.25-1.64.38-2.46h0c.12-.5.24-1,.37-1.5l0,0,.78-5a.31.31,0,0,1,0-.31l.36-4.93Z"/><path class="cls-18" d="M75.8,120.1c.24,2,1,3.93,0,5.88l-.3-5.88Z"/><path class="cls-18" d="M75.75,126.87c.14,2,.84,4.07-.28,6C75.56,130.85,75.66,128.86,75.75,126.87Z"/><path class="cls-18" d="M73.6,157.82l-.36,4.93Z"/><path class="cls-18" d="M73.2,163.06l-.78,5Z"/><path class="cls-18" d="M72.08,169.51c-.13.82-.25,1.64-.38,2.46C71.83,171.15,72,170.33,72.08,169.51Z"/><path class="cls-18" d="M71.73,171.9c-.07.56-.15,1.11-.23,1.67l-.39.45c0-.35,0-.71,0-1.06Z"/><path class="cls-26" d="M73.32,84.8l.21,1.67Z"/><path class="cls-18" d="M72.44,168c-.13.5-.25,1-.37,1.5C72.19,169,72.31,168.52,72.44,168Z"/><path class="cls-17" d="M71.06,173c0,.35,0,.71,0,1.06l-.34.51C70.87,174,71,173.48,71.06,173Z"/><path class="cls-26" d="M75.8,120.1h-.33l0-1Z"/><path class="cls-10" d="M522,248.11c-7.15,1.91-14.3,3.87-21.46,5.71-1.92.5-2.32-.11-2.41-2.8-.12-3.74-.22-7.48-.39-11.22-.09-2,.11-3,1.87-2.2,6.15,2.7,12.34,5.26,18.51,7.89,1.3.56,2.59,1.17,3.88,1.76Zm-22.17,3.42,15.79-4.09L499.81,241Z"/><path class="cls-2" d="M289,25.54c.34-2.73.59-4.86.89-7,0-.29.44-.76.57-.7a1.42,1.42,0,0,1,.72.83C291.7,20.58,290.86,23.58,289,25.54Z"/><path class="cls-25" d="M71.82,45.59l-.1-.09.11.08Z"/><path class="cls-25" d="M70.42,198.4l-1.11.13c-2.59-.64-3.26-1.52-3.56-4.7,0-.55-.14-1.43.07-1.64,2-2.07,1.64-5.61,2.78-8.19a1.4,1.4,0,0,1,.25-.35c0,.72,0,1.46-.11,2.17-.39,2.84-.29,3.17,2,4.75a12.44,12.44,0,0,1-2,1.07c-1.65.48-2.13,1.91-1,3.62A28.82,28.82,0,0,0,70.42,198.4Z"/><path class="cls-25" d="M69.31,181.37c-.15.65-.29,1.31-.44,2C69,182.68,69.16,182,69.31,181.37Z"/><path class="cls-4" d="M290.33,123.73v-.89h.09v.89Z"/><path class="cls-21" d="M485.23,237.37v-7.9l.38-.2a54.75,54.75,0,0,1,1.92,6.15c1,5.28,1.72,10.65,2.68,15.94.35,2-.57,1.92-1.42,2.26s-1.82.58-2.07-1.19c-.2-1.43-.42-2.87-.52-4.32-.19-2.59-.27-5.19-.45-7.78a3.76,3.76,0,0,0-.51-1.15C485.23,238.58,485.23,238,485.23,237.37Zm1.27-1-.16-.63.18.59c.34,5.12.69,10.23,1.07,15.73C488.85,250.68,487.87,240.74,486.5,236.36Z"/><path class="cls-10" d="M494.35,251.83q-3.25-12-6.49-24c3.22,1.16,6.33,6.16,6.61,10.64.2,3.24.48,6.48.67,9.72.06,1.15-.06,2.32-.1,3.48Zm-.94-8.25a2.47,2.47,0,0,1,.1.29l-.12-.27c.48-5.07,0-9.58-3.86-12.16Q491.47,237.52,493.41,243.58Z"/><path class="cls-21" d="M482.86,235.39l.12-.93.2,0c.1.79.25,1.58.28,2.37q.3,9.41.54,18.81a6.43,6.43,0,0,1-.27,1.39h-1.85a45.17,45.17,0,0,1-.34-4.78c.16-5.08.43-10.16.68-15.24a3.54,3.54,0,0,1,.36-1.05v19.39l.28,0Z"/><path class="cls-10" d="M483.64,259.25,484,276.3a7.67,7.67,0,0,1-.08,1.93,7.43,7.43,0,0,1-.85,1.63c-.32-.47-.86-.89-.92-1.42a67,67,0,0,1-.62-7.48c0-3.9.23-7.79.36-11.69Zm-1,8.9v8.39l.54,0v-16l-.54,0Z"/><path class="cls-22" d="M485.06,240.17q.4,7.4.8,14.77l-1,.05q-.09-7.38-.17-14.76A1.91,1.91,0,0,1,485.06,240.17Z"/><path class="cls-27" d="M482.86,235.39v19.9l-.28,0V235.92Z"/><path class="cls-22" d="M483.64,259.25l-1.72,0c0-.76,0-1.52,0-2.28h1.85Z"/><path class="cls-28" d="M485.06,240.17a1.91,1.91,0,0,0-.33.06c-.17-3-.33-6.08-.5-9.12l.34,0q.33,3.15.65,6.3c0,.6,0,1.21,0,1.81Z"/><path class="cls-21" d="M482.85,231v1.76h-.16V231Z"/><path class="cls-10" d="M467,255.66a9.71,9.71,0,0,0,2.42-1.29c2.84-2.67,5.62-5.47,8.78-8.57.06,3,.18,5.86.11,8.75,0,.54-.74,1.25-1.24,1.55a59.72,59.72,0,0,1-18.84,7.12c-1.3.26-2.6.56-3.91.72a9.76,9.76,0,0,1-2.08-.19l1.75-.51,8.76-2.4c3.7-1.59,7.44-3,11.07-4.83,3-1.53,3.14-2.28,2.33-6.77-4.23,4.63-8.72,8.61-13.83,11.14-2,.48-4.08.85-6.09,1.48a40.22,40.22,0,0,0-4.22,1.87l-.84-.07-.14-.82,5.48-2c3-1.11,6-2.16,8.92-3.38.6-.24,1-1.14,1.56-1.73Z"/><path class="cls-28" d="M452,263.73a40.22,40.22,0,0,1,4.22-1.87c2-.63,4.06-1,6.09-1.48.15.15.29.31.43.46l-8.76,2.4-1.75.51-.11,0Z"/><path class="cls-6" d="M628.33,225.57q-.15-7.4-.31-14.77c.11,2.24.28,4.48.33,6.73C628.4,220.2,628.34,222.89,628.33,225.57Z"/><path class="cls-27" d="M488.53,222.78q2.14,1.4,4.3,2.78l-.39,1-4.16-3.14Z"/><path class="cls-25" d="M75.09,198.51l-1.11,0Z"/><path class="cls-25" d="M89.47,114.35,87,118.52l-2.69-3.13c-1.39,0-2.5.47-3.11-.08-1.82-1.66-1.77-2.63-.31-4.9a15.27,15.27,0,0,0,.93-2.21c.29-.74.59-1.47.89-2.21.45.63,1.14,1.19,1.27,1.93.11.57-.48,1.38-1,2.69.38.2,1.39,1.24,1.85.9,2-1.48,3,.15,4.09,1.89C89.08,113.64,89.21,113.9,89.47,114.35Z"/><path class="cls-25" d="M87.47,126.5l1.94-2.86c1.18,1.9,1.11,6.9-.17,8.28-.31.33-1.23-.13-1.76-.51-.26-.18-.29-1-.42-1.53l0-1,.21-2A.84.84,0,0,1,87.47,126.5Z"/><path class="cls-29" d="M87.11,128.9l0,1-.15,2.84c-.45-.49-1.16-.86-1.29-1.47a16.58,16.58,0,0,1-.1-3.32c.44-2,.83-4.08,1.39-6.05.11-.41.84-.49,1.29-.73a10.25,10.25,0,0,1,0,1.91c-.19,1.17-.51,2.3-.78,3.44a.84.84,0,0,0-.15.39Z"/><path class="cls-17" d="M82.69,98.29c0-1.83-.06-3.22,0-4.6,0-.35.66-1,.79-.89.48.32,1.13.83,1.21,1.4C85,96,84.29,97.17,82.69,98.29Z"/><path class="cls-27" d="M642.85,193c-.19-3.71-.39-7.43-.59-11.32,1.58,1.7,3.3,3,2.77,6.47A32.59,32.59,0,0,0,645,193a17.71,17.71,0,0,0-.29,2.14q-.18,12.17-.31,24.33c-.17,5.1-.3,10.21-.53,15.31a6.34,6.34,0,0,1-.77,1.94,7.11,7.11,0,0,1-.54-1.95c.07-6.33.21-12.66.33-19,.16-5.11.39-10.21.44-15.31C643.31,198,643,195.52,642.85,193Z"/><path class="cls-30" d="M644.36,219.5q.15-12.17.31-24.33A17.71,17.71,0,0,1,645,193c0,7.16,0,14.31,0,21.47A44.75,44.75,0,0,1,644.36,219.5Z"/><path class="cls-30" d="M642.85,193c.16,2.49.46,5,.44,7.47,0,5.1-.28,10.2-.44,15.31Z"/><path class="cls-27" d="M634.08,236.75H632c-.21-5.81-.61-11.58-.57-17.34.06-9.45.27-18.91.68-28.35.16-3.5,1-6.95,1.59-10.43l.62,0a60.44,60.44,0,0,1,.58,6.26c-.13,10.09-.4,20.18-.58,30.27-.1,5.47-.13,10.94-.19,16.4C634.07,234.55,634.08,235.51,634.08,236.75Z"/><path class="cls-28" d="M647.91,222.61l.72-18.47.49,0-.9,18.31A1.37,1.37,0,0,0,647.91,222.61Z"/><path class="cls-28" d="M649.23,202.3v-13l.16,0v13Z"/><path class="cls-22" d="M647.91,222.61a1.37,1.37,0,0,1,.31-.13c0,2.77.09,5.53.13,8.3v3.11c-.07.45-.15.89-.23,1.33l-.21,0Z"/><path class="cls-27" d="M633.05,268c-.33-6.84-.66-13.69-1-20.62.68-.18,1-.29,1.35-.34a10.82,10.82,0,0,1,1.36,0c-.31,7.05-.62,14-.93,21Z"/><path class="cls-27" d="M649.45,239.23l1.38-43.71c1.32,14.63.21,29.15-.67,43.69Z"/><path class="cls-29" d="M573.52,239.8c.14-.28.22-.74.41-.83,13-6.25,23.12-18.38,33.48-30,1.67-1.87,3.38-3.67,5-5.55,4.13-4.68,8.24-9.39,12.32-14-1.72,15.7-1.82,31.8-1.35,48.11-7.36.26-14.55.39-21.74.79-5.09.28-10.18.93-15.27,1.41Z"/><path class="cls-30" d="M573.52,239.8l12.89-.12c-.32.16-.64.47-.95.47-3.71,0-7.41,0-11.11,0C574.08,240.17,573.8,239.93,573.52,239.8Z"/><path class="cls-29" d="M499.81,251.53V241l15.79,6.49Z"/><path class="cls-27" d="M486.5,236.36c1.37,4.38,2.35,14.32,1.09,15.69-.38-5.5-.73-10.61-1.07-15.73Z"/><path class="cls-27" d="M486.52,236.32l-.18-.59c.06.21.11.42.16.63Z"/><path class="cls-27" d="M493.41,243.57q-1.94-6.06-3.88-12.12c3.84,2.57,4.34,7.08,3.86,12.15Z"/><path class="cls-27" d="M493.39,243.6l.12.27a2.47,2.47,0,0,0-.1-.29Z"/><path class="cls-27" d="M483.21,266.75v9.76l-.54,0v-8.39Z"/><path class="cls-6" d="M483.21,266.75l-.54,1.4V260.5l.54,0Z"/><path class="cls-27" d="M462.74,260.84c-.14-.15-.28-.31-.43-.46,5.11-2.53,9.6-6.51,13.83-11.14.81,4.49.69,5.24-2.33,6.77C470.18,257.85,466.44,259.25,462.74,260.84Z"/><path class="cls-18" d="M87.11,128.9l.21-2Z"/></g></g></svg>