<svg xmlns="http://www.w3.org/2000/svg" viewBox="0 0 1296 864"><defs><style>.cls-1{fill:#010101;}.cls-2{fill:#ad3b2f;}.cls-3{fill:#f9d6b8;}.cls-4{fill:#c1d2ec;}.cls-5{fill:#dbdada;}.cls-6{fill:#956945;}.cls-7{fill:#4a60ab;}.cls-8{fill:#eea868;}.cls-9{fill:#c1c7d1;}.cls-10{fill:#c18282;}.cls-11{fill:#9ecf85;}.cls-12{fill:#f3b172;}.cls-13{fill:#db7d27;}.cls-14{fill:#d47729;}.cls-15{fill:#6e9a5e;}.cls-16{fill:#f7c080;}.cls-17{fill:#21262e;}.cls-18{fill:#88bf75;}.cls-19{fill:#587a4b;}.cls-20{fill:#e52225;}.cls-21{fill:#77a666;}.cls-22{fill:#ebaa6d;}.cls-23{fill:#e87f24;}.cls-24{fill:#7fb26d;}.cls-25{fill:#689159;}.cls-26{fill:#7d471d;}.cls-27{fill:#241a0e;}.cls-28{fill:#090603;}.cls-29{fill:#afd690;}.cls-30{fill:#e39651;}</style></defs><g id="Layer_2" data-name="Layer 2"><g id="Layer_1-2" data-name="Layer 1"><path class="cls-1" d="M0,0H1296V864H0ZM166.91,322.15l.05,0v1.62c-.31,3.8-1.1,7.66,1,11.25l.08,1c-.3,2.55-1.44,5.23,1.07,7.38l.16.53a25.29,25.29,0,0,0,.42,2.88c.26,1,.69,2,1.05,2.95.12.54.23,1.09.35,1.63-.43,3-1,6-1.19,9-.08,1.49-1.28,3.61,1.26,4.46l.05,1,0,2.63c-.39,2.12-1,4.24-1.15,6.38-.66,7.1-1.19,14.21-1.77,21.31l-.08,1.22-.52,2.39-.37,1.43c-.17.81-.35,1.62-.52,2.43l0,.69.11,2-.05.53c-.23,1.26-.47,2.53-.7,3.79l-1.41,2.6,0,1-.07-.05-.42,1.16-.13,1.47a14.72,14.72,0,0,0-1.71,2.44c-.62,1.37-.69,3.06-1.53,4.22-2.83,3.88-4.09,8.3-4.88,12.9-3.58.9-3.85,1.36-3.13,5.07.19.95-.08,2.11.38,2.86.7,1.12,1.78,2.66,2.84,2.78a89.41,89.41,0,0,0,9.83.16l3.21-.09h2l3.2.08c3.07-.11,6.18,0,9.22-.4a144.57,144.57,0,0,0,14.79-2.54c2.72-.64,5.87-1,7.9-3.84a24.5,24.5,0,0,0-4.19-1.49c-2-.32-2.62-1-1.79-3a3.75,3.75,0,0,0-.38-2.51c-1.59-3.65-3.27-7.25-4.92-10.88-.48-.6-1-1.2-1.43-1.81l-.35-.65-.19-.48c-.05-.32-.1-.64-.16-1l-.63-1.89-.38-.82-.33-.63-.52-1-.8-2.9-.35-2.93-1.51-3.78-.15-1.54.29-1.48c2.07-.7,1-2.56,1.44-3.87.21-1.2.41-2.4.62-3.6l.57-1.31.09-1.07,2-5.36.27-1.44,1.35-1.54c.14-.28.27-.56.4-.84s.32-.24.35-.39c.62-2.61,1.56-5.21,1.71-7.86s1.2-5.63-1-8.09a1,1,0,0,0,0-.52l0-.53v-3.2l1.2-.31.16.16.55,1.37.17,2c.63,1.76,1.25,3.52,2.09,5.85a65.71,65.71,0,0,0,3.4-5.93c.38-.84,0-2,0-3l1.07-1.57-.05-.76,0-3,.39-1.15-.06-1.08c.24-.74.51-1.48.7-2.24.45-1.86-1-2.29-1.91-1.55-1.56,1.34-2.65,3.24-3.94,4.9l-.43.35-1.59,1.32c-.27,1-.53,2-.8,3l-2.57.29c-2,.22-2.61-.53-1.73-2.38a.57.57,0,0,0,.18-.38,29.94,29.94,0,0,0,3.25-2.78,2.19,2.19,0,0,0,.07-1.94c-.12-.26-1.15-.1-1.77-.13l-1.65-.57-2.67-2.06-.05-.05-2-2.19,0-2.12c.1-2.29.09-4.59.34-6.87a36.56,36.56,0,0,1,1.22-6.32c.82-2.75,1.94-5.4,3.17-8.72-3.18,1.62-4.57.22-5.57-2a3.9,3.9,0,0,0-.62-.86c-1-1.1-1.84-1.35-2.64.2-.9,1.74-2.11,1.68-3.4.44-1-1-1.48-.58-2.49.35-3,2.78-2.9,5.94-1.88,9.4,0,.33,0,.66,0,1l-.37,2.71,0,2.15a7.22,7.22,0,0,0-1.4,2c-.62,2.54-1.06,5.12-1.56,7.68l-.18.17c-2.72,0-1.71-2.27-2.19-3.63l.33-1.5c.07-1.27.15-2.54.22-3.81q-.1-6.65-.2-13.3l.09-4.71c0-2.88.05-5.75.08-8.63l0-1.39.12-.71c0-.33,0-.65,0-1l-.18-6.46.1-1.33c0-1.7-.08-3.4-.11-5.1l0-1.55.36-2.75,0-.95c0-.07.05-.14,0-.2a2.92,2.92,0,0,0-.14-.38l-.29-1c-.59-6.87-2.85-9.69-9.65-11.89-2.24,9.52.19,18.69,1.88,27.9l0,1,0,1.62,2.59,6.46.12,1.47.46,2.3,0,1.43.19.75.08,1.39c0,.08-.12.17-.1.22A3.36,3.36,0,0,0,166.91,322.15Zm960.52,174.39c-1.47-.6-3.29-1.6-3.66.94-.25,1.72.33,3.56.54,5.35-.15,2.85-.24,5.71-.48,8.56-.3,3.63.5,4.77,3.6,4.67Zm-337.27,18c-.53,0-1.06-.07-1.59,0-8.84.54-17.67,1.12-26.51,1.63-6.36.36-12.73.64-19.1,1-.32-10.55-.65-21.09-1-31.48-14.18,1.8-28.36,3.9-42.67,1.06-.81-.63-1.6-1.77-2.43-1.8-5.35-.21-10.71-.15-16.06-.24a27.46,27.46,0,0,1-5.53-.39c-4.66-1-9.25-2.43-13.91-3.46-4.46-1-8.49-2.76-11.41-6.25-2.47-3-5.45-5.68-5.74-10.12-.42-6.45-1.34-12.86-2-19.3-.82-8.23-2.9-16.34-2.41-24.7a20,20,0,0,0-.25-2.65c-.2-2.86-1.13-3.83-4.08-3.94-1.94-.07-3.88.08-5.82.09-5.24,0-10.48-.06-15.72,0-2.15,0-3.64.76-3.36,3.52.4,4,.42,8,.66,11.94,0,.5.47,1,.5,1.47.11,2.41,1.06,5.42,0,7.08-1.32,2-4,4-7.23,2.72a9.64,9.64,0,0,0-2.91-.12l-28.43-1.12a43.86,43.86,0,0,0-5.24-.19,2.26,2.26,0,0,0-1.46,1.67c0,2.87.29,5.74.48,8.78a9.57,9.57,0,0,1,2.93.05c1.5.56,3.69,1.05,4.21,2.2,2.76,6.09,5.19,12.33,7.52,18.6.79,2.14.95,4.52,1.5,7.29-1,.42-2.52,1.48-4.06,1.56-6.74.34-13.48.53-20.22.51-3.08,0-6.15-.88-9.23-.91-4.76,0-5.16.45-6,4.87-.36-7-1.12-13.93-1-20.88.19-12.12.92-24.23,1.43-36.35.31-.09.89-.18.89-.27,0-2.66.1-5.33,0-8-.08-1.43-.84-2.85-.79-4.25.25-6.59.8-13.17,1-19.77.18-6.12,0-12.25.06-18.38s0-12.45.66-18.62c.63-6.44-.11-12.41-3.3-18.05L541,341.47l-1.64-3c-1,1.11-1.5,2.39-2.31,2.59a35.74,35.74,0,0,1-8.49,1.32c-1.52,0-1.76.12-1.67,1.48.24,3.61.41,7.23.6,10.85l-.54.52c-.35-1.57-.77-3.13-1-4.72-.43-2.71-.75-5.43-1.07-7.81l-4.2-.72-3.87-.63c.53-.27,1-.76,1.57-.75,2,0,3.92.21,6.1.35a14.24,14.24,0,0,0-.88-3.5,2.94,2.94,0,0,0-2.06-1.34c-2.43,0-4.87.21-7.3.35l.47.66-1.61,2.27c-.44-1.62-1-2.64-3.18-2.62-5.52.06-5.44-.14-5.39,5.14.09,9.33,0,18.65.11,28,.2,14.74-.1,29.5,1.94,44.19.78,5.66.52,11.48.66,17.23q.18,7.29.18,14.6c0,2.71.81,4.13,3.95,4.37,4.64.35,8.31,2.37,8.75,7.78,0,.44.57.83.78,1.28,1,2-.42,7.07-2.21,8.05-3.16,1.73-7.28,1.11-9.11-1.41-2.91-4-4-8.64-4.72-13.86H484.72a28.2,28.2,0,0,0-.33,2.89c-.09,2.84.1,5.71-.22,8.52-.26,2.24-.29,4.92-3.15,5.82-3.55,1.11-3.62,4.27-4.16,7.07a5.54,5.54,0,0,0,.44,3.54c1.82,3.06,1.81,6.35,1.59,9.68a3.64,3.64,0,0,1-1.24,2.22c-1.39,1.19-2.83,2.63-4.5,3.13-3.54,1.05-3,3.94-3.09,6.29-.12,5.52.33,11.06.26,16.59s.23,11.11-6.13,14.94c1.54.21,2.22.51,2.75.34,6.18-1.92,12.54-1.35,18.84-1.22,5.22.11,10.44.87,15.66.87,9.41,0,18.83-.07,28.22-.65,5.44-.34,10.81-1.71,16.21-2.61,7.5.35,15,.87,22.5,1,7.25.14,14.51-.28,21.76-.16,8.24.13,16.49.92,24.73.79,9.55-.16,19.09-1.1,28.65-1.53,3.6-.17,7.23.34,10.83.2,8.23-.31,16.44-.94,24.67-1.22,6.62-.23,13.32.7,19.74-1.72,2.63.44,5.26,1.29,7.88,1.23,11.5-.25,23-.78,34.49-1.18,1.94-.07,3-.56,1.83-2.7a6,6,0,0,1-.37-1.55c.71,0,1.42.09,2.13,0,11.15-.7,22.29-1.56,33.46-2.09,16.56-.79,33.08-1.88,49.34-5.43,4.74-1,9.47-2.14,14.21-3.19.94-.21,2-.26.86-1.56.23-6,.51-12,.65-18a9.61,9.61,0,0,0-.82-2.84,18.84,18.84,0,0,0-2.37,2c-2.66,3-4.95,6.34-7.92,8.95-3.41,3-7.39,5.33-11.12,8-4.73,2.91-10.12,3.39-15.44,4.1C800.43,513.25,795.29,513.91,790.16,514.58ZM1129,475.15a.68.68,0,0,0,0-.42c1.83-7,1.73-14.09,1.66-21.21-.07-6.52-1.07-12.76-5-18.23l0-.68c-.06-.59.08-1.32-.22-1.75-2.14-3.17-4.43-6.23-6.55-9.41-3.77-5.64-9.61-5.67-15.88-6.23a30.46,30.46,0,0,1,1.38,2.74c1.27,3.43,3.23,6.81,3.56,10.34,1.13,12,.32,23.94-.7,35.9-.72,8.54-1.2,17.1-1.84,25.64-.13,1.75.43,2.76,2.3,2.7l20.48-.67C1128.57,487.51,1128.8,481.33,1129,475.15ZM865.47,511.5a161.84,161.84,0,0,0,3.94,22.67l1.41-.16q-.52-11-1-22c-.39-7.6-.88-15.2-1.11-22.81-.09-2.86.46-5.73-3.07-7-.23-.08-.31-.58-.5-.95.36-.08.64-.24.85-.18,3.57,1,3.77.85,2.85-2.88a10.66,10.66,0,0,0-1-2.06v0c-.41-1.15-.51-2.59-1.28-3.38-4-4.15-12.38-3.22-16.64-1l-2.17-2c-.81,2.39-1.82,4.3-2.08,6.3-.63,4.83-1.15,9.7-1.31,14.57-.37,11.79-.66,23.6-.64,35.4,0,3.91.94,7.85,1.69,11.73.15.76,1.41,1.89,2.08,1.84a3.5,3.5,0,0,0,2.6-1.74,27.74,27.74,0,0,0,2.05-8.05c.29-6.72.1-13.46.1-20.46,2.68-.37,5.38-.92,8.09-1.07,2.94-.16,3.15-.21,2.44-3.19-1-4.26-2.1-8.51-3.15-12.76l.38-.32c1.18,3.55,2.48,7.07,3.51,10.67C864.29,505.62,864.81,508.58,865.47,511.5Zm60.41-10.81c8-.53,15.91-1.09,23.88-1.57,5.13-.31,10.29-.35,15.42-.75,9.1-.71,18.18-2,27.3-2.31,13.48-.39,27,0,40.49-.11,18.78-.22,37.57-.65,56.52-1,0-1.39,0-2.07,0-2.75-.29-4.07-.78-8.14-.88-12.21-.28-12.34-.52-24.69-.53-37a47.18,47.18,0,0,1,1.4-10.48c.66-2.9,2-5.65,3.18-8.91-1.46.39-2.87.43-3.89,1.09-9.11,5.88-18.25,11.73-27.17,17.88-7.25,5-14.19,10.47-21.33,15.65a123.45,123.45,0,0,1-10.48,7.16c-8.68,5.07-17.42,10.05-26.28,14.78s-17.85,9.65-27.16,13.57c-4.65,2-10.14,2.29-15.3,2.66-9.75.7-19.53.9-29.3,1.31a5.73,5.73,0,0,0-1.81-.37c-10,1.24-19.71-.49-29.28-3.39-6-1.82-12-3.44-18.07-5.13-3.38-.94-6.78-1.82-10.16-2.74-1.26-.34-2.12-.17-2.07,1.4.15,5.85.24,11.71.49,17.55.07,1.76,1,2.95,3.09,2.77,2.71-.22,5.51.07,8.13-.5A428.79,428.79,0,0,1,925.88,500.69Zm166.41-7,11.19-.43a6.52,6.52,0,0,0,1-2.08c.11-1.49-.2-3-.1-4.51.68-9.63,1.54-19.25,2.1-28.89.45-7.78,1-15.59.64-23.36-.17-4.37-1.9-8.69-3.08-13a4.55,4.55,0,0,0-1.83-2.53,3.58,3.58,0,0,0-3-.29,15.46,15.46,0,0,0-6.74,9.05c-1.13,4.21-2.92,8.38-3.21,12.65-.53,7.77-.33,15.6-.12,23.39.26,9.49.88,19,1.27,28.47C1090.41,493.71,1090.94,494.12,1092.29,493.73Zm118.43-9.44c4.48-.29,9-.21,13.42-1,6.75-1.18,13.41-2.91,20.09-4.5,2.68-.64,2.87-1.84.83-4.15l.66-2.5a15,15,0,0,0-3.49-.38c-.89.1-1.67,1.07-2.56,1.21-6.27,1-12.52,2.35-18.82,2.6-10.81.43-21.64.24-32.46.05a19.31,19.31,0,0,1-8-1.72c-12.33-6-23.59-13.65-34.35-22.12-3.93-3.1-8.19-5.78-12.3-8.65l-2.4-2.07a210.17,210.17,0,0,1-2.49,53.07c2.9,0,5.11.11,7.31,0,10.26-.61,20.51-1.35,30.77-1.93,14.34-.81,28.69-1.52,43-2.28,1.89-.1,3.22-.23,3.26-3,0-2.39-2.07-1.46-2.55-2.62ZM207.93,482.16c1.3-.06,2.11-.09,1.59-2-1-3.53-3.82-5.65-5.81-8.31-3.51-4.68-5.53-9.62-5.2-15.35.13-2.22,1.15-4.41,1.94-6.54.69-1.84.28-2.43-1.7-2.27-6.18.49-12.37.95-18.56,1.3-5.93.34-11.86.52-17.88.77.45,4.72,1.07,8.66,1.14,12.61.13,7.62-.06,15.26-.1,22.89,0,2-1.18,2.62-2.89,2.72-2.63.14-5.27.26-7.41.36-7.41,9.55-12.71,20.32-21.77,28.37.35.5.71,1,1,1.49,2.12,3.19,4.64,4.78,8.89,4.15,3.21-.47,6.65.6,10,1,.32,0,.6.36.9.55,4.41,3,9.19,1.1,13.82,1a40.57,40.57,0,0,0,4.71-.7c1-.14,2.14,0,3.17-.26,2.73-.61,5.46-1.24,8.13-2.06A79,79,0,0,0,193.13,518c4-1.94,7.55-4.87,12.38-4.36-.42.69-1,2-1.26,2-2.58-.46-3.93,1.75-5.9,2.48-4.26,1.57-8.61,2.92-12.95,4.27-8.92,2.77-17.76,5.78-27.41,4.13-4.94-.85-10.15-.39-15-1.6-8.22-2-16.24-4.93-24.33-7.5-5.52-1.76-10.92-4-16.55-5.25-6.35-1.41-12.93-1.74-19.35-2.88-6.21-1.1-11.58.62-16.94,3.56-3.6,2-5.06,4.38-4.89,8.56.28,6.59,0,6.73,6.63,7.67,4.28.61,8.62.85,12.94,1.17,9,.66,18,1.33,27,1.86,4.42.26,8.86.1,13.28.31,8.77.42,17.53,1.15,26.3,1.4,5.94.17,11.89-.28,17.84-.41,16-.34,32,0,47.82-2.16,10-1.35,19.91-2.82,29.85-4.35,1-.16,2.4-.94,2.63-1.72s-.78-1.94-1.47-2.74c-3-3.46-6.24-6.78-9.21-10.29a7.51,7.51,0,0,0-6-2.73c-4.39-.09-8.85.69-13.08-1.19a2.5,2.5,0,0,0-1.8-3.09,3.66,3.66,0,0,1-1.88-1.64A22.45,22.45,0,0,1,209.92,490c.41-2.34-.14-3.14-2.55-3.07s-4.6.37-6.9.41c-6.3.13-12.64-.23-18.89.39a17.33,17.33,0,0,1-9.61-2c-3.23-1.55-3.38-3-.94-5.47a7.7,7.7,0,0,1,1.62-1.35c7.71-4.39,15.82-4.43,24.1-2.09a36.12,36.12,0,0,1,4.28,1.78c-2.85-.53-5.72-.95-8.54-1.6a24.14,24.14,0,0,0-18.16,2.64,5,5,0,0,0-1.91,3.42c-.06.56,1.62,1.51,2.65,1.92a8.89,8.89,0,0,0,3.15.37c7.55.05,15.1.16,22.64.05,3,0,6-.58,9.63-1Zm44.52,42.46c3.58-.13,7.18-.16,10.75-.42,9.08-.63,18.14-1.6,27.22-2,10.55-.47,21.12-.26,31.67-.72,20.11-.88,40.21-2,60.31-3.09,10.45-.58,20.88-1.36,31.32-2.12a10.51,10.51,0,0,0,2.85-1.09l2-.19v20.59a7.26,7.26,0,0,0,2.08.3c3.26-.23,6.5-.71,9.75-.89,8-.43,16-.74,23.95-1.11,1.77-.09,3.61-.6,5.28-.25,4,.83,4.76.29,4.32-3.64-.57-5-1.39-10.08-1.6-15.14-.59-13.65-.92-27.31-1.35-41,0-1.16,0-2.31,0-3.46-.56-21.22-1.23-42.44-1.62-63.67-.11-6,.92-12,.86-18.05-.13-12.55-.83-25.07-3.17-37.45-.39-2.05-1.37-3.15-3.6-3-2.78.17-5.57.13-8.34.36a2.41,2.41,0,0,0-1.78,1.28c-.52,2.12-1.2,4.35-1,6.47.42,4.92,1.61,9.79,1.93,14.72.42,6.63.4,13.3.41,19.95,0,13.85-.16,27.71,0,41.56.14,11.71.65,23.41,1,35.11.12,3.74.32,7.49.51,11.91-.54-.86-.76-1.06-.79-1.28-.72-6.94-1.3-13.9-2.17-20.82-1.23-9.73-1.07-19.45-.69-29.23,1-25-.1-49.91-1.5-74.84-.25-4.37-1.44-5.36-5.86-5.13-2.65.14-5.3.55-7.95.53-4.05,0-4.66.29-4.76,4.52-.14,5.74-.08,11.5,0,17.25.1,5.59.43,11.18.55,16.77.27,12.25.62,24.5.65,36.74,0,10.12-.47,20.25-.5,30.37,0,8.61.57,17.24.34,25.84-.12,4.69-1.38,9.34-2.12,13.92l-3.24.19c-1.47-2.35-3.1-4.61-4.37-7.06-2.59-5-4.86-10.11-7.54-15-.69-1.29-2.42-2.84-3.67-2.83a51.11,51.11,0,0,0-12.37,1.18c-6.53,1.64-11.72-.73-16.76-4.26-.71-.5-1.52-.87-2.23-1.36-5-3.37-9.81-6.82-10.78-13.39q-1.31-8.93-2.59-17.84c-.13-.87-.24-1.74-.34-2.61-.13-1.27-.25-2.53-.42-4.17a44.29,44.29,0,0,0-4.49-.39c-10.29,0-20.58,0-30.87-.07-1.54,0-2.64.47-2.92,1.76-.66,3-1,6.15-1.55,9.44,3.65-.35,5.75,1.47,7.62,3.41a14.57,14.57,0,0,1,4.21,11.16c-.29,5.25-.85,10.5-1.52,15.72a20.81,20.81,0,0,1-1.83,6c-.42.91-2.06,2.18-2.55,2a5.71,5.71,0,0,1-3.06-2.91c-.88-3-1.13-6.14-1.75-9.21-1.4-7-2.8-14.06-2.12-21.33.25-2.74-1-3.67-3.79-3.63l-20,.33a3.68,3.68,0,0,0-4,4c.09,2.73.33,5.45.52,8.17.23,3.43.5,6.85.68,10.28.09,1.68-.13,3.38,0,5.05.18,1.95.8,3.88.86,5.82a16.33,16.33,0,0,0,1.6,7.66c2,3.6,3.58,7.38,5.38,11.06.65,1.33,1,2.82-.72,3.25a2.4,2.4,0,0,1-3.12-1.95,34.15,34.15,0,0,0-2.5-7.8,16.15,16.15,0,0,0-4.56-5.76c-3.46-2.51-11.11.38-11.94,4.4-.94,4.58-2,9.26-2,13.88.11,6.06-2.44,11.2-5,16.09-3.08,5.88-8.93,9.13-15.25,11.17v.7l.36-.28Zm295.87-84.44-.08-.93c.63-.08,1.26-.2,1.89-.23,3.42-.12,6.86-.07,10.26-.38,2-.18,2.84-1.34,2.05-3.56-1-2.84-2-5.24-4.81-7.18-3.61-2.5-7.15-3.13-11.49-2.74a87.09,87.09,0,0,0-.89,9c0,4.94.51,9.87.49,14.81a60.84,60.84,0,0,1-.88,12.46c-1.17,5.39-1.31,10.52.46,15.5h34.41c-.44-2.91-.38-5.33-1.2-7.4-2.07-5.21-4.45-10.3-6.91-15.35a4,4,0,0,0-2.79-1.78c-3.8-.43-4.17-.67-4.21-4.52,0-2.88,0-5.76,0-8.82Zm-8.75-102.06c.22-.45.63-.9.63-1.35a73.37,73.37,0,0,0-.17-7.71c-.49-4.79-1.55-9.55-1.72-14.34-.2-5.89-.06-11.55-7.56-13.22-.69-.15-1.48-2-1.42-3,.28-4.65.95-9.28,1.28-13.93.3-4.16.39-8.34.49-12.51.08-3.16,0-6.31,0-9.7-4,0-7.61-.08-11.24.07-.64,0-1.76,1-1.78,1.52-.14,4.24-.08,8.48-.08,12.54,2.12.82,4.21.81,4.17,3.49-.09,5.95.07,11.91-.13,17.86a6,6,0,0,1-1.9,3.64c-2,1.92-4.44,3.46-6.52,5.34a3.81,3.81,0,0,0-.87,2.65c.13,6.38.37,12.76.61,19.13.08,2.18.25,4.35.37,6.24,6.6-.39,12.92-.8,19.23-1.11C536.65,333.51,537.65,334.25,539.57,338.12ZM696.3,469.74c.54,1.71.6,3.05,1.3,3.8,1,1.12.71,1.81.38,3.13a9.93,9.93,0,0,0,.3,6.11c1.28,2.77,6.36,4.22,9.37,3.57a51.71,51.71,0,0,1,7-1c8.13-.6,16.26-1.1,24.38-1.64,2.15-.14,3.52-.88,3.13-3.43-.24-1.57-.13-3.19-.29-4.78-.65-6.35-1.44-6.46-6.49-6.76-1.06-.06-2.11-.38-3.16-.37-7.89.11-15.78.2-23.67.45C704.6,469,700.67,469.41,696.3,469.74ZM1091,496.1a30,30,0,0,0,0,3.15c.4,4,.88,8,1.3,12,.56,5.38,1,10.76,1.69,16.11.18,1.29,1.23,3.37,2.07,3.47a6.4,6.4,0,0,0,4.26-1.7c3.11-2.69,2.89-6.66,3.05-10.25.34-7.17.19-14.35.48-21.52.08-2.07-.48-2.46-2.35-2.23C1098.23,495.55,1094.88,495.76,1091,496.1ZM317.27,440.18c1,7.19,2,14.27,3.06,21.33.5,3.4,1.06,6.8,1.75,10.16a8.3,8.3,0,0,0,1.51,2.4c.39-.91.8-1.81,1.16-2.72a2.63,2.63,0,0,0,.06-.8c.32-5.21.75-10.42.94-15.65a46,46,0,0,0-.43-8.2C324.83,443.26,321.33,440.39,317.27,440.18ZM523.38,249.75a3.74,3.74,0,0,0-.53-.95,4.15,4.15,0,0,0-5.53-.63c-1.48,1.27-3.07,2.83-1.81,4.92a20,20,0,0,0,4.27,5c1.53,1.26,3.5,2.73,5.3,2.77,4.24.09,8-4.93,7.49-9.29-.41-3.71-2.29-5-5.84-3.66A22.34,22.34,0,0,0,523.38,249.75Zm-15.6,202.8c.36,2.53.67,4.93,1,7.34a7.11,7.11,0,0,0,3.82,5.27c1.94,1.09,4.72.44,5.15-1.34.7-2.92,1.53-6.14-.85-8.56A9.52,9.52,0,0,0,507.78,452.55ZM526.2,340.68c3-.37,5.82-.62,8.59-1.11.67-.12,1.76-1.17,1.67-1.52-.21-.77-1-1.91-1.65-1.94-3.45-.19-6.91-.09-10.63-.09Z"/><path class="cls-2" d="M543.58,483.88c.86-4.42,1.26-4.91,6-4.87,3.08,0,6.15.9,9.23.91,6.74,0,13.48-.17,20.22-.51,1.54-.08,3-1.14,4.06-1.56-.55-2.77-.71-5.15-1.5-7.29-2.33-6.27-4.76-12.51-7.52-18.6-.52-1.15-2.71-1.64-4.21-2.2a9.57,9.57,0,0,0-2.93-.05c-.19-3-.46-5.91-.48-8.78a2.26,2.26,0,0,1,1.46-1.67,43.86,43.86,0,0,1,5.24.19l28.43,1.12a9.64,9.64,0,0,1,2.91.12c3.27,1.24,5.91-.71,7.23-2.72,1.09-1.66.14-4.67,0-7.08,0-.5-.48-1-.5-1.47-.24-4-.26-8-.66-11.94-.28-2.76,1.21-3.48,3.36-3.52,5.24-.08,10.48,0,15.72,0,1.94,0,3.88-.16,5.82-.09,3,.11,3.88,1.08,4.08,3.94a20,20,0,0,1,.25,2.65c-.49,8.36,1.59,16.47,2.41,24.7.64,6.44,1.56,12.85,2,19.3.29,4.44,3.27,7.15,5.74,10.12,2.92,3.49,6.95,5.27,11.41,6.25,4.66,1,9.25,2.42,13.91,3.46a27.46,27.46,0,0,0,5.53.39c5.35.09,10.71,0,16.06.24.83,0,1.62,1.17,2.42,1.8q.3,9.27.59,18.54l.42,2.32-1.56,19.3c-6.42,2.42-13.12,1.49-19.74,1.72-8.23.28-16.44.91-24.67,1.22-3.6.14-7.23-.37-10.83-.2-9.56.43-19.1,1.37-28.65,1.53-8.24.13-16.49-.66-24.73-.79-7.25-.12-14.51.3-21.76.16-7.5-.13-15-.65-22.5-1a27.18,27.18,0,0,1-.73-3.83c-.36-7.93-.66-15.85-.95-23.78C544,495.89,543.78,489.88,543.58,483.88Z"/><path class="cls-3" d="M416.57,515.18a10.51,10.51,0,0,1-2.85,1.09c-10.44.76-20.87,1.54-31.32,2.12-20.1,1.11-40.2,2.21-60.31,3.09-10.55.46-21.12.25-31.67.72-9.08.4-18.14,1.37-27.22,2-3.57.26-7.17.29-10.75.42h.07c6.34-2,12.19-5.28,15.27-11.16,2.56-4.89,5.11-10,5-16.09-.08-4.62,1-9.3,2-13.88.83-4,8.48-6.91,11.94-4.4a16.15,16.15,0,0,1,4.56,5.76,34.15,34.15,0,0,1,2.5,7.8,2.4,2.4,0,0,0,3.12,1.95c1.72-.43,1.37-1.92.72-3.25-1.8-3.68-3.43-7.46-5.38-11.06a16.33,16.33,0,0,1-1.6-7.66c-.06-1.94-.68-3.87-.86-5.82-.14-1.67.08-3.37,0-5.05-.18-3.43-.45-6.85-.68-10.28-.19-2.72-.43-5.44-.52-8.17a3.68,3.68,0,0,1,4-4l20-.33c2.79,0,4,.89,3.79,3.63-.68,7.27.72,14.29,2.12,21.33.62,3.07.87,6.23,1.75,9.21A5.71,5.71,0,0,0,323.2,476c.49.23,2.13-1,2.55-2a20.81,20.81,0,0,0,1.83-6c.67-5.22,1.23-10.47,1.52-15.72a14.57,14.57,0,0,0-4.21-11.16c-1.87-1.94-4-3.76-7.62-3.41.52-3.29.89-6.4,1.55-9.44.28-1.29,1.38-1.78,2.92-1.76,10.29.09,20.58,0,30.87.07a44.29,44.29,0,0,1,4.49.39c.17,1.64.29,2.9.42,4.17.1.87.21,1.74.34,2.61q1.29,8.92,2.59,17.84c1,6.57,5.82,10,10.78,13.39.71.49,1.52.86,2.23,1.36,5,3.53,10.23,5.9,16.76,4.26a51.11,51.11,0,0,1,12.37-1.18c1.25,0,3,1.54,3.67,2.83,2.68,4.91,4.95,10.05,7.54,15,1.27,2.45,2.9,4.71,4.37,7.06,2.8,2.24,2.06,5.4,2.1,8.33,0,3.19,0,6.37,0,9.56a10.43,10.43,0,0,1-.2,1.67Z"/><path class="cls-4" d="M543.58,483.88c.2,6,.39,12,.61,18,.29,7.93.59,15.85.95,23.78a27.18,27.18,0,0,0,.73,3.83c-5.4.9-10.77,2.27-16.21,2.61-9.39.58-18.81.66-28.22.65-5.22,0-10.44-.76-15.66-.87-6.3-.13-12.66-.7-18.84,1.22-.53.17-1.21-.13-2.75-.34,6.36-3.83,6.06-9.5,6.13-14.94s-.38-11.07-.26-16.59c.06-2.35-.45-5.24,3.09-6.29,1.67-.5,3.11-1.94,4.5-3.13a3.64,3.64,0,0,0,1.24-2.22c.22-3.33.23-6.62-1.59-9.68a5.54,5.54,0,0,1-.44-3.54c.54-2.8.61-6,4.16-7.07,2.86-.9,2.89-3.58,3.15-5.82.32-2.81.13-5.68.22-8.52a28.2,28.2,0,0,1,.33-2.89h20.09c.68,5.22,1.81,9.85,4.72,13.86,1.83,2.52,6,3.14,9.11,1.41,1.79-1,3.18-6,2.21-8.05-.21-.45-.75-.84-.78-1.28-.44-5.41-4.11-7.43-8.75-7.78-3.14-.24-3.95-1.66-3.95-4.37q0-7.31-.18-14.6c-.14-5.75.12-11.57-.66-17.23-2-14.69-1.74-29.45-1.94-44.19-.12-9.33,0-18.65-.11-28-.05-5.28-.13-5.08,5.39-5.14,2.22,0,2.74,1,3.18,2.62l3.71,2,3.87.63,4.2.72c.32,2.38.64,5.1,1.07,7.81.25,1.59.67,3.15,1,4.72.26,6.26,0,12.34-2.25,18.4s-3.4,12.57-5.24,18.81c-1.57,5.31-2.5,10.77-4.83,15.92-1.72,3.82-2.12,8.24-3.17,12.37-.18.71-.75,1.33-.92,2a8.92,8.92,0,0,0,0,2.07l.87.16c5.26-19.46,13.49-38,16.8-58.18.41,3.55.34,7.09.43,10.62.15,6.62,0,13.28.74,19.84.5,4.5,2.31,8.85,3.45,13.29,1.19,4.63,5,8.11,5.61,13,.23,1.77,4.19,3.63,5.67,3.13l0,0c-.51,12.12-1.24,24.23-1.43,36.35C542.46,470,543.22,476.92,543.58,483.88Z"/><path class="cls-5" d="M416.57,515.18l3.48-1.18a10.43,10.43,0,0,0,.2-1.67c0-3.19.06-6.37,0-9.56,0-2.93.7-6.09-2.1-8.33l3.24-.19c.74-4.58,2-9.23,2.12-13.92.23-8.6-.37-17.23-.34-25.84,0-10.12.53-20.25.5-30.37,0-12.24-.38-24.49-.65-36.74-.12-5.59-.45-11.18-.55-16.77-.1-5.75-.16-11.51,0-17.25.1-4.23.71-4.54,4.76-4.52,2.65,0,5.3-.39,7.95-.53,4.42-.23,5.61.76,5.86,5.13,1.4,24.93,2.46,49.87,1.5,74.84-.38,9.78-.54,19.5.69,29.23.87,6.92,1.45,13.88,2.17,20.82,0,.22.25.42.79,1.28-.19-4.42-.39-8.17-.51-11.91-.38-11.7-.89-23.4-1-35.11-.16-13.85,0-27.71,0-41.56,0-6.65,0-13.32-.41-19.95-.32-4.93-1.51-9.8-1.93-14.72-.19-2.12.49-4.35,1-6.47a2.41,2.41,0,0,1,1.78-1.28c2.77-.23,5.56-.19,8.34-.36,2.23-.14,3.21,1,3.6,3,2.34,12.38,3,24.9,3.17,37.45.06,6-1,12-.86,18.05.39,21.23,1.06,42.45,1.62,63.67,0,1.15,0,2.3,0,3.46.43,13.65.76,27.31,1.35,41,.21,5.06,1,10.1,1.6,15.14.44,3.93-.36,4.47-4.32,3.64-1.67-.35-3.51.16-5.28.25-8,.37-16,.68-23.95,1.11-3.25.18-6.49.66-9.75.89a7.26,7.26,0,0,1-2.08-.3V515Z"/><path class="cls-6" d="M201,478.57a36.12,36.12,0,0,0-4.28-1.78c-8.28-2.34-16.39-2.3-24.1,2.09a7.7,7.7,0,0,0-1.62,1.35c-2.44,2.45-2.29,3.92.94,5.47a17.33,17.33,0,0,0,9.61,2c6.25-.62,12.59-.26,18.89-.39,2.3,0,4.6-.35,6.9-.41s3,.73,2.55,3.07a22.45,22.45,0,0,0,1.86,13.46,3.66,3.66,0,0,0,1.88,1.64,2.5,2.5,0,0,1,1.8,3.09c-.33.47-.87.89-1,1.41-.61,3.07-1.66,4-4.72,4l-4.26,0c-4.83-.51-8.38,2.42-12.38,4.36a79,79,0,0,1-11.21,3.91c-2.67.82-5.4,1.45-8.13,2.06-1,.23-2.12.12-3.17.26a40.57,40.57,0,0,1-4.71.7c-4.63.09-9.41,2-13.82-1-.3-.19-.58-.51-.9-.55-3.33-.42-6.77-1.49-10-1-4.25.63-6.77-1-8.89-4.15-.33-.51-.69-1-1-1.49,9.06-8.05,14.36-18.82,21.77-28.37,2.14-.1,4.78-.22,7.41-.36,1.71-.1,2.88-.76,2.89-2.72,0-7.63.23-15.27.1-22.89-.07-4-.69-7.89-1.14-12.61,6-.25,11.95-.43,17.88-.77,6.19-.35,12.38-.81,18.56-1.3,2-.16,2.39.43,1.7,2.27-.79,2.13-1.81,4.32-1.94,6.54-.33,5.73,1.69,10.67,5.2,15.35,2,2.66,4.85,4.78,5.81,8.31.52,1.93-.29,2-1.59,2l.09,0-1.13-.56h0c-.22-3.36-2.76-2.59-4.81-2.69l0,0-1.12-.54Z"/><path class="cls-7" d="M205.51,513.62l4.26,0c3.06,0,4.11-.94,4.72-4,.1-.52.64-.94,1-1.41,4.23,1.88,8.69,1.1,13.08,1.19a7.51,7.51,0,0,1,6,2.73c3,3.51,6.17,6.83,9.21,10.29.69.8,1.68,2,1.47,2.74s-1.64,1.56-2.63,1.72c-9.94,1.53-19.89,3-29.85,4.35-15.87,2.15-31.86,1.82-47.82,2.16-5.95.13-11.9.58-17.84.41-8.77-.25-17.53-1-26.3-1.4-4.42-.21-8.86,0-13.28-.31-9-.53-18-1.2-27-1.86-4.32-.32-8.66-.56-12.94-1.17-6.66-.94-6.35-1.08-6.63-7.67-.17-4.18,1.29-6.59,4.89-8.56,5.36-2.94,10.73-4.66,16.94-3.56,6.42,1.14,13,1.47,19.35,2.88,5.63,1.24,11,3.49,16.55,5.25,8.09,2.57,16.11,5.45,24.33,7.5,4.82,1.21,10,.75,15,1.6,9.65,1.65,18.49-1.36,27.41-4.13,4.34-1.35,8.69-2.7,12.95-4.27,2-.73,3.32-2.94,5.9-2.48C204.54,515.64,205.09,514.31,205.51,513.62Z"/><path class="cls-8" d="M1245.06,474.66c2,2.31,1.85,3.51-.83,4.15-6.68,1.59-13.34,3.32-20.09,4.5-4.4.77-8.94.69-13.42,1l-14-.46c-1.76-.17-3.64,0-5.27-.55a185.89,185.89,0,0,1-18.09-6.61,115.25,115.25,0,0,1-27.21-17.11c-3.45-3-7-5.85-10-8.35.52,12,1,24.62,1.59,37.23l60-3.72c1-.05,1.93-.11,2.89-.14l10-.28c.48,1.16,2.58.23,2.55,2.62,0,2.77-1.37,2.9-3.26,3-14.34.76-28.69,1.47-43,2.28-10.26.58-20.51,1.32-30.77,1.93-2.2.13-4.41,0-7.31,0a210.17,210.17,0,0,0,2.49-53.07l2.4,2.07c.18.39.25.92.55,1.16,6.44,5.06,12.69,10.4,19.42,15,7.1,4.9,14.68,9.09,22,13.66,6.91,4.32,14.56,5.56,22.54,5.9,13.84.59,27.36-1.57,40.86-4.12A35.11,35.11,0,0,1,1245.06,474.66Z"/><path class="cls-2" d="M548.32,440.18l16.3-1.07c0,3.06,0,5.94,0,8.82,0,3.85.41,4.09,4.21,4.52a4,4,0,0,1,2.79,1.78c2.46,5,4.84,10.14,6.91,15.35.82,2.07.76,4.49,1.2,7.4H545.32c-1.77-5-1.63-10.11-.46-15.5a60.84,60.84,0,0,0,.88-12.46c0-4.94-.5-9.87-.49-14.81a87.09,87.09,0,0,1,.89-9c4.34-.39,7.88.24,11.49,2.74,2.8,1.94,3.8,4.34,4.81,7.18.79,2.22-.06,3.38-2.05,3.56-3.4.31-6.84.26-10.26.38-.63,0-1.26.15-1.89.23Z"/><path class="cls-9" d="M539.57,338.12c-1.92-3.87-2.92-4.61-6.59-4.43-6.31.31-12.63.72-19.23,1.11-.12-1.89-.29-4.06-.37-6.24-.24-6.37-.48-12.75-.61-19.13a3.81,3.81,0,0,1,.87-2.65c2.08-1.88,4.48-3.42,6.52-5.34a6,6,0,0,0,1.9-3.64c.2-5.95,0-11.91.13-17.86,0-2.68-2.05-2.67-4.17-3.49,0-4.06-.06-8.3.08-12.54,0-.55,1.14-1.5,1.78-1.52,3.63-.15,7.26-.07,11.24-.07,0,3.39.06,6.54,0,9.7-.1,4.17-.19,8.35-.49,12.51-.33,4.65-1,9.28-1.28,13.93-.06,1,.73,2.89,1.42,3,7.5,1.67,7.36,7.33,7.56,13.22.17,4.79,1.23,9.55,1.72,14.34a73.37,73.37,0,0,1,.17,7.71C540.2,337.22,539.79,337.67,539.57,338.12Z"/><path class="cls-4" d="M527.46,354.67c-.19-3.62-.36-7.24-.6-10.85-.09-1.36.15-1.48,1.67-1.48A35.74,35.74,0,0,0,537,341c.81-.2,1.36-1.48,2.31-2.59l1.64,3,1.49-2.15c3.19,5.64,3.93,11.61,3.3,18.05-.61,6.17-.56,12.41-.66,18.62s.12,12.26-.06,18.38c-.19,6.6-.74,13.18-1,19.77,0,1.4.71,2.82.79,4.25.15,2.66.08,5.33,0,8,0,.09-.58.18-.89.27l0,0c-1.95-2.43-4.28-4.64-5.74-7.32a51.31,51.31,0,0,1-4.38-10.83,93.34,93.34,0,0,1-2.46-13.39c-.78-6.55-1.24-13.13-1.79-19.7-.25-3-.26-6.05-.58-9.06C528.65,362.47,528,358.57,527.46,354.67Z"/><path class="cls-10" d="M699.89,505.25q-.28-9.28-.59-18.55c14.32,2.84,28.5.74,42.68-1.06.33,10.39.66,20.93,1,31.48v-.07a9.52,9.52,0,0,1-2.9.84,56.21,56.21,0,0,1-6.84-.81c-5.39-.92-10.72-2.16-16.13-2.85a23.11,23.11,0,0,1-15.19-8.07C701.46,505.66,700.57,505.54,699.89,505.25Z"/><path class="cls-11" d="M188.17,403.24l.15,1.54a15.29,15.29,0,0,0-.2,1.64,12.23,12.23,0,0,0,.15,1.58l.44.56h.06l-.05,1a16,16,0,0,1-2.66,1.64c-4.83,1.88-3.67,3.69-2.52,8.52,2.39-2.2,4.59-1.37,6.83.23a17.41,17.41,0,0,0,2.95,1.41l.3,1.55c0,.54,0,1.08,0,1.62a2.08,2.08,0,0,0,0,.79c2.55,4.86.45,8.35-3.34,11.34-.47.37-.89.8-1.41,1.28.34.44.57.8.85,1.11,2.24,2.47,2.09,3-1.17,3.79-3,.73-6,1.35-9,2.16a11.56,11.56,0,0,0-2.55,1.43l-2.61.08c-1.33-.73-2.68-1.51-3.31.77h-2c-.21-.47-.41-.95-.61-1.42.6-.52,1.25-1.55,1.77-1.49a16.24,16.24,0,0,0,7.74-.86,18.8,18.8,0,0,0,3.18-1.94c-1-.86-1.91-2.39-3-2.46-2.29-.16-4.56-2.15-7-.28-.4.3-1.47-.3-2.24-.45-.94-.19-2.09-.76-2.79-.42a10.66,10.66,0,0,0-3.75,3c-.27.35.86,2.08,1.66,2.85a19.24,19.24,0,0,0,3.35,2.08l-1.68.71-4.2-.13a6.21,6.21,0,0,0-1.23-1.18c-3.81-2-4.07-3.05-2.44-6.87.54-1.28.16-2.95.2-4.45l0-.85,1.68-4.93.05-.1,1.17-1.47.66-1.48c1.19-.38,2.13-.85.9-2.2.19-.88.38-1.76.56-2.64,2-.84,5.58-6.35,5.75-8.38a5.88,5.88,0,0,1,1.13-3.22c2.51-2.88,2.68-3.56,1.09-7a3.16,3.16,0,0,1-.34-2.27c1.88-3.53,3-7.7,7-9.61a4.31,4.31,0,0,1,3.9.43,13.2,13.2,0,0,1,4.23,10.09C185.77,402.34,186.37,403.05,188.17,403.24Zm-10.91,15.3.65-.39c-.69-1-1.27-2.66-2.09-2.79a5.2,5.2,0,0,0-4,1.11c-3.38,3.53-6.58,7.24-9.6,11.08-1.36,1.73-.78,3.62.89,5.17s2.9.68,4-.64c1-1.13,1.7-2.45,2.71-3.51a7.16,7.16,0,0,1,2.25-1.16c1.68-.75,3.74-1.08,4.95-2.28s2.46-3.17.62-5.16C177.34,419.65,177.38,419,177.26,418.54Z"/><path class="cls-10" d="M696.3,469.74c4.37-.33,8.3-.78,12.25-.9,7.89-.25,15.78-.34,23.67-.45,1,0,2.1.31,3.16.37,5,.3,5.84.41,6.49,6.76.16,1.59,0,3.21.29,4.78.39,2.55-1,3.29-3.13,3.43-8.12.54-16.25,1-24.38,1.64a51.71,51.71,0,0,0-7,1c-3,.65-8.09-.8-9.37-3.57a9.93,9.93,0,0,1-.3-6.11c.33-1.32.66-2-.38-3.13C696.9,472.79,696.84,471.45,696.3,469.74Z"/><path class="cls-12" d="M1103.48,493.3l-11.19.43a9.44,9.44,0,0,1-1.07-2.78c-.45-10.17-1.22-20.35-1-30.51.19-11.3-1.21-22.86,4.14-33.64,1.29-2.61,2.45-5,5-6.48a8,8,0,0,1,4.31,6.07,48.24,48.24,0,0,1,1.32,9.72c-.14,10.82-.65,21.64-1,32.46C1103.78,476.81,1103.65,485.06,1103.48,493.3Zm-4-66.37-.84-.1c-1.06,3.68-2.7,7.3-3.05,11-.73,7.57-1,15.21-1,22.82,0,9.1.37,18.2.58,27.27h4.18C1097.9,467.49,1102.42,447.23,1099.49,426.93Z"/><path class="cls-13" d="M931.74,497.68c9.77-.41,19.55-.61,29.3-1.31,5.16-.37,10.65-.69,15.3-2.66,9.31-3.92,18.23-8.8,27.16-13.57s17.6-9.71,26.28-14.78a123.45,123.45,0,0,0,10.48-7.16c7.14-5.18,14.08-10.64,21.33-15.65,8.92-6.15,18.06-12,27.17-17.88,1-.66,2.43-.7,3.89-1.09-1.19,3.26-2.52,6-3.18,8.91a47.18,47.18,0,0,0-1.4,10.48c0,12.34.25,24.69.53,37,.1,4.07.59,8.14.88,12.21,0,.68,0,1.36,0,2.75-19,.34-37.74.77-56.52,1-13.5.15-27-.28-40.49.11-9.12.27-18.2,1.6-27.3,2.31-5.13.4-10.29.44-15.42.75-8,.48-15.92,1-23.88,1.57.53-.32,1.06-.68,1.62-1C928.9,499,930.32,498.36,931.74,497.68ZM1089.48,426c-1.56.9-3.28,1.77-4.87,2.83-3.82,2.56-7.59,5.2-11.37,7.82-7.84,5.44-15.73,10.8-23.48,16.36-3.44,2.47-6.39,5.63-9.89,8-6.07,4.09-12.31,8-18.65,11.63-7.27,4.21-14.68,8.17-22.11,12.12-5.92,3.14-12,6.09-18.4,9.36,1.51.48,2.46,1.05,3.41,1q13.83,0,27.65-.23,32.36-.48,64.73-1.05a74.88,74.88,0,0,0,9.77-1,2.44,2.44,0,0,0,1.5-1.84c-.4-8.1-1-16.19-1.46-24.28,0-.27,0-.54,0-.8a99.06,99.06,0,0,1,1.14-26.63C1088.24,435,1088.76,430.66,1089.48,426Z"/><path class="cls-14" d="M859.57,492.41c1,4.25,2.13,8.5,3.15,12.76.71,3,.5,3-2.44,3.19-2.71.15-5.41.7-8.09,1.07,0,7,.19,13.74-.1,20.46a27.74,27.74,0,0,1-2.05,8.05,3.5,3.5,0,0,1-2.6,1.74c-.67.05-1.93-1.08-2.08-1.84-.75-3.88-1.69-7.82-1.69-11.73,0-11.8.27-23.61.64-35.4.16-4.87.68-9.74,1.31-14.57.26-2,1.27-3.91,2.08-6.3l2.17,2c4.26-2.26,12.63-3.19,16.64,1,.77.79.87,2.23,1.28,3.38-4-6.1-9.88-5.4-15.76-4.5l.47,1.91,1.94,1.07,0,0,.56.56,0,0,1.1.55h0l5.09,2.69.75.24,2,1.7c.06-.31.13-.62.19-.93.42.08.85.15,1.27.26,2.54.68,3,.28,2.57-2.22-.07-.43-.05-.87-.08-1.3a10.66,10.66,0,0,1,1,2.06c.92,3.73.72,3.9-2.85,2.88-.21-.06-.49.1-.85.18.19.37.27.87.5.95,3.53,1.26,3,4.13,3.07,7,.23,7.61.72,15.21,1.11,22.81l-1.65-1.44-2.66.93c-.66-2.92-1.18-5.88-2-8.74-1-3.6-2.33-7.12-3.51-10.67-.15-.38-.29-.77-.44-1.15l-.33.12Zm-8.84-2.26q.12,8.93.23,17.86l1.27.15a10,10,0,0,0,.55-2.83c-.5-5-1.13-10.07-1.72-15.11l-.47-8.88-.7.06Zm-1.67,22.35,0-2.58a5.09,5.09,0,0,0,.56-1.69c-.37-8.84-.79-17.68-1.2-26.52l-.94,0v3.67l0,0a12,12,0,0,0-1.08,2.92c-.42,5.07-.8,10.15-1,15.22A50.41,50.41,0,0,0,846,510c0,.84,0,1.67,0,2.5-.21,3.71-.61,7.43-.57,11.14a76,76,0,0,0,.93,9.75c.08.61,1,1.09,1.6,1.62a7.38,7.38,0,0,0,1.54-1.8,6,6,0,0,0,.14-2.37C849.47,524.72,849.26,518.61,849.06,512.5Zm7.33-35.08-.79.81a5,5,0,0,0,.24.94c2.63,5.82,5.35,11.61,7.89,17.48.83,1.93,1.13,4.09,1.87,6.08.24.65,1.1,1.09,1.67,1.62.35-.62,1-1.26,1-1.87-.09-3.18-.27-6.36-.59-9.52-.25-2.45.07-5.58-1.31-7.16C863.54,482.56,859.77,480.16,856.39,477.42Zm-4.7,1.55c.23,3.39.35,6,.59,8.53q.78,8.46,1.67,16.9c.17,1.64.92,2.68,2.83,2.12,1.51-.45,3.43-.19,3-2.92A92.16,92.16,0,0,0,854,483,38,38,0,0,0,851.69,479Z"/><path class="cls-15" d="M195.2,382.73c-.13.28-.26.56-.4.84l-2,.68.65.86-.27,1.44c-2.59,1.07-2.18,3.26-2,5.36l-.09,1.07-.57,1.31c-.21,1.2-.41,2.4-.62,3.6l-1.12,0-.51-4.78c.21-3.49-2.22-5-4.8-6.41h0a50.86,50.86,0,0,0-3.8-5.22,1.6,1.6,0,0,0-2.87.78c-.3,2.11-1.68,3.06-3,4.32a34.83,34.83,0,0,0-3.68,4.65c-.06.08.36.53.56.81q-1,2.14-1.91,4.29l-.5-.1c.58-7.1,1.11-14.21,1.77-21.31.2-2.14.76-4.26,1.15-6.38l1,4.24c-1.44,1.63-1.52,4,0,4.28,2.44.41,4.9.47,7,2.12.16.14.81,0,1-.23,2-2.6,4.68-5,5.74-7.94,1-2.71.21-6.05.21-9.29l-2.64.95c-.49-.76-.93-1.51-1.45-2.2-1.72-2.28-2.17-2.24-4.11-.15a23.08,23.08,0,0,1-3.11,2.34c-.26-2.56-.83-4.06-3.11-3.76l.15-3.1,5.47,1.34c-1.13-2.91-3.51-3.5-5.5-4.58l-.69-1.14c-.12-.54-.23-1.09-.35-1.63l2.18-2.25.18-.17.81-.11c2.84,0,1.51-1.93,1.55-3.23l.54-2.12c1.37-.39,3-.43,4-1.24,1.79-1.39,2.88-.57,4,.61s2.43,2.55,3.64,3.84l.61,1.06,0,2.12c-.21,1.56.54,2.22,2,2.19l.05.05.54,1c-1.3.15-2.92-.13-3.81.55-1.9,1.45-3,.55-3.92-.85-1-1.61-2-1.38-3.24-.4s-2.5,2-1.25,3.42c.84.93,3.17,2,3.64,1.55,2.08-1.81,3.18-.53,4.38.85s2.57,2.69,4.71,1.73l.1.11,0,3.63c-1.09,1.08-2.77,2-3.13,3.28a58,58,0,0,0-1.25,8.48c-.06.07-.17.15-.16.19a3,3,0,0,0,.22.39l0,0c0,1.94.12,3.84,2.59,4.22A6.83,6.83,0,0,1,195.2,382.73ZM182.75,345.4c-1.72,2.36-1.26,3.13,1.9,3.54Z"/><path class="cls-14" d="M1125.76,435.29c3.89,5.47,4.89,11.71,5,18.23.07,7.12.17,14.24-1.66,21.21,0-8.61.1-17.23,0-25.84a40.87,40.87,0,0,0-1.1-7.59,9.79,9.79,0,0,0-1.52-2.66c-.9,7.4-1.25,14.52-1.68,21.65-.22,3.53-.73,7.06-.82,10.59-.18,6.72-.18,13.45-.12,20.17a2.24,2.24,0,0,0,1.52,1.62c.6.06,1.48-.65,1.89-1.25s.2-1.37.27-2.07q.78-7.1,1.54-14.2c-.22,6.18-.45,12.36-.68,18.72l-20.48.67c-1.87.06-2.43-1-2.3-2.7.64-8.54,1.12-17.1,1.84-25.64,1-12,1.83-23.94.7-35.9-.33-3.53-2.29-6.91-3.56-10.34a30.46,30.46,0,0,0-1.38-2.74c6.27.56,12.11.59,15.88,6.23,2.12,3.18,4.41,6.24,6.55,9.41.3.43.16,1.16.22,1.75l-.73.42Zm-3.17,36.76,1.44-19.68-.77,0-1,19.73v15.38h.36Zm-17.34-53.25c3.27,4.75,4,9.52,4,14.4.1,7.08,0,14.17,0,21.26,0,3,0,6.05-.19,9.06-.57,9.11-1.21,18.21-1.85,27.32-.12,1.64.4,2.53,2.2,2.48,2.58-.06,5.15,0,7.73,0,2,0,2.91-1,2.78-3a70.63,70.63,0,0,1-.38-7.95c.34-6.68,1-13.35,1.38-20,.24-3.62.31-7.25.52-10.88.35-6.18.79-12.36,1.08-18.55a4.55,4.55,0,0,0-.91-2.66,44.66,44.66,0,0,0-4.63-5.77C1114,421.46,1110.2,419.69,1105.25,418.8Zm18.9,31.62.25.13V436.34l-.25,0Z"/><path class="cls-10" d="M698.75,526.86l1.56-19.3c2.45,2,4.63,4.58,7.41,5.95,10.36,5.1,21.77,6.36,33,8.13l1.85,1a6,6,0,0,0,.37,1.55c1.18,2.14.11,2.63-1.83,2.7-11.49.4-23,.93-34.49,1.18C704,528.15,701.38,527.3,698.75,526.86Z"/><path class="cls-8" d="M1091,496.1c3.85-.34,7.2-.55,10.52-1,1.87-.23,2.43.16,2.35,2.23-.29,7.17-.14,14.35-.48,21.52-.16,3.59.06,7.56-3.05,10.25a6.4,6.4,0,0,1-4.26,1.7c-.84-.1-1.89-2.18-2.07-3.47-.72-5.35-1.13-10.73-1.69-16.11-.42-4-.9-8-1.3-12A30,30,0,0,1,1091,496.1Zm4.23,3.19c.84,8,1.64,15.57,2.44,23.17l1,0c.49-7.7,1-15.39,1.49-23.2Z"/><path class="cls-14" d="M931.74,497.68c-1.42.68-2.84,1.35-4.24,2.05-.56.28-1.09.64-1.62,1a428.79,428.79,0,0,0-43.82,6.58c-2.62.57-5.42.28-8.13.5-2.11.18-3-1-3.09-2.77-.25-5.84-.34-11.7-.49-17.55-.05-1.57.81-1.74,2.07-1.4,3.38.92,6.78,1.8,10.16,2.74,6,1.69,12.08,3.31,18.07,5.13,9.57,2.9,19.24,4.63,29.28,3.39A5.73,5.73,0,0,1,931.74,497.68Zm-19,2.59.09-1L872.59,488c0,2,0,3.16,0,4.37.14,3.54.36,7.08.46,10.63.11,3.8.64,4.21,4.52,3.53s8-1.27,12.06-2C897.35,503.13,905.05,501.69,912.76,500.27Z"/><path class="cls-16" d="M207.93,482.16l2.56,2.25c-3.59.38-6.6.92-9.63,1-7.54.11-15.09,0-22.64-.05a8.89,8.89,0,0,1-3.15-.37c-1-.41-2.71-1.36-2.65-1.92a5,5,0,0,1,1.91-3.42A24.14,24.14,0,0,1,192.49,477c2.82.65,5.69,1.07,8.54,1.6l0-.13,1.12.54,0,0,4.81,2.69h0l1.13.56Z"/><path class="cls-17" d="M527.46,354.67c.55,3.9,1.19,7.8,1.63,11.72.32,3,.33,6.05.58,9.06.55,6.57,1,13.15,1.79,19.7a93.34,93.34,0,0,0,2.46,13.39,51.31,51.31,0,0,0,4.38,10.83c1.46,2.68,3.79,4.89,5.74,7.32-1.48.5-5.44-1.36-5.67-3.13-.63-4.92-4.42-8.4-5.61-13-1.14-4.44-3-8.79-3.45-13.29-.73-6.56-.59-13.22-.74-19.84-.09-3.53,0-7.07-.43-10.62-3.31,20.13-11.54,38.72-16.8,58.18l-.87-.16a8.92,8.92,0,0,1,0-2.07c.17-.71.74-1.33.92-2,1.05-4.13,1.45-8.55,3.17-12.37,2.33-5.15,3.26-10.61,4.83-15.92,1.84-6.24,3-12.73,5.24-18.81s2.51-12.14,2.25-18.4Zm.2,10.41h.17V364h-.17Z"/><path class="cls-14" d="M1103.48,493.3c.17-8.24.3-16.49.53-24.73.31-10.82.82-21.64,1-32.46a48.24,48.24,0,0,0-1.32-9.72,8,8,0,0,0-4.31-6.07c-2.58,1.5-3.74,3.87-5,6.48-5.35,10.78-4,22.34-4.14,33.64-.17,10.16.6,20.34,1,30.51a9.44,9.44,0,0,0,1.07,2.78c-1.35.39-1.88,0-1.94-1.52-.39-9.49-1-19-1.27-28.47-.21-7.79-.41-15.62.12-23.39.29-4.27,2.08-8.44,3.21-12.65a15.46,15.46,0,0,1,6.74-9.05,3.58,3.58,0,0,1,3,.29,4.55,4.55,0,0,1,1.83,2.53c1.18,4.3,2.91,8.62,3.08,13,.32,7.77-.19,15.58-.64,23.36-.56,9.64-1.42,19.26-2.1,28.89-.1,1.49.21,3,.1,4.51A6.52,6.52,0,0,1,1103.48,493.3Z"/><path class="cls-14" d="M1245.06,474.66a35.11,35.11,0,0,0-5.9.13c-13.5,2.55-27,4.71-40.86,4.12-8-.34-15.63-1.58-22.54-5.9-7.33-4.57-14.91-8.76-22-13.66-6.73-4.64-13-10-19.42-15-.3-.24-.37-.77-.55-1.16,4.11,2.87,8.37,5.55,12.3,8.65,10.76,8.47,22,16.14,34.35,22.12a19.31,19.31,0,0,0,8,1.72c10.82.19,21.65.38,32.46-.05,6.3-.25,12.55-1.63,18.82-2.6.89-.14,1.67-1.11,2.56-1.21a15,15,0,0,1,3.49.38Z"/><path class="cls-3" d="M317.27,440.18c4.06.21,7.56,3.08,8.05,6.52a46,46,0,0,1,.43,8.2c-.19,5.23-.62,10.44-.94,15.65a2.63,2.63,0,0,1-.06.8c-.36.91-.77,1.81-1.16,2.72a8.3,8.3,0,0,1-1.51-2.4c-.69-3.36-1.25-6.76-1.75-10.16C319.28,454.45,318.3,447.37,317.27,440.18Z"/><path class="cls-11" d="M171.17,320.55l-.09,4.71-3.36,1.53c-.1-1-.21-2-.31-3l-.45-1.65-.05,0-.12-.64c0-.46-.06-.92-.08-1.39-.07-.25-.13-.5-.19-.75l0-1.43c1.57-1.12.45-1.69-.46-2.3l-.12-1.47q0-3.48-.11-7c0-.72,0-1.44,0-2.16,0-.88,0-1.76.08-2.64a23.66,23.66,0,0,0-.13-3.27c-.16-.91-.86-1.74-.93-2.64-.23-2.86-.22-5.74-.41-8.6-.16-2.44-.55-4.87.69-7.34,1.4,3.4,1.2,7.75,6,8.54.1.34.2.68.29,1,0,.07-.14.15-.12.19a2.16,2.16,0,0,0,.22.39l0,.95-.36,2.75c0,.51,0,1,0,1.55-.2.37-.41.73-.61,1.09-1.86.12-2.75.92-2.16,2.91s-.49,4.83,2.17,6.24l.79,2.65c0,.33,0,.65,0,1l-.12.71,0,1.39C171.18,314.8,168.4,317.64,171.17,320.55Z"/><path class="cls-18" d="M188.27,393.07l.51,4.78c-.11,1.3-.21,2.6-.32,3.91-.1.49-.19,1-.29,1.48-1.8-.19-2.4-.9-2.33-2.95a13.2,13.2,0,0,0-4.23-10.09,4.31,4.31,0,0,0-3.9-.43c-3.92,1.91-5.07,6.08-7,9.61a3.16,3.16,0,0,0,.34,2.27c1.59,3.45,1.42,4.13-1.09,7a5.88,5.88,0,0,0-1.13,3.22c-.17,2-3.78,7.54-5.74,8.38.32-1.11.65-2.22,1-3.32l.13-1.47.42-1.16.07.05,1.11-1,.33-2.6c.23-1.26.47-2.53.7-3.79,0-.18,0-.36.05-.53,0-.69-.07-1.37-.11-2,0-.08.12-.16.11-.23a2.51,2.51,0,0,0-.16-.46c.17-.81.35-1.62.52-2.43.12-.48.25-1,.37-1.43.18-.8.35-1.6.52-2.39l.58-1.12q.94-2.15,1.91-4.29a15.55,15.55,0,0,0,2-2c3.13-4.39,6.06-5.34,10.8-3.38h0Z"/><path class="cls-19" d="M188.32,346.14c-.21-.35-.41-.71-.61-1.06-.17-1.84-.26-3.7-.53-5.52a37.44,37.44,0,0,0-.93-3.83l-1.85,3.07c-3.19-1.11-3.61-5.64-1.51-7.75,1.53-1.53,1-2.52-.33-3.71-2.37-2.17-3.95,0-5.41.6-.28,1.54-.49,2.68-.7,3.81-1-3.46-1.16-6.62,1.88-9.4,1-.93,1.45-1.34,2.49-.35,1.29,1.24,2.5,1.3,3.4-.44.8-1.55,1.68-1.3,2.64-.2a3.9,3.9,0,0,1,.62.86c1,2.23,2.39,3.63,5.57,2-1.23,3.32-2.35,6-3.17,8.72a36.56,36.56,0,0,0-1.22,6.32C188.41,341.55,188.42,343.85,188.32,346.14Zm1-15.43-2.22-2.06c-.61.66-1.73,1.34-1.7,2s1,1.57,1.81,1.86C187.57,332.62,188.38,331.54,189.32,330.71Z"/><path class="cls-20" d="M523.38,249.75a22.34,22.34,0,0,1,3.35-1.89c3.55-1.29,5.43-.05,5.84,3.66.48,4.36-3.25,9.38-7.49,9.29-1.8,0-3.77-1.51-5.3-2.77a20,20,0,0,1-4.27-5c-1.26-2.09.33-3.65,1.81-4.92a4.15,4.15,0,0,1,5.53.63A3.74,3.74,0,0,1,523.38,249.75Zm2.13,8.55c1-.65,2-.92,2.25-1.52a17.05,17.05,0,0,0,1.26-4.49c.09-.66-.53-1.42-.83-2.13-.58.63-1.47,1.18-1.67,1.91A62.13,62.13,0,0,0,525.51,258.3Zm-6.94-4.91,1.26.26c.44-1.19.88-2.38,1.31-3.56-.72-.05-2-.26-2.07-.1A21.11,21.11,0,0,0,518.57,253.39Z"/><path class="cls-21" d="M171.12,289.1c-4.78-.79-4.58-5.14-6-8.54-1.24,2.47-.85,4.9-.69,7.34.19,2.86.18,5.74.41,8.6.07.9.77,1.73.93,2.64a23.66,23.66,0,0,1,.13,3.27c-1.75.83-1.69,1.72-.08,2.64,0,.72,0,1.44,0,2.16l-2.48.5,0-1.62,0-1c-1.69-9.21-4.12-18.38-1.88-27.9C168.27,279.41,170.53,282.23,171.12,289.1Z"/><path class="cls-22" d="M1129,475.15q-.76,7.1-1.54,14.2c-.07.7.08,1.55-.27,2.07s-1.29,1.31-1.89,1.25a2.24,2.24,0,0,1-1.52-1.62c-.06-6.72-.06-13.45.12-20.17.09-3.53.6-7.06.82-10.59.43-7.13.78-14.25,1.68-21.65a9.79,9.79,0,0,1,1.52,2.66,40.87,40.87,0,0,1,1.1,7.59c.12,8.61,0,17.23,0,25.84A.68.68,0,0,1,1129,475.15Zm-1.94-32.39c.57,16.16-3.13,32.17-1.67,48.36C1127.49,475.05,1128.92,459,1127.08,442.76Z"/><path class="cls-23" d="M742.58,522.66l-1.85-1,1.2-.35c2.36-.06,4.72-.08,7.08-.19,14.23-.7,28.49-1,42.66-2.27,11-1,22-3.36,32.92-5.11l1.52-.18,0,0a22.66,22.66,0,0,0,2.86-.22c4.56-.91,9.1-1.89,13.65-2.84,1.12,1.3.08,1.35-.86,1.56-4.74,1-9.47,2.15-14.21,3.19-16.26,3.55-32.78,4.64-49.34,5.43-11.17.53-22.31,1.39-33.46,2.09C744,522.75,743.29,522.68,742.58,522.66Z"/><path class="cls-24" d="M171.66,358.86c2.28-.3,2.85,1.2,3.11,3.76a23.08,23.08,0,0,0,3.11-2.34c1.94-2.09,2.39-2.13,4.11.15.52.69,1,1.44,1.45,2.2l2.64-.95c0,3.24.76,6.58-.21,9.29-1.06,2.95-3.73,5.34-5.74,7.94-.16.22-.81.37-1,.23-2.06-1.65-4.52-1.71-7-2.12-1.5-.26-1.42-2.65,0-4.28.17.69.35,1.37.52,2.05a9.79,9.79,0,0,0,1.4-1.57,24.35,24.35,0,0,0,1.16-2.93,23.31,23.31,0,0,0,1.73,3.39c.55.71,1.42,1.61,2.14,1.61s1.31-1.12,2-1.7,1.68-1.2,2.41-1.91c.52-.51,1.33-1.45,1.16-1.81a45.87,45.87,0,0,0-3.35-6.21c-.8-1.23-1.91-1.38-3,0-.57.69-1.89,1.7-2.21,1.5-2-1.22-3.42-.22-4.94.75l-.05-1Q171.42,361.85,171.66,358.86Z"/><path class="cls-14" d="M842.58,510.43c-4.55.95-9.09,1.93-13.65,2.84a22.66,22.66,0,0,1-2.86.22c3.77-1.19,7.56-2.31,11.29-3.63,1.09-.39,2.78-1.3,2.82-2.05.2-3.32-.1-6.67-.25-10.69a70.37,70.37,0,0,1-18.5,11.8l-.43-.45c3.73-2.63,7.71-5,11.12-8,3-2.61,5.26-6,7.92-8.95a18.84,18.84,0,0,1,2.37-2,9.61,9.61,0,0,1,.82,2.84C843.09,498.44,842.81,504.43,842.58,510.43Z"/><path class="cls-19" d="M174.45,446.5l2.61-.08c7.19-.88,14.41-1.62,21.33-5.61-2.44-1.9-3.11-3.67-1.07-5.71.23-.23.19-.89.08-1.29-.84-3.13-1.73-6.24-2.6-9.36l-.14-1.51.31-.27c1.65,3.63,3.33,7.23,4.92,10.88a3.75,3.75,0,0,1,.38,2.51c-.83,2-.21,2.7,1.79,3a24.5,24.5,0,0,1,4.19,1.49c-2,2.89-5.18,3.2-7.9,3.84A144.57,144.57,0,0,1,183.56,447c-3,.4-6.15.29-9.22.4Z"/><path class="cls-18" d="M171.21,365.87c1.52-1,3-2,4.94-.75.32.2,1.64-.81,2.21-1.5,1.12-1.34,2.23-1.19,3,0a45.87,45.87,0,0,1,3.35,6.21c.17.36-.64,1.3-1.16,1.81-.73.71-1.62,1.25-2.41,1.91s-1.33,1.69-2,1.7-1.59-.9-2.14-1.61a23.31,23.31,0,0,1-1.73-3.39,24.35,24.35,0,0,1-1.16,2.93,9.79,9.79,0,0,1-1.4,1.57c-.17-.68-.35-1.36-.52-2.05-.35-1.41-.69-2.83-1-4.24Z"/><path class="cls-4" d="M507.78,452.55a9.52,9.52,0,0,1,9.15,2.71c2.38,2.42,1.55,5.64.85,8.56-.43,1.78-3.21,2.43-5.15,1.34a7.11,7.11,0,0,1-3.82-5.27C508.45,457.48,508.14,455.08,507.78,452.55Z"/><path class="cls-25" d="M176.45,331.75c.21-1.13.42-2.27.7-3.81,1.46-.59,3-2.77,5.41-.6,1.3,1.19,1.86,2.18.33,3.71-2.1,2.11-1.68,6.64,1.51,7.75l1.85-3.07a37.44,37.44,0,0,1,.93,3.83c.27,1.82.36,3.68.53,5.52-1.21-1.29-2.4-2.59-3.64-3.84s-2.25-2-4-.61c-1,.81-2.66.85-4,1.24l.57-4.28c.84-.21,2.31-.25,2.42-.65a1.82,1.82,0,0,0-1.93-2.55l-.66-1.64Z"/><path class="cls-23" d="M865.47,511.5l2.66-.93,1.65,1.44q.51,11,1,22l-1.41.16A161.84,161.84,0,0,1,865.47,511.5Z"/><path class="cls-24" d="M198.37,365.33c-.06-.66-.11-1.32-.17-2-.18-.46-.36-.92-.55-1.37l-.16-.16-.24-1.38c.27-1,.53-2,.8-3l1.59-1.32.43-.35c1.4-1.84,3.06-2.49,5.15-1.11l.06,1.08-.39,1.15c0,1,0,2,0,3,0,.25,0,.51.05.76l-1.07,1.57c-.09.5-.15,1-.28,1.52-.87,3.27-2.11,3.71-4.74,1.72A1.53,1.53,0,0,0,198.37,365.33Z"/><path class="cls-19" d="M164.12,416.94c-.33,1.1-.66,2.21-1,3.32l-.57,2.64-.9,2.2-.66,1.48-1.17,1.47-.05.1-1.68,4.93c0,.28,0,.57,0,.85-.68,1.54-1,3.55-2.12,4.51-2.41,2-1.44,4.09-.1,5.38s3.75,1.78,5.69,2.61l4.2.13.12.81a89.41,89.41,0,0,1-9.83-.16c-1.06-.12-2.14-1.66-2.84-2.78-.46-.75-.19-1.91-.38-2.86-.72-3.71-.45-4.17,3.13-5.07.79-4.6,2.05-9,4.88-12.9.84-1.16.91-2.85,1.53-4.22A14.72,14.72,0,0,1,164.12,416.94Z"/><path class="cls-23" d="M743,517.05v.07c6.37-.31,12.74-.59,19.1-1,8.84-.51,17.67-1.09,26.51-1.63.53,0,1.06,0,1.59,0l3,.12c-.95.16-1.89.38-2.84.46-5.13.44-10.25.89-15.38,1.23-10.51.69-21,1.31-31.55,2C743.25,517.92,743.11,517.49,743,517.05Z"/><path class="cls-9" d="M526.2,340.68l-2-4.66c3.72,0,7.18-.1,10.63.09.62,0,1.44,1.17,1.65,1.94.09.35-1,1.4-1.67,1.52C532,340.06,529.21,340.31,526.2,340.68Z"/><path class="cls-15" d="M167.72,326.79l3.36-1.53q.09,6.64.2,13.3c-.07,1.27-.15,2.54-.22,3.81l-.33,1.5-1.46.05c-.05-.18-.1-.35-.16-.53q-.53-3.69-1.07-7.38c0-.34,0-.68-.08-1Z"/><path class="cls-9" d="M516.76,341.31l-3.71-2c.54-.75,1.07-1.51,1.61-2.27l-.47-.66c2.43-.14,4.87-.39,7.3-.35a2.94,2.94,0,0,1,2.06,1.34,14.24,14.24,0,0,1,.88,3.5c-2.18-.14-4.14-.33-6.1-.35C517.81,340.55,517.29,341,516.76,341.31Z"/><path class="cls-23" d="M1127.43,496.54v19.52c-3.1.1-3.9-1-3.6-4.67.24-2.85.33-5.71.48-8.56,1.6,1,2.61,1,2.66-1.3C1127,499.86,1127.27,498.2,1127.43,496.54Z"/><path class="cls-19" d="M195.2,382.73a6.83,6.83,0,0,0-5.44-4.07c-2.47-.38-2.59-2.28-2.59-4.22l2.72,0,.11-.1.15,0c.48.88.85,2.43,1.45,2.53,1.81.28,3.7-.35,4.26-2.32.71-2.48,1.55-5.1-.12-7.6l.55-.54c2.17,2.46,1.13,5.41,1,8.09s-1.09,5.25-1.71,7.86C195.52,382.49,195.32,382.6,195.2,382.73Z"/><path class="cls-18" d="M193.32,421.35a17.41,17.41,0,0,1-2.95-1.41c-2.24-1.6-4.44-2.43-6.83-.23-1.15-4.83-2.31-6.64,2.52-8.52a16.52,16.52,0,0,0,2.67-1.64c1.09,3.24-3.2,3.52-3.55,5.63,1.7,1,3,1.85,4.39,2.49A8.18,8.18,0,0,0,192,418l.81.76.16,1c0,.07-.14.18-.13.19a2.21,2.21,0,0,0,.32.29l.35.65Z"/><path class="cls-24" d="M196.29,366.39l-.55.54c-.21.74-.45,1.46-.63,2.21-1.15,4.55-1.87,5.31-5,5.18l-.15,0-.11.1c0-1.24.09-2.47.14-3.7l0-1.13.27-1.1a13.15,13.15,0,0,0,1.68-1.56c.65-.83,1.16-1.76,1.75-2.68l2,1.64h.54A1,1,0,0,1,196.29,366.39Z"/><path class="cls-14" d="M793.16,514.7l-3-.12c5.13-.67,10.27-1.33,15.4-2,5.32-.71,10.71-1.19,15.44-4.1l.43.45a31.89,31.89,0,0,1-3.67,2C809.85,514,801.56,514.7,793.16,514.7Z"/><path class="cls-21" d="M192,418a8.18,8.18,0,0,1-2.46-.33c-1.4-.64-2.69-1.51-4.39-2.49.35-2.11,4.64-2.39,3.55-5.63,0-.33,0-.66,0-1h1.06c.11,1,.23,1.95.35,2.93s.53,1.93.8,2.9l.52,1,.33.63c.13.27.26.54.38.82Z"/><path class="cls-22" d="M1127.43,496.54c-.16,1.66-.42,3.32-.46,5,0,2.29-1.06,2.31-2.66,1.3-.21-1.79-.79-3.63-.54-5.35C1124.14,494.94,1126,495.94,1127.43,496.54Z"/><path class="cls-19" d="M198.37,365.33a1.53,1.53,0,0,1,.5.14c2.63,2,3.87,1.55,4.74-1.72.13-.5.19-1,.28-1.52,0,1,.35,2.18,0,3a65.71,65.71,0,0,1-3.4,5.93C199.62,368.85,199,367.09,198.37,365.33Z"/><path class="cls-21" d="M170.63,306.19c-2.66-1.41-1.55-4.12-2.17-6.24s.3-2.79,2.16-2.91l.72,4c0,.44-.06.89-.1,1.33C171,303.65,170.84,304.92,170.63,306.19Z"/><path class="cls-15" d="M195.73,365.87l-2-1.64c-.59.92-1.1,1.85-1.75,2.68a13.15,13.15,0,0,1-1.68,1.56c.59-1.93,1.19-3.87,1.79-5.8l4.22-.53v3.2Z"/><path class="cls-19" d="M205.22,354.66c-2.09-1.38-3.75-.73-5.15,1.11,1.29-1.66,2.38-3.56,3.94-4.9.87-.74,2.36-.31,1.91,1.55C205.73,353.18,205.46,353.92,205.22,354.66Z"/><path class="cls-19" d="M171.66,358.86q-.24,3-.5,6c-2.54-.85-1.34-3-1.26-4.46.16-3,.76-6,1.19-9l.69,1.14,0,3.24Z"/><path class="cls-19" d="M176.57,337.59l-.57,4.28-.54,2.12c-.52,1.07-1,2.15-1.55,3.23l-.81.11c.5-2.56.94-5.14,1.56-7.68a7.22,7.22,0,0,1,1.4-2l.25,0Z"/><path class="cls-19" d="M167.72,326.79,168,335c-2.11-3.59-1.32-7.45-1-11.25a1.78,1.78,0,0,1,.46,0C167.51,324.78,167.62,325.78,167.72,326.79Z"/><path class="cls-19" d="M196.29,362.14l-4.22.53-.6-.59c0-1.21,0-2.42,0-3.63l1.44-.09c-.88,1.85-.24,2.6,1.73,2.38l2.57-.29.24,1.38Z"/><path class="cls-19" d="M169.27,343.92l1.46-.05c.48,1.36-.53,3.62,2.19,3.63l-2.18,2.25c-.36-1-.79-1.94-1.05-2.95A25.29,25.29,0,0,1,169.27,343.92Z"/><path class="cls-15" d="M193,358.36l-1.44.09-.1-.11c.54-1.85,2.4-3.46,1.05-5.66l.57-.12,1.65.57c1.65,2.31-1.35,3.13-1.55,4.85A.57.57,0,0,1,193,358.36Z"/><path class="cls-15" d="M171.17,320.55c-2.77-2.91,0-5.75.08-8.63C171.22,314.8,171.19,317.67,171.17,320.55Z"/><path class="cls-15" d="M163.37,307.71l2.48-.5q.06,3.48.11,7C165.1,312,164.24,309.86,163.37,307.71Z"/><path class="cls-15" d="M176.57,337.59h-.26l-.25,0,0-2.15,1-1.07a1.82,1.82,0,0,1,1.93,2.55C178.88,337.34,177.41,337.38,176.57,337.59Z"/><path class="cls-19" d="M193.13,358c.2-1.72,3.2-2.54,1.55-4.85.62,0,1.65-.13,1.77.13a2.19,2.19,0,0,1-.07,1.94A29.94,29.94,0,0,1,193.13,358Z"/><path class="cls-19" d="M191.18,391.91c-.18-2.1-.59-4.29,2-5.36Z"/><path class="cls-19" d="M168,336q.54,3.69,1.07,7.38C166.6,341.24,167.74,338.56,168,336Z"/><path class="cls-15" d="M170.63,306.19c.21-1.27.41-2.54.61-3.81l.18,6.46C171.16,308,170.9,307.07,170.63,306.19Z"/><path class="cls-19" d="M188.46,401.76c.11-1.31.21-2.61.32-3.91l1.12,0C189.49,399.2,190.53,401.06,188.46,401.76Z"/><path class="cls-24" d="M165.92,447.37l-.12-.81,1.68-.71h1c.2.47.4.95.61,1.42Z"/><path class="cls-24" d="M174.45,446.5l-.11.85-3.2-.08C171.77,445,173.12,445.77,174.45,446.5Z"/><path class="cls-19" d="M189.83,408.56h-1.12c-.15-.19-.3-.37-.44-.56a12.23,12.23,0,0,1-.15-1.58,15.29,15.29,0,0,1,.2-1.64Z"/><path class="cls-15" d="M171.34,301.05l-.72-4c.2-.36.41-.72.61-1.09C171.26,297.65,171.3,299.35,171.34,301.05Z"/><path class="cls-19" d="M166.18,410.72l-.33,2.6h-1.08Z"/><path class="cls-19" d="M190.31,350.45c-1.5,0-2.25-.63-2-2.19Z"/><path class="cls-19" d="M171.06,342.37c.07-1.27.15-2.54.22-3.81C171.21,339.83,171.13,341.1,171.06,342.37Z"/><path class="cls-19" d="M193,352.56l-.57.12-1.56-1.19-.54-1Z"/><path class="cls-19" d="M177.06,334.39l-1,1.07c.12-.9.25-1.81.37-2.71Z"/><path class="cls-21" d="M171.18,294.4l.36-2.75Z"/><path class="cls-19" d="M193.45,385.11l-.65-.86,2-.68Z"/><path class="cls-15" d="M166.08,315.64c.91.61,2,1.18.46,2.3C166.39,317.17,166.23,316.41,166.08,315.64Z"/><path class="cls-19" d="M193.32,421.35l.22-.49c.47.61,1,1.21,1.43,1.81l-.31.27-1,0Z"/><path class="cls-19" d="M199.64,356.12l-1.59,1.32Z"/><path class="cls-19" d="M191,414.39c-.27-1-.54-1.93-.8-2.9C190.44,412.46,190.71,413.42,191,414.39Z"/><path class="cls-19" d="M192,418l.18-1.13.63,1.89Z"/><path class="cls-19" d="M190.52,394.29l.57-1.31Z"/><path class="cls-19" d="M197.65,362c.19.45.37.91.55,1.37C198,362.9,197.84,362.44,197.65,362Z"/><path class="cls-19" d="M204.89,356.89l.39-1.15Z"/><path class="cls-19" d="M167.66,399.8c-.12.48-.25.95-.37,1.43C167.41,400.75,167.54,400.28,167.66,399.8Z"/><path class="cls-15" d="M163.35,305.11l0,1Z"/><path class="cls-19" d="M164.67,414.31l-.42,1.16Z"/><path class="cls-15" d="M164.77,413.32h1.08l-1.11,1Z"/><path class="cls-15" d="M167.41,323.77a1.78,1.78,0,0,0-.46,0c0-.54,0-1.08,0-1.62Z"/><path class="cls-26" d="M1125.76,435.29l-.68-.26.73-.42Z"/><path class="cls-19" d="M168.76,396.29c-.19.37-.39.74-.58,1.12,0-.41,0-.81.08-1.22Z"/><path class="cls-19" d="M166.79,321.51l.12.64a3.36,3.36,0,0,1-.22-.42C166.67,321.68,166.75,321.59,166.79,321.51Z"/><path class="cls-15" d="M171.28,310.53l.12-.71Z"/><path class="cls-15" d="M166.93,406.4c0,.17,0,.35-.05.53Z"/><path class="cls-19" d="M191.83,416.05l-.33-.63Z"/><path class="cls-19" d="M166.52,319.37c.06.25.12.5.19.75C166.64,319.87,166.58,319.62,166.52,319.37Z"/><path class="cls-19" d="M166.77,403.66a2.51,2.51,0,0,1,.16.46c0,.07-.07.15-.11.23C166.81,404.12,166.79,403.89,166.77,403.66Z"/><path class="cls-21" d="M171.51,290.7a2.16,2.16,0,0,1-.22-.39s.08-.12.12-.19a2.92,2.92,0,0,1,.14.38C171.56,290.56,171.52,290.63,171.51,290.7Z"/><path class="cls-21" d="M193.19,420.21a2.21,2.21,0,0,1-.32-.29s.09-.12.13-.19Z"/><path class="cls-19" d="M195.73,365.87l.56-.53,0,.53Z"/><path class="cls-19" d="M205,360.66c0-.25,0-.51-.05-.76C204.93,360.15,205,360.41,205,360.66Z"/><path class="cls-3" d="M252.45,524.62l.44.44-.36.28c0-.23,0-.46,0-.7Z"/><path class="cls-27" d="M743,517.05c.15.44.29.87.43,1.31l-.4,1.11c.62,0,1.24.08,1.85,0,8.23-.52,16.45-1,24.67-1.6,11.85-.86,23.71-1.66,35.54-2.76,5.69-.54,11.29-1.75,16.38-4.65s10.21-5.71,15.2-8.49c.33,6.51,1,5-4.83,7.32-1.23.49-2.43,1.09-3.68,1.51-17.92,6-36.5,7.55-55.23,8.11-7.62.23-15.25.66-22.87,1.15-2.71.17-5.39.78-8.09,1.19l-1.2.35c-11.24-1.77-22.65-3-33-8.13-2.78-1.37-5-3.93-7.41-5.95l-.42-2.32c.68.3,1.57.42,2,.92a23.11,23.11,0,0,0,15.19,8.07c5.41.69,10.74,1.93,16.13,2.85a56.21,56.21,0,0,0,6.84.81A9.52,9.52,0,0,0,743,517.05Z"/><path class="cls-1" d="M206.9,481.64,202.09,479C204.14,479.05,206.68,478.28,206.9,481.64Z"/><path class="cls-1" d="M208,482.19l-1.13-.56Z"/><path class="cls-1" d="M202.13,479l-1.12-.54Z"/><path class="cls-28" d="M1197.79,484.72l-60,3.72c-.54-12.61-1.07-25.19-1.59-37.23,3,2.5,6.5,5.39,10,8.35a115.25,115.25,0,0,0,27.21,17.11,185.89,185.89,0,0,0,18.09,6.61c1.63.55,3.51.38,5.27.55Z"/><path class="cls-6" d="M1197.79,484.72l-1-.89,14,.46h0l-10,.28C1199.72,484.61,1198.75,484.67,1197.79,484.72Z"/><path class="cls-29" d="M177.26,418.54c.12.48.08,1.11.37,1.43,1.84,2,.6,3.94-.62,5.16s-3.27,1.53-4.95,2.28a7.16,7.16,0,0,0-2.25,1.16c-1,1.06-1.76,2.38-2.71,3.51-1.11,1.32-2.31,2.22-4,.64s-2.25-3.44-.89-5.17c3-3.84,6.22-7.55,9.6-11.08a5.2,5.2,0,0,1,4-1.11c.82.13,1.4,1.81,2.09,2.79Z"/><path class="cls-29" d="M168.52,445.86h-1a19.24,19.24,0,0,1-3.35-2.08c-.8-.77-1.93-2.5-1.66-2.85a10.66,10.66,0,0,1,3.75-3c.7-.34,1.85.23,2.79.42.77.15,1.84.75,2.24.45,2.45-1.87,4.72.12,7,.28,1,.07,2,1.6,3,2.46a18.8,18.8,0,0,1-3.18,1.94,16.24,16.24,0,0,1-7.74.86C169.77,444.31,169.12,445.34,168.52,445.86Z"/><path class="cls-24" d="M194.8,424.45c.87,3.12,1.76,6.23,2.6,9.36.11.4.15,1.06-.08,1.29-2,2-1.37,3.81,1.07,5.71-6.92,4-14.14,4.73-21.33,5.61a11.56,11.56,0,0,1,2.55-1.43c3-.81,6-1.43,9-2.16,3.26-.8,3.41-1.32,1.17-3.79-.28-.31-.51-.67-.85-1.11.52-.48.94-.91,1.41-1.28,3.79-3,5.89-6.48,3.34-11.34a2.08,2.08,0,0,1,0-.79Z"/><path class="cls-24" d="M161.6,446.43c-1.94-.83-4.27-1.24-5.69-2.61s-2.31-3.4.1-5.38c1.16-1,1.44-3,2.12-4.51,0,1.5.34,3.17-.2,4.45-1.63,3.82-1.37,4.88,2.44,6.87A6.21,6.21,0,0,1,161.6,446.43Z"/><path class="cls-24" d="M158.11,433.08l1.68-4.93Z"/><path class="cls-18" d="M161.67,425.1l.9-2.2C163.8,424.25,162.86,424.72,161.67,425.1Z"/><path class="cls-21" d="M194.8,424.45l-1.17.07c0-.54,0-1.08,0-1.62l1,0C194.71,423.44,194.76,424,194.8,424.45Z"/><path class="cls-24" d="M159.84,428.05l1.17-1.47Z"/><path class="cls-18" d="M188.27,408c.14.19.29.37.44.56C188.56,408.37,188.41,408.19,188.27,408Z"/><path class="cls-27" d="M1099.49,426.93c2.93,20.3-1.59,40.56-.15,61h-4.18c-.21-9.07-.61-18.17-.58-27.27,0-7.61.29-15.25,1-22.82.35-3.74,2-7.36,3.05-11Z"/><path class="cls-12" d="M1089.48,426c-.72,4.69-1.24,9-2.07,13.31a99.06,99.06,0,0,0-1.14,26.63c0,.26,0,.53,0,.8.51,8.09,1.06,16.18,1.46,24.28a2.44,2.44,0,0,1-1.5,1.84,74.88,74.88,0,0,1-9.77,1q-32.37.62-64.73,1.05-13.83.19-27.65.23c-1,0-1.9-.56-3.41-1,6.45-3.27,12.48-6.22,18.4-9.36,7.43-3.95,14.84-7.91,22.11-12.12,6.34-3.67,12.58-7.54,18.65-11.63,3.5-2.35,6.45-5.51,9.89-8,7.75-5.56,15.64-10.92,23.48-16.36,3.78-2.62,7.55-5.26,11.37-7.82C1086.2,427.74,1087.92,426.87,1089.48,426Zm-5.42,9.76a6.58,6.58,0,0,0-1.08.54c-3.37,2.94-6.55,6.16-10.14,8.81-8.43,6.19-17,12.16-25.63,18.11-8.18,5.67-16.24,11.54-24.75,16.68-5.54,3.34-11.76,5.55-17.7,8.22-2.25,1-4.57,1.87-6.86,2.81l.13.64,83.15-2.87C1080.65,471.06,1080.38,453.45,1084.06,435.73Z"/><path class="cls-22" d="M856.39,477.42c3.38,2.74,7.15,5.14,10,8.38,1.38,1.58,1.06,4.71,1.31,7.16.32,3.16.5,6.34.59,9.52,0,.61-.62,1.25-1,1.87-.57-.53-1.43-1-1.67-1.62-.74-2-1-4.15-1.87-6.08-2.54-5.87-5.26-11.66-7.89-17.48a5,5,0,0,1-.24-.94Zm8.7,18,.26.38-.3-.34a32.15,32.15,0,0,1,.07-3.93c.51-3.71-1.13-6.17-4.24-7.9a9.88,9.88,0,0,1-1.41-1.19l-.63-.46.3.74Q862.13,489.06,865.09,495.42Z"/><path class="cls-22" d="M851.69,479a38,38,0,0,1,2.35,4,92.16,92.16,0,0,1,5.73,20.59c.44,2.73-1.48,2.47-3,2.92-1.91.56-2.66-.48-2.83-2.12q-.88-8.44-1.67-16.9C852,484.94,851.92,482.36,851.69,479Zm2.13,8.57c-.06-.28-.12-.57,0-.21-.17-.33,0-.08.08.17.49,5.6,1,11.2,1.45,16.65,2.72.44,2.46-1,2.18-2.22-.71-3.06-1.56-6.09-2.34-9.12C854.7,491.05,854.26,489.3,853.82,487.54Z"/><path class="cls-30" d="M861.86,478.63l-.75-.24L856,475.7h0l-1.1-.55,0,0-.56-.56,0,0-1.94-1.07-.47-1.91c5.88-.9,11.8-1.6,15.76,4.5v0c0,.43,0,.87.08,1.3.43,2.5,0,2.9-2.57,2.22-.42-.11-.85-.18-1.27-.26Zm-5.3-5.19,7.2,3.48C862.3,473.77,859.43,473.65,856.56,473.44Z"/><path class="cls-22" d="M846,510a50.41,50.41,0,0,1-.54-6.47c.19-5.07.57-10.15,1-15.22a12,12,0,0,1,1.08-2.92v22.86l.74,0a3.28,3.28,0,0,0,.25-.94q-.24-10.06-.54-20.14a7.72,7.72,0,0,0-.49-1.76v-3.67l.94,0c.41,8.84.83,17.68,1.2,26.52a5.09,5.09,0,0,1-.56,1.69Z"/><path class="cls-12" d="M849.06,512.5c.2,6.11.41,12.22.59,18.33a6,6,0,0,1-.14,2.37A7.38,7.38,0,0,1,848,535c-.56-.53-1.52-1-1.6-1.62a76,76,0,0,1-.93-9.75c0-3.71.36-7.43.57-11.14Zm-.6,8.09V513.7l-.83,0v17.7l.83,0Z"/><path class="cls-27" d="M851.06,490.22c.59,5,1.22,10.07,1.72,15.11a10,10,0,0,1-.55,2.83L851,508l-.23-17.86A.57.57,0,0,0,851.06,490.22Z"/><path class="cls-27" d="M849.06,512.5h-3c0-.83,0-1.66,0-2.5l3.07-.07C849.05,510.78,849.05,511.64,849.06,512.5Z"/><path class="cls-26" d="M851.06,490.22a.57.57,0,0,1-.33-.07l-.84-8.75.7-.06Z"/><path class="cls-1" d="M856,475.7l5.09,2.69Z"/><path class="cls-1" d="M861.86,478.63l2.16.77c-.06.31-.13.62-.19.93Z"/><path class="cls-1" d="M852.5,473.58l1.94,1.07Z"/><path class="cls-1" d="M859.57,492.41l-.39-1.35.33-.12c.15.38.29.77.44,1.15Z"/><path class="cls-1" d="M854.93,475.16l1.1.55Z"/><path class="cls-1" d="M854.41,474.63l.56.56Z"/><path class="cls-24" d="M190.9,351.49l1.56,1.19c1.35,2.2-.51,3.81-1.05,5.66-2.14,1-3.44-.27-4.71-1.73s-2.3-2.66-4.38-.85c-.47.4-2.8-.62-3.64-1.55-1.25-1.4.08-2.5,1.25-3.42s2.2-1.21,3.24.4c.9,1.4,2,2.3,3.92.85C188,351.36,189.6,351.64,190.9,351.49Z"/><path class="cls-24" d="M183.48,386.66c-4.74-2-7.67-1-10.8,3.38a15.55,15.55,0,0,1-2,2c-.2-.28-.62-.73-.56-.81a34.83,34.83,0,0,1,3.68-4.65c1.34-1.26,2.72-2.21,3-4.32a1.6,1.6,0,0,1,2.87-.78A50.86,50.86,0,0,1,183.48,386.66Z"/><path class="cls-27" d="M191.47,362.08l.6.59c-.6,1.93-1.2,3.87-1.79,5.8l-.27,1.1c0,.38,0,.75,0,1.13-.05,1.23-.1,2.46-.14,3.7l-2.72,0,0,0-.06-.58a58,58,0,0,1,1.25-8.48C188.7,364.07,190.38,363.16,191.47,362.08Z"/><path class="cls-25" d="M171.81,355.76l0-3.24c2,1.08,4.37,1.67,5.5,4.58Z"/><path class="cls-24" d="M188.27,393.07l-4.8-6.41C186.05,388.06,188.48,389.58,188.27,393.07Z"/><path class="cls-24" d="M182.75,345.4l1.9,3.54C181.49,348.53,181,347.76,182.75,345.4Z"/><path class="cls-25" d="M173.91,347.22c.52-1.08,1-2.16,1.55-3.23C175.42,345.29,176.75,347.26,173.91,347.22Z"/><path class="cls-19" d="M187.09,373.84l.06.58a3,3,0,0,1-.22-.39S187,373.91,187.09,373.84Z"/><path class="cls-12" d="M1105.25,418.8c5,.89,8.73,2.66,11.8,5.7a44.66,44.66,0,0,1,4.63,5.77,4.55,4.55,0,0,1,.91,2.66c-.29,6.19-.73,12.37-1.08,18.55-.21,3.63-.28,7.26-.52,10.88-.43,6.68-1,13.35-1.38,20a70.63,70.63,0,0,0,.38,7.95c.13,2-.76,3-2.78,3-2.58,0-5.15-.06-7.73,0-1.8.05-2.32-.84-2.2-2.48.64-9.11,1.28-18.21,1.85-27.32.19-3,.18-6,.19-9.06,0-7.09.07-14.18,0-21.26C1109.22,428.32,1108.52,423.55,1105.25,418.8Zm7.39,9.16a7.48,7.48,0,0,0,0,1,178.71,178.71,0,0,1,1.11,36.63c-.49,6.91-.49,13.85-.66,20.77,0,1.61.05,1.62,2,1.28.42-6.65.9-13.33,1.24-20,.2-3.89.11-7.8.24-11.69.26-7.46.63-14.9.84-22.36a4.3,4.3,0,0,0-1.05-2.78A25.71,25.71,0,0,0,1112.64,428Z"/><path class="cls-26" d="M1122.23,472.06l1-19.73.77,0-1.44,19.68Z"/><path class="cls-27" d="M1122.23,472.06h.36v15.38h-.36Z"/><path class="cls-26" d="M1124.15,450.42v-14.1l.25,0v14.21Z"/><path class="cls-27" d="M1095.26,499.29h4.9c-.5,7.81-1,15.5-1.49,23.2l-1,0C1096.9,514.86,1096.1,507.25,1095.26,499.29Z"/><path class="cls-12" d="M912.76,500.27c-7.71,1.42-15.41,2.86-23.13,4.23-4,.72-8,1.29-12.06,2s-4.41.27-4.52-3.53c-.1-3.55-.32-7.09-.46-10.63,0-1.21,0-2.42,0-4.37l40.26,11.29ZM876.57,504l25.7-4.37-26.82-7.24C875.78,495.78,876.16,499.67,876.57,504Z"/><path class="cls-4" d="M527.66,365.08V364h.17v1.1Z"/><path class="cls-15" d="M165.84,305.05c-1.61-.92-1.67-1.81.08-2.64C165.89,303.29,165.87,304.17,165.84,305.05Z"/><path class="cls-25" d="M189.32,330.71c-.94.83-1.75,1.91-2.11,1.77-.77-.29-1.78-1.17-1.81-1.86s1.09-1.31,1.7-2Z"/><path class="cls-2" d="M525.51,258.3a62.13,62.13,0,0,1,1-6.23c.2-.73,1.09-1.28,1.67-1.91.3.71.92,1.47.83,2.13a17.05,17.05,0,0,1-1.26,4.49C527.5,257.38,526.51,257.65,525.51,258.3Z"/><path class="cls-2" d="M518.57,253.39a21.11,21.11,0,0,1,.5-3.4c0-.16,1.35,0,2.07.1-.43,1.18-.87,2.37-1.31,3.56Z"/><path class="cls-27" d="M1127.08,442.76c1.84,16.21.41,32.29-1.67,48.36C1124,474.93,1127.65,458.92,1127.08,442.76Z"/><path class="cls-22" d="M741.93,521.29c2.7-.41,5.38-1,8.09-1.19,7.62-.49,15.25-.92,22.87-1.15,18.73-.56,37.31-2.11,55.23-8.11,1.25-.42,2.45-1,3.68-1.51,5.79-2.35,5.16-.81,4.83-7.32-5,2.78-10.12,5.58-15.2,8.49s-10.69,4.11-16.38,4.65c-11.83,1.1-23.69,1.9-35.54,2.76-8.22.6-16.44,1.08-24.67,1.6-.61,0-1.23,0-1.85,0l.4-1.11c10.52-.66,21-1.28,31.55-2,5.13-.34,10.25-.79,15.38-1.23.95-.08,1.89-.3,2.84-.46,8.4,0,16.69-.72,24.6-3.78a31.89,31.89,0,0,0,3.67-2,70.37,70.37,0,0,0,18.5-11.8c.15,4,.45,7.37.25,10.69,0,.75-1.73,1.66-2.82,2.05-3.73,1.32-7.52,2.44-11.29,3.63l0,0-1.52.18c-11,1.75-21.88,4.09-32.92,5.11-14.17,1.31-28.43,1.57-42.66,2.27C746.65,521.21,744.29,521.23,741.93,521.29Z"/><path class="cls-14" d="M824.59,513.72l1.52-.18Z"/><path class="cls-15" d="M190.15,374.32c3.09.13,3.81-.63,5-5.18.18-.75.42-1.47.63-2.21,1.67,2.5.83,5.12.12,7.6-.56,2-2.45,2.6-4.26,2.32C191,376.75,190.63,375.2,190.15,374.32Z"/><path class="cls-15" d="M190,370.7c0-.38,0-.75,0-1.13C190,370,190,370.32,190,370.7Z"/><path class="cls-28" d="M1084.06,435.73c-3.68,17.72-3.41,35.33-2.88,52.94L998,491.54l-.13-.64c2.29-.94,4.61-1.8,6.86-2.81,5.94-2.67,12.16-4.88,17.7-8.22,8.51-5.14,16.57-11,24.75-16.68,8.6-5.95,17.2-11.92,25.63-18.11,3.59-2.65,6.77-5.87,10.14-8.81A6.58,6.58,0,0,1,1084.06,435.73Z"/><path class="cls-27" d="M859.47,482.44a9.88,9.88,0,0,0,1.41,1.19c3.11,1.73,4.75,4.19,4.24,7.9a32.15,32.15,0,0,0-.07,3.93l0,0q-3-6.35-6-12.7Z"/><path class="cls-27" d="M859.14,482.72l-.3-.74.63.46Z"/><path class="cls-27" d="M865.05,495.46l.3.34-.26-.38Z"/><path class="cls-27" d="M853.82,487.54c.44,1.76.88,3.51,1.33,5.27.78,3,1.63,6.06,2.34,9.12.28,1.2.54,2.66-2.18,2.22-.48-5.45-1-11-1.45-16.65Z"/><path class="cls-27" d="M853.86,487.5c-.12-.25-.25-.5-.08-.17-.08-.36,0-.07,0,.21Z"/><path class="cls-27" d="M856.56,473.44c2.87.21,5.74.33,7.2,3.48Z"/><path class="cls-27" d="M847.46,485.42a7.72,7.72,0,0,1,.49,1.76q.31,10.06.54,20.14a3.28,3.28,0,0,1-.25.94l-.74,0V485.38Z"/><path class="cls-27" d="M848.46,520.59v10.82l-.83,0V520.65Z"/><path class="cls-6" d="M848.46,520.59l-.83.06v-6.92l.83,0Z"/><path class="cls-27" d="M1112.64,428a25.71,25.71,0,0,1,3.73,2.82,4.3,4.3,0,0,1,1.05,2.78c-.21,7.46-.58,14.9-.84,22.36-.13,3.89,0,7.8-.24,11.69-.34,6.68-.82,13.36-1.24,20-1.95.34-2,.33-2-1.28.17-6.92.17-13.86.66-20.77a178.71,178.71,0,0,0-1.11-36.63A7.48,7.48,0,0,1,1112.64,428Z"/><path class="cls-28" d="M876.57,504c-.41-4.32-.79-8.21-1.12-11.61l26.82,7.24Z"/></g></g></svg>