<svg xmlns="http://www.w3.org/2000/svg" viewBox="0 0 1296 864"><defs><style>.cls-1{fill:#6e6d6e;}.cls-2{fill:#ae3b2f;}.cls-3{fill:#fbd7b9;}.cls-4{fill:#c2d4ed;}.cls-5{fill:#dcdcdc;}.cls-6{fill:#040303;}.cls-7{fill:#966945;}.cls-8{fill:#030303;}.cls-9{fill:#4b61ad;}.cls-10{fill:#f6b475;}.cls-11{fill:#040403;}.cls-12{fill:#040504;}.cls-13{fill:#c38483;}.cls-14{fill:#a7d28f;}.cls-15{fill:#040405;}.cls-16{fill:#da7927;}.cls-17{fill:#070c07;}.cls-18{fill:#ec2225;}.cls-19{fill:#060a06;}.cls-20{fill:#f6911f;}.cls-21{fill:#f38220;}.cls-22{fill:#181009;}.cls-23{fill:#101810;}.cls-24{fill:#e88025;}.cls-25{fill:#678f59;}.cls-26{fill:#374732;}.cls-27{fill:#291e17;}.cls-28{fill:#58774d;}.cls-29{fill:#342e2a;}.cls-30{fill:#0b0806;}.cls-31{fill:#090b0f;}.cls-32{fill:#0f1116;}.cls-33{fill:#c1c7d2;}.cls-34{fill:#14171c;}.cls-35{fill:#70728c;}.cls-36{fill:#f5b374;}.cls-37{fill:#f4b272;}.cls-38{fill:#f4b274;}.cls-39{fill:#d97927;}.cls-40{fill:#f28221;}.cls-41{fill:#f3b172;}.cls-42{fill:#ef8222;}.cls-43{fill:#d47828;}.cls-44{fill:#f2b172;}.cls-45{fill:#f9d6b8;}.cls-46{fill:#c1d3ec;}.cls-47{fill:#c4cad5;}.cls-48{fill:#6e6e6e;}.cls-49{fill:#fcc482;}.cls-50{fill:#6c975d;}.cls-51{fill:#8bae81;}.cls-52{fill:#aed692;}.cls-53{fill:#a0ce8c;}.cls-54{fill:#95bf87;}.cls-55{fill:#94bf82;}.cls-56{fill:#97c288;}.cls-57{fill:#a4d08d;}.cls-58{fill:#5e8351;}.cls-59{fill:#79aa68;}.cls-60{fill:#83a777;}.cls-61{fill:#bec3cd;}.cls-62{fill:#8db182;}.cls-63{fill:#55704c;}.cls-64{fill:#ca2b2b;}.cls-65{fill:#98c885;}.cls-66{fill:#9aca87;}.cls-67{fill:#706e6e;}.cls-68{fill:#6f6e6e;}.cls-69{fill:#f1b072;}.cls-70{fill:#261504;}.cls-71{fill:#322313;}.cls-72{fill:#7a451c;}.cls-73{fill:#824b1e;}.cls-74{fill:#3b240e;}.cls-75{fill:#706f6e;}.cls-76{fill:#716f6e;}.cls-77{fill:#7d756f;}.cls-78{fill:#152113;}.cls-79{fill:#73706e;}.cls-80{fill:#78726e;}.cls-81{fill:#74716e;}.cls-82{fill:#9d856f;}</style></defs><g id="Layer_2" data-name="Layer 2"><g id="Layer_1-2" data-name="Layer 1"><path class="cls-1" d="M0,0H1296V864H0ZM942.41,499.81c4.31-.2,8.62-.32,12.91-.63,5.47-.4,10.94-1,16.4-1.46a24.26,24.26,0,0,0,3.37.36c10.11-.27,20.22-.82,30.33-.87,13.83-.06,27.66.45,41.5.34,13.37-.11,26.75-.66,40.13-1.07,1.81-.06,2.56.55,2.57,2.4a57.38,57.38,0,0,0,.42,7.42c1,7.6,2.89,15.1,2.27,22.86a5.18,5.18,0,0,0,.41,2.33,3.45,3.45,0,0,0,1.3,1.59c2.43,1.42,7.74.19,8.74-2.37,1.59-4.07,3.28-8.26,3.8-12.54.74-6.14.47-12.4.64-18.61,0-1.12.11-2.24.17-3.52,4.29,0,8.27,0,12.26,0,1.51,0,1.8.86,2,2.19.72,4,1.64,8,2.48,11.94l.75,6.13,2.1,1.54a7,7,0,0,0,.88-2c.28-3.26.4-6.54.67-9.8.28-3.42.65-6.83,1-10.16,5.74-.32,11.2-.82,16.67-.89,10.82-.14,21.64,0,32.46-.06a49.21,49.21,0,0,0,5.56-.31c8-.93,16-1.87,24-2.94,1.09-.14,2.09-1,3.13-1.54,1.39-.44,2.87-.82,1.44-2.74,1.67-2.05-.86-2-1.64-3.11a42.41,42.41,0,0,1,5.43-.49c9.44.3,18.4-2.07,27.3-4.8,3.15-1,3.43-2.23,1-4.7,1.76-.69,1.84-1.54.15-2.38a11.29,11.29,0,0,0-2.27-.59c-.35-2.53-1.76-2.72-3.83-1.89-2.45,1-4.93,2.47-7.46,2.61-12,.7-24.11,1.12-36.18,1.39a60,60,0,0,1-10-1.09c-9.3-1.38-16.5-7-23.92-12.1-5.6-3.85-11.07-7.89-16.76-11.6a67.22,67.22,0,0,1-16.87-16.26c-2.22-3-4-6.32-6.47-9-1.94-2.13-4.42-4.28-7.08-5.15-4-1.3-8.33-1.55-12.53-2.09-.6-.08-1.3.65-2,1a33.43,33.43,0,0,1-4.3,2.28c-1.34.51-3,.24-4.23.94-5,3-9.94,6.1-14.79,9.33-6.18,4.12-12.24,8.42-18.38,12.6-5.48,3.73-11,7.38-16.49,11.12-7.08,4.83-13.84,10.2-21.24,14.46-12.26,7.06-24.9,13.45-37.42,20-6.77,3.56-13.74,6.76-21.54,7.06-11.7.44-23.41.77-35.11.87a55.23,55.23,0,0,1-13.23-1.14c-12.82-3.05-25.53-6.58-38.28-9.9-1.9-.5-2.84-1.5-2.6-3.6.49-4.23-1.45-7.59-4.35-10.36a12.21,12.21,0,0,0-9.45-3.31c-4.23.18-8.62,2.57-12.75-.5-.07-.06-.31.1-.48.17-.14,1.23-.18,2.48-.44,3.68-.58,2.74-1.35,5.44-1.87,8.18-.27,1.38.19,3-.29,4.21-2.55,6.66-6,12.77-11.84,17.19s-12.24,7.95-19.39,9.47c-5.94,1.26-12.1,1.54-18.16,2.16-5.26.53-10.54.93-16,1.41,0-1.33,0-2.2,0-3.07.18-5.24.55-10.48.51-15.71-.11-13.77-.21-27.55-.7-41.31-.27-7.8.37-15.71-2.84-23.28-1.69-4-1.65-5-6-4.93-8,.11-15.94.49-23.87,1.21-1.71.15-4.5,2.12-4.62,3.44-.44,5-2.63,9.25-4.12,13.83-2.07,6.4-3.08,13.19-4.08,19.89-.42,2.81-1.26,4.16-4.13,4-1,0-1.94.12-2.92.15-8.61.23-17.22.54-25.83.63-2.47,0-3,.76-2.67,3.13.53,3.72.66,7.5,1,11.1-4,0-7.49.09-11,0-3.72-.13-7.61.17-11.11-.84-6.35-1.84-12.44-4.57-18.68-6.81a12.37,12.37,0,0,1-8.37-8.89c-2-8.14-3.82-16.34-3.92-24.81-.09-8.17-.34-16.34-.56-24.51a6.42,6.42,0,0,0-.56-3.1c-.63-1-1.84-2.29-2.75-2.25-9.56.4-19.11,1-28.66,1.68-.68.05-1.87.93-1.87,1.44q-.13,8.88.09,17.75a61,61,0,0,0,.78,6.27v0c-2.38,0-4.77.13-7.15,0q-17.67-.75-35.34-1.66c-.64,0-1.71-.82-1.76-1.35-.41-3.84-3.1-6.05-5.72-8.26a17,17,0,0,0-10.44-4.09c-1.28-.07-2.58,0-2.67,1.8l-.79.09a8.52,8.52,0,0,1-.16-1.31c.06-21.75-.36-43.5,1.2-65.23.35-4.87-.57-9.87-1.36-14.75-.23-1.44-2-2.63-3.09-3.93h-.95a5.24,5.24,0,0,0,.18-1c-.45-9.74-.73-19.49-1.47-29.2-.35-4.51-2-8.64-7.38-9.56-1.59-.27-1.63-1.3-1.58-2.52.21-5.41.4-10.82.6-16.23.19-4.88.3-9.77.6-14.64.32-5.14.1-5.51-4.86-5.92,2-2.24,4.13-4.26,4.61-7.48.67-4.4-1.82-6.8-6-5.41a20.31,20.31,0,0,0-3.29,1.79c-1.45-2.21-4.11-3-6-1.53-2,1.64-3.55,3.13-1.08,6.06,2,2.33,4.25,4.39,6.4,6.58l-5.91,1c0,4.67,0,9.27,0,13.88,0,1.43.21,2.55,1.9,3.05a2.5,2.5,0,0,1,1.22,1.95c.06,5,.15,10-.13,14.93-.23,4.18-1.76,7.65-6.28,9.19a5.18,5.18,0,0,0-3.53,5.38c.18,7.28.31,14.56.5,21.84a32.42,32.42,0,0,0,.56,3.58l-6,1.11.07,0-2.08-.44c0,2.59,0,4.89,0,7.18-.14,11.64-.61,23.29-.38,34.92.41,20.32,1.29,40.64,1.89,61,.08,2.72-.32,5.45-.45,8.17a17.33,17.33,0,0,0,.22,2.24c-5.75.36-11.32.75-16.88,1a7.2,7.2,0,0,1-2.57-.9c-.82-.32-1.68-1-2.4-.9s-1.31,1.2-1.37,1.91c-.3,3.7-.36,7.43-.58,11.14-.15,2.58-.2,5.19-3.57,6-.78.19-1.59,1.49-1.82,2.42a20.59,20.59,0,0,0-.54,5.25c.11,3.72.5,7.44.61,11.16.09,3.26-.86,5.76-4.51,6.89a5.52,5.52,0,0,0-3.3,3.64,35.92,35.92,0,0,0,.14,11.15c1.4,6.78.64,13.29-1,19.82a8,8,0,0,1-.94,1.6,15.59,15.59,0,0,1-.74-2.38c-.83-6.73-2-13.45-2.33-20.21-.43-8.67-.21-17.38-.22-26.08,0-13.59.2-27.18,0-40.76-.19-11.26-1-22.51-1.31-33.77-.23-7.88,0-15.78-.19-23.66-.23-10.66-.61-21.31-1-32-.09-2.73-1.34-3.78-4.09-3.67-3.28.13-6.56.3-9.84.46-1,0-2.14.45-3,.13-6.34-2.29-12.71-1.79-18.92.08-1.48.45-3.22,3-3.28,4.58-.16,4.35.64,8.72.84,13.1.23,5.05.13,10.11.34,15.16.25,6.11,1,12.22,1,18.32-.09,13-.69,26.1-.81,39.15,0,4.59,1.13,9.19,1.05,13.78-.14,8.87-.61,17.74-1.25,26.59-.28,3.79-.85,7.68-3.6,11.2a30.71,30.71,0,0,1-2.1-3.25c-2.38-5.1-4.76-10.2-7-15.36-1.8-4.11-3.14-5.24-7.7-5.07a94.55,94.55,0,0,0-12.7,1.16c-4,.71-7.91.56-11.33-1.54s-6.37-5-9.76-7.19c-4.06-2.61-5.32-6.86-6.27-10.92-1.41-6-1.88-12.25-2.71-18.4a3.37,3.37,0,0,1,.24-2c1.21-2.05,1-2.66-1.39-2.76-3.17-.13-6.35-.09-9.52,0-7.81.18-15.63.41-23.44.63-1.5.05-3.15.59-4.47.15-2.06-.68-2.55.09-2.79,1.82-.46,3.32-1,6.63-1.43,9.73-8.82.61-17.46,1.19-26.09,1.87a2.75,2.75,0,0,0-2,1.27,9.45,9.45,0,0,0-.68,3.63c-.08,6.56-.09,13.13-.1,19.7,0,4.55,0,9.11,0,13.74-.95-.24-1.8-.5-2.67-.67-4.37-.86-10.25,2.08-11.29,6.08A88.06,88.06,0,0,0,270,497.25c-.78,9-4.16,16.48-11.92,21.34-5.47,3.43-10.84,5.4-15.83-.05a18.11,18.11,0,0,1-2.55-3.65c-2.93-5.52-7.06-8.58-13.69-7.68-3.77.51-7.63.33-11.13-1.62-1.4-1.77-2.81-3.53-4.22-5.3l-.08-11.79c.32-2.31,1.69-2,3.19-1.24,3.11-4,3.06-3.92-.87-7.64a21.76,21.76,0,0,1-3.16-4.24c-1.88-3-3.53-6.1-5.49-9C202,463,201,453.7,203.49,450.7c2.17-2.63,2.53-5.52,3-8.54.83-2.68,1.13-5.16-1.71-7a6,6,0,0,1-2-2.4c-2.61-5.49-5.11-11-7.66-16.56a12.37,12.37,0,0,1-1.22-2.58c-.79-3.94-2-7.91-2-11.88,0-5.68,2.17-11,4.49-16.18,1.68-3.74,3.76-7.3,5.61-11a47.27,47.27,0,0,0,3.42-7.33c1.19-4,1.49-8.22,2.91-12.08,1.29-3.49.35-6.41-1-9.34a3.89,3.89,0,0,0-3-1.68c-.85,0-1.77,1.06-2.61,1.73s-1.45,1.78-2.36,2.07a34.62,34.62,0,0,1-5.22.83c-1.9.29-2.61-.73-2.57-2.42.11-4.25.17-8.51.49-12.75.09-1.24,1.05-2.4,1.51-3.64,1.27-3.42,2.55-6.84,3.67-10.32a2.44,2.44,0,0,0-.79-2c-.26-.24-1.36.11-1.82.49-1.6,1.35-3.09,2.83-5.12,4.72-.36-2.05-.56-3.74-1-5.36a9,9,0,0,0-1.26-2.2c-.66.46-1.55.78-1.95,1.41-1,1.56-1.72,3.27-2.67,5.12A14.66,14.66,0,0,0,181,319.1a14.07,14.07,0,0,0-2.66-1.75,11.71,11.71,0,0,0-1.17,2.65,16.08,16.08,0,0,0,0,3.18l-.2.68-2.52-1a13,13,0,0,0-.67,2.4c-.26,3-.42,5.95-.57,8.07l-1-40c0-1.5.06-3,0-4.5-.09-2.11-1.2-4.3.9-6.18.27-.24-.24-2-.84-2.47a61.58,61.58,0,0,0-7.49-5.27c-2.28-1.32-2.78-.84-2.72,1.89-.3.51-.83,1-.86,1.52a54.05,54.05,0,0,0-.16,8c.73,7.44,1.7,14.85,2.57,22.27.43,3.25.4,6.64,1.38,9.71,1.67,5.24,1.95,10.53,2,15.93,0,3.43.61,6.84.94,10.26.17,5.94.51,11.87.46,17.8,0,4.78-.46,9.56-.89,14.32-.84,9.39-1.56,18.79-2.78,28.13-1.24,9.52-4.69,18.37-9.32,26.79a48,48,0,0,0-2.47,6.55c-.11,1.11-.21,2.22-.32,3.33s-.13,2.3-.17,3.46c-.1,3.59.48,4.28,4.07,4.84l2.93.48c0,11.23,0,22.31,0,33.39,0,1.55-1.14,2.27-2.74,2.25-1.93,0-3.87,0-5.8.14-.29,0-.57.33-1,.63l1.7,1.52c-2.81,3.71-5.34,7.55-8.36,11-3.94,4.47-5.57,11-11.89,13.26,1.26.58,2.29,1.07,3.33,1.56-3.65,1.39-3.88,2.12-1.74,5.25a7.26,7.26,0,0,1,.45.93,26.46,26.46,0,0,1-2.83-.66c-6.75-2.35-13.52-4.67-20.23-7.12a84.08,84.08,0,0,0-34.47-4.57c-5.68.36-10.34,3.17-13.91,7.66-1.67,3.46-1.29,7.08-.58,10.62a3.56,3.56,0,0,0,2.39,2.29c9.8,1.23,19.6,2.56,29.45,3.26,8.55.61,17.17.45,25.76.63.35,0,.71,0,1.06.05,7.68.51,15.34,1.31,23,1.47,8.06.17,16.13-.3,24.2-.44,15.41-.27,30.85,0,46.16-2.15,9.86-1.39,19.71-2.82,29.54-4.37,1.08-.17,2-1.28,3-2l6.4-.08c.2.19.42.56.59.54,2.36-.28,4.7-.75,7.07-.92,6.71-.49,13.43-.93,20.15-1.28q15.93-.82,31.87-1.5c3.9-.16,7.82,0,11.72-.19,20.82-1,41.64-2,62.46-3.15,9.12-.49,18.23-1.21,27.34-1.94a48,48,0,0,0,6.11-1.25c-.45,6.65-.9,13.29-1.37,20.35,1.88,0,3.64.08,5.39,0,11.4-.6,22.8-1.24,34.2-1.85.69,0,1.4.14,2.09.11,1.38-.08,2.75-.24,4.12-.37l1.14-.58c.39.18.79.56,1.16.52,3.73-.38,7.45-.9,11.18-1.21a67.91,67.91,0,0,1,7.68-.19c7.53.26,15,.78,22.56.89,5.85.08,11.7-.26,17.54-.49a100.86,100.86,0,0,0,10.59-.69c3.35-.5,6.62-1.56,9.92-2.37,1.87.44,3.74,1.25,5.61,1.26,7.35,0,14.7-.34,22-.3,8.52.05,17,.35,25.56.56,1.51,0,3,.23,4.52.24,6.48,0,13,.23,19.45,0,8.86-.29,17.7-.93,26.55-1.34,1.76-.08,3.54.36,5.3.28,8-.4,15.92-1,23.88-1.33,6.71-.24,13.51.74,20-1.68,2.29.5,4.58,1.45,6.86,1.42,8.15-.12,16.31-.4,24.44-1,4.45-.31,9.53.64,12.55-4.2,8.57-.33,17.15-.56,25.71-1,6.7-.37,13.39-1,20.09-1.54a99.24,99.24,0,0,0,33.45-2.83c6-1.47,12.09-2.72,18.14-4.09,2-.45,2.92.22,2.58,2.3-.24,1.47-.62,2.91-.82,4.38-.8,6.1.79,11.93,2.32,17.72.42,1.57,1.9,3.79,3.15,4,1.68.26,3.9-.82,5.35-2a6,6,0,0,0,1.79-4.26c-.07-6.9-.45-13.78-.73-20.67-.05-1.12-.15-2.23-.25-3.63l9.53-.83c1.5,7.63,2.92,14.88,4.37,22.13.45,2.28,1.2,2.59,3.12,1.39l.48-6.23a31.39,31.39,0,0,0,.58-3.58c.25-4.73.42-9.46.62-14.26,4.59-.54,9.19,0,12.76-3.26L895,505c1.4-.07,2.81-.08,4.21-.21,6.85-.6,13.72-1.09,20.54-1.88C927.3,502,934.85,500.85,942.41,499.81Z"/><path class="cls-2" d="M698.71,526.92c-6.52,2.42-13.32,1.44-20,1.68-8,.29-15.92.93-23.88,1.33-1.76.08-3.54-.36-5.3-.28-8.85.41-17.69,1.05-26.55,1.34-6.48.21-13,0-19.45,0-1.5,0-3-.2-4.52-.24-8.52-.21-17-.51-25.56-.56-7.34,0-14.69.33-22,.3-1.87,0-3.74-.82-5.61-1.26a15.47,15.47,0,0,1-.63-2.8c-.35-8-.68-16.06-.94-24.1-.25-7.53-.4-15.07-.61-22.6,3.35-.23,6.82-1.12,10-.54,8.44,1.55,16.82.75,25.21.26,1.62-.1,3.18-1.15,4.76-1.75-.61-1.47-1.32-2.46-1.4-3.5-.59-7.81-4.28-14.5-7.5-21.37-1-2.17-2.72-2.88-4.84-3.09-.93-.09-1.88,0-2.84,0-.21-2.32-.37-4.42-.6-6.52-.37-3.49.71-4.43,4.3-4.21,9.9.6,19.81,1.08,29.71,1.61,1.77.1,3.54.34,5.3.3s4.09.37,4.45-2.46v0c3.52-.12,2.26-2.92,2.16-4.5-.35-5.51-1-11-1.72-16.49-.33-2.56,1-3.44,3.11-3.47,7.44-.11,14.88-.18,22.33-.08,2.23,0,3.51,1.18,3.61,3.89.2,5.69.82,11.38,1.39,17.07.86,8.63,2.06,17.25,2.67,25.9.65,9.11,5.5,15,13.39,18.64,2.94,1.36,6.32,1.72,9.36,2.91,8.11,3.17,16.61,2,24.95,2.28,3.19.1,6.2-.31,8.71,2.09a8.26,8.26,0,0,0-.81,2.51c.07,3.18.33,6.36.5,9.54.12,2.1.23,4.21.34,6.31.05.83.09,1.66.14,2.5Q699.52,517.23,698.71,526.92Z"/><path class="cls-3" d="M419.57,515.1a48,48,0,0,1-6.11,1.25c-9.11.73-18.22,1.45-27.34,1.94-20.82,1.13-41.64,2.14-62.46,3.15-3.9.19-7.82,0-11.72.19q-15.93.68-31.87,1.5c-6.72.35-13.44.79-20.15,1.28-2.37.17-4.71.64-7.07.92-.17,0-.39-.35-.59-.54.73-.31,1.43-.69,2.18-.94,11-3.81,15.92-12.56,18.15-23.15,1-4.73,1.05-9.65,1.58-14.47a9,9,0,0,1,7.25-7.84c4.36-.86,8,1.36,9.93,6.54,1,2.65,1.5,5.47,2.62,8,.37.84,2,1.13,3,1.67.23-1,.84-2.05.61-2.89a23.5,23.5,0,0,0-2.19-5.11c-2.56-4.6-5.26-9.08-4.83-14.72a53.86,53.86,0,0,0-.47-7.9c-.52-6.95-1.11-13.89-1.56-20.84-.16-2.49,1.31-3.83,3.87-3.88q9.72-.18,19.44-.32c3.92-.05,4.54.78,4.45,4.87a60.42,60.42,0,0,0,.36,9.8c.93,6.43,2.07,12.84,3.45,19.19.27,1.27,1.81,2.5,3.07,3.2.39.22,2.13-1.19,2.65-2.18a17.16,17.16,0,0,0,1.65-5.2c.39-2.63.1-5.39.72-7.94,1.19-4.85,1.44-9.52-.23-14.32-1.75-5-5-8-10.59-8.95.37-2.94.6-5.93,1.21-8.84a2.58,2.58,0,0,1,2.83-2c10.75.11,21.51,0,32.26.08a25.72,25.72,0,0,1,3.7.48,35.61,35.61,0,0,0,0,4c.64,5.17,1.43,10.33,2,15.51.67,5.71,2.12,11.11,6.9,14.77A83.33,83.33,0,0,0,377.73,469a18,18,0,0,0,8.3,2.25,93.76,93.76,0,0,0,15.28-1.68,4.26,4.26,0,0,1,4.73,2.32c2,3.18,3.4,6.69,5.22,10,2.37,4.25,4.9,8.41,7.36,12.6a3.67,3.67,0,0,0,.12,1.21c.46,1,1.43,1.94,1.46,2.93.15,4.79.09,9.59,0,14.38A7.73,7.73,0,0,1,419.57,515.1Z"/><path class="cls-4" d="M543.6,479.71c.2,7.53.35,15.07.6,22.6.26,8,.59,16.07.94,24.1a15.47,15.47,0,0,0,.63,2.8c-3.3.81-6.57,1.87-9.92,2.37a100.86,100.86,0,0,1-10.59.69c-5.84.23-11.69.57-17.54.49-7.52-.11-15-.63-22.56-.89a67.91,67.91,0,0,0-7.68.19c-3.73.31-7.45.83-11.18,1.21-.37,0-.77-.34-1.16-.52,1.44-2.48,4.47-4,4.55-7.31.18-7.86.55-15.72.44-23.57-.05-3.25.28-5,2.92-6.73,3.62-2.41,7.28-4.88,5.88-10.19a37.72,37.72,0,0,0-1.66-5.22c-1.1-2.54-.11-8.89,2-9.54,4.46-1.36,4.86-4.78,5-8.48.09-2.75,0-5.51.17-8.25,0-.59.86-1.59,1.34-1.6,2,0,4,.34,6,.38,4.41.07,8.81,0,12.65,0,1.26,4.13,2.3,7.8,3.55,11.41a9.06,9.06,0,0,0,2,2.8c2.55,2.87,8.25,2,10.12-1.27,1.38-2.43.65-4.49.17-7-.91-4.78-3.53-7-7.93-7.91-1.52-.31-3.62-.37-4.35-1.36-.87-1.17-.56-3.22-.73-4.89-.05-.53,0-1.07,0-1.6,0-4.87.11-9.74-.15-14.6-.31-5.85-1.12-11.67-1.42-17.53-.48-9.48-.84-19-1-28.46-.29-14.37-.39-28.75-.5-43.12,0-.72.64-1.44,1-2.16l-.07,0c3.13.3,7-1.35,8.57,3.13,0,.06.34,0,.52,0l2.63,1.58c2.16.38,4.33.67,6.46,1.18a2.36,2.36,0,0,1,1.56,1.38c.49,2.71.71,5.47,1.15,8.2a20,20,0,0,0,1,3.13q0,4.53.08,9.07c-.87,3.26-1.75,6.52-2.61,9.79-1.5,5.68-2.91,11.39-4.51,17.05-2,6.89-3.52,13.89-6.33,20.54-1.19,2.82-1.37,6.06-2.13,9.08a38.51,38.51,0,0,1-1.51,4.08,1.8,1.8,0,0,0,1.51-1c1.67-4.77,3.35-9.54,4.89-14.35q3.25-10.1,6.3-20.27a87.44,87.44,0,0,0,2.2-9c1-5.28,1.73-10.59,2.58-15.89l.35-.52c.06.06.16.12.16.19.21,3.45.46,6.89.61,10.34.36,8.27.22,16.59,1.18,24.79.58,5,2.84,9.76,4.31,14.64.44,1.49.9,2.88,2.6,3.36.51,2,1,4.08,1.56,6.08s4.22,4.11,5.86,3.54l-.06,0c0,3.9.11,7.8,0,11.7-.27,6.9-.75,13.79-1.05,20.69-.19,4.31-.37,8.64-.27,13A67.71,67.71,0,0,0,543.6,479.71Z"/><path class="cls-5" d="M419.57,515.1a7.73,7.73,0,0,0,.66-2.1c.06-4.79.12-9.59,0-14.38,0-1-1-1.93-1.46-2.93a3.67,3.67,0,0,1-.12-1.21c3.17.17,3.48-2.49,3.7-4.42,1.07-9.2,2.29-18.43,2.63-27.68.53-14.2.6-28.42.46-42.63-.1-10-.86-20-1.37-30-.48-9.57-1.07-19.15-1.51-28.72a72.28,72.28,0,0,1,.14-9.31c.06-.84,1.2-2.24,1.88-2.26,4.87-.19,9.75-.12,14.63,0,.49,0,1.3.9,1.37,1.45.44,3.61.86,7.23,1,10.86.34,8,.67,16,.75,24,.14,14.39.1,28.78.14,43.17,0,6.83-.17,13.68.13,20.5.26,6.06,1.05,12.09,1.61,18.14.36,3.87.72,7.75,1.1,11.77,1.84-1.53,1.62-11.17.37-25.52-.75-8.65-.73-17.38-.84-26.08s.14-17.4.12-26.11-.2-17.4-.24-26.09,0-17.34,0-26.23h12.71a36.61,36.61,0,0,0,0,3.67c.37,3.38,1,6.74,1.2,10.13.33,6.9.46,13.8.59,20.71q.3,15.3.46,30.62c.11,11.54.07,23.09.22,34.64q.38,29.45,1,58.88a85,85,0,0,0,.87,9.26c.7,5.37,1.51,10.73,2.28,16.1-1.37.13-2.74.29-4.12.37-.69,0-1.4-.15-2.09-.11-11.4.61-22.8,1.25-34.2,1.85-1.75.09-3.51,0-5.39,0C418.67,528.39,419.12,521.75,419.57,515.1Z"/><path class="cls-6" d="M700.14,486.69c-2.51-2.4-5.52-2-8.71-2.09-8.34-.26-16.84.89-24.95-2.28-3-1.19-6.42-1.55-9.36-2.91-7.89-3.65-12.74-9.53-13.39-18.64-.61-8.65-1.81-17.27-2.67-25.9-.57-5.69-1.19-11.38-1.39-17.07-.1-2.71-1.38-3.86-3.61-3.89-7.45-.1-14.89,0-22.33.08-2.09,0-3.44.91-3.11,3.47.71,5.48,1.37,11,1.72,16.49.1,1.58,1.36,4.38-2.16,4.5a61,61,0,0,1-.78-6.27q-.23-8.87-.09-17.75c0-.51,1.19-1.39,1.87-1.44,9.55-.66,19.1-1.28,28.66-1.68.91,0,2.12,1.28,2.75,2.25a6.42,6.42,0,0,1,.56,3.1c.22,8.17.47,16.34.56,24.51.1,8.47,1.93,16.67,3.92,24.81a12.37,12.37,0,0,0,8.37,8.89c6.24,2.24,12.33,5,18.68,6.81,3.5,1,7.39.71,11.11.84,3.46.12,6.93,0,11,0-.29-3.6-.42-7.38-1-11.1-.34-2.37.2-3.11,2.67-3.13,8.61-.09,17.22-.4,25.83-.63,1,0,2-.19,2.92-.15,2.87.12,3.71-1.23,4.13-4,1-6.7,2-13.49,4.08-19.89,1.49-4.58,3.68-8.84,4.12-13.83.12-1.32,2.91-3.29,4.62-3.44,7.93-.72,15.91-1.1,23.87-1.21,4.31-.05,4.27.93,6,4.93,3.21,7.57,2.57,15.48,2.84,23.28.49,13.76.59,27.54.7,41.31,0,5.23-.33,10.47-.51,15.71,0,.87,0,1.74,0,3.07,5.46-.48,10.74-.88,16-1.41,6.06-.62,12.22-.9,18.16-2.16,7.15-1.52,13.55-5.05,19.39-9.47s9.29-10.53,11.84-17.19c.48-1.25,0-2.83.29-4.21.52-2.74,1.29-5.44,1.87-8.18.26-1.2.3-2.45.44-3.68.17-.07.41-.23.48-.17,4.13,3.07,8.52.68,12.75.5a12.21,12.21,0,0,1,9.45,3.31c2.9,2.77,4.84,6.13,4.35,10.36-.24,2.1.7,3.1,2.6,3.6,12.75,3.32,25.46,6.85,38.28,9.9a55.23,55.23,0,0,0,13.23,1.14c11.7-.1,23.41-.43,35.11-.87,7.8-.3,14.77-3.5,21.54-7.06,12.52-6.59,25.16-13,37.42-20,7.4-4.26,14.16-9.63,21.24-14.46,5.47-3.74,11-7.39,16.49-11.12,6.14-4.18,12.2-8.48,18.38-12.6,4.85-3.23,9.78-6.36,14.79-9.33,1.18-.7,2.89-.43,4.23-.94a33.43,33.43,0,0,0,4.3-2.28c.66-.35,1.36-1.08,2-1,4.2.54,8.55.79,12.53,2.09,2.66.87,5.14,3,7.08,5.15,2.48,2.72,4.25,6.07,6.47,9a67.22,67.22,0,0,0,16.87,16.26c5.69,3.71,11.16,7.75,16.76,11.6,7.42,5.11,14.62,10.72,23.92,12.1a60,60,0,0,0,10,1.09c12.07-.27,24.14-.69,36.18-1.39,2.53-.14,5-1.63,7.46-2.61,2.07-.83,3.48-.64,3.83,1.89a26.23,26.23,0,0,1-2.94,1.69c-6,2.55-12.5,2.45-18.82,2.65-10.83.33-21.67.23-32.5,0a18.14,18.14,0,0,1-8.42-1.95c-9.1-5.17-18.12-10.54-26.86-16.32-6.9-4.56-13.33-9.82-20-14.77l-2.33-1.91c.32,4.3.59,7.9.86,11.51.54,14.06-.76,28-3,42.21,1.53,0,2.41,0,3.27,0,9.3-.53,18.6-1.09,27.9-1.62,9.13-.52,18.27-1,27.4-1.51,8-.42,16-.78,23.94-1.17-1,.53-2,1.4-3.13,1.54-8,1.07-16,2-24,2.94a49.21,49.21,0,0,1-5.56.31c-10.82,0-21.64-.08-32.46.06-5.47.07-10.93.57-16.67.89-.32,3.33-.69,6.74-1,10.16-.27,3.26-.39,6.54-.67,9.8a7,7,0,0,1-.88,2l-2.1-1.54,2.75-.21V495.33l-3.17.69q-.12,3.15-.22,6.29c0,2.62-.07,5.23-.11,7.85-.84-4-1.76-7.94-2.48-11.94-.24-1.33-.53-2.19-2-2.19-4,0-8,0-12.26,0-.06,1.28-.13,2.4-.17,3.52-.17,6.21.1,12.47-.64,18.61-.52,4.28-2.21,8.47-3.8,12.54-1,2.56-6.31,3.79-8.74,2.37a3.45,3.45,0,0,1-1.3-1.59,5.18,5.18,0,0,1-.41-2.33c.62-7.76-1.22-15.26-2.27-22.86a57.38,57.38,0,0,1-.42-7.42c0-1.85-.76-2.46-2.57-2.4-13.38.41-26.76,1-40.13,1.07-13.84.11-27.67-.4-41.5-.34-10.11.05-20.22.6-30.33.87a24.26,24.26,0,0,1-3.37-.36l10.68-1.26c3-.16,6-.45,9-.46,11.18,0,22.37,0,33.56,0,8.26,0,16.53.31,24.78.09,13.19-.36,26.37-1.05,39.78-1.61-.21-3.78-.48-7.21-.57-10.64q-.52-22.1-1-44.2a8.42,8.42,0,0,1,.24-1.56c.85-4.84,1.49-9.74,4.43-14.18a8.84,8.84,0,0,0-4.28,1c-8.9,5.72-17.84,11.39-26.54,17.4-9.93,6.87-19.49,14.27-29.49,21a251,251,0,0,1-21.74,13.14c-11.46,6.18-23.16,11.92-34.76,17.85a50.81,50.81,0,0,1-5.68,1.1c-10,.75-20,1.42-29.94,2.07-2.13.14-4.27.11-6.41.16-2.55,0-5.1.06-7.65,0-3.81-.1-7.7.18-11.39-.54-6.74-1.31-13.39-3.16-20-4.92-7.49-2-14.93-4.12-22.4-6.15a12.39,12.39,0,0,0-2.47,0c.52,7,1,13.72,1.61,20.46,0,.46,1.3,1.18,2,1.15,3.78-.16,7.54-.52,11.31-.81-3.57,3.27-8.17,2.72-12.76,3.26-.2,4.8-.37,9.53-.62,14.26a31.39,31.39,0,0,1-.58,3.58,21.66,21.66,0,0,1-.4-2.5c-.24-4.31-.44-8.61-.65-12.92-.37-9-.71-18.07-1.14-27.1a2.48,2.48,0,0,0-.95-1.75c-3.61-2.33-7.35-4.48-10.93-6.88a41.93,41.93,0,0,1-4.38-3.88l11.9,6.63a23.5,23.5,0,0,0,3.21,2.21,1.91,1.91,0,0,0,1.67-.83c.55-1.86-2.09-7.6-3.69-8.85-4.8-3.75-9.9-1.71-14.94-.9-.13,0-.16.59-.24.91l-2.47-2c-.84,2.37-1.93,4.39-2.24,6.52a113.11,113.11,0,0,0-1.25,13.49q-.48,20.48-.55,41a22.16,22.16,0,0,0,1.51,6.66c.27.83,1.34,2,2,2A3.5,3.5,0,0,0,850,538c1.36-3.13,2.75-6.32,2.14-9.9a28.7,28.7,0,0,1-.69-4.92c0-1.82.58-3.63.66-5.45.12-2.84,0-5.69,0-8.48,1.4-.17,3.37-.32,5.32-.66s4.86-.36,5.27-1.38c.64-1.58-.45-3.88-.85-5.87-.08-.41-.42-.76-.53-1.16-.78-3-1.53-6-2.29-9l.94-.25c1.18,3.93,2.43,7.83,3.51,11.78.79,2.89,1.35,5.85,2,8.77a8.51,8.51,0,0,0,0,1.59c.87,5.26,1.66,10.55,2.72,15.77a30.17,30.17,0,0,0,2.19,5.34c-1.92,1.2-2.67.89-3.12-1.39-1.45-7.25-2.87-14.5-4.37-22.13l-9.53.83c.1,1.4.2,2.51.25,3.63.28,6.89.66,13.77.73,20.67a6,6,0,0,1-1.79,4.26c-1.45,1.18-3.67,2.26-5.35,2-1.25-.18-2.73-2.4-3.15-4-1.53-5.79-3.12-11.62-2.32-17.72.2-1.47.58-2.91.82-4.38.34-2.08-.61-2.75-2.58-2.3-6.05,1.37-12.12,2.62-18.14,4.09a99.24,99.24,0,0,1-33.45,2.83l-.62-.5,4.26-.56a24.84,24.84,0,0,0,3.45,0c11.11-1.51,22.24-3,33.33-4.67,4.34-.67,8.6-1.93,12.9-2.9.9-.2,2-.24.91-1.57.26-6.19.55-12.38.74-18.58a6.47,6.47,0,0,0-.77-2.19c-.69.36-1.76.55-2,1.12-2.2,4.6-5.82,7.89-9.64,11.05-7.61,6.29-16,10.47-26.14,10.86-3.82.14-7.61,1.29-11.41,2-1.59.05-3.19.06-4.79.15q-22.81,1.23-45.65,2.5l0,0c-.33-10.62-.65-21.24-1-32a25.72,25.72,0,0,1-4.37,1c-10,.57-19.94,1.15-29.92,1.48C705.18,487.91,702.65,487.1,700.14,486.69Zm428.92-12.11a.27.27,0,0,0,0-.26c.54-6.12,1.44-12.25,1.5-18.38a50.3,50.3,0,0,0-1.66-14.33,67.05,67.05,0,0,0-6.34-14,21.35,21.35,0,0,0-6.18-7.12c-3.72-2.53-8.2-3.39-13.11-3.07,1.24,2.42,2.91,4.53,3.4,6.89a66.69,66.69,0,0,1,1.82,14.43c-.14,10.28-.86,20.56-1.47,30.83-.34,5.73-1,11.42-1.41,17.14-.48,7.5-.4,7.61,7,7.62,5.11,0,10.23-.34,15.64-.53C1128.58,487.16,1128.82,480.87,1129.06,474.58Zm-36.77,19.14c2.19,0,4.37.12,6.56.11,5.54,0,5.54,0,5.23-5.37,0-.43,0-.87,0-1.31.15-1.76.35-3.51.44-5.27.28-5.32.16-10.69.84-15.95,1.35-10.36,2.8-20.73,1.83-31.17-.42-4.48-2-8.86-3.13-13.24a5.15,5.15,0,0,0-1.8-2.56c-.69-.52-2.08-1-2.63-.64-1.67,1.06-3.61,2.24-4.5,3.89-3.1,5.72-6,11.6-6,18.37,0,8.69-.18,17.38,0,26.06s.92,17.2,1.31,25.8C1090.49,494,1091.21,494,1092.29,493.72Zm-347.4,21.41c1,0,1.56.11,2.07.09,8-.36,15.94-.75,23.91-1.07,4.25-.16,5.25-1,5.11-5.23-.39-12.09-.93-24.17-1.39-36.25-.27-6.87-.44-13.74-.73-20.61-.31-7.18-.64-14.36-1.14-21.53-.11-1.61-.17-3.75-2.67-3.9-3.54-.21-7.09-.59-10.62-.48-4.68.13-9.35.81-14,1-2.17.08-3.12.89-3.15,2.95-.09,6.48-.42,13-.2,19.43.49,13.65,1.3,27.28,1.91,40.93C744.32,498.58,744.57,506.72,744.89,515.13Zm-48.41-45.22c.18.76.29,1.17.37,1.59.34,1.84,1.24,3.78.92,5.5-1.46,7.9,3.63,10,10,9.27,2-.22,4-.78,5.94-.89,4.77-.28,9.56-.3,14.33-.6,3.88-.24,7.75-.7,11.62-1.13,1.64-.19,2.81-.82,2.47-2.89-.51-3.19-.75-6.43-1.33-9.61a2.91,2.91,0,0,0-1.82-1.77,18.18,18.18,0,0,0-4.71-.56q-16.21.19-32.44.53C700.08,469.39,698.36,469.71,696.48,469.91Zm394.62,26.26c0,1.11-.08,2.16,0,3.19.4,4.26.86,8.52,1.3,12.78.54,5.19,1,10.39,1.68,15.55a4.37,4.37,0,0,0,1.89,3.12,4.31,4.31,0,0,0,3.58-.78,8.63,8.63,0,0,0,3.37-6.55c.33-8.93.7-17.86.92-26.8,0-.52-1.13-1.54-1.69-1.51C1098.58,495.37,1095,495.79,1091.1,496.17ZM738.68,442.46l-.83-.13c-4.72,7.55-3.55,16.45-5.83,24.72h9.06C740.26,458.71,739.47,450.59,738.68,442.46Z"/><path class="cls-7" d="M210.66,500.29c1.41,1.77,2.82,3.53,4.22,5.3.2.86.39,1.72.59,2.59-.34.45-.9.86-1,1.36-.56,3.11-1.63,4.06-4.77,4.06l-4.19,0c-1.62,0-3.48-.4-4.83.23-3.44,1.6-6.48,4.18-10,5.47a108.09,108.09,0,0,1-16,4.37c-4.12.82-8.53.33-12.59,1.33a13.28,13.28,0,0,1-10.83-1.63c-.59-.36-1.51-.16-2.28-.22-1.52-.12-3-.19-4.55-.38-.95-.12-2-.84-2.78-.58-3.3,1.17-5.8-.44-8.34-2.05a7.26,7.26,0,0,0-.45-.93c-2.14-3.13-1.91-3.86,1.74-5.25,6.15-8.49,12.3-17,18.55-25.59,1.49-.11,3.41-.3,5.34-.38,4.7-.2,5.15-.41,5.18-5,0-7.45-.14-14.91-.38-22.35-.12-3.42-.58-6.82-.94-10.77l38.7-2c-.32,1-.48,1.62-.68,2.17-1.68,4.5-2.55,8.84-1,13.79s4.78,8.66,7.77,12.5a12.71,12.71,0,0,1,2.36,4.21,1.48,1.48,0,0,1-.36,1.34c-.34.18-1.26,0-1.38-.25-1.38-2.92-4.39-2.73-6.8-3.53-6.41-2.11-12.92-4-19.76-2.35-4,1-8.27,1.67-11,5.32-.51.7-.73,2.61-.45,2.76,2.9,1.51,5.91,3.85,8.92,3.91,9.47.19,19-.55,28.45-.78,1,0,2,1,3,1.53A19.66,19.66,0,0,0,210.66,500.29Z"/><path class="cls-8" d="M215.47,508.18c-.2-.87-.39-1.73-.59-2.59,3.5,2,7.36,2.13,11.13,1.62,6.63-.9,10.76,2.16,13.69,7.68a18.11,18.11,0,0,0,2.55,3.65c5,5.45,10.36,3.48,15.83.05,7.76-4.86,11.14-12.31,11.92-21.34a88.06,88.06,0,0,1,2.91-14.75c1-4,6.92-6.94,11.29-6.08.87.17,1.72.43,2.67.67,0-4.63,0-9.19,0-13.74,0-6.57,0-13.14.1-19.7a9.45,9.45,0,0,1,.68-3.63,2.75,2.75,0,0,1,2-1.27c8.63-.68,17.27-1.26,26.09-1.87.46-3.1,1-6.41,1.43-9.73.24-1.73.73-2.5,2.79-1.82,1.32.44,3-.1,4.47-.15,7.81-.22,15.63-.45,23.44-.63,3.17-.07,6.35-.11,9.52,0,2.4.1,2.6.71,1.39,2.76a3.37,3.37,0,0,0-.24,2c.83,6.15,1.3,12.38,2.71,18.4,1,4.06,2.21,8.31,6.27,10.92,3.39,2.19,6.33,5.08,9.76,7.19s7.29,2.25,11.33,1.54a94.55,94.55,0,0,1,12.7-1.16c4.56-.17,5.9,1,7.7,5.07,2.25,5.16,4.63,10.26,7,15.36a30.71,30.71,0,0,0,2.1,3.25c2.75-3.52,3.32-7.41,3.6-11.2.64-8.85,1.11-17.72,1.25-26.59.08-4.59-1.09-9.19-1.05-13.78.12-13.05.72-26.1.81-39.15.05-6.1-.71-12.21-1-18.32-.21-5-.11-10.11-.34-15.16-.2-4.38-1-8.75-.84-13.1.06-1.62,1.8-4.13,3.28-4.58,6.21-1.87,12.58-2.37,18.92-.08.87.32,2-.08,3-.13,3.28-.16,6.56-.33,9.84-.46,2.75-.11,4,.94,4.09,3.67.37,10.65.75,21.3,1,32,.17,7.88,0,15.78.19,23.66.33,11.26,1.12,22.51,1.31,33.77.23,13.58,0,27.17,0,40.76,0,8.7-.21,17.41.22,26.08.34,6.76,1.5,13.48,2.33,20.21a15.59,15.59,0,0,0,.74,2.38,8,8,0,0,0,.94-1.6c1.65-6.53,2.41-13,1-19.82a35.92,35.92,0,0,1-.14-11.15,5.52,5.52,0,0,1,3.3-3.64c3.65-1.13,4.6-3.63,4.51-6.89-.11-3.72-.5-7.44-.61-11.16a20.59,20.59,0,0,1,.54-5.25c.23-.93,1-2.23,1.82-2.42,3.37-.85,3.42-3.46,3.57-6,.22-3.71.28-7.44.58-11.14.06-.71.79-1.81,1.37-1.91s1.58.58,2.4.9a7.2,7.2,0,0,0,2.57.9c5.56-.25,11.13-.64,16.88-1a17.33,17.33,0,0,1-.22-2.24c.13-2.72.53-5.45.45-8.17-.6-20.33-1.48-40.65-1.89-61-.23-11.63.24-23.28.38-34.92,0-2.29,0-4.59,0-7.18l2.08.44c-.34.72-1,1.44-1,2.16.11,14.37.21,28.75.5,43.12.18,9.49.54,19,1,28.46.3,5.86,1.11,11.68,1.42,17.53.26,4.86.12,9.73.15,14.6,0,.53,0,1.07,0,1.6.17,1.67-.14,3.72.73,4.89.73,1,2.83,1.05,4.35,1.36,4.4.91,7,3.13,7.93,7.91.48,2.52,1.21,4.58-.17,7-1.87,3.3-7.57,4.14-10.12,1.27a9.06,9.06,0,0,1-2-2.8c-1.25-3.61-2.29-7.28-3.55-11.41-3.84,0-8.24.05-12.65,0-2,0-4-.41-6-.38-.48,0-1.3,1-1.34,1.6-.17,2.74-.08,5.5-.17,8.25-.13,3.7-.53,7.12-5,8.48-2.12.65-3.11,7-2,9.54a37.72,37.72,0,0,1,1.66,5.22c1.4,5.31-2.26,7.78-5.88,10.19-2.64,1.76-3,3.48-2.92,6.73.11,7.85-.26,15.71-.44,23.57-.08,3.33-3.11,4.83-4.55,7.31l-1.14.58c-.77-5.37-1.58-10.73-2.28-16.1a85,85,0,0,1-.87-9.26q-.57-29.45-1-58.88c-.15-11.55-.11-23.1-.22-34.64q-.15-15.31-.46-30.62c-.13-6.91-.26-13.81-.59-20.71-.17-3.39-.83-6.75-1.2-10.13a36.61,36.61,0,0,1,0-3.67H444.7c0,8.89,0,17.56,0,26.23s.23,17.39.24,26.09-.22,17.41-.12,26.11.09,17.43.84,26.08c1.25,14.35,1.47,24-.37,25.52-.38-4-.74-7.9-1.1-11.77-.56-6.05-1.35-12.08-1.61-18.14-.3-6.82-.11-13.67-.13-20.5,0-14.39,0-28.78-.14-43.17-.08-8-.41-16-.75-24-.16-3.63-.58-7.25-1-10.86-.07-.55-.88-1.44-1.37-1.45-4.88-.12-9.76-.19-14.63,0-.68,0-1.82,1.42-1.88,2.26a72.28,72.28,0,0,0-.14,9.31c.44,9.57,1,19.15,1.51,28.72.51,10,1.27,20,1.37,30,.14,14.21.07,28.43-.46,42.63-.34,9.25-1.56,18.48-2.63,27.68-.22,1.93-.53,4.59-3.7,4.42-2.46-4.19-5-8.35-7.36-12.6-1.82-3.28-3.25-6.79-5.22-10a4.26,4.26,0,0,0-4.73-2.32A93.76,93.76,0,0,1,386,471.27a18,18,0,0,1-8.3-2.25,83.33,83.33,0,0,1-11.38-7.53c-4.78-3.66-6.23-9.06-6.9-14.77-.61-5.18-1.4-10.34-2-15.51a35.61,35.61,0,0,1,0-4,25.72,25.72,0,0,0-3.7-.48c-10.75,0-21.51,0-32.26-.08a2.58,2.58,0,0,0-2.83,2c-.61,2.91-.84,5.9-1.21,8.84,5.58.9,8.84,3.92,10.59,8.95,1.67,4.8,1.42,9.47.23,14.32-.62,2.55-.33,5.31-.72,7.94a17.16,17.16,0,0,1-1.65,5.2c-.52,1-2.26,2.4-2.65,2.18-1.26-.7-2.8-1.93-3.07-3.2-1.38-6.35-2.52-12.76-3.45-19.19a60.42,60.42,0,0,1-.36-9.8c.09-4.09-.53-4.92-4.45-4.87q-9.72.13-19.44.32c-2.56.05-4,1.39-3.87,3.88.45,6.95,1,13.89,1.56,20.84a53.86,53.86,0,0,1,.47,7.9c-.43,5.64,2.27,10.12,4.83,14.72a23.5,23.5,0,0,1,2.19,5.11c.23.84-.38,1.92-.61,2.89-1-.54-2.65-.83-3-1.67-1.12-2.57-1.66-5.39-2.62-8-1.89-5.18-5.57-7.4-9.93-6.54a9,9,0,0,0-7.25,7.84c-.53,4.82-.59,9.74-1.58,14.47-2.23,10.59-7.12,19.34-18.15,23.15-.75.25-1.45.63-2.18.94l-6.4.08c-.81-.92-1.61-1.86-2.43-2.77-2.89-3.21-5.92-6.31-8.63-9.66a7.64,7.64,0,0,0-6.31-3.08C224.12,509.33,219.68,510,215.47,508.18ZM317,440.09c.85,4.56,1.74,8.71,2.39,12.9.52,3.41.69,6.88,1.16,10.3.41,3,1,5.93,1.62,8.87.15.7.9,1.28,1.37,1.92.39-.72.79-1.43,1.16-2.15a1.52,1.52,0,0,0,.06-.53c.36-5.93.8-11.87,1-17.81a33.47,33.47,0,0,0-.49-7.14C324.71,443.18,321.12,440.31,317,440.09Zm190.69,12.5c.38,2.42.84,4.66,1.06,6.92a7.24,7.24,0,0,0,3.54,5.5c2.54,1.69,5,.55,5.77-2.4C519.89,455.72,515.13,451.66,507.7,452.59Z"/><path class="cls-9" d="M215.47,508.18c4.21,1.83,8.65,1.15,13,1.18a7.64,7.64,0,0,1,6.31,3.08c2.71,3.35,5.74,6.45,8.63,9.66.82.91,1.62,1.85,2.43,2.77-1,.68-1.92,1.79-3,2-9.83,1.55-19.68,3-29.54,4.37-15.31,2.16-30.75,1.88-46.16,2.15-8.07.14-16.14.61-24.2.44-7.69-.16-15.35-1-23-1.47-.35,0-.71,0-1.06-.05-8.59-.18-17.21,0-25.76-.63-9.85-.7-19.65-2-29.45-3.26a3.56,3.56,0,0,1-2.39-2.29c-.71-3.54-1.09-7.16.58-10.62,1.62-1.05,3.2-2.17,4.88-3.13,4.79-2.73,9.85-4.26,15.46-3.16a29.5,29.5,0,0,0,5.53.65c8,0,15.48,2.32,22.92,4.85,9,3,17.81,6.62,27,9,6.67,1.73,13.74,2,20.66,2.68,3.67.36,7.53.85,11.08.15,7.48-1.48,14.75-4,22.23-5.53,4.75-1,8-5.18,12.92-5.44.37,0,.69-1.25,1-1.91l4.19,0c3.14,0,4.21-1,4.77-4.06C214.57,509,215.13,508.63,215.47,508.18Z"/><path class="cls-2" d="M546.3,425l.79-.08c9.3.54,12.91,2.91,15.18,9.92.9,2.81.38,3.76-2.62,4-3.32.21-6.67.11-10,.2a5.2,5.2,0,0,0-1.49.52l.14.71c4.56-.33,9.14-.59,13.69-1,2.63-.26,2.92-.05,2.69,2.64-.17,2-.28,4.07-.25,6.1.06,3.61.74,4.14,4.35,4.52a3.8,3.8,0,0,1,2.7,1.52c1.93,3.73,3.71,7.56,5.35,11.44,1.49,3.52,3,7.09,2.41,11.57H545.48c-2.51-5.17-1-10.44-.57-15.76.64-7.5,1.34-15.07,1-22.56A59.45,59.45,0,0,1,546.3,425Z"/><path class="cls-4" d="M541.94,339.77h.95c.91,2.75,2.38,5.46,2.59,8.27.42,5.43.21,10.92.11,16.37-.1,6.2-.31,12.4-.58,18.6-.08,1.77-.75,3.54-.73,5.3,0,2.19.76,4.38.71,6.55,0,2.58-.81,5.14-.91,7.72q-.26,6.51,0,13c.09,2.73.75,5.44.83,8.17,0,.86,1.31,2.55-.89,2.88l.06,0c-3.23-2.56-5.24-6-7-9.62a19.7,19.7,0,0,0-.64-2.78c-1.15-3.16-2.84-6.2-3.46-9.45-1.06-5.5-1.52-11.12-2.1-16.7-.5-4.69-.76-9.41-1.22-14.11-.63-6.29-1.35-12.58-2-18.86-.33-3.68-.72-7.36-.91-11,0-.64.74-1.83,1.26-1.91,2.14-.31,4.33-.26,6.49-.4a4.6,4.6,0,0,0,4.43-3.14l1.3.5c.16.68.32,1.36.66,2.77C541.39,340.81,541.66,340.29,541.94,339.77Z"/><path class="cls-10" d="M1131.76,452.2c-.27-3.61-.54-7.21-.86-11.51l2.33,1.91c.3.53.46,1.23.9,1.57,6.6,5.19,13,10.61,19.91,15.39s14.23,8.86,21.33,13.31a41.13,41.13,0,0,0,20.66,6,160,160,0,0,0,37.06-2.89c3.89-.75,7.85-1.18,11.77-1.75,2.4,2.47,2.12,3.73-1,4.7-8.9,2.73-17.86,5.1-27.3,4.8a42.41,42.41,0,0,0-5.43.49c.78,1.07,3.31,1.06,1.64,3.11-4.06.34-8.12.63-12.17,1-5.72.55-11.43,1.38-17.17,1.71-9.9.55-19.83.66-29.74,1.25-6.17.36-12.32,1.18-18.46,1.94-4.19.52-4.25.57-3.93-3.78l0-.54c.48-8.47,1.12-16.95,1.37-25.44C1132.78,459.75,1132.09,456,1131.76,452.2Zm66.58,32.65c-24.88-4-44.15-17.86-62.08-33.52.52,12.17,1,24.59,1.58,37Z"/><path class="cls-11" d="M210.22,488.51c-1-.54-2-1.55-3-1.53-9.49.23-19,1-28.45.78-3-.06-6-2.4-8.92-3.91-.28-.15-.06-2.06.45-2.76,2.69-3.65,6.93-4.37,11-5.32,6.84-1.62,13.35.24,19.76,2.35,2.41.8,5.42.61,6.8,3.53.12.27,1,.43,1.38.25a1.48,1.48,0,0,0,.36-1.34,12.71,12.71,0,0,0-2.36-4.21c-3-3.84-6.19-7.57-7.77-12.5s-.72-9.29,1-13.79c.2-.55.36-1.14.68-2.17l-38.7,2c.36,3.95.82,7.35.94,10.77.24,7.44.43,14.9.38,22.35,0,4.57-.48,4.78-5.18,5-1.93.08-3.85.27-5.34.38-6.25,8.61-12.4,17.1-18.55,25.59-1-.49-2.07-1-3.33-1.56,6.32-2.3,7.95-8.79,11.89-13.26,3-3.41,5.55-7.25,8.36-11l-1.7-1.52c.46-.3.74-.62,1-.63,1.93-.09,3.87-.17,5.8-.14,1.6,0,2.73-.7,2.74-2.25.07-11.08,0-22.16,0-33.39l-2.93-.48c-3.59-.56-4.17-1.25-4.07-4.84,0-1.16.11-2.31.17-3.46a5.4,5.4,0,0,1,.65,1.62c.13,2.66,1.39,4.05,4.13,4.07,3,0,6,.13,9,.21,8.5.32,17,.28,25.13-2.57l9.44-1.14,5.59-1.52c-.52,3-.88,5.91-3,8.54-2.49,3-1.52,12.3.76,15.67,2,2.91,3.61,6,5.49,9a21.76,21.76,0,0,0,3.16,4.24c3.93,3.72,4,3.66.87,7.64-1.5-.73-2.87-1.07-3.19,1.24Zm-.29-3.92.12-.74c-2.13-1.32-4.11-3.08-6.43-3.87-4.06-1.38-8.31-2.21-12.5-3.18a22,22,0,0,0-16.55,2.72,5.62,5.62,0,0,0-2.14,3.53c-.09.46,1.79,1.45,2.89,1.94a6.87,6.87,0,0,0,2.62.32c7,.07,14,.21,21,.11C202.6,485.37,206.26,484.88,209.93,484.59Z"/><path class="cls-12" d="M206.54,442.16,201,443.68c.77-.66,1.53-1.33,2.29-2l1-1.84a6.26,6.26,0,0,0-1.74-.78c-1.94-.23-4.52.19-2.24-3.14.26-.39-.49-1.47-.78-2.24-2.3-5.17-4.73-10.3-6.88-15.54-1.57-3.85-2.77-7.86-4.14-11.79.14-2.62.29-5.24.43-7.85a10.45,10.45,0,0,0,1.24-2.09c.8-2.61,1.3-5.31,2.23-7.86s2.29-5.17,3.47-7.74c.34-1.6.68-3.2,1-4.8a6.75,6.75,0,0,0,.5-2c-.35-4.13-.79-8.26-1.23-12.38,0-.21-.34-.39-.54-.6a3.49,3.49,0,0,1-1,.15c-.89-.13-1.77-.35-2.65-.54.37-.8.71-1.63,1.13-2.41.2-.37.63-.63.84-1,.67-1.14,1.28-2.31,1.91-3.47l-3.17-1.33-3.66-2.1a38.39,38.39,0,0,1,4-25.9c-3.92,2.31-4.66,2-6.24-2.31-.07-2.23-.89-1.08-1.53-.32a3,3,0,0,1-4.16.79,16.12,16.12,0,0,0-1.87-.73l0,.74-2,.58a15.36,15.36,0,0,1,0-3.18,11.71,11.71,0,0,1,1.17-2.65A14.07,14.07,0,0,1,181,319.1a14.66,14.66,0,0,1,1.73,2.74c1-1.85,1.7-3.56,2.67-5.12.4-.63,1.29-1,1.95-1.41a9,9,0,0,1,1.26,2.2c.42,1.62.62,3.31,1,5.36,2-1.89,3.52-3.37,5.12-4.72.46-.38,1.56-.73,1.82-.49a2.44,2.44,0,0,1,.79,2c-1.12,3.48-2.4,6.9-3.67,10.32-.46,1.24-1.42,2.4-1.51,3.64-.32,4.24-.38,8.5-.49,12.75,0,1.69.67,2.71,2.57,2.42a34.62,34.62,0,0,0,5.22-.83c.91-.29,1.54-1.41,2.36-2.07s1.76-1.76,2.61-1.73a3.89,3.89,0,0,1,3,1.68c1.33,2.93,2.27,5.85,1,9.34-1.42,3.86-1.72,8.12-2.91,12.08a47.27,47.27,0,0,1-3.42,7.33c-1.85,3.66-3.93,7.22-5.61,11-2.32,5.15-4.49,10.5-4.49,16.18,0,4,1.22,7.94,2,11.88a12.37,12.37,0,0,0,1.22,2.58c2.55,5.53,5.05,11.07,7.66,16.56a6,6,0,0,0,2,2.4C207.67,437,207.37,439.48,206.54,442.16Zm-3.85-76.29c.17-.56.35-1.13.5-1.7.56-2.1,1.11-4.2,1.67-6.3q.39-3.18.79-6.37l-.78-.38c-1.93,1.83-3.82,3.69-5.79,5.46s-2.3,3.87-.75,6.27l.94,3.65,1.18,4.22.55-.06C201.57,369.06,202.13,367.47,202.69,365.87Z"/><path class="cls-6" d="M544,426.65c2.2-.33.91-2,.89-2.88-.08-2.73-.74-5.44-.83-8.17q-.22-6.51,0-13c.1-2.58.86-5.14.91-7.72,0-2.17-.68-4.36-.71-6.55,0-1.76.65-3.53.73-5.3.27-6.2.48-12.4.58-18.6.1-5.45.31-10.94-.11-16.37-.21-2.81-1.68-5.52-2.59-8.27,1.08,1.3,2.86,2.49,3.09,3.93.79,4.88,1.71,9.88,1.36,14.75-1.56,21.73-1.14,43.48-1.2,65.23a8.52,8.52,0,0,0,.16,1.31,59.45,59.45,0,0,0-.44,13.67c.39,7.49-.31,15.06-1,22.56-.46,5.32-1.94,10.59.57,15.76h33.76c.58-4.48-.92-8.05-2.41-11.57-1.64-3.88-3.42-7.71-5.35-11.44a3.8,3.8,0,0,0-2.7-1.52c-3.61-.38-4.29-.91-4.35-4.52,0-2,.08-4.07.25-6.1.23-2.69-.06-2.9-2.69-2.64-4.55.44-9.13.7-13.69,1l-.14-.71a5.2,5.2,0,0,1,1.49-.52c3.33-.09,6.68,0,10-.2,3-.2,3.52-1.15,2.62-4-2.27-7-5.88-9.38-15.18-9.92.09-1.79,1.39-1.88,2.67-1.81a17,17,0,0,1,10.44,4.09c2.62,2.21,5.31,4.42,5.72,8.26.05.53,1.12,1.32,1.76,1.35q17.66.93,35.34,1.66c2.38.1,4.77,0,7.15,0-.36,2.83-2.61,2.41-4.45,2.46s-3.53-.2-5.3-.3c-9.9-.53-19.81-1-29.71-1.61-3.59-.22-4.67.72-4.3,4.21.23,2.1.39,4.2.6,6.52,1,0,1.91-.07,2.84,0,2.12.21,3.82.92,4.84,3.09,3.22,6.87,6.91,13.56,7.5,21.37.08,1,.79,2,1.4,3.5-1.58.6-3.14,1.65-4.76,1.75-8.39.49-16.77,1.29-25.21-.26-3.21-.58-6.68.31-10,.54a70,70,0,0,1-1-7.71c-.1-4.32.08-8.65.27-13,.3-6.9.78-13.79,1.05-20.69C544.09,434.45,544,430.55,544,426.65Z"/><path class="cls-8" d="M538.84,338.67a4.6,4.6,0,0,1-4.43,3.14c-2.16.14-4.35.09-6.49.4-.52.08-1.29,1.27-1.26,1.91.19,3.68.58,7.36.91,11l-.63,0a20,20,0,0,1-1-3.13c-.44-2.73-.66-5.49-1.15-8.2a2.36,2.36,0,0,0-1.56-1.38c-2.13-.51-4.3-.8-6.46-1.18.53-.27,1-.77,1.57-.76,2,0,3.92.22,5.94.36a18.48,18.48,0,0,0-.44-3.48c-.2-.6-.93-1.46-1.42-1.46-2.77,0-5.54.26-8.28.43v3.33c-.18,0-.49,0-.52,0-1.61-4.48-5.44-2.83-8.57-3.13l6-1.11a32.42,32.42,0,0,1-.56-3.58c-.19-7.28-.32-14.56-.5-21.84a5.18,5.18,0,0,1,3.53-5.38c4.52-1.54,6-5,6.28-9.19.28-5,.19-10,.13-14.93a2.5,2.5,0,0,0-1.22-1.95c-1.69-.5-1.91-1.62-1.9-3.05,0-4.61,0-9.21,0-13.88l5.91-1H528c5,.41,5.18.78,4.86,5.92-.3,4.87-.41,9.76-.6,14.64-.2,5.41-.39,10.82-.6,16.23-.05,1.22,0,2.25,1.58,2.52,5.36.92,7,5.05,7.38,9.56.74,9.71,1,19.46,1.47,29.2a5.24,5.24,0,0,1-.18,1c-.28.52-.55,1-1.14,2.17-.34-1.41-.5-2.09-.66-2.77-.24-.48-.72-1-.69-1.44.17-2.6.82-5.22.63-7.79-.43-5.93-1.6-11.83-1.82-17.76-.19-5.25-1.36-9.21-7.16-10.4-1.52-.31-2.09-1.42-2-3.17.75-9.41,1.38-18.83,2-28.25.15-2.54,0-5.1,0-8-4,0-7.79-.07-11.56.07a2.21,2.21,0,0,0-1.55,1.51c-.12,4.24-.07,8.48-.07,12.5,2.21.85,4.27.87,4.22,3.54-.09,6,.08,11.91-.12,17.85a6.06,6.06,0,0,1-1.94,3.65c-2,1.91-4.47,3.4-6.54,5.29a4.15,4.15,0,0,0-.91,2.89c.17,6.56.45,13.11.73,19.67.08,2,.26,4,.37,5.54,6.7-.39,13-.83,19.37-1.09C537.22,333.59,538.11,334.49,538.84,338.67Zm-15.17-3.23c1,2.59.84,5.14,3.54,5.16a36.08,36.08,0,0,0,7.35-1c.77-.15,1.4-1,2.1-1.55-.68-.69-1.31-1.9-2-2C531.21,335.7,527.78,335.65,523.67,335.44Z"/><path class="cls-13" d="M698.71,526.92q.81-9.69,1.6-19.37c2.54,2,4.83,4.54,7.66,6,10.25,5.22,21.64,6.19,32.76,8.1l1.76,1c0,.16,0,.32.07.48-3,4.84-8.1,3.89-12.55,4.2-8.13.58-16.29.86-24.44,1C703.29,528.37,701,527.42,698.71,526.92Z"/><path class="cls-14" d="M163.58,308.67c-.87-7.42-1.84-14.83-2.57-22.27a54.05,54.05,0,0,1,.16-8c0-.52.56-1,.86-1.52l2.79,2.06c.6,1.14,1.75,2.31,1.69,3.42-.16,3.17,1.65,4.34,4.17,5.12.18,2,.34,4,.55,6.05.1.89.29,1.77.44,2.66,0,3.24,0,6.48-.08,9.72q-.43,20.4-.93,40.81l-1-.06L169.1,344c-.41-4.49-.67-9-1.27-13.47-1-7.37-2.19-14.73-3.3-22.09Z"/><path class="cls-15" d="M205.52,513.62c-.34.66-.66,1.89-1,1.91-5,.26-8.17,4.48-12.92,5.44-7.48,1.51-14.75,4-22.23,5.53-3.55.7-7.41.21-11.08-.15-6.92-.68-14-1-20.66-2.68-9.15-2.37-18-5.95-27-9-7.44-2.53-14.93-4.83-22.92-4.85a29.5,29.5,0,0,1-5.53-.65c-5.61-1.1-10.67.43-15.46,3.16-1.68,1-3.26,2.08-4.88,3.13,3.57-4.49,8.23-7.3,13.91-7.66a84.08,84.08,0,0,1,34.47,4.57c6.71,2.45,13.48,4.77,20.23,7.12a26.46,26.46,0,0,0,2.83.66c2.54,1.61,5,3.22,8.34,2.05.76-.26,1.83.46,2.78.58,1.51.19,3,.26,4.55.38.77.06,1.69-.14,2.28.22A13.28,13.28,0,0,0,162.07,525c4.06-1,8.47-.51,12.59-1.33a108.09,108.09,0,0,0,16-4.37c3.53-1.29,6.57-3.87,10-5.47C202,513.22,203.9,513.66,205.52,513.62Z"/><path class="cls-16" d="M884.8,506.85c-3.77.29-7.53.65-11.31.81-.66,0-1.92-.69-2-1.15-.63-6.74-1.09-13.49-1.61-20.46a12.39,12.39,0,0,1,2.47,0c7.47,2,14.91,4.17,22.4,6.15,6.64,1.76,13.29,3.61,20,4.92,3.69.72,7.58.44,11.39.54,2.55.06,5.1,0,7.65,0l-7.14,2.46,3.54.21c-8.25.87-16.51,1.65-24.74,2.65-3.55.43-7,1.31-10.56,2Zm28-6.65.07-.92-40.28-11.35c0,1.79,0,3,0,4.19.14,3.54.37,7.08.47,10.62.11,4,.63,4.42,4.62,3.72,6-1,12.05-1.95,18.06-3C901.44,502.43,907.11,501.28,912.79,500.2Z"/><path class="cls-16" d="M1244.86,474.26c-3.92.57-7.88,1-11.77,1.75A160,160,0,0,1,1196,478.9a41.13,41.13,0,0,1-20.66-6c-7.1-4.45-14.46-8.53-21.33-13.31s-13.31-10.2-19.91-15.39c-.44-.34-.6-1-.9-1.57,6.64,4.95,13.07,10.21,20,14.77,8.74,5.78,17.76,11.15,26.86,16.32a18.14,18.14,0,0,0,8.42,1.95c10.83.22,21.67.32,32.5,0,6.32-.2,12.79-.1,18.82-2.65a26.23,26.23,0,0,0,2.94-1.69,11.29,11.29,0,0,1,2.27.59C1246.7,472.72,1246.62,473.57,1244.86,474.26Z"/><path class="cls-17" d="M169.1,344l.57,2.63c.32,1.09.63,2.18,1,3.27q0,10.38.1,20.77c-.48,5.35-.89,10.72-1.48,16.07-.74,6.86-1.59,13.71-2.48,20.55a32.13,32.13,0,0,1-1.25,5.66c-.84,2.63-1.91,5.19-2.88,7.78-3.24,4.82-5.93,9.86-6.44,15.7l-3.29,1.74a48,48,0,0,1,2.47-6.55c4.63-8.42,8.08-17.27,9.32-26.79,1.22-9.34,1.94-18.74,2.78-28.13.43-4.76.85-9.54.89-14.32,0-5.93-.29-11.86-.46-17.8Z"/><path class="cls-16" d="M1131.76,452.2c.33,3.77,1,7.55.91,11.31-.25,8.49-.89,17-1.37,25.44l0,.54c-.32,4.35-.26,4.3,3.93,3.78,6.14-.76,12.29-1.58,18.46-1.94,9.91-.59,19.84-.7,29.74-1.25,5.74-.33,11.45-1.16,17.17-1.71,4-.38,8.11-.67,12.17-1,1.43,1.92,0,2.3-1.44,2.74-8,.39-16,.75-23.94,1.17-9.13.47-18.27,1-27.4,1.51-9.3.53-18.6,1.09-27.9,1.62-.86.05-1.74,0-3.27,0C1131,480.22,1132.3,466.26,1131.76,452.2Z"/><path class="cls-18" d="M528,260.69h-5.31c-2.15-2.19-4.42-4.25-6.4-6.58-2.47-2.93-1-4.42,1.08-6.06,1.85-1.5,4.51-.68,6,1.53a20.31,20.31,0,0,1,3.29-1.79c4.17-1.39,6.66,1,6,5.41C532.16,256.43,530,258.45,528,260.69Zm-2-2.32c2.65-1.8,2.77-4.13,3-6.34.06-.58-.61-1.22-.94-1.83-.52.5-1.41,1-1.5,1.52C526.27,253.74,526.22,255.8,526,258.37Z"/><path class="cls-19" d="M170.66,346.68q.47-20.4.93-40.81c.07-3.24.06-6.48.08-9.72l.51-2.78,1,40c.15-2.12.31-5.1.57-8.07a13,13,0,0,1,.67-2.4l2.52,1c-1.68,3.39-.83,7-.89,10.52l-2.67,12.34C172.48,347.26,171.55,348.23,170.66,346.68Z"/><path class="cls-20" d="M930.26,500.35l-3.54-.21,7.14-2.46c2.14-.05,4.28,0,6.41-.16,10-.65,20-1.32,29.94-2.07a50.81,50.81,0,0,0,5.68-1.1l4.88-.48,2.2,1.47-.57,1.12-10.68,1.26c-5.46.49-10.93,1.06-16.4,1.46-4.29.31-8.6.43-12.91.63Z"/><path class="cls-21" d="M869.79,512.53c.21,4.31.41,8.61.65,12.92a21.66,21.66,0,0,0,.4,2.5l-.48,6.23a30.17,30.17,0,0,1-2.19-5.34c-1.06-5.22-1.85-10.51-2.72-15.77a8.51,8.51,0,0,1,0-1.59l2.7-1.15Z"/><path class="cls-22" d="M930.26,500.35l12.15-.54c-7.56,1-15.11,2.21-22.7,3.09-6.82.79-13.69,1.28-20.54,1.88-1.4.13-2.81.14-4.21.21,3.52-.68,7-1.56,10.56-2C913.75,502,922,501.22,930.26,500.35Z"/><path class="cls-23" d="M172.18,293.37l-.51,2.78c-.15-.89-.34-1.77-.44-2.66-.21-2-.37-4-.55-6.05-.36-1.32-.39-2.91-1.17-3.92a42.67,42.67,0,0,0-4.69-4.62L162,276.84c-.06-2.73.44-3.21,2.72-1.89a61.58,61.58,0,0,1,7.49,5.27c.6.48,1.11,2.23.84,2.47-2.1,1.88-1,4.07-.9,6.18C172.24,290.37,172.18,291.87,172.18,293.37Z"/><path class="cls-24" d="M1124.15,510.16c0-2.62.07-5.23.11-7.84l2,1a12.31,12.31,0,0,0,.7-2.07c.13-.87,0-1.78.1-2.65.31-2-.66-2.74-2.53-2.62l3.17-.69v20.75l-2.75.21Z"/><path class="cls-25" d="M152.9,438.16l3.29-1.74c.51-5.84,3.2-10.88,6.44-15.7,0,.73,0,1.47,0,2.2l-4.74,11.18c-.84,1.67,0,4.64-3.51,4a23.79,23.79,0,0,0-.17,2.6c.25,4.85,1,5.7,4.83,5.48l1,.15,6.38,1c-3-.08-6-.19-9-.21-2.74,0-4-1.41-4.13-4.07a5.4,5.4,0,0,0-.65-1.62C152.69,440.38,152.79,439.27,152.9,438.16Z"/><path class="cls-26" d="M169.1,344l-1.2.58c-.33-3.42-.91-6.83-.94-10.26-.05-5.4-.33-10.69-2-15.93-1-3.07-1-6.46-1.38-9.71l.95-.24c1.11,7.36,2.32,14.72,3.3,22.09C168.43,335,168.69,339.5,169.1,344Z"/><path class="cls-27" d="M742.56,523.16c0-.16,0-.32-.07-.48,6.54-.3,13.07-.53,19.6-.91,8.55-.5,17.1-1.11,25.65-1.67l.62.5c-6.7.52-13.39,1.17-20.09,1.54C759.71,522.6,751.13,522.83,742.56,523.16Z"/><path class="cls-28" d="M176.07,334.38c.06-3.53-.79-7.13.89-10.52.07-.22.14-.45.2-.68l2-.58,0-.74a16.12,16.12,0,0,1,1.87.73,3,3,0,0,0,4.16-.79c.64-.76,1.46-1.91,1.53.32a5.72,5.72,0,0,1-.5,1.46c-.54.81-1.09,2-1.84,2.18s-1.83-.59-2.69-1.08c-.42-.23-.65-.77-.8-1l-4.16,4.22Z"/><path class="cls-29" d="M210.22,488.51h.36c0,3.93,0,7.86.08,11.79A19.66,19.66,0,0,1,210.22,488.51Z"/><path class="cls-13" d="M700.14,486.69c2.51.41,5,1.22,7.54,1.14,10-.33,20-.91,29.92-1.48a25.72,25.72,0,0,0,4.37-1c.32,10.75.64,21.37,1,32a83.51,83.51,0,0,1-9.64-.27c-5.24-.73-10.38-2.1-15.62-2.82s-10.29-2.2-14.06-6.43a25.21,25.21,0,0,0-3.45-2.77c-.11-2.1-.22-4.21-.34-6.31-.17-3.18-.43-6.36-.5-9.54A8.26,8.26,0,0,1,700.14,486.69Z"/><path class="cls-30" d="M700.17,505.05a25.21,25.21,0,0,1,3.45,2.77c3.77,4.23,8.67,5.69,14.06,6.43s10.38,2.09,15.62,2.82a83.51,83.51,0,0,0,9.64.27l0,0-.13,2.37c5.85-.42,11.66-.86,17.47-1.23,11.74-.75,23.5-1.17,35.2-2.28,7.43-.7,14.77-2.4,22.15-3.65l7.68-1.71-.29.65c-.49.21-1,.44-1.48.61-15.56,5.2-31.77,6-48,6.84-8.5.46-17,.7-25.52,1.19-2.71.15-5.39.78-8.09,1.19l-1.21.35c-11.12-1.91-22.51-2.88-32.76-8.1-2.83-1.45-5.12-4-7.66-6C700.26,506.71,700.22,505.88,700.17,505.05Z"/><path class="cls-31" d="M526.94,355.2l.63,0c.67,6.28,1.39,12.57,2,18.86.46,4.7.72,9.42,1.22,14.11.58,5.58,1,11.2,2.1,16.7.62,3.25,2.31,6.29,3.46,9.45a19.7,19.7,0,0,1,.64,2.78h-.39c-1.7-.48-2.16-1.87-2.6-3.36-1.47-4.88-3.73-9.66-4.31-14.64-1-8.2-.82-16.52-1.18-24.79-.15-3.45-.4-6.89-.61-10.34,0-.07-.1-.13-.16-.19l-.35.52H527Q527,359.73,526.94,355.2Z"/><path class="cls-32" d="M527,364.27h.39c-.85,5.3-1.61,10.61-2.58,15.89a87.44,87.44,0,0,1-2.2,9q-3,10.17-6.3,20.27c-1.54,4.81-3.22,9.58-4.89,14.35a1.8,1.8,0,0,1-1.51,1,38.51,38.51,0,0,0,1.51-4.08c.76-3,.94-6.26,2.13-9.08,2.81-6.65,4.37-13.65,6.33-20.54,1.6-5.66,3-11.37,4.51-17.05C525.27,370.79,526.15,367.53,527,364.27Z"/><path class="cls-33" d="M514.13,339.73V336.4c2.74-.17,5.51-.41,8.28-.43.49,0,1.22.86,1.42,1.46a18.48,18.48,0,0,1,.44,3.48c-2-.14-4-.33-5.94-.36-.52,0-1,.49-1.57.76Z"/><path class="cls-34" d="M536.62,417.06H537c1.79,3.62,3.8,7.06,7,9.62-1.64.57-5.26-1.55-5.86-3.54S537.13,419.09,536.62,417.06Z"/><path class="cls-35" d="M744.89,515.13c-.32-8.41-.57-16.55-.94-24.69-.61-13.65-1.42-27.28-1.91-40.93-.22-6.47.11-12.95.2-19.43,0-2.06,1-2.87,3.15-2.95,4.69-.17,9.36-.85,14-1,3.53-.11,7.08.27,10.62.48,2.5.15,2.56,2.29,2.67,3.9.5,7.17.83,14.35,1.14,21.53.29,6.87.46,13.74.73,20.61.46,12.08,1,24.16,1.39,36.25.14,4.27-.86,5.07-5.11,5.23-8,.32-15.94.71-23.91,1.07C746.45,515.24,745.93,515.18,744.89,515.13Z"/><path class="cls-13" d="M696.48,469.91c1.88-.2,3.6-.52,5.33-.56q16.22-.33,32.44-.53a18.18,18.18,0,0,1,4.71.56,2.91,2.91,0,0,1,1.82,1.77c.58,3.18.82,6.42,1.33,9.61.34,2.07-.83,2.7-2.47,2.89-3.87.43-7.74.89-11.62,1.13-4.77.3-9.56.32-14.33.6-2,.11-4,.67-5.94.89-6.35.7-11.44-1.37-10-9.27.32-1.72-.58-3.66-.92-5.5C696.77,471.08,696.66,470.67,696.48,469.91Z"/><path class="cls-10" d="M1104,487.15c0,.44,0,.88,0,1.31.31,5.33.31,5.34-5.23,5.37-2.19,0-4.37-.07-6.56-.11a7,7,0,0,1-1-2.24c-.43-7.76-1-15.53-1-23.29-.1-8.06.73-16.16.28-24.19-.42-7.46,2.48-13.8,5.2-20.26a6.12,6.12,0,0,1,3.85-3.19c.82-.17,2.31,1.88,3.15,3.16a10.77,10.77,0,0,1,1.3,3.72c2,9.95.72,19.95.48,29.94S1104.16,477.23,1104,487.15Zm-4.62-60-1-.14c-1,4.16-2.58,8.28-2.88,12.48-.68,9.72-.93,19.47-1,29.21,0,6.36.56,12.71.86,19,2.69.87,3.72.3,3.69-2.41-.07-6.38.08-12.78.23-19.16.26-10.63.67-21.26.86-31.88A51.38,51.38,0,0,0,1099.41,427.19Z"/><path class="cls-16" d="M869.79,512.53l-1.59-2.2-2.7,1.15c-.66-2.92-1.22-5.88-2-8.77-1.08-3.95-2.33-7.85-3.51-11.78l-.94.25c.76,3,1.51,6,2.29,9,.11.4.45.75.53,1.16.4,2,1.49,4.29.85,5.87-.41,1-3.41,1.06-5.27,1.38s-3.92.49-5.32.66c0,2.79.09,5.64,0,8.48-.08,1.82-.64,3.63-.66,5.45a28.7,28.7,0,0,0,.69,4.92c.61,3.58-.78,6.77-2.14,9.9a3.5,3.5,0,0,1-2.66,1.62c-.68,0-1.75-1.13-2-2a22.16,22.16,0,0,1-1.51-6.66q.08-20.49.55-41a113.11,113.11,0,0,1,1.25-13.49c.31-2.13,1.4-4.15,2.24-6.52l2.47,2,2,.92.11-.09a40.84,40.84,0,0,0,4.37,3.88c3.58,2.4,7.32,4.55,10.93,6.88a2.48,2.48,0,0,1,.95,1.75C869.08,494.46,869.42,503.5,869.79,512.53Zm-19.11-21.32L851,508l1.18.15a8.52,8.52,0,0,0,.6-2.59c-.48-4.79-1.1-9.57-1.67-14.35l-.47-9.48-.73.05Zm-1.62,21.17v-2.47a7,7,0,0,0,.55-2c-.21-6.37-.43-12.74-.78-19.1-.12-2.39-.59-4.76-.9-7.14a23.56,23.56,0,0,0-1.49,5.87c-.45,5.2-.8,10.41-1,15.62A57.59,57.59,0,0,0,846,510c0,.84,0,1.68,0,2.52-.19,3.44-.55,6.88-.53,10.32a79.87,79.87,0,0,0,.77,10c.11.87,1.2,1.61,1.84,2.41.51-.91,1.47-1.84,1.46-2.75C849.48,525.79,849.24,519.08,849.06,512.38Zm7.12-34.79-.56.67a4.66,4.66,0,0,0,.16.76c2.65,5.84,5.37,11.65,7.93,17.53.81,1.86,1.1,3.94,1.82,5.84.29.76,1.11,1.31,1.69,2,.36-.8,1-1.6,1-2.38-.07-3-.28-6-.6-9-.4-3.8-.34-7.79-4.25-10.24C860.89,481.15,858.58,479.31,856.18,477.59ZM852,479.48l-.38.3q.42,4.79.83,9.57c.12,1.41.2,2.83.34,4.24.39,3.69.78,7.39,1.21,11.08.19,1.63,1.11,2.39,2.76,1.82,1.32-.46,3.4.07,3-2.62A81.22,81.22,0,0,0,853.58,482,23.43,23.43,0,0,0,852,479.48Z"/><path class="cls-16" d="M980.77,493.87l-4.88.48c11.6-5.93,23.3-11.67,34.76-17.85a251,251,0,0,0,21.74-13.14c10-6.77,19.56-14.17,29.49-21,8.7-6,17.64-11.68,26.54-17.4a8.84,8.84,0,0,1,4.28-1c-2.94,4.44-3.58,9.34-4.43,14.18a8.42,8.42,0,0,0-.24,1.56q.45,22.11,1,44.2c.09,3.43.36,6.86.57,10.64-13.41.56-26.59,1.25-39.78,1.61-8.25.22-16.52-.06-24.78-.09-11.19,0-22.38-.07-33.56,0-3,0-6,.3-9,.46l.57-1.12c1.32-.14,2.64-.38,3.95-.39,8.07-.05,16.13,0,24.19-.09q32.37-.42,64.72-1c3.28-.06,6.55-.37,9.81-.69,1.19-.12,2.49-.25,2.24-2.2a132.51,132.51,0,0,1-1.36-13.88c-.19-11.62-.07-23.24-.07-34.86a4.63,4.63,0,0,1,.12-1.05c1.12-5.06,2.24-10.12,3.4-15.29a6.06,6.06,0,0,0-1.35.52c-3.54,2.32-7.09,4.64-10.6,7-9.2,6.27-18.45,12.45-27.53,18.88-7,4.94-13.41,10.73-20.67,15.21-10.3,6.35-21.1,11.91-31.77,17.66C992.38,488.25,986.54,491,980.77,493.87Z"/><path class="cls-16" d="M1129.06,474.58c-.24,6.29-.48,12.58-.74,19.24-5.41.19-10.53.54-15.64.53-7.43,0-7.51-.12-7-7.62.36-5.72,1.07-11.41,1.41-17.14.61-10.27,1.33-20.55,1.47-30.83a66.69,66.69,0,0,0-1.82-14.43c-.49-2.36-2.16-4.47-3.4-6.89,4.91-.32,9.39.54,13.11,3.07a21.35,21.35,0,0,1,6.18,7.12,67.05,67.05,0,0,1,6.34,14,50.3,50.3,0,0,1,1.66,14.33c-.06,6.13-1,12.26-1.5,18.38,0-.62-.07-1.24-.07-1.86,0-8.06.17-16.14,0-24.2-.08-3.28-.07-6.82-3-10-.44,7.27-.84,13.9-1.23,20.54-.06.89,0,1.78-.07,2.66-.32,9.71-.68,19.42-.89,29.13,0,.73,1,1.48,1.53,2.22.7-.71,1.86-1.35,2-2.16.44-2.42.43-4.93.68-7.39C1128.33,480.34,1128.71,477.46,1129.06,474.58Zm-5.3-23.36c-.17.31-.46.6-.48.91-.37,6.29-.71,12.57-1.06,18.86v16.75h.38V471q.57-9.89,1.13-19.78l1-14.84-.83,0Q1123.85,443.79,1123.76,451.22Zm-17.65-32.44c1,3.7,2.23,7,2.72,10.39a70,70,0,0,1,.53,11.4c-.24,10.55-.61,21.1-1,31.64-.24,6.2-.66,12.39-1,18.58-.12,1.84.57,2.6,2.44,2.53,2.4-.09,4.8-.06,7.19,0s3.18-1,3.09-3.24c-.13-3.43-.22-6.88-.08-10.32.32-8.37.78-16.74,1.19-25.11,0-.27.06-.53.08-.8q.75-10.59,1.47-21.19a2.45,2.45,0,0,0-.41-1.5c-2.89-3.9-5.56-8.06-10.1-10.27A51.37,51.37,0,0,0,1106.11,418.78Z"/><path class="cls-36" d="M817.59,512.52c-7.38,1.25-14.72,3-22.15,3.65-11.7,1.11-23.46,1.53-35.2,2.28-5.81.37-11.62.81-17.47,1.23l.13-2.37q22.83-1.26,45.65-2.5c1.6-.09,3.2-.1,4.79-.15,17.73,1,32.64-5.85,46.42-17.36.26,3.09.4,5.6.72,8.09s-.73,3.71-2.88,4.36l-11.42,3.43c-11.16,3.34-22.68,4.55-34.18,5.87-.62,0-1.24,0-1.86,0l-41.37,2c-2.27.11-4.55.14-6.83.21,2.7-.41,5.38-1,8.09-1.19,8.5-.49,17-.73,25.52-1.19,16.18-.87,32.39-1.64,48-6.84.51-.17,1-.4,1.48-.61,2.51-.82,5-1.62,7.54-2.46,4.76-1.6,5.15-2.36,4-6.75Z"/><path class="cls-37" d="M1091.1,496.17c3.89-.38,7.48-.8,11.07-1,.56,0,1.7,1,1.69,1.51-.22,8.94-.59,17.87-.92,26.8a8.63,8.63,0,0,1-3.37,6.55,4.31,4.31,0,0,1-3.58.78,4.37,4.37,0,0,1-1.89-3.12c-.7-5.16-1.14-10.36-1.68-15.55-.44-4.26-.9-8.52-1.3-12.78C1091,498.33,1091.1,497.28,1091.1,496.17Zm4.32,3.16c.76,7.8,1.48,15.23,2.2,22.65h1.08c.46-7.5.91-15,1.38-22.66Z"/><path class="cls-16" d="M1104,487.15c.13-9.92.18-19.85.42-29.78s1.55-20-.48-29.94a10.77,10.77,0,0,0-1.3-3.72c-.84-1.28-2.33-3.33-3.15-3.16a6.12,6.12,0,0,0-3.85,3.19c-2.72,6.46-5.62,12.8-5.2,20.26.45,8-.38,16.13-.28,24.19.09,7.76.62,15.53,1,23.29a7,7,0,0,0,1,2.24c-1.08.25-1.8.27-1.87-1.28-.39-8.6-1.08-17.19-1.31-25.8s-.06-17.37,0-26.06c0-6.77,2.92-12.65,6-18.37.89-1.65,2.83-2.83,4.5-3.89.55-.35,1.94.12,2.63.64a5.15,5.15,0,0,1,1.8,2.56c1.18,4.38,2.71,8.76,3.13,13.24,1,10.44-.48,20.81-1.83,31.17-.68,5.26-.56,10.63-.84,15.95C1104.38,483.64,1104.18,485.39,1104,487.15Z"/><path class="cls-38" d="M1129.06,474.58c-.35,2.88-.73,5.76-1,8.64-.25,2.46-.24,5-.68,7.39-.15.81-1.31,1.45-2,2.16-.54-.74-1.55-1.49-1.53-2.22.21-9.71.57-19.42.89-29.13,0-.88,0-1.77.07-2.66.39-6.64.79-13.27,1.23-20.54,2.92,3.22,2.91,6.76,3,10,.21,8.06,0,16.14,0,24.2,0,.62,0,1.24.07,1.86A.27.27,0,0,1,1129.06,474.58ZM1124.92,491h1c1.48-15.85,3-31.7,1.11-47.67-.4,3.44-.26,6.9-.43,10.33-.55,11.37-1.23,22.73-1.82,34.1A32.11,32.11,0,0,0,1124.92,491Z"/><path class="cls-39" d="M826.18,513.18l11.42-3.43c2.15-.65,3.18-2,2.88-4.36s-.46-5-.72-8.09c-13.78,11.51-28.69,18.31-46.42,17.36,3.8-.7,7.59-1.85,11.41-2,10.13-.39,18.53-4.57,26.14-10.86,3.82-3.16,7.44-6.45,9.64-11.05.27-.57,1.34-.76,2-1.12a6.47,6.47,0,0,1,.77,2.19c-.19,6.2-.48,12.39-.74,18.58-2.57.6-5.11,1.31-7.7,1.74C832,512.63,829.09,512.85,826.18,513.18Z"/><path class="cls-35" d="M738.68,442.46c.79,8.13,1.58,16.25,2.4,24.59H732c2.28-8.27,1.11-17.17,5.83-24.72Z"/><path class="cls-40" d="M826.18,513.18c2.91-.33,5.83-.55,8.71-1,2.59-.43,5.13-1.14,7.7-1.74,1.07,1.33,0,1.37-.91,1.57-4.3,1-8.56,2.23-12.9,2.9-11.09,1.7-22.22,3.16-33.33,4.67a24.84,24.84,0,0,1-3.45,0v-.49C803.5,517.73,815,516.52,826.18,513.18Z"/><path class="cls-41" d="M864.29,479.55l-11.9-6.63-.1.09c.51-.51,1-1.36,1.55-1.48a35.22,35.22,0,0,1,4.72-.41,9.14,9.14,0,0,1,9.12,6.26c.63,2.17.09,2.78-2.1,2.35C865.16,479.65,864.72,479.61,864.29,479.55Zm-.69-2.67.33-.68c-1.78-2.48-4.54-2.6-7.32-2.71Z"/><path class="cls-42" d="M792,519.05v.49l-4.26.56c-8.55.56-17.1,1.17-25.65,1.67-6.53.38-13.06.61-19.6.91l-1.76-1,1.21-.35c2.28-.07,4.56-.1,6.83-.21l41.37-2C790.76,519,791.38,519,792,519.05Z"/><path class="cls-43" d="M864.29,479.55c.43.06.87.1,1.29.18,2.19.43,2.73-.18,2.1-2.35a9.14,9.14,0,0,0-9.12-6.26,35.22,35.22,0,0,0-4.72.41c-.59.12-1,1-1.55,1.48l-2-.92c.08-.32.11-.89.24-.91,5-.81,10.14-2.85,14.94.9,1.6,1.25,4.24,7,3.69,8.85a1.91,1.91,0,0,1-1.67.83A23.5,23.5,0,0,1,864.29,479.55Z"/><path class="cls-44" d="M1124.48,496c1.87-.12,2.84.59,2.53,2.62-.13.87,0,1.78-.1,2.65a12.31,12.31,0,0,1-.7,2.07l-2-1Q1124.36,499.17,1124.48,496Z"/><path class="cls-45" d="M317,440.09c4.11.22,7.7,3.09,8.3,6.36a33.47,33.47,0,0,1,.49,7.14c-.23,5.94-.67,11.88-1,17.81a1.52,1.52,0,0,1-.06.53c-.37.72-.77,1.43-1.16,2.15-.47-.64-1.22-1.22-1.37-1.92-.65-2.94-1.21-5.89-1.62-8.87-.47-3.42-.64-6.89-1.16-10.3C318.75,448.8,317.86,444.65,317,440.09Z"/><path class="cls-46" d="M507.7,452.59c7.43-.93,12.19,3.13,10.37,10-.78,2.95-3.23,4.09-5.77,2.4a7.24,7.24,0,0,1-3.54-5.5C508.54,457.25,508.08,455,507.7,452.59Z"/><path class="cls-47" d="M538.84,338.67c-.73-4.18-1.62-5.08-5.7-4.91-6.34.26-12.67.7-19.37,1.09-.11-1.58-.29-3.56-.37-5.54-.28-6.56-.56-13.11-.73-19.67a4.15,4.15,0,0,1,.91-2.89c2.07-1.89,4.5-3.38,6.54-5.29a6.06,6.06,0,0,0,1.94-3.65c.2-5.94,0-11.9.12-17.85.05-2.67-2-2.69-4.22-3.54,0-4-.05-8.26.07-12.5a2.21,2.21,0,0,1,1.55-1.51c3.77-.14,7.56-.07,11.56-.07,0,2.92.13,5.48,0,8-.59,9.42-1.22,18.84-2,28.25-.14,1.75.43,2.86,2,3.17,5.8,1.19,7,5.15,7.16,10.4.22,5.93,1.39,11.83,1.82,17.76.19,2.57-.46,5.19-.63,7.79,0,.46.45,1,.69,1.44Z"/><path class="cls-48" d="M1198.34,484.85l-60.5,3.44c-.53-12.37-1.06-24.79-1.58-37C1154.19,467,1173.46,480.81,1198.34,484.85Z"/><path class="cls-49" d="M209.93,484.59c-3.67.29-7.33.78-11,.83-7,.1-14,0-21-.11a6.87,6.87,0,0,1-2.62-.32c-1.1-.49-3-1.48-2.89-1.94a5.62,5.62,0,0,1,2.14-3.53,22,22,0,0,1,16.55-2.72c4.19,1,8.44,1.8,12.5,3.18,2.32.79,4.3,2.55,6.43,3.87Z"/><path class="cls-50" d="M166.38,447.39l-6.38-1a89.61,89.61,0,0,0,10.08.35c7-.5,13.9-1.37,20.85-2.09l.58.18C183.34,447.67,174.88,447.71,166.38,447.39Z"/><path class="cls-51" d="M191.51,444.82l-.58-.18c2.38-.6,4.78-1.14,7.14-1.82,1.54-.45,3.24-.95,2.36-3.24,1.68-.29,3-.15,2.81,2.1-.76.67-1.52,1.34-2.29,2Z"/><path class="cls-52" d="M157.85,434.1l4.74-11.18c.68-1.29,1.33-2.59,2-3.87,1.22-2.28,3.24-4.46,3.5-6.84a12.21,12.21,0,0,1,2.65-6.08,2.28,2.28,0,0,0,0-3.22,4.82,4.82,0,0,1-.65-3.54c.46-1.66,1.78-3.06,2.33-4.71,1-2.89,3.47-4.18,5.65-5.72.76-.53,2.88-.45,3.35.16a24.73,24.73,0,0,1,4,6.88c1.16,3.38.69,7.25,2.92,10.37,1.37,3.93,2.57,7.94,4.14,11.79,2.15,5.24,4.58,10.37,6.88,15.54.21,1.79-1,2.33-2.37,2.45-1.67.15-3.36.12-5,.16L176,437.39a9,9,0,0,0,3.15,1.27c1.26.38,2.47,1.17,3.74,1.28,2.47.2,5,0,7.46.09a16.92,16.92,0,0,1,2.89.61c-1.92,3.6-5.33,3.75-8,4-8.37.74-16.79.84-25.19,1.19a28,28,0,0,1-3.13-4.15c-.92-1.83.33-3.11,2.39-2.92,1.62.15,3.45.88,5.21-1.34-1.36-.25-2.3-.5-3.25-.58s-2.06,0-3,0C158.06,435.64,158,434.87,157.85,434.1Z"/><path class="cls-53" d="M188.42,406.35c-2.23-3.12-1.76-7-2.92-10.37a24.73,24.73,0,0,0-4-6.88c-.47-.61-2.59-.69-3.35-.16-2.18,1.54-4.69,2.83-5.65,5.72-.55,1.65-1.87,3-2.33,4.71a4.82,4.82,0,0,0,.65,3.54,2.28,2.28,0,0,1,0,3.22,12.21,12.21,0,0,0-2.65,6.08c-.26,2.38-2.28,4.56-3.5,6.84-.7,1.28-1.35,2.58-2,3.87,0-.73,0-1.47,0-2.2,1-2.59,2-5.15,2.88-7.78a32.13,32.13,0,0,0,1.25-5.66c.89-6.84,1.74-13.69,2.48-20.55.59-5.35,1-10.72,1.48-16.07.22-2.59.61-5.19.6-7.78,0-2.13-.45-4.25,1.67-5.81.9.6,1.73,1.56,2.65,1.67a4.22,4.22,0,0,0,2.82-1.11,2.2,2.2,0,0,0,0-2.15c-2.06-2.45-2-3,.21-5.38a12.54,12.54,0,0,0,1.57-3.05l-.58-.37,2.94-3.38,4.55,6.45-.56.58h2.35l3.66,2.1c1.29,3,.8,4.31-2.22,6.6-2.45,1.85-3.08-.86-4.46-1.68-.22-.14-.4-.52-.59-.51a4.16,4.16,0,0,0-2.25.3,2.12,2.12,0,0,0,0,2,23.81,23.81,0,0,0,4.09,1.41c0,.78-.06,2.27,0,3.76a10.88,10.88,0,0,0,.53,2.13l-.48,3.15-.53,2.17c-1.23,1.93-2.47,3.84-3.67,5.78-2,3.25-1.56,4.93,1.38,7.5,2.75,2.4,5.09,5.11,4.49,9.25a26.1,26.1,0,0,0,0,4.24C188.71,401.11,188.56,403.73,188.42,406.35Z"/><path class="cls-54" d="M188.91,350.33h-2.35l.56-.58-4.55-6.45-2.94,3.38.58.37a12.54,12.54,0,0,1-1.57,3.05c-2.24,2.43-2.27,2.93-.21,5.38a2.2,2.2,0,0,1,0,2.15,4.22,4.22,0,0,1-2.82,1.11c-.92-.11-1.75-1.07-2.65-1.67-2.12,1.56-1.69,3.68-1.67,5.81,0,2.59-.38,5.19-.6,7.78q0-10.38-.1-20.77l.39-1.14c2.34,1.16,2.09-.76,2.39-2l2.67-12.34.61-6.45,4.16-4.22c.15.2.38.74.8,1,.86.49,1.91,1.26,2.69,1.08s1.3-1.37,1.84-2.18a5.72,5.72,0,0,0,.5-1.46c1.58,4.34,2.32,4.62,6.24,2.31A38.39,38.39,0,0,0,188.91,350.33Z"/><path class="cls-55" d="M187.65,366.41a10.88,10.88,0,0,1-.53-2.13c-.08-1.49,0-3,0-3.76a23.81,23.81,0,0,1-4.09-1.41,2.12,2.12,0,0,1,0-2,4.16,4.16,0,0,1,2.25-.3c.19,0,.37.37.59.51,1.38.82,2,3.53,4.46,1.68,3-2.29,3.51-3.62,2.22-6.6l3.17,1.33c-.63,1.16-1.24,2.33-1.91,3.47-.21.37-.64.63-.84,1-.42.78-.76,1.61-1.13,2.41.88.19,1.76.41,2.65.54a3.49,3.49,0,0,0,1-.15c.2.21.52.39.54.6.44,4.12.88,8.25,1.23,12.38a6.75,6.75,0,0,1-.5,2,13.59,13.59,0,0,1-2.42,1c-3.46.72-4.35.07-4.63-3.2,0-3.45.2-6.86,2.2-9.9.27-.41-.1-1.24-.18-1.88-.58.1-1.43,0-1.68.33C189.18,363.63,188.45,365.05,187.65,366.41Z"/><path class="cls-56" d="M188.85,398.5a26.1,26.1,0,0,1,0-4.24c.6-4.14-1.74-6.85-4.49-9.25-2.94-2.57-3.37-4.25-1.38-7.5,1.2-1.94,2.44-3.85,3.67-5.78.08,7.39.08,7.37,7.56,8.12.55,0,1.06.63,1.59,1-1.18,2.57-2.51,5.09-3.47,7.74s-1.43,5.25-2.23,7.86A10.45,10.45,0,0,1,188.85,398.5Z"/><path class="cls-57" d="M204.86,357.87c-.56,2.1-1.11,4.2-1.67,6.3-.15.57-.33,1.14-.5,1.7-.95,1.25-2,2.08-3.42.63-.31-1.21-.63-2.43-.94-3.65-1.56-3.62,1.3-5.46,3.18-7.61,1.07-1.22,2.53-.66,2.94.94C204.59,356.74,204.72,357.31,204.86,357.87Z"/><path class="cls-58" d="M195.79,380.81c-.53-.33-1-.91-1.59-1-7.48-.75-7.48-.73-7.56-8.12.17-.72.35-1.45.53-2.17,0,.95,0,1.9.12,2.85a18.81,18.81,0,0,0,.49,2.17l2-.77c.28,3.27,1.17,3.92,4.63,3.2a13.59,13.59,0,0,0,2.42-1Z"/><path class="cls-59" d="M192,436.29c1.68,0,3.37,0,5-.16,1.41-.12,2.58-.66,2.37-2.45.29.77,1,1.85.78,2.24-2.28,3.33.3,2.91,2.24,3.14a6.26,6.26,0,0,1,1.74.78l-1,1.84c.22-2.25-1.13-2.39-2.81-2.1-2.3,0-4.61,0-6.91-.15a9.86,9.86,0,0,1-2.37-.79C191.45,437.85,191.74,437.07,192,436.29Z"/><path class="cls-55" d="M204.86,357.87c-.14-.56-.27-1.13-.41-1.69-.41-1.6-1.87-2.16-2.94-.94-1.88,2.15-4.74,4-3.18,7.61-1.55-2.4-1.25-4.47.75-6.27s3.86-3.63,5.79-5.46l.78.38Q205.25,354.7,204.86,357.87Z"/><path class="cls-60" d="M199.27,366.5c1.45,1.45,2.47.62,3.42-.63-.56,1.6-1.12,3.19-1.69,4.79l-.55.06Z"/><path class="cls-61" d="M523.67,335.44c4.11.21,7.54.26,10.94.64.74.08,1.37,1.29,2,2-.7.54-1.33,1.4-2.1,1.55a36.08,36.08,0,0,1-7.35,1C524.51,340.58,524.69,338,523.67,335.44Z"/><path class="cls-62" d="M164.82,278.9a42.67,42.67,0,0,1,4.69,4.62c.78,1,.81,2.6,1.17,3.92-2.52-.78-4.33-1.95-4.17-5.12C166.57,281.21,165.42,280,164.82,278.9Z"/><path class="cls-63" d="M173.4,346.72c-.3,1.27-.05,3.19-2.39,2l-.39,1.14c-.32-1.09-.63-2.18-1-3.27l1,.06C171.55,348.23,172.48,347.26,173.4,346.72Z"/><path class="cls-36" d="M912.79,500.2c-5.68,1.08-11.35,2.23-17,3.24-6,1.07-12,2-18.06,3-4,.7-4.51.29-4.62-3.72-.1-3.54-.33-7.08-.47-10.62-.05-1.2,0-2.4,0-4.19l40.28,11.35Zm-10.72-.56-26.38-7.15q.38,5.06.84,11.42Z"/><path class="cls-64" d="M526,258.37c.18-2.57.23-4.63.54-6.65.09-.57,1-1,1.5-1.52.33.61,1,1.25.94,1.83C528.81,254.24,528.69,256.57,526,258.37Z"/><path class="cls-10" d="M980.77,493.87c5.77-2.88,11.61-5.62,17.28-8.68,10.67-5.75,21.47-11.31,31.77-17.66,7.26-4.48,13.69-10.27,20.67-15.21,9.08-6.43,18.33-12.61,27.53-18.88,3.51-2.38,7.06-4.7,10.6-7a6.06,6.06,0,0,1,1.35-.52c-1.16,5.17-2.28,10.23-3.4,15.29a4.63,4.63,0,0,0-.12,1.05c0,11.62-.12,23.24.07,34.86a132.51,132.51,0,0,0,1.36,13.88c.25,1.95-1.05,2.08-2.24,2.2-3.26.32-6.53.63-9.81.69q-32.36.56-64.72,1c-8.06.11-16.12,0-24.19.09-1.31,0-2.63.25-3.95.39Zm17.56-3.16.12.81,82.72-2.92c-.57-17.6-.88-35.11,2.9-52.9a13.79,13.79,0,0,0-1.38.89c-3.19,2.78-6.21,5.79-9.58,8.32-6.21,4.64-12.62,9-19,13.49-7.66,5.38-15.16,11-23.06,16-7,4.42-14.38,8.28-21.75,12.07C1005.87,488.28,1002,489.33,998.33,490.71Z"/><path class="cls-65" d="M192,436.29c-.29.78-.58,1.56-.88,2.35a9.86,9.86,0,0,0,2.37.79c2.3.14,4.61.11,6.91.15.88,2.29-.82,2.79-2.36,3.24-2.36.68-4.76,1.22-7.14,1.82-7,.72-13.89,1.59-20.85,2.09a89.61,89.61,0,0,1-10.08-.35l-1-.15,1-.41c8.4-.35,16.82-.45,25.19-1.19,2.66-.24,6.07-.39,8-4a16.92,16.92,0,0,0-2.89-.61c-2.49-.08-5,.11-7.46-.09-1.27-.11-2.48-.9-3.74-1.28a9,9,0,0,1-3.15-1.27Z"/><path class="cls-66" d="M160,445.82l-1,.41c-3.81.22-4.58-.63-4.83-5.48a23.79,23.79,0,0,1,.17-2.6c3.47.59,2.67-2.38,3.51-4,.1.77.21,1.54.36,2.71,1,0,2-.07,3,0s1.89.33,3.25.58c-1.76,2.22-3.59,1.49-5.21,1.34-2.06-.19-3.31,1.09-2.39,2.92A28,28,0,0,0,160,445.82Z"/><path class="cls-67" d="M817.59,512.52l18.9-10.27c1.18,4.39.79,5.15-4,6.75-2.51.84-5,1.64-7.54,2.46l.29-.65Z"/><path class="cls-68" d="M1099.41,427.19a51.38,51.38,0,0,1,.8,7.06c-.19,10.62-.6,21.25-.86,31.88-.15,6.38-.3,12.78-.23,19.16,0,2.71-1,3.28-3.69,2.41-.3-6.25-.9-12.6-.86-19,.06-9.74.31-19.49,1-29.21.3-4.2,1.88-8.32,2.88-12.48Z"/><path class="cls-36" d="M856.18,477.59c2.4,1.72,4.71,3.56,7.2,5.12,3.91,2.45,3.85,6.44,4.25,10.24.32,3,.53,6,.6,9,0,.78-.65,1.58-1,2.38-.58-.65-1.4-1.2-1.69-2-.72-1.9-1-4-1.82-5.84-2.56-5.88-5.28-11.69-7.93-17.53a4.66,4.66,0,0,1-.16-.76Zm2.55,4.56c2.14,4.33,4.21,8.5,6.17,12.48C866.23,489.1,864.34,484.82,858.73,482.15Z"/><path class="cls-38" d="M852,479.48a23.43,23.43,0,0,1,1.57,2.56,81.22,81.22,0,0,1,6.19,21.83c.4,2.69-1.68,2.16-3,2.62-1.65.57-2.57-.19-2.76-1.82-.43-3.69-.82-7.39-1.21-11.08-.14-1.41-.22-2.83-.34-4.24q-.4-4.78-.83-9.57Zm3.42,24.45,1.16.46c.3-.79,1-1.65.84-2.34-.61-3-1.51-5.95-2.22-8.93-.4-1.65-.65-3.34-1-5l-.62.1Z"/><path class="cls-69" d="M846,510a57.59,57.59,0,0,1-.5-6.79c.19-5.21.54-10.42,1-15.62a23.56,23.56,0,0,1,1.49-5.87c.31,2.38.78,4.75.9,7.14.35,6.36.57,12.73.78,19.1a7,7,0,0,1-.55,2Zm2.18-22.92h-.38v21l.38,0Z"/><path class="cls-36" d="M849.06,512.38c.18,6.7.42,13.41.47,20.11,0,.91-.95,1.84-1.46,2.75-.64-.8-1.73-1.54-1.84-2.41a79.87,79.87,0,0,1-.77-10c0-3.44.34-6.88.53-10.32Zm-.67,1.61h-.89c.26,5.83-.49,11.69.17,17.52l.72,0Z"/><path class="cls-70" d="M851.12,491.25c.57,4.78,1.19,9.56,1.67,14.35a8.52,8.52,0,0,1-.6,2.59L851,508l-.33-16.83Z"/><path class="cls-71" d="M849.06,512.38l-3.07.12c0-.84,0-1.68,0-2.52l3.11-.07Z"/><path class="cls-72" d="M851.12,491.25l-.44,0-.76-9.39.73-.05Z"/><path class="cls-10" d="M1106.11,418.78a51.37,51.37,0,0,1,6,2.12c4.54,2.21,7.21,6.37,10.1,10.27a2.45,2.45,0,0,1,.41,1.5q-.71,10.6-1.47,21.19c0,.27-.07.53-.08.8-.41,8.37-.87,16.74-1.19,25.11-.14,3.44-.05,6.89.08,10.32.09,2.27-.8,3.3-3.09,3.24s-4.79-.1-7.19,0c-1.87.07-2.56-.69-2.44-2.53.39-6.19.81-12.38,1-18.58.42-10.54.79-21.09,1-31.64a70,70,0,0,0-.53-11.4C1108.34,425.77,1107.11,422.48,1106.11,418.78Zm6.59,9.3c.22,2.24.36,4.33.63,6.4,1.29,10.17,1.08,20.35.56,30.55-.36,7.09-.54,14.19-.73,21.28,0,.54.53,1.09.82,1.64.38-.47,1-.91,1.08-1.4.46-5.28,1-10.56,1.18-15.84.3-6.83.34-13.67.54-20.51.16-5.41.45-10.82.55-16.23a4.9,4.9,0,0,0-1-3.09A20.78,20.78,0,0,0,1112.7,428.08Z"/><path class="cls-73" d="M1122.22,471c.35-6.29.69-12.57,1.06-18.86,0-.31.31-.6.48-.91l0,0q-.57,9.89-1.13,19.78Z"/><path class="cls-74" d="M1122.22,471h.38v16.76h-.38Z"/><path class="cls-73" d="M1123.76,451.22q.09-7.44.19-14.89l.83,0-1,14.84Z"/><path class="cls-75" d="M1095.42,499.33h4.66c-.47,7.67-.92,15.16-1.38,22.66h-1.08C1096.9,514.56,1096.18,507.13,1095.42,499.33Z"/><path class="cls-76" d="M1124.92,491a32.11,32.11,0,0,1-.13-3.25c.59-11.37,1.27-22.73,1.82-34.1.17-3.43,0-6.89.43-10.33,1.91,16,.37,31.82-1.11,47.67Z"/><path class="cls-77" d="M863.6,476.88l-7-3.39c2.78.11,5.54.23,7.32,2.71Z"/><path class="cls-78" d="M189.77,373.81l-2,.77a18.81,18.81,0,0,1-.49-2.17c-.11-1-.08-1.9-.12-2.85l.48-3.15c.8-1.36,1.53-2.78,2.46-4.05.25-.34,1.1-.23,1.68-.33.08.64.45,1.47.18,1.88C190,367,189.81,370.36,189.77,373.81Z"/><path class="cls-48" d="M902.07,499.64l-25.54,4.27q-.46-6.36-.84-11.42Z"/><path class="cls-48" d="M998.33,490.71c3.68-1.38,7.54-2.43,11-4.22,7.37-3.79,14.75-7.65,21.75-12.07,7.9-5,15.4-10.64,23.06-16,6.34-4.47,12.75-8.85,19-13.49,3.37-2.53,6.39-5.54,9.58-8.32a13.79,13.79,0,0,1,1.38-.89c-3.78,17.79-3.47,35.3-2.9,52.9l-82.72,2.92Z"/><path class="cls-79" d="M858.73,482.15c5.61,2.67,7.5,7,6.17,12.48C862.94,490.65,860.87,486.48,858.73,482.15Z"/><path class="cls-80" d="M855.43,503.93l-1.8-15.73.62-.1c.31,1.68.56,3.37,1,5,.71,3,1.61,5.93,2.22,8.93.14.69-.54,1.55-.84,2.34Z"/><path class="cls-81" d="M848.13,487.06v21l-.38,0v-21Z"/><path class="cls-82" d="M848.39,514v17.49l-.72,0c-.66-5.83.09-11.69-.17-17.52Z"/><path class="cls-68" d="M1112.7,428.08a20.78,20.78,0,0,1,3.67,2.8,4.9,4.9,0,0,1,1,3.09c-.1,5.41-.39,10.82-.55,16.23-.2,6.84-.24,13.68-.54,20.51-.23,5.28-.72,10.56-1.18,15.84,0,.49-.7.93-1.08,1.4-.29-.55-.83-1.1-.82-1.64.19-7.09.37-14.19.73-21.28.52-10.2.73-20.38-.56-30.55C1113.06,432.41,1112.92,430.32,1112.7,428.08Z"/></g></g></svg>