<svg xmlns="http://www.w3.org/2000/svg" viewBox="0 0 1304.17 864"><defs><style>.cls-1{fill:#171717;}.cls-2{fill:#ae3b2f;}.cls-3{fill:#fad7b9;}.cls-4{fill:#c2d4ed;}.cls-5{fill:#dcdcdc;}.cls-6{fill:#966945;}.cls-7{fill:#4b61ad;}.cls-8{fill:#050404;}.cls-9{fill:#c4cad5;}.cls-10{fill:#f6b475;}.cls-11{fill:#0b0602;}.cls-12{fill:#050504;}.cls-13{fill:#da7927;}.cls-14{fill:#040403;}.cls-15{fill:#030404;}.cls-16{fill:#040604;}.cls-17{fill:#050505;}.cls-18{fill:#c38483;}.cls-19{fill:#f3b172;}.cls-20{fill:#040404;}.cls-21{fill:#749f65;}.cls-22{fill:#030303;}.cls-23{fill:#da7a28;}.cls-24{fill:#8abf78;}.cls-25{fill:#73a064;}.cls-26{fill:#70728c;}.cls-27{fill:#ec2225;}.cls-28{fill:#f4b273;}.cls-29{fill:#f5911f;}.cls-30{fill:#f28221;}.cls-31{fill:#7aa86a;}.cls-32{fill:#8cbf79;}.cls-33{fill:#88bd76;}.cls-34{fill:#f48320;}.cls-35{fill:#e57f26;}.cls-36{fill:#547449;}.cls-37{fill:#c2c7d2;}.cls-38{fill:#c1c7d1;}.cls-39{fill:#628656;}.cls-40{fill:#76a266;}.cls-41{fill:#5f8253;}.cls-42{fill:#6b925d;}.cls-43{fill:#3f3f3f;}.cls-44{fill:#0c0908;}.cls-45{fill:#080604;}.cls-46{fill:#4b3523;}.cls-47{fill:#f5b273;}.cls-48{fill:#d47728;}.cls-49{fill:#3a424e;}.cls-50{fill:#9f764f;}.cls-51{fill:#f2b071;}.cls-52{fill:#f9d6b8;}.cls-53{fill:#f3b173;}.cls-54{fill:#f4b274;}.cls-55{fill:#f3b071;}.cls-56{fill:#f1ae6f;}.cls-57{fill:#f4b070;}.cls-58{fill:#2e261f;}.cls-59{fill:#1a0f05;}.cls-60{fill:#7a451c;}.cls-61{fill:#322211;}.cls-62{fill:#fcc482;}.cls-63{fill:#678c5a;}.cls-64{fill:#76a267;}.cls-65{fill:#5e8351;}.cls-66{fill:#88bb75;}.cls-67{fill:#5c7f4f;}.cls-68{fill:#5c7e50;}.cls-69{fill:#56744b;}.cls-70{fill:#34472d;}.cls-71{fill:#c1d3ec;}.cls-72{fill:#71411a;}.cls-73{fill:#35210e;}.cls-74{fill:#1c1a18;}.cls-75{fill:#82b471;}.cls-76{fill:#f5b374;}.cls-77{fill:#93c77e;}.cls-78{fill:#8fc47c;}.cls-79{fill:#a61f22;}.cls-80{fill:#c02125;}.cls-81{fill:#88bc76;}.cls-82{fill:#9cce85;}.cls-83{fill:#191818;}.cls-84{fill:#2a231e;}.cls-85{fill:#25201c;}.cls-86{fill:#3e3125;}.cls-87{fill:#473829;}.cls-88{fill:#866444;}.cls-89{fill:#87bc75;}.cls-90{fill:#182516;}.cls-91{fill:#a1d188;}.cls-92{fill:#1b1918;}.cls-93{fill:#181717;}.cls-94{fill:#a4d289;}.cls-95{fill:#b1d791;}</style></defs><g id="Layer_2" data-name="Layer 2"><g id="Layer_1-2" data-name="Layer 1"><path class="cls-1" d="M0,0H1304.17V864H0ZM166.34,279l-4.24-2.51v7.3l1.49,17.1c-.45,4.2,2,7.57,3.21,11.31q.84,6.86,1.7,13.71c.18,6.83.21,13.67,3.6,20.11V325.34c.06-2.47.17-4.93.17-7.4,0-7.84-.06-15.69-.1-23.54l-.57-7.4c-.21-3.69-1.48-6.69-5.23-8.08Zm681.3,231.47,1-18.72.62,0c0,1.07,0,2.13,0,3.19-.15,12-.38,23.95-.4,35.92a18.68,18.68,0,0,0,1.34,6.44c.39,1,2,2.51,2.68,2.34a5.16,5.16,0,0,0,3.18-2.7,19.52,19.52,0,0,0,1.14-6.49c.13-7,0-14,0-21.09a61,61,0,0,1,8.39-1c2.49,0,2.71-1,2.23-2.86-1.18-4.59-2.39-9.18-3.55-13.78-.08-.32.15-.72.23-1.08l.86-.11q2.85,10.47,5.71,20.94c-.3,9.6,2.05,20.42,5,22.36V524.8c.32-3.48.73-7,.94-10.44.26-4,.19-4,4.32-4.54a43.74,43.74,0,0,0,5.7-1.08,9,9,0,0,0,2.28-1.53c7.26-1.42,14.48-3.11,21.8-4.18,8.2-1.19,16.47-1.81,24.72-2.68,4.41-.23,8.82-.41,13.23-.69,10.12-.63,20.24-1.31,30.35-2a37.33,37.33,0,0,0,4.69.37c6.09-.27,12.17-1,18.25-.93,8.48.06,17,.81,25.44.93,7.34.09,14.68-.27,22-.47,12.82-.34,25.64-.72,38.47-1.05,1.83-.05,3.7.31,5.5.1s2.46.25,2.4,2.05a40,40,0,0,0,2.52,16c.09-.89.15-1.5.21-2.11.15,1.75.29,3.49.43,5.24-.17,3.41-.36,6.83-.5,10.25-.08,2.07-.15,4.27,2.3,5.13,2.61.92,6.67,0,7.85-1.91s2.67-4.13,3-6.37c.88-5.38,1.31-10.85,1.69-16.29.24-3.45.11-6.92,0-10.38,0-1.75.62-2.34,2.33-2.29,3.2.09,6.39.06,9.58,0,1.6,0,2.23.54,2.59,2.23.82,3.93,2,7.77,3.09,11.65-1.14,4.26-.22,6.19,3.33,6.33v-9c.32-.42.88-.81.93-1.26.26-2.63.23-5.3.66-7.91.16-.93,1.25-2.4,2-2.45,8.47-.52,17-1,25.43-1.12,7.79-.09,15.58.4,23.37.42a77.35,77.35,0,0,0,9.2-.87c6.4-.73,12.8-1.45,19.18-2.34,1.18-.16,2.25-1.05,3.38-1.6,1.32-.65,2.28-1.42,1-2.95l-.7-2.93c3.91-.25,8.29-.13,12.51-.87,6.6-1.15,13.11-2.79,19.62-4.38,3.3-.81,3.6-2.28,1.23-4.71.31-.64.62-1.28.94-1.92a13.12,13.12,0,0,0-3.44-.58c-.87.07-1.64,1.11-2.53,1.25-6.09,1-12.18,2.37-18.3,2.6-11.17.43-22.37.27-33.55.07a21.83,21.83,0,0,1-8.45-1.94,85.45,85.45,0,0,1-13-7.14c-11.39-7.83-22.57-16-33.84-24l-2.83-1.72c.31,4.11.58,7.69.84,11.28-.19,7.87-.24,15.75-.62,23.62-.24,5-1,10-1.47,15-.17-.75-.35-1.51-.52-2.27q.18-6.7.38-13.43c0-.25.06-.51.08-.76a4.44,4.44,0,0,0,.42-1.24c.2-8.05.58-16.11.46-24.16a25.47,25.47,0,0,0-2-9.44c-1-2.37-2.65-4.36-3.13-7.14-.73-4.26-4.24-7-7-10a14.4,14.4,0,0,0-5.41-3.45,59,59,0,0,0-7.9-1.86h2a19.56,19.56,0,0,0-5-1c-.61,0-1.25.45-1.88.7.23.41.46.83.7,1.24l-4.24,2.3c-1.3-.23-2.9-1.07-3.84-.59A121.91,121.91,0,0,0,1086.7,427c-8.8,5.89-17.43,12-26.14,18.06-8.27,5.72-16.44,11.56-24.84,17.07-5.38,3.53-11.07,6.61-16.68,9.76-4.94,2.77-9.94,5.42-15,8-7.08,3.64-14.17,7.26-21.33,10.73a44.28,44.28,0,0,1-8.4,3.15,54.56,54.56,0,0,1-15.74,1.23c-4.91-.2-9.86.83-14.8.89a151.22,151.22,0,0,1-18.32-.57,171.24,171.24,0,0,1-20.59-3.62c-7.91-1.9-15.66-4.43-23.49-6.67-4.14-1.18-4.34-1.25-4.28-5.55.1-7.14-7.33-12.7-13.87-12-4.07.41-8.62,3.43-12.66-1.09-.51,2.08-.91,3.63-1.28,5.19-.53,2.21-1.4,4.43-1.46,6.66-.1,3.58-.5,6.87-2.34,10.14-3,5.26-6.48,10.07-11.44,13.36-4.46,3-9.48,5.12-14.39,7.35a21.31,21.31,0,0,1-6.21,1.27q-8.4,1-16.84,1.86c-5,.49-9.94.83-15.46,1.28.54-4.91,1.53-9.41,1.44-13.9-.16-8.44.33-16.86-.71-25.37-1.23-10-.42-20.2-.87-30.3A76.45,76.45,0,0,0,779,430.36c-1-4.25-2.74-5.41-7.23-5.26-7.43.24-14.85.66-22.27,1.06-2.67.14-5.41,2.59-5.71,4.55a63,63,0,0,1-1.87,8.75c-1,3.27-2.62,6.34-3.63,9.61a49.69,49.69,0,0,0-1.84,8.7,70.29,70.29,0,0,0-.17,7.82l.12,1.59c-3,.19-6,.46-9,.54-8.25.22-16.49.36-24.73.55-2.06.05-2.84.65-2.35,3.11.73,3.67.72,7.48,1,11.29-4.81,0-9.09.29-13.31-.08a81.07,81.07,0,0,1-14.3-2.32c-4.57-1.25-8.84-3.56-13.34-5.16a13.77,13.77,0,0,1-8.64-8.73,40.43,40.43,0,0,1-2.26-8.38c-.77-5.68-1.37-11.41-1.65-17.14-.38-7.88-.21-15.79-.67-23.66-.27-4.67-.47-6.18-6.19-6-6.2.19-12.41.19-18.59.61-3.2.21-6.34,1.14-9.5,1.74.19.24.39.48.59.71a25,25,0,0,0-.82,5.07c.26,6.05.75,12.09,1.17,18.13a3.46,3.46,0,0,0,.41,1h0c-5.92-.19-11.85-.34-17.76-.57-8.3-.32-16.59-.75-24.89-1a2.23,2.23,0,0,1-2.46-2.08c-.31-1.36-.51-3.05-1.42-3.91a42.66,42.66,0,0,0-7.67-6,11,11,0,0,0-9.44-.72L555,425l-5.29.14c0-15.9-.13-31.79,0-47.68.09-9,.76-18,1-27.05.1-4.23-1-8.17-4.38-11.13l-2.75,2.36c-.23-1.48-.38-2.37-.55-3.5-2.12,3.1-7.39,5.31-11,4.23-2.2-.66-2.35.26-2.18,1.75.57,4.82,1.27,9.63,1.88,14.44.3,2.44.51,4.9.77,7.34l-.54,2.78-.78-5.42-.41,0c-.26,2.13-.53,4.27-.79,6.4l-.56-1.67a17.24,17.24,0,0,0,.45-3.38c-.44-6.83-1-13.65-1.46-20.47-.09-1.28-.52-1.73-1.93-1.8a62.62,62.62,0,0,1-6.75-1.05c.53-.28,1.05-.8,1.57-.79,2.14.05,4.27.25,6.4.39l.6-.77c-.93-1.39-1.66-3.73-2.83-4-2.47-.53-5.17,0-7.73.16v3.94c-.52-.29-1.41-.5-1.49-.89-.69-3.15-3.26-2.63-5.38-2.81a15.63,15.63,0,0,0-3.36.43c-1.86-1.47-1.54.32-1.55,1.14-.08,3.19-.06,6.38,0,9.57q.25,30,.55,60.07c.05,4.33.4,8.65.62,13,.37,7.55,1.36,15.11-.52,22.62-.15.58.26,1.31.41,2a7.41,7.41,0,0,0,.13,2.12c.76,2.06-.39,2.59-2,2.66-4.95.21-9.9.42-14.86.51a5,5,0,0,1-2.61-.85c-2-1.24-3.31-.89-3.52,1.35-.35,3.7-.39,7.42-.56,11.13-.11,2.36-.39,4.48-3.12,5.54-2,.75-2.85,2.55-2.75,4.75.2,4.59.28,9.2.56,13.79.22,3.66-1.14,6-4.69,7.35-1.34.52-3,2.14-3.16,3.44-.44,3.22-.09,6.55-.1,9.83,0,6.44,0,12.89-.21,19.33,0,1-.81,2.07-1.24,3.1l-.7-.18c-.2-1.47-.31-3-.62-4.41a9.64,9.64,0,0,0-1-2.12c-.36-4.68-.89-9.34-1-14q-.45-14.76-.54-29.53c0-4.51.46-9,.46-13.54,0-4.24-.47-8.49-.45-12.74,0-5.58.53-11.16.44-16.73-.14-7.88-.72-15.74-1-23.61-.16-4.67.08-9.35-.1-14-.12-3.06-.66-6.11-1-9.16.16-5.71.53-11.44.43-17.15-.1-6.45-.69-12.9-.94-19.35-.19-4.86-1.35-5.92-6.08-5.18a8.89,8.89,0,0,1-1.86.07c-4.07-.27-8.1.19-12.26-.8-3.95-.95-8.35-.61-12.45-.05-2.25.3-4.34,2.12-6.35,3.48a3.06,3.06,0,0,0-.78,2.37c.15,2.16.55,4.31.83,6.46.19,1.46.36,2.91.54,4.37l.42,0,.2-1c.12,1.31.24,2.61.35,3.92-.5,1-1.41,2.08-1.43,3.14-.07,3.53.12,7.07.36,10.6.09,1.33.68,2.62.88,4,.09.62-.38,1.32-.35,2,.16,2.91.66,5.83.58,8.73-.21,8.31-.86,16.62-.95,24.94s.31,16.66.49,25a1.69,1.69,0,0,0,.2.45l.78-1.65.58.09V448c-1.52,1.6-1.52,6.33,0,7.92-.09,1.05-.11,2.11-.3,3.14-.38,2.15-1.06,4.27-1.22,6.43-.34,4.51-.21,9.05-.66,13.53a60.06,60.06,0,0,1-2,8.8c-.15.6-.86,1.56-1.16,1.5a2.77,2.77,0,0,1-1.74-1.24c-1.35-2.46-2.62-5-3.82-7.53-1.67-3.58-3.2-7.24-4.89-10.81a5.88,5.88,0,0,0-6-3.62c-3.53.2-7,.72-10.56.85-3.93.14-8,.64-11.78-.19-6.48-1.42-10.93-6.34-15.27-11a12.86,12.86,0,0,1-2.92-5.81c-1.3-5.92-2.19-11.92-3.31-17.87-.07-.41-.73-.7-1.11-1.05,0-1.28,0-2.55-.05-3.83l1.8-1.31-.22-.77a23.6,23.6,0,0,0-4-.61c-7.8.11-15.6.32-23.39.5-.71,0-1.42.07-2.13.09-3.44,0-6.88,0-10.3.21-.72,0-1.89.73-2,1.29a58.28,58.28,0,0,0-1.11,8.12c-.11,1.76-.65,2.55-2.51,2.59-3.44.06-6.89.31-10.33.5-4.59.24-9.19.46-13.77.79a2.5,2.5,0,0,0-1.9,1,16.51,16.51,0,0,0-1.34,5.26c-.13,9.12-.08,18.23,0,27.35,0,1.6.26,3.21.41,5l-2.45-.7c-4.49-1.25-11.49,2.62-12.3,7-.87,4.69-1.61,9.41-2.17,14.15-1.11,9.16-4.79,16.83-13.07,21.42a19.38,19.38,0,0,1-9.5,2.5c-4.08-.13-6.49-3.6-8.37-7-2.69-4.85-6.17-8-12.25-7.52-3.36.26-6.79-.36-10.19-.46-.48,0-1,.68-1.47,1-.58-.74-1.12-1.52-1.76-2.21s-1.77-1.17-2-1.93a112.42,112.42,0,0,1-2.67-11.38c-.22-1.3.59-2.76.92-4.15,1.09-.5,2.16-1.06,3.27-1.49,3-1.17,3.43-3.14,1.12-5.4a20.91,20.91,0,0,1-2.88-3.08c-2.13-3.14-3.94-6.5-6.17-9.55a18.91,18.91,0,0,1-.74-20.19c1-1.67,1.37-3.75,2.13-6l-5.87,1.28c1.64-.87,3.9-1.36,2.61-4.1h4.17c-1.1-1.64-1.78-2.75-2.56-3.79-.47-.62-1.27-1-1.62-1.68-2.14-4.06-4.2-8.17-6.28-12.26a21.71,21.71,0,0,1-1.63-3.32c-1.79-5.91-5.07-11.38-3.73-18.11,1.92-9.58,5-18.47,10.48-26.72,2.59-3.92,4-8.87,5-13.55.88-4.14.69-8.56.52-12.84,0-1.11-1.62-2.4-2.8-3.1-.53-.31-2.29.37-2.66,1.05-1.85,3.39-5.05,3.26-8.16,3.59a2.72,2.72,0,0,1-3.14-2.55,31,31,0,0,1,2.1-15.48c1.35-3.34,2.86-6.63,4-10,.29-.89-.56-2.17-.89-3.27a14.38,14.38,0,0,0-2.88,1.45c-1.31,1.06-2.42,2.35-4.19,4.12a23.53,23.53,0,0,0-.48-4.21,24,24,0,0,0-1.76-3.56c-.95,1-1.94,2-2.82,3-.21.25,0,.82,0,1.24a5.28,5.28,0,0,1,4.66,5.27l-3.53-4.19c-1.68,3.94-3.94,2.42-5.09,1.84-1.12.55-1.81.85-2.48,1.22-2.27,1.26-2.88,3.08-1.76,5.45-.59,4.89-1.27,9.77-1.72,14.68-.23,2.58-1.34,4.08-4,4.31,0,.57-.08,1-.08,1.43,0,3.61-.08,7.21,0,10.81,0,2,.36,4,.55,6l-.09,2.5a2.89,2.89,0,0,0-.45.94c-.41,7.25.22,14.57-1.88,21.72-.93,3.19-1.1,6.6-1.65,9.91-.78,4.68-1.5,9.37-2.46,14a31.46,31.46,0,0,1-2.07,5.2c-2.63,4.8-5.8,9.38-6.22,15.11,0,.43-.42,1.11-.76,1.19-2.55.63-2.51,2.65-2.61,4.61-1.66,5.36-.7,7.21,4.45,8.1,2.25.39,3.26,1.17,3.13,3.75-.52,9.78-.78,19.58-1.15,29.37-.08,2.15-1.11,3.18-3.39,3.08-1.94-.08-3.9.16-5.85.26l-.86.47c2.85.94,1.72,2.05,1,3.05-1.75,2.42-3.57,4.8-5.35,7.19s-3.42,4.5-5.07,6.79c-2.31,3.21-4,7.06-8.24,8.34-.1,0-.1.46-.15.73l3.35.85a3.81,3.81,0,0,1-.81.59c-3.4,1.37-3.43,2.18-1.16,5.05,4.13,5.23,10.38,2.2,15.32,4.23,1.32.54,3.07.14,4.34.76,4.79,2.33,9.51,1.14,14.28.15a19.38,19.38,0,0,1,2.74-.36,33.69,33.69,0,0,0,4.73-.16c2-.39,3.86-1.64,5.81-1.69,7-.21,12.92-3.71,18.62-7,2.63-1.51,4.78-1.56,7.32-1.55,0,1.6-1.11,1.92-2.44,2.16a14.25,14.25,0,0,0-3.41,1.14c-2.52,1.16-4.91,2.67-7.5,3.6-2.8,1-5.83,1.36-8.67,2.28-8.42,2.75-16.81,5.19-25.89,3.69-5-.83-10.33-.39-15.23-1.63-8.82-2.23-17.42-5.32-26.12-8-6.13-1.9-12.2-4-18.42-5.53-4.17-1-8.65-.71-12.83-1.67-7.92-1.82-15-.18-21.72,4-2.24,1.39-3.67,3.13-3.38,6,.2,2-.12,4.12.29,6.08a3.81,3.81,0,0,0,2.33,2.55c7.84,1.12,15.7,2.23,23.59,2.85,7.68.61,15.4.57,23.09.93,11.42.54,22.83,1.58,34.25,1.68,13.57.12,27.15-.74,40.72-.82a322,322,0,0,0,43.66-3.35c5.06-.72,10.07-1.76,15.08-2.77,1.48-.3,3-.9,2.3-3,2.91,2,6,1,9,.51a4.51,4.51,0,0,0,1.62.5c7-.64,14.05-1.61,21.1-2,12.31-.6,24.64-.82,37-1.19,3.46-.1,6.92,0,10.37-.23,12.92-.76,25.83-1.72,38.76-2.37,14.17-.71,28.36-1,42.52-1.85,4.19-.26,8.68.3,12.6-2.21.6-.37,1.87.32,2.83.51a2.76,2.76,0,0,0-.25.75c-.21,5.13-.38,10.25-.59,15.38-.17,4-.19,4.07,3.82,3.86,11.79-.62,23.56-1.3,35.35-1.93.77,0,1.55.28,2.32.24a29.72,29.72,0,0,0,3.24-.46l1.68-.55c.38.18.79.56,1.16.52,3.35-.34,6.69-.86,10.05-1.11a91.63,91.63,0,0,1,9.52-.26c8.06.2,16.1.68,24.15.78a170.43,170.43,0,0,0,17.8-.51c6-.54,12-1.74,18-2.65,3.25.22,6.49.51,9.74.65,4.33.2,8.68.38,13,.38,7.07,0,14.14-.34,21.21-.24,9.76.15,19.51.71,29.26.81,4,0,8.11-.79,12.17-1q15.09-.66,30.19-1.07c8.69-.24,17.38-.19,26.06-.57,4.11-.18,8.19-1.08,12.29-1.66a7.67,7.67,0,0,0,2.31,1,54.33,54.33,0,0,0,6.63.19c10.51-.38,21-.91,31.54-1.22,4.28-.13,4.29.06,4.13-4.15,16.27-1,32.55-1.82,48.81-3,9.35-.69,18.7-1.66,28-3.05,7.59-1.13,15.06-3,22.58-4.65C847.64,511.85,848.8,511.71,847.64,510.42ZM543.08,337.65a24.54,24.54,0,0,0,.14-3c-.48-8.31-1-16.61-1.53-24.91-.29-4.16-2.17-6.4-6.4-7.6-1.82-.51-2.69-1.41-2.6-3.36q.82-16.76,1.55-33.52c0-.86-.07-1.72-.12-2.88-4,0-7.74-.07-11.52.07a2.12,2.12,0,0,0-1.44,1.53c-.12,4.15-.07,8.31-.07,12.61,3.49.13,4.28,1.91,4.19,4.76-.18,5.24,0,10.49-.12,15.73a6.72,6.72,0,0,1-1.32,4.09,25.48,25.48,0,0,1-5.93,4.82,3.73,3.73,0,0,0-2.14,3.81q.42,12.46.79,25a7.45,7.45,0,0,0,1.79.32c4.72-.48,9.43-1.29,14.16-1.43C536.27,333.62,540.94,332.08,543.08,337.65Zm-16-87.71c-2.27-2.64-4.78-3.28-6.71-1.8s-2.15,4.38-.38,6.91a9.23,9.23,0,0,0,1.39,1.6c1.1,1,2.27,1.92,3.38,2.91a5.51,5.51,0,0,0,8.27-.73c1-1.33,2.28-2.67,2.59-4.18.36-1.72.36-4-.51-5.39C533.23,246.32,530.21,246.71,527.08,249.94Zm2.1,90.76c3-.36,5.84-.6,8.6-1.08.69-.12,1.8-1.11,1.72-1.52-.15-.77-1-2-1.57-2-3.28-.2-6.58-.1-10-.1Z"/><path class="cls-2" d="M702.82,526.87c-4.1.58-8.18,1.48-12.29,1.66-8.68.38-17.37.33-26.06.57q-15.09.42-30.19,1.07c-4.06.17-8.12,1-12.17,1-9.75-.1-19.5-.66-29.26-.81-7.07-.1-14.14.23-21.21.24-4.34,0-8.69-.18-13-.38-3.25-.14-6.49-.43-9.74-.65a18.68,18.68,0,0,1-.69-3.32c-.08-3.71.06-7.43,0-11.15-.29-10.6-.66-21.2-1-31.8.72-1.23-.45-3.54,2-3.76s5.21-.87,7.64-.39c8.57,1.7,17.13.87,25.69.34,4.48-.28,5.07-1.5,3.36-5.44a4,4,0,0,1-.39-1.24c-.59-6.48-3.55-12.11-6.12-17.93-1.72-3.91-4.19-5.71-8.4-5.11-.12,0-.27-.19-.47-.35-.08-1-.15-2.06-.23-3.12s-.17-2.09-.28-3.13c-.36-3.48.73-4.4,4.34-4.16,9.08.6,18.17,1.09,27.26,1.6,2.74.15,5.49.4,8.22.28,1.73-.08,4.12.47,4.47-2.42h0c.53-1,1.48-1.92,1.52-2.92a45.08,45.08,0,0,0-.48-6.54c-.32-3.14-.6-6.29-1.06-9.41-.69-4.63,0-5.62,4.79-5.68,4.53-.06,9.06,0,13.59,0a71.57,71.57,0,0,1,7.18.07c1.54.16,3.59.15,3.73,2.53.21,3.63.39,7.25.54,10.88.07,1.77-.11,3.57.11,5.32,1.16,9.35,2.44,18.69,3.63,28,.56,4.42.78,8.92,4.68,12.06,2.43,1.95,4.53,4.5,7.23,5.88a46.52,46.52,0,0,0,10.75,3.58,147.79,147.79,0,0,0,14.79,2.52,69.6,69.6,0,0,0,8.67.05,7.59,7.59,0,0,0,1.85-.07c3.16-.77,6-.32,8.42,2a10.43,10.43,0,0,0-.77,2.78c.06,3.27.29,6.53.47,9.8.1,1.93.22,3.85.33,5.77l.15,2.5Q703.6,517.21,702.82,526.87Z"/><path class="cls-3" d="M422.59,515.47c-1-.19-2.23-.88-2.83-.51-3.92,2.51-8.41,1.95-12.6,2.21-14.16.87-28.35,1.14-42.52,1.85-12.93.65-25.84,1.61-38.76,2.37-3.45.2-6.91.13-10.37.23-12.32.37-24.65.59-37,1.19-7.05.34-14.07,1.31-21.1,2a4.51,4.51,0,0,1-1.62-.5c1.61-.87,3.26-1.69,4.82-2.63,4.3-2.61,8.28-5.84,10.19-10.45,2.07-5,4.18-10.25,3.26-16a2.66,2.66,0,0,1,.06-1.05c.7-2.82,1.74-5.59,2-8.45.52-4.78,2.82-6.5,7.05-7.25,4.53-.81,7.67,1,9.29,5.14,1.2,3.07,2.08,6.28,3.44,9.27a3.62,3.62,0,0,0,2.92,1.73c1.47-.23,1.51-1.63.83-3-1.38-2.71-2.69-5.45-4-8.19-.69-1.44-1.39-2.87-2-4.35a15.89,15.89,0,0,1-1.47-4.46c-.32-4.22-.3-8.46-.49-12.68-.18-4-.43-7.93-.7-11.89a50.75,50.75,0,0,0-.65-6c-.52-2.69.77-4.48,3.54-4.55q10.25-.25,20.48-.49c2.83-.07,3.81.9,3.83,3.83,0,2.49-.37,5,0,7.45q1.71,11.64,4,23.22c.22,1.07,1.81,2.23,3,2.6.58.19,2.16-1.19,2.48-2.14A57.16,57.16,0,0,0,330,465c.44-2.66.15-5.44.65-8.08a18.19,18.19,0,0,0-1.46-12c-2.1-4.32-5.35-6.17-10.05-7.72.57-3.31,1.19-6.89,1.81-10.46,12.27,0,24.13,0,36,0a15.46,15.46,0,0,1,2.83.52c0,1.28,0,2.55.05,3.83a95.09,95.09,0,0,0,2.57,18.35c1.16,5.1,2.61,9.68,7.11,12.73s9,6.78,14.55,8.52c3.58,1.12,6.9.2,10.34-.17a99.18,99.18,0,0,1,10-.88,5.3,5.3,0,0,1,3.89,1.81,88,88,0,0,1,4.82,8.86c2,3.84,3.89,7.72,6,11.5a14.14,14.14,0,0,0,2.61,2.7c0,.39-.24.84-.1,1.14.31.66,1.14,1.23,1.15,1.85C422.77,503.49,422.66,509.48,422.59,515.47Z"/><path class="cls-4" d="M547.16,483.26c.33,10.6.7,21.2,1,31.8.1,3.72,0,7.44,0,11.15a18.68,18.68,0,0,0,.69,3.32c-6,.91-12,2.11-18,2.65a170.43,170.43,0,0,1-17.8.51c-8-.1-16.09-.58-24.15-.78a91.63,91.63,0,0,0-9.52.26c-3.36.25-6.7.77-10.05,1.11-.37,0-.78-.34-1.16-.52,1.56-2.42,4.22-4.72,4.49-7.27a178.11,178.11,0,0,0,.72-22.76c-.09-3.76-.13-6.51,3.9-8.56,5.41-2.74,5.78-7,3.42-12.59-1.13-2.7-.59-6.28-.13-9.35.18-1.18,2.3-2,3.49-3.09.81-.72,2-1.42,2.21-2.31a57.68,57.68,0,0,0,1.13-8.18c.18-2.25,0-4.52,0-6.43h20.95c.9,4.8.8,9.4,3.78,13.1,2.61,3.25,8.79,3.88,10.89,1.16,1.53-2,.76-10.12-.77-12.13-2.31-3-5.68-3.73-8.93-4.1-2.52-.29-2.81-1.57-2.92-3.34-.17-2.66-.19-5.32-.27-8a18.36,18.36,0,0,1,1.35-8.31c2.47-5.81,4.8-11.7,6.85-17.67,2.29-6.68,4.21-13.48,6.29-20.23a27.2,27.2,0,0,1,1.05-3.5c2.9-6.2,3.46-12.91,4.35-19.54.26-2.13.53-4.27.79-6.4l.41,0,.78,5.42c0,1.86,0,3.72.11,5.57q.48,12.56,1,25.11c.22,5.22,2.31,10,4.14,14.71a78.59,78.59,0,0,0,5.24,10.46c.69,1.22,2.09,2,3.11,3.07.69.71,1.84,1.5,1.85,2.26,0,5.12-.13,10.24-.36,15.35-.31,6.9-1,13.79-1,20.69C546.07,471.67,546.77,477.47,547.16,483.26Z"/><path class="cls-5" d="M422.59,515.47c.07-6,.18-12,.16-18,0-.62-.84-1.19-1.15-1.85-.14-.3.06-.75.1-1.14.74-.57,1.91-1,2.13-1.73,1.1-3.68,2.42-7.39,2.78-11.18.67-7.05.88-14.16,1-21.26.24-13.21.61-26.44.34-39.65-.38-18.11-.13-36.26-2.57-54.28-.11-1.31-.23-2.61-.35-3.92V349.38c5.54,0,11,0,16.43.06a2.14,2.14,0,0,1,1.56,1.31,75.36,75.36,0,0,1,1.57,10.39c.48,10,.91,20.06,1,30.09.08,13.68-.38,27.36-.27,41,.08,10.2.63,20.39,1.13,30.58.27,5.47.88,10.93,1.34,16.39l1,.22c.4-.94,1.22-1.92,1.15-2.83-.36-4.58-1.11-9.12-1.43-13.7-.49-7-1-14-1-21-.07-14.39.16-28.78.25-43.17,0-3.81-.08-7.63-.08-11.45,0-12.57,0-25.15,0-37.86h12.93c.45,13.6.87,26.75,1.3,39.9a26.49,26.49,0,0,0-.14,2.66c.35,7.55.94,15.11,1,22.66.32,22.57.25,45.14.73,67.7.28,13.63-.21,27.31,2.11,40.84.31,3.37.61,6.75.92,10.12a29.72,29.72,0,0,1-3.24.46c-.77,0-1.55-.28-2.32-.24-11.79.63-23.56,1.31-35.35,1.93-4,.21-4,.16-3.82-3.86.21-5.13.38-10.25.59-15.38A2.76,2.76,0,0,1,422.59,515.47Z"/><path class="cls-6" d="M211.61,488c-.33,1.39-1.14,2.85-.92,4.15a112.42,112.42,0,0,0,2.67,11.38c.22.76,1.36,1.24,2,1.93s1.18,1.47,1.76,2.21a1.53,1.53,0,0,0-.11.47c-.4.64-.81,1.28-1.2,1.94-1,1.66-1.42,3.87-4.19,3.51a35.85,35.85,0,0,0-4.52,0c-2.54,0-4.69,0-7.32,1.55-5.7,3.28-11.58,6.78-18.62,7-2,.05-3.83,1.3-5.81,1.69a33.69,33.69,0,0,1-4.73.16,19.38,19.38,0,0,0-2.74.36c-4.77,1-9.49,2.18-14.28-.15-1.27-.62-3-.22-4.34-.76-4.94-2-11.19,1-15.32-4.23-2.27-2.87-2.24-3.68,1.16-5.05a4.14,4.14,0,0,0,.82-.59l8.36-11.78,9.51-13.42c.8,0,1.84.05,2.88,0s2.09-.33,3.15-.36c4.18-.13,4.75-.39,4.83-4.49.2-10.45.6-20.93-1.16-31.32-.12-.65.44-1.42.68-2.14l7.07-.91c3.7,0,7.41,0,11.11-.17,5.82-.29,11.64-.77,17.46-1.09a8.31,8.31,0,0,1,2.24.44c-.62,1.84-1.19,3.21-1.54,4.64-1.94,7.9.6,14.54,5.71,20.52,2.1,2.47,4.84,4.7,4.36,8.53l-1.88-1.12A27.2,27.2,0,0,0,205.2,479c-1.8-.69-3.69-1.14-5.54-1.69-7.37-2.19-14.75-3.25-22.12,0-1.27.54-2.76.84-3.76,1.7-1.25,1.08-2.83,2.6-2.88,4,0,1.07,1.9,2.48,3.24,3.26,2.89,1.68,6.05,1.63,9.39,1.41,7.59-.48,15.21-.5,22.82-.56A28.52,28.52,0,0,1,211.61,488Z"/><path class="cls-7" d="M207.09,513.61a35.85,35.85,0,0,1,4.52,0c2.77.36,3.21-1.85,4.19-3.51.39-.66.8-1.3,1.2-1.94,2.74.41,5.48.92,8.24,1.2,1.67.18,3.38-.11,5.06,0a8.06,8.06,0,0,1,5.9,2.85c3.4,4,7.05,7.69,10.59,11.51.75,2.15-.82,2.75-2.3,3-5,1-10,2.05-15.08,2.77a322,322,0,0,1-43.66,3.35c-13.57.08-27.15.94-40.72.82-11.42-.1-22.83-1.14-34.25-1.68-7.69-.36-15.41-.32-23.09-.93-7.89-.62-15.75-1.73-23.59-2.85a3.81,3.81,0,0,1-2.33-2.55c-.41-2-.09-4.06-.29-6.08-.29-2.86,1.14-4.6,3.38-6,6.72-4.2,13.8-5.84,21.72-4,4.18,1,8.66.66,12.83,1.67,6.22,1.5,12.29,3.63,18.42,5.53,8.7,2.69,17.3,5.78,26.12,8,4.9,1.24,10.2.8,15.23,1.63,9.08,1.5,17.47-.94,25.89-3.69,2.84-.92,5.87-1.27,8.67-2.28,2.59-.93,5-2.44,7.5-3.6a14.25,14.25,0,0,1,3.41-1.14C206,515.53,207.05,515.21,207.09,513.61Z"/><path class="cls-8" d="M704.21,486.7c-2.42-2.3-5.26-2.75-8.42-2a7.59,7.59,0,0,1-1.85.07,69.6,69.6,0,0,1-8.67-.05,147.79,147.79,0,0,1-14.79-2.52,46.52,46.52,0,0,1-10.75-3.58c-2.7-1.38-4.8-3.93-7.23-5.88-3.9-3.14-4.12-7.64-4.68-12.06-1.19-9.34-2.47-18.68-3.63-28-.22-1.75,0-3.55-.11-5.32-.15-3.63-.33-7.25-.54-10.88-.14-2.38-2.19-2.37-3.73-2.53a71.57,71.57,0,0,0-7.18-.07c-4.53,0-9.06,0-13.59,0-4.75.06-5.48,1.05-4.79,5.68.46,3.12.74,6.27,1.06,9.41a45.08,45.08,0,0,1,.48,6.54c0,1-1,2-1.52,2.92a3.46,3.46,0,0,1-.41-1c-.42-6-.91-12.08-1.17-18.13a25,25,0,0,1,.82-5.07c-.2-.23-.4-.47-.59-.71,3.16-.6,6.3-1.53,9.5-1.74,6.18-.42,12.39-.42,18.59-.61,5.72-.18,5.92,1.33,6.19,6,.46,7.87.29,15.78.67,23.66.28,5.73.88,11.46,1.65,17.14a40.43,40.43,0,0,0,2.26,8.38,13.77,13.77,0,0,0,8.64,8.73c4.5,1.6,8.77,3.91,13.34,5.16a81.07,81.07,0,0,0,14.3,2.32c4.22.37,8.5.08,13.31.08-.31-3.81-.3-7.62-1-11.29-.49-2.46.29-3.06,2.35-3.11,8.24-.19,16.48-.33,24.73-.55,3-.08,6-.35,9-.54h9.25c-.83-8.53-1.62-16.73-2.46-25.43-.75.68-1.21.9-1.32,1.24-1.12,3.52-2.36,7-3.23,10.61-1,4-1.59,8-2.36,12a70.29,70.29,0,0,1,.17-7.82,49.69,49.69,0,0,1,1.84-8.7c1-3.27,2.62-6.34,3.63-9.61a63,63,0,0,0,1.87-8.75c.3-2,3-4.41,5.71-4.55,7.42-.4,14.84-.82,22.27-1.06,4.49-.15,6.26,1,7.23,5.26A76.45,76.45,0,0,1,781,443.94c.45,10.1-.36,20.32.87,30.3,1,8.51.55,16.93.71,25.37.09,4.49-.9,9-1.44,13.9,5.52-.45,10.5-.79,15.46-1.28q8.43-.81,16.84-1.86a21.31,21.31,0,0,0,6.21-1.27c4.91-2.23,9.93-4.39,14.39-7.35,5-3.29,8.49-8.1,11.44-13.36,1.84-3.27,2.24-6.56,2.34-10.14.06-2.23.93-4.45,1.46-6.66.37-1.56.77-3.11,1.28-5.19,4,4.52,8.59,1.5,12.66,1.09,6.54-.66,14,4.9,13.87,12-.06,4.3.14,4.37,4.28,5.55,7.83,2.24,15.58,4.77,23.49,6.67a171.24,171.24,0,0,0,20.59,3.62,151.22,151.22,0,0,0,18.32.57c4.94-.06,9.89-1.09,14.8-.89a54.56,54.56,0,0,0,15.74-1.23,44.28,44.28,0,0,0,8.4-3.15c7.16-3.47,14.25-7.09,21.33-10.73,5-2.6,10-5.25,15-8,5.61-3.15,11.3-6.23,16.68-9.76,8.4-5.51,16.57-11.35,24.84-17.07,8.71-6,17.34-12.17,26.14-18.06a121.91,121.91,0,0,1,12.65-7.28c.94-.48,2.54.36,3.84.59l-3.29,5.26-.52-.65c-1.36-1.81-3.09-1.14-4.47-.33-3.5,2.05-6.87,4.33-10.27,6.55-5.29,3.46-10.65,6.8-15.8,10.45-6.36,4.5-12.44,9.41-18.82,13.88-6.77,4.75-13.6,9.44-20.68,13.71-6.61,4-13.54,7.43-20.39,11-8.91,4.62-17.88,9.12-26.83,13.67a15.75,15.75,0,0,1-3.81,1.53c-4.28.51-8.58.84-12.88,1.13q-9,.6-18,1c-2.66.14-5.33.09-8,.13a21.62,21.62,0,0,0-4.21-.35,62.89,62.89,0,0,1-26.55-2.73c-5.92-1.88-11.91-3.58-17.91-5.21-4.13-1.13-8.38-1.85-12.49-3.06-2.22-.66-2.92-.17-2.83,2.05.21,5.81.31,11.63.63,17.44a2.63,2.63,0,0,0,1.83,1.8c3.81,0,7.61-.26,11.42-.42a9,9,0,0,1-2.28,1.53,43.74,43.74,0,0,1-5.7,1.08c-4.13.55-4.06.52-4.32,4.54-.21,3.48-.62,7-.94,10.44l-.72-12.27c-.38-7-.89-13.92-1.08-20.89-.11-3.82.48-7.72-3.65-10l.64-.61,2.85.85c.09-.93.49-2,.22-2.78a54.8,54.8,0,0,0-2.77-6.34c-.28-.56-1-.92-1.61-1.29-4.29-2.69-8.82-1-13.27-.65-.32,0-.6.55-.9.83a6.14,6.14,0,0,0-1.81-.76c-.62-.05-1.68.11-1.83.48a15.81,15.81,0,0,0-1.18,4.25c-.65,5.37-1.17,10.75-1.73,16.12l-.62,0-1.2-2.07a9,9,0,0,0-2.25,1.48c-2.38,2.94-4.38,6.22-7,8.9-2,2.06-4.92,3.27-7.22,5.11-6.12,4.9-13.15,7-20.86,7.53-3.91.29-7.77,1.31-11.64,2-1.6.05-3.2.07-4.79.15l-46.18,2.51,0,0c-.33-10.62-.65-21.23-1-31.58-4.7.5-9.41,1.1-14.13,1.5C723,488.06,713.58,489,704.21,486.7Zm3.87-17.46-6.76.56c.32,3.37.81,6.33.84,9.29.05,5.66,4.23,8.84,9.7,7.27a25.73,25.73,0,0,1,5.64-1c5-.29,10.08-.3,15.11-.61,3.88-.23,7.75-.67,11.61-1.14,1.26-.15,2.75-.37,2.51-2.32-.41-3.21-.84-6.41-1.18-9.63-.17-1.57-.82-2.39-2.5-2.43-2.37-.05-4.74-.26-7.11-.4-8.7,0-17.4,0-26.1,0A8.18,8.18,0,0,0,708.08,469.24Zm72.59,39.54v-13.3c-.56-11.83-1.18-23.67-1.67-35.51-.29-7.07-.2-14.16-.65-21.22a71.69,71.69,0,0,0-2-10.78,2.17,2.17,0,0,0-1.59-1.25,98.63,98.63,0,0,0-10.58-.53c-4.85.14-9.69.87-14.54.92-2.4,0-3.06,1.35-3.09,3-.11,6.48-.18,13,.07,19.43.54,13.64,1.31,27.28,1.93,40.92.37,8.21.64,16.42,1,24.67.81.06,1.15.11,1.49.1,8.06-.36,16.11-.76,24.17-1.07C780,514,780.37,513.66,780.67,508.78Z"/><path class="cls-4" d="M507.58,337a15.63,15.63,0,0,1,3.36-.43c2.12.18,4.69-.34,5.38,2.81.08.39,1,.6,1.49.89l2,1a62.62,62.62,0,0,0,6.75,1.05c1.41.07,1.84.52,1.93,1.8.47,6.82,1,13.64,1.46,20.47a17.24,17.24,0,0,1-.45,3.38c-.19.76-.37,1.52-.57,2.28-1.09,4.25-2.1,8.52-3.28,12.74-1.72,6.13-3.54,12.23-5.36,18.33-.8,2.68-1.69,5.33-2.58,8-.47,1.41-1.07,2.77-1.52,4.18Q513.59,421.77,511,430l-.74-.17-1.71-35.71-.9-7.14c0-1.63,0-3.27,0-4.91,0-7.26,0-14.52-.11-21.77-.06-4.21-.48-8.4-.5-12.61C507.08,344.16,507.41,340.58,507.58,337Z"/><path class="cls-2" d="M549.73,425.12,555,425c.65.28,1.29.56,1.94.82,4.19,1.69,7.68,4,8.88,8.8.74,3,.45,4-2.67,4.19-3.33.21-6.68.12-10,.21a5,5,0,0,0-1.4.51c0,.24.11.48.16.72,4.58-.35,9.17-.58,13.73-1.09,2.18-.25,2.89.27,2.65,2.5a54.31,54.31,0,0,0-.22,7.44c.08,2.16,1.19,3.32,3.57,3.36,1.15,0,2.82.56,3.32,1.42,1.77,3,3.13,6.26,4.66,9.42,2,4.15,3.54,8.42,3.33,13.65H548.13a49.87,49.87,0,0,1-.49-7.33c.49-7,1.46-14,1.83-21.08.22-4.07.44-8.11-.57-12.32C548.08,432.77,549.38,428.83,549.73,425.12Z"/><path class="cls-9" d="M543.08,337.65c-2.14-5.57-6.81-4-10.57-3.93-4.73.14-9.44.95-14.16,1.43a7.45,7.45,0,0,1-1.79-.32q-.39-12.54-.79-25a3.73,3.73,0,0,1,2.14-3.81,25.48,25.48,0,0,0,5.93-4.82,6.72,6.72,0,0,0,1.32-4.09c.15-5.24-.06-10.49.12-15.73.09-2.85-.7-4.63-4.19-4.76,0-4.3-.05-8.46.07-12.61a2.12,2.12,0,0,1,1.44-1.53c3.78-.14,7.56-.07,11.52-.07,0,1.16.16,2,.12,2.88q-.75,16.76-1.55,33.52c-.09,1.95.78,2.85,2.6,3.36,4.23,1.2,6.11,3.44,6.4,7.6.56,8.3,1,16.6,1.53,24.91A24.54,24.54,0,0,1,543.08,337.65Z"/><path class="cls-4" d="M532.57,365.88c-.26-2.44-.47-4.9-.77-7.34-.61-4.81-1.31-9.62-1.88-14.44-.17-1.49,0-2.41,2.18-1.75,3.57,1.08,8.84-1.13,11-4.23.17,1.13.32,2,.55,3.5l2.75-2.36c1.61,5.67,3.75,11.24,3.26,17.3a6,6,0,0,0-.91,2c-.09,2.78,0,5.56,0,8.34-.46,19.86-.92,39.72-1.38,60a50,50,0,0,1-4.44-5.42,30.89,30.89,0,0,1-2.4-5.81c-2-5.51-4.35-10.92-5.63-16.59-1.08-4.75-.84-9.8-1.16-14.72Q533.13,375.16,532.57,365.88Z"/><path class="cls-10" d="M1252.5,474.23c2.37,2.43,2.07,3.9-1.23,4.71-6.51,1.59-13,3.23-19.62,4.38-4.22.74-8.6.62-12.51.87l.7,2.93c-5.2.5-10.38,1.09-15.59,1.46-13.07.93-26.14,1.69-39.2,2.65-8.21.6-16.41,1.3-24.58,2.27-2.18.26-2.88-.14-2.62-2.14.44-3.48,1.35-6.93,1.42-10.41.19-9.2.06-18.41,0-27.61,0-.39-.58-.78-.89-1.17-.26-3.59-.53-7.17-.84-11.28l2.83,1.72a12.44,12.44,0,0,0,2,2.73c6.25,4.9,12.39,10,18.94,14.45,6.84,4.67,14.1,8.72,21.17,13a42.14,42.14,0,0,0,20.92,6.08,163.31,163.31,0,0,0,37.83-3C1245,475.15,1248.74,474.77,1252.5,474.23Zm-47.58,10.5,10-.61c0-.1,0-.2,0-.3h-10.5c-3.06-.43-6.22-.5-9.15-1.35a108.67,108.67,0,0,1-31.09-15c-7.15-4.89-13.6-10.82-20.38-16.27a8.75,8.75,0,0,0-1.7-.76c2.78,12.75,3,25.32,2.21,38Z"/><path class="cls-11" d="M1099.38,425l.52.65c-1.81,5-4.34,9.78-4.25,15.36.14,8.32-.14,16.64.09,25,.24,8.86.91,17.7,1.31,26.55.07,1.51.74,1.59,1.87,1.26,3.1,0,6.21.2,9.31,0s3.56-1.23,2.71-4a12.59,12.59,0,0,1-.27-2.62,13.48,13.48,0,0,0,.87-2.87c.61-9.29,1-18.6,1.72-27.89.72-9.92,1.47-19.82-.46-29.7-.71-3.64-2.15-6.65-5.37-8.64-.24-.41-.47-.83-.7-1.24.63-.25,1.27-.74,1.88-.7a19.56,19.56,0,0,1,5,1h-2l-1.49.39c1.11,2.27,2.47,4.32,3.16,6.57,2.77,9,2.16,18.27,1.75,27.46-.55,12.4-1.62,24.78-2.27,37.18-.29,5.61-.07,5.62,5.4,5.66.44,0,.89.06,1.33,0l15.31-.57.93-5.29c.17.76.35,1.52.52,2.27,0,.8-.31,1.75,0,2.36s1.35,1.68,2,1.65c4.64-.19,9.26-.63,13.89-.94,8.59-.57,17.19-1.18,25.79-1.65,5.36-.29,10.75-.3,16.12-.5,3.34-.12,6.68-.32,10-.55,4.91-.34,9.81-.73,14.71-1.1-1.13.55-2.2,1.44-3.38,1.6-6.38.89-12.78,1.61-19.18,2.34a77.35,77.35,0,0,1-9.2.87c-7.79,0-15.58-.51-23.37-.42-8.48.11-17,.6-25.43,1.12-.73.05-1.82,1.52-2,2.45-.43,2.61-.4,5.28-.66,7.91-.05.45-.61.84-.93,1.26V495.32l-3.18.8c-.28.32-.8.64-.8,1,0,1.78.14,3.57.23,5.35l.42,7.44c-1.06-3.88-2.27-7.72-3.09-11.65-.36-1.69-1-2.26-2.59-2.23-3.19.05-6.38.08-9.58,0-1.71-.05-2.38.54-2.33,2.29.09,3.46.22,6.93,0,10.38-.38,5.44-.81,10.91-1.69,16.29-.37,2.24-1.8,4.37-3,6.37s-5.24,2.83-7.85,1.91c-2.45-.86-2.38-3.06-2.3-5.13.14-3.42.33-6.84.5-10.25.43,3.63.89,7.26,1.29,10.9.22,2,1.58,3.18,3.45,2.29,1.61-.77,3.56-2,4.15-3.5a27.79,27.79,0,0,0,1.75-8.72c.35-7.34.32-14.69.52-22,0-1.79-.86-1.74-2.19-1.62-3.15.32-6.32.51-9.49.75-1.28-1-1.55-.08-1.57.93,0,2.47-.06,4.94,0,7.41,0,.45.64.88,1,1.31l.64,7c-.06.61-.12,1.22-.21,2.11a40,40,0,0,1-2.52-16c.06-1.8-.61-2.27-2.4-2.05s-3.67-.15-5.5-.1c-12.83.33-25.65.71-38.47,1.05-7.35.2-14.69.56-22,.47-8.49-.12-17-.87-25.44-.93-6.08,0-12.16.66-18.25.93a37.33,37.33,0,0,1-4.69-.37l9.07-1.25c3.07-.16,6.14-.48,9.21-.45,10.88.11,21.76.4,32.64.5,3.16,0,6.33-.5,9.49-.48,5.38.05,10.77.57,16.15.45,7.13-.15,14.24-.74,21.36-1.1,6.22-.32,12.45-.59,18.9-.89-.38-5-.92-9.56-1-14.15-.31-12.78-.58-25.57-.55-38.35C1094.72,436,1095.64,430,1099.38,425Z"/><path class="cls-8" d="M549.62,356.56c.49-6.06-1.65-11.63-3.26-17.3,3.36,3,4.48,6.9,4.38,11.13-.22,9-.89,18-1,27.05-.16,15.89,0,31.78,0,47.68-.35,3.71-1.65,7.65-.83,11.08,1,4.21.79,8.25.57,12.32-.37,7-1.34,14.05-1.83,21.08a49.87,49.87,0,0,0,.49,7.33H583c.21-5.23-1.33-9.5-3.33-13.65-1.53-3.16-2.89-6.41-4.66-9.42-.5-.86-2.17-1.4-3.32-1.42-2.38,0-3.49-1.2-3.57-3.36a54.31,54.31,0,0,1,.22-7.44c.24-2.23-.47-2.75-2.65-2.5-4.56.51-9.15.74-13.73,1.09,0-.24-.11-.48-.16-.72a5,5,0,0,1,1.4-.51c3.33-.09,6.68,0,10-.21,3.12-.21,3.41-1.16,2.67-4.19-1.2-4.84-4.69-7.11-8.88-8.8-.65-.26-1.29-.54-1.94-.82l-4.38-.87a11,11,0,0,1,9.44.72,42.66,42.66,0,0,1,7.67,6c.91.86,1.11,2.55,1.42,3.91a2.23,2.23,0,0,0,2.46,2.08c8.3.27,16.59.7,24.89,1,5.91.23,11.84.38,17.76.57-.35,2.89-2.74,2.34-4.47,2.42-2.73.12-5.48-.13-8.22-.28-9.09-.51-18.18-1-27.26-1.6-3.61-.24-4.7.68-4.34,4.16.11,1,.2,2.09.28,3.13s.15,2.12.23,3.12c.2.16.35.37.47.35,4.21-.6,6.68,1.2,8.4,5.11,2.57,5.82,5.53,11.45,6.12,17.93a4,4,0,0,0,.39,1.24c1.71,3.94,1.12,5.16-3.36,5.44-8.56.53-17.12,1.36-25.69-.34-2.43-.48-5.1.16-7.64.39s-1.31,2.53-2,3.76c-.39-5.79-1.09-11.59-1.07-17.38,0-6.9.73-13.79,1-20.69.23-5.11.38-10.23.36-15.35,0-.76-1.16-1.55-1.85-2.26-1-1.05-2.42-1.85-3.11-3.07a78.59,78.59,0,0,1-5.24-10.46c-1.83-4.75-3.92-9.49-4.14-14.71q-.52-12.55-1-25.11c-.07-1.85-.08-3.71-.11-5.57l.54-2.78q.57,9.27,1.16,18.53c.32,4.92.08,10,1.16,14.72,1.28,5.67,3.67,11.08,5.63,16.59a30.89,30.89,0,0,0,2.4,5.81,50,50,0,0,0,4.44,5.42c.46-20.29.92-40.15,1.38-60,.32-.64.91-1.27.93-1.91C549.75,362.21,549.65,359.38,549.62,356.56Z"/><path class="cls-12" d="M246.79,523.75c-3.54-3.82-7.19-7.56-10.59-11.51a8.06,8.06,0,0,0-5.9-2.85c-1.68-.12-3.39.17-5.06,0-2.76-.28-5.5-.79-8.24-1.2a1.53,1.53,0,0,1,.11-.47c.49-.37,1-1.07,1.47-1,3.4.1,6.83.72,10.19.46,6.08-.48,9.56,2.67,12.25,7.52,1.88,3.39,4.29,6.86,8.37,7a19.38,19.38,0,0,0,9.5-2.5c8.28-4.59,12-12.26,13.07-21.42.56-4.74,1.3-9.46,2.17-14.15.81-4.36,7.81-8.23,12.3-7l2.45.7c-.15-1.79-.4-3.4-.41-5,0-9.12-.09-18.23,0-27.35a16.51,16.51,0,0,1,1.34-5.26,2.5,2.5,0,0,1,1.9-1c4.58-.33,9.18-.55,13.77-.79,3.44-.19,6.89-.44,10.33-.5,1.86,0,2.4-.83,2.51-2.59a58.28,58.28,0,0,1,1.11-8.12c.11-.56,1.28-1.25,2-1.29,3.42-.18,6.86-.16,10.3-.21.71,0,1.42-.07,2.13-.09,7.79-.18,15.59-.39,23.39-.5a23.6,23.6,0,0,1,4,.61l.22.77-1.8,1.31a15.46,15.46,0,0,0-2.83-.52c-11.86,0-23.72,0-36,0-.62,3.57-1.24,7.15-1.81,10.46,4.7,1.55,7.95,3.4,10.05,7.72a18.19,18.19,0,0,1,1.46,12c-.5,2.64-.21,5.42-.65,8.08a57.16,57.16,0,0,1-2.28,8.94c-.32.95-1.9,2.33-2.48,2.14-1.19-.37-2.78-1.53-3-2.6q-2.25-11.57-4-23.22c-.35-2.43,0-5,0-7.45,0-2.93-1-3.9-3.83-3.83q-10.25.22-20.48.49c-2.77.07-4.06,1.86-3.54,4.55a50.75,50.75,0,0,1,.65,6c.27,4,.52,7.92.7,11.89.19,4.22.17,8.46.49,12.68a15.89,15.89,0,0,0,1.47,4.46c.58,1.48,1.28,2.91,2,4.35,1.32,2.74,2.63,5.48,4,8.19.68,1.34.64,2.74-.83,3a3.62,3.62,0,0,1-2.92-1.73c-1.36-3-2.24-6.2-3.44-9.27-1.62-4.15-4.76-5.95-9.29-5.14-4.23.75-6.53,2.47-7.05,7.25-.31,2.86-1.35,5.63-2,8.45a2.66,2.66,0,0,0-.06,1.05c.92,5.73-1.19,11-3.26,16-1.91,4.61-5.89,7.84-10.19,10.45-1.56.94-3.21,1.76-4.82,2.63C252.78,524.76,249.7,525.73,246.79,523.75ZM319,440.09c.92,6.41,1.82,12.7,2.73,19,.46,3.23.87,6.47,1.44,9.68.36,2,.69,4.12,2.51,5.55.36-.4.56-.52.56-.65.54-8.25,1.51-16.51,1.42-24.76C327.58,443.37,324.1,440.39,319,440.09Z"/><path class="cls-13" d="M870.67,481.63c4.13,2.29,3.54,6.19,3.65,10,.19,7,.7,13.93,1.08,20.89-1.94-2.41-1.94-2.41-4.26-1q-2.86-10.47-5.71-20.94l-.86.11c-.08.36-.31.76-.23,1.08,1.16,4.6,2.37,9.19,3.55,13.78.48,1.89.26,2.89-2.23,2.86a61,61,0,0,0-8.39,1c0,7.1.09,14.1,0,21.09a19.52,19.52,0,0,1-1.14,6.49,5.16,5.16,0,0,1-3.18,2.7c-.69.17-2.29-1.31-2.68-2.34a18.68,18.68,0,0,1-1.34-6.44c0-12,.25-23.94.4-35.92,0-1.06,0-2.12,0-3.19.56-5.37,1.08-10.75,1.73-16.12a15.81,15.81,0,0,1,1.18-4.25c.15-.37,1.21-.53,1.83-.48a6.14,6.14,0,0,1,1.81.76l1.71.91a.81.81,0,0,1,.15.31c.77.92,1.37,2.13,2.34,2.73C863.51,477.71,867.12,479.63,870.67,481.63Zm-13.93,9.62q-.22-4.74-.46-9.48l-.74.05q.39,4.69.77,9.39l.31,16.63,1.1,0C858.42,502.27,856.42,496.79,856.74,491.25Zm-2.55,21.24,0-2.57a7,7,0,0,0,.55-2c-.37-8.76-.8-17.52-1.21-26.28l-1,.06.43,4.1-.38.43c-.37,3.76-.7,7.53-1.11,11.28-.18,1.64-.68,3.25-.74,4.88-.09,2.55-1.21,5.26.89,7.56l0,2.51c-.09,2.39.37,5-.39,7.11-1.77,5-.25,9.68.84,14.42.1.42.66,1.09.89,1.05a2.15,2.15,0,0,0,1.42-.93,5.46,5.46,0,0,0,.34-2.32C854.56,525.38,854.37,518.93,854.19,512.49ZM857,479.57c.31,5,.53,9.68.92,14.34a99.47,99.47,0,0,0,1.33,11c.65,3.28,3.15,1,4.8,1.08,1.82,0,1.48-1.5,1.24-2.56-.93-4-2-8-2.95-12A29.41,29.41,0,0,0,857,479.57Zm4.27-2.27a8.34,8.34,0,0,0,.1,1.62q4.93,12.21,9.93,24.39c.16.41.68.68,1,1,.34-.52,1-1.06,1-1.57-.12-3.44-.26-6.9-.65-10.31-.29-2.51-.19-5.64-1.63-7.31C868.5,482.17,864.92,480.12,861.27,477.3Z"/><path class="cls-14" d="M210.57,482c.48-3.83-2.26-6.06-4.36-8.53-5.11-6-7.65-12.62-5.71-20.52.35-1.43.92-2.8,1.54-4.64a8.31,8.31,0,0,0-2.24-.44c-5.82.32-11.64.8-17.46,1.09-3.7.18-7.41.12-11.11.17-1.9-.2-3.79-.5-5.68-.52-.46,0-.92.93-1.39,1.43-.24.72-.8,1.49-.68,2.14,1.76,10.39,1.36,20.87,1.16,31.32-.08,4.1-.65,4.36-4.83,4.49-1.06,0-2.1.29-3.15.36s-2.08,0-2.88,0l-9.51,13.42-8.36,11.78-3.36-.85c0-.27,0-.69.15-.73,4.28-1.28,5.93-5.13,8.24-8.34,1.65-2.29,3.38-4.53,5.07-6.79s3.6-4.77,5.35-7.19c.73-1,1.86-2.11-1-3.05l.86-.47c2-.1,3.91-.34,5.85-.26,2.28.1,3.31-.93,3.39-3.08.37-9.79.63-19.59,1.15-29.37.13-2.58-.88-3.36-3.13-3.75-5.15-.89-6.11-2.74-4.45-8.1.34,5.21,2.08,5.7,6.57,5.72,5.77,0,11.55.28,17.29,0,4-.22,8-1.23,11.94-1.88l12.63-1.76,5.87-1.28c-.76,2.21-1.1,4.29-2.13,6a18.91,18.91,0,0,0,.74,20.19c2.23,3.05,4,6.41,6.17,9.55a20.91,20.91,0,0,0,2.88,3.08c2.31,2.26,1.9,4.23-1.12,5.4-1.11.43-2.18,1-3.27,1.49a28.52,28.52,0,0,0-5.26-1c-7.61.06-15.23.08-22.82.56-3.34.22-6.5.27-9.39-1.41-1.34-.78-3.28-2.19-3.24-3.26,0-1.38,1.63-2.9,2.88-4,1-.86,2.49-1.16,3.76-1.7v1a12.6,12.6,0,0,0-2.84,1.73c-.79.81-1.75,2.06-1.63,3s1.53,1.56,2.5,2.1a4.79,4.79,0,0,0,2.09.14c9.22,0,18.43.09,27.64,0a32,32,0,0,0,5.64-1.05l-.38-.89Z"/><path class="cls-15" d="M425.39,366.41c2.44,18,2.19,36.17,2.57,54.28.27,13.21-.1,26.44-.34,39.65-.13,7.1-.34,14.21-1,21.26-.36,3.79-1.68,7.5-2.78,11.18-.22.73-1.39,1.16-2.13,1.73a14.14,14.14,0,0,1-2.61-2.7c-2.1-3.78-4-7.66-6-11.5a88,88,0,0,0-4.82-8.86,5.3,5.3,0,0,0-3.89-1.81,99.18,99.18,0,0,0-10,.88c-3.44.37-6.76,1.29-10.34.17-5.55-1.74-9.9-5.36-14.55-8.52s-5.95-7.63-7.11-12.73a95.09,95.09,0,0,1-2.57-18.35c.38.35,1,.64,1.11,1.05,1.12,5.95,2,11.95,3.31,17.87a12.86,12.86,0,0,0,2.92,5.81c4.34,4.66,8.79,9.58,15.27,11,3.76.83,7.85.33,11.78.19,3.52-.13,7-.65,10.56-.85a5.88,5.88,0,0,1,6,3.62c1.69,3.57,3.22,7.23,4.89,10.81,1.2,2.55,2.47,5.07,3.82,7.53a2.77,2.77,0,0,0,1.74,1.24c.3.06,1-.9,1.16-1.5a60.06,60.06,0,0,0,2-8.8c.45-4.48.32-9,.66-13.53.16-2.16.84-4.28,1.22-6.43.19-1,.21-2.09.3-3.14q0-4,0-7.92v-4.41l-.58-.09-.78,1.65a1.69,1.69,0,0,1-.2-.45c-.18-8.33-.57-16.66-.49-25s.74-16.63.95-24.94c.08-2.9-.42-5.82-.58-8.73,0-.65.44-1.35.35-2-.2-1.34-.79-2.63-.88-4-.24-3.53-.43-7.07-.36-10.6C424,368.49,424.89,367.46,425.39,366.41Z"/><path class="cls-16" d="M190.34,324.81a5.28,5.28,0,0,0-4.66-5.27c0-.42-.18-1,0-1.24.88-1.06,1.87-2,2.82-3a24,24,0,0,1,1.76,3.56,23.53,23.53,0,0,1,.48,4.21c1.77-1.77,2.88-3.06,4.19-4.12a14.38,14.38,0,0,1,2.88-1.45c.33,1.1,1.18,2.38.89,3.27-1.14,3.41-2.65,6.7-4,10a31,31,0,0,0-2.1,15.48,2.72,2.72,0,0,0,3.14,2.55c3.11-.33,6.31-.2,8.16-3.59.37-.68,2.13-1.36,2.66-1.05,1.18.7,2.76,2,2.8,3.1.17,4.28.36,8.7-.52,12.84-1,4.68-2.37,9.63-5,13.55-5.45,8.25-8.56,17.14-10.48,26.72-1.34,6.73,1.94,12.2,3.73,18.11a21.71,21.71,0,0,0,1.63,3.32c2.08,4.09,4.14,8.2,6.28,12.26.35.66,1.15,1.06,1.62,1.68.78,1,1.46,2.15,2.56,3.79h-4.17a11.68,11.68,0,0,1-3-.63,3.87,3.87,0,0,1-1.41-1.78c2.4-2.56-.5-3.88-1.26-5.68a23.7,23.7,0,0,0-.85-3.49c-.71-1.82-1.61-3.57-2.43-5.35a16.3,16.3,0,0,0-.72-2.81c-1.08-2.49-2.64-4.83-3.35-7.41A100.93,100.93,0,0,1,190.28,402c-.07-5.33,2.42-9.92,4.26-14.7.43-1.1.74-2.25,1.1-3.38.49-.45,1.28-.82,1.42-1.36a59.67,59.67,0,0,0,1.75-8.1,25.63,25.63,0,0,0-.48-5.34l-.06-2.06c.08-1.46.15-2.93.23-4.39l.67,0,.35,3.8c.27.43.52.88.81,1.3.52.75,1.07,1.49,1.61,2.23a30.9,30.9,0,0,0,2.27-2.46,6,6,0,0,0,.62-1.7c1.07-3.08,2.9-6,1.71-9.52l.28-1.61a5.66,5.66,0,0,0,.27-2.29,2.59,2.59,0,0,0-1.53-1.14c-1.74,1.61-3.39,3.33-5.05,5L198.83,360l-2.07,1.06c-3.35,0-3.48-.15-2.53-2.53.63-.83,1.31-1.64,1.89-2.5.78-1.16,1-2.16-.63-2.95a13.12,13.12,0,0,1-3.62-2.47,16.7,16.7,0,0,1-2.05-3.4c.05-.51.12-1,.12-1.54,0-5.6-.78-11.3,2-16.56l2.2-4Z"/><path class="cls-17" d="M461.82,389.33c-.43-13.15-.85-26.3-1.3-39.9H447.59c0,12.71,0,25.29,0,37.86,0,3.82.1,7.64.08,11.45-.09,14.39-.32,28.78-.25,43.17,0,7,.53,14,1,21,.32,4.58,1.07,9.12,1.43,13.7.07.91-.75,1.89-1.15,2.83l-1-.22c-.46-5.46-1.07-10.92-1.34-16.39-.5-10.19-1.05-20.38-1.13-30.58-.11-13.67.35-27.35.27-41-.06-10-.49-20.06-1-30.09A75.36,75.36,0,0,0,443,350.75a2.14,2.14,0,0,0-1.56-1.31c-5.44-.1-10.89-.06-16.43-.06v13.11c-.07.34-.13.68-.2,1l-.42,0c-.18-1.46-.35-2.91-.54-4.37-.28-2.15-.68-4.3-.83-6.46a3.06,3.06,0,0,1,.78-2.37c2-1.36,4.1-3.18,6.35-3.48,4.1-.56,8.5-.9,12.45.05,4.16,1,8.19.53,12.26.8a8.89,8.89,0,0,0,1.86-.07c4.73-.74,5.89.32,6.08,5.18.25,6.45.84,12.9.94,19.35.1,5.71-.27,11.44-.43,17.15Z"/><path class="cls-15" d="M466.48,533.31c-.31-3.37-.61-6.75-.92-10.12l1-.52a9.64,9.64,0,0,1,1,2.12c.31,1.45.42,2.94.62,4.41l.7.18c.43-1,1.21-2.06,1.24-3.1.17-6.44.17-12.89.21-19.33,0-3.28-.34-6.61.1-9.83.18-1.3,1.82-2.92,3.16-3.44,3.55-1.36,4.91-3.69,4.69-7.35-.28-4.59-.36-9.2-.56-13.79-.1-2.2.8-4,2.75-4.75,2.73-1.06,3-3.18,3.12-5.54.17-3.71.21-7.43.56-11.13.21-2.24,1.56-2.59,3.52-1.35a5,5,0,0,0,2.61.85c5-.09,9.91-.3,14.86-.51,1.65-.07,2.8-.6,2-2.66a7.41,7.41,0,0,1-.13-2.12c1-2.13,2.07-4.26,3.1-6.4.08,2.66.1,5.32.27,8,.11,1.77.4,3,2.92,3.34,3.25.37,6.62,1.08,8.93,4.1,1.53,2,2.3,10.15.77,12.13-2.1,2.72-8.28,2.09-10.89-1.16-3-3.7-2.88-8.3-3.78-13.1H487.43c0,1.91.14,4.18,0,6.43a57.68,57.68,0,0,1-1.13,8.18c-.21.89-1.4,1.59-2.21,2.31-1.19,1.05-3.31,1.91-3.49,3.09-.46,3.07-1,6.65.13,9.35,2.36,5.63,2,9.85-3.42,12.59-4,2.05-4,4.8-3.9,8.56a178.11,178.11,0,0,1-.72,22.76c-.27,2.55-2.93,4.85-4.49,7.27Zm44.43-80.94c.16,4.46,0,8.65,3.24,11.71a7,7,0,0,0,4.13,1.41A2.94,2.94,0,0,0,520.7,464c.61-2.93,1.67-6-.75-8.74S514.49,452.28,510.91,452.37Z"/><path class="cls-18" d="M702.82,526.87q.78-9.66,1.57-19.32a11.66,11.66,0,0,1,1.5.86c2.54,1.94,4.8,4.49,7.63,5.77,10.07,4.56,21,5.74,31.8,7.46l2.1,1.1c.17,4.21.16,4-4.12,4.15-10.52.31-21,.84-31.54,1.22a54.33,54.33,0,0,1-6.63-.19A7.67,7.67,0,0,1,702.82,526.87Z"/><path class="cls-13" d="M1135.77,488.53l-.93,5.29-15.31.57c-.44,0-.89,0-1.33,0-5.47,0-5.69-.05-5.4-5.66.65-12.4,1.72-24.78,2.27-37.18.41-9.19,1-18.47-1.75-27.46-.69-2.25-2-4.3-3.16-6.57l1.49-.39a59,59,0,0,1,7.9,1.86,14.4,14.4,0,0,1,5.41,3.45c2.78,3,6.29,5.7,7,10,.48,2.78,2.12,4.77,3.13,7.14a25.47,25.47,0,0,1,2,9.44c.12,8.05-.26,16.11-.46,24.16a4.27,4.27,0,0,1-.42,1.23c0-8.52.07-17.05-.06-25.57a32.62,32.62,0,0,0-1.08-7.33c-.26-1-1.33-1.88-2-2.82l-1.15.38c0,6.56.1,13.12,0,19.68-.09,4.07-.69,8.13-.8,12.2-.17,6.72-.16,13.45-.14,20.18a2,2,0,0,0,1,1.54,1.92,1.92,0,0,0,1.72-.66,6.16,6.16,0,0,0,.9-2.62c.56-4.73,1-9.47,1.55-14.21Q1136,481.82,1135.77,488.53Zm-22.41-69.8-.59.8c.4,1,.88,2.05,1.2,3.12.86,2.94,2.3,5.89,2.37,8.86.33,13.08.58,26.17-1,39.23-.84,6.67-.93,13.44-1.39,20.16-.11,1.69.54,2.46,2.28,2.42,2.67-.06,5.33,0,8,0,2.14,0,3-.9,3-3.07-.11-4.41-.17-8.84-.07-13.25.16-7.63.33-15.26.71-22.89.36-7.15,1-14.3,1.47-21.45a2.68,2.68,0,0,0-.54-1.73c-2.26-2.81-4.27-6-7-8.22C1119.39,420.81,1116.18,420,1113.36,418.73ZM1129,467.21l1.16.13.92-14.84-.5,0Q1129.78,459.85,1129,467.21Zm.16,3.75h-.32v16.39h.32Z"/><path class="cls-19" d="M1098.88,495.91c3.17-.24,6.34-.43,9.49-.75,1.33-.12,2.24-.17,2.19,1.62-.2,7.34-.17,14.69-.52,22a27.79,27.79,0,0,1-1.75,8.72c-.59,1.5-2.54,2.73-4.15,3.5-1.87.89-3.23-.26-3.45-2.29-.4-3.64-.86-7.27-1.29-10.9-.14-1.75-.28-3.49-.43-5.24-.21-2.34-.43-4.69-.64-7,0-1.47,0-2.94,0-4.41C1098.47,499.4,1098.71,497.65,1098.88,495.91Zm5.32,26.51,1.12,0,1.42-23.34-4,.28C1103.21,507.21,1103.71,514.81,1104.2,522.42Z"/><path class="cls-20" d="M510.16,438.93c-1,2.14-2.07,4.27-3.1,6.4-.15-.65-.56-1.38-.41-2,1.88-7.51.89-15.07.52-22.62-.22-4.32-.57-8.64-.62-13q-.35-30-.55-60.07c0-3.19-.05-6.38,0-9.57,0-.82-.31-2.61,1.55-1.14-.17,3.58-.5,7.16-.48,10.73,0,4.21.44,8.4.5,12.61.11,7.25.08,14.51.11,21.77,0,1.64,0,3.28,0,4.91l.9,7.14,1.71,35.71.74.17q2.57-8.27,5.15-16.52c.45-1.41,1.05-2.77,1.52-4.18.89-2.65,1.78-5.3,2.58-8,1.82-6.1,3.64-12.2,5.36-18.33,1.18-4.22,2.19-8.49,3.28-12.74.2-.76.38-1.52.57-2.28l.56,1.67c-.89,6.63-1.45,13.34-4.35,19.54a27.2,27.2,0,0,0-1.05,3.5c-2.08,6.75-4,13.55-6.29,20.23-2.05,6-4.38,11.86-6.85,17.67A18.36,18.36,0,0,0,510.16,438.93Z"/><path class="cls-21" d="M189.82,347.2a16.7,16.7,0,0,0,2.05,3.4,13.12,13.12,0,0,0,3.62,2.47c1.63.79,1.41,1.79.63,2.95-.58.86-1.26,1.67-1.9,2.5l-1.73-.1c.85-1.21,2.2-2.32,2.43-3.63.34-1.91-4.83-4.63-6.78-3.84a11,11,0,0,1-2.25.41l1.12-2.18.46-.9-3.79-4.58c-1.05,1.74-3.42,2.36-2.14,4.86.16.33-.51,1.23-1,1.7-2.69,2.86-2.7,2.84,0,5.57a6.43,6.43,0,0,1,.58.92l-3.73,3-3.67-2.91c-.6,2.13-1.06,3.72-1.51,5.31,1.28,1.43,1.12,2.85,0,4.27-.19-2-.5-4-.55-6-.09-3.6,0-7.2,0-10.81,0-.43.05-.86.08-1.43,2.67-.23,3.78-1.73,4-4.31.45-4.91,1.13-9.79,1.72-14.68,0-.37.07-.74.11-1.11a10.63,10.63,0,0,0,2.76-.5c2.39-1.14,3.41.43,5,2-4.57,1.83-2.34,5.93-3.52,8.14l4.81,2.21v-3l.65,0a19,19,0,0,0,.37,2.13c.27.91.67,1.77,1,2.67a19.2,19.2,0,0,1,.61,2.22C189.48,345,189.64,346.1,189.82,347.2Z"/><path class="cls-22" d="M466.54,522.67l-1,.52c-2.32-13.53-1.83-27.21-2.11-40.84-.48-22.56-.41-45.13-.73-67.7-.1-7.55-.69-15.11-1-22.66a26.49,26.49,0,0,1,.14-2.66h1.52c.35,3.05.89,6.1,1,9.16.18,4.66-.06,9.34.1,14,.25,7.87.83,15.73,1,23.61.09,5.57-.42,11.15-.44,16.73,0,4.25.45,8.5.45,12.74,0,4.52-.49,9-.46,13.54q.11,14.78.54,29.53C465.65,513.33,466.18,518,466.54,522.67Z"/><path class="cls-13" d="M889.36,507.21c-3.81.16-7.61.42-11.42.42a2.63,2.63,0,0,1-1.83-1.8c-.32-5.81-.42-11.63-.63-17.44-.09-2.22.61-2.71,2.83-2.05,4.11,1.21,8.36,1.93,12.49,3.06,6,1.63,12,3.33,17.91,5.21a62.89,62.89,0,0,0,26.55,2.73,21.62,21.62,0,0,1,4.21.35l-7.13,2.44,3.54.22c-8.25.87-16.52,1.49-24.72,2.68C903.84,504.1,896.62,505.79,889.36,507.21Zm28.84-6.8c0-.3.11-.61.16-.92-.94-.34-1.86-.75-2.82-1-11.74-3.25-23.51-6.41-35.22-9.76-2.41-.69-2.89.11-2.7,2.19.36,4,.82,8,1,12,.21,3.73.64,4.2,4.3,3.57Q900.59,503.47,918.2,500.41Z"/><path class="cls-13" d="M1252.5,474.23c-3.76.54-7.54.92-11.26,1.66a163.31,163.31,0,0,1-37.83,3,42.14,42.14,0,0,1-20.92-6.08c-7.07-4.33-14.33-8.38-21.17-13-6.55-4.47-12.69-9.55-18.94-14.45a12.44,12.44,0,0,1-2-2.73c11.27,8,22.45,16.13,33.84,24a85.45,85.45,0,0,0,13,7.14,21.83,21.83,0,0,0,8.45,1.94c11.18.2,22.38.36,33.55-.07,6.12-.23,12.21-1.62,18.3-2.6.89-.14,1.66-1.18,2.53-1.25a13.12,13.12,0,0,1,3.44.58C1253.12,473,1252.81,473.59,1252.5,474.23Z"/><path class="cls-23" d="M1107.43,418c3.22,2,4.66,5,5.37,8.64,1.93,9.88,1.18,19.78.46,29.7-.67,9.29-1.11,18.6-1.72,27.89a13.23,13.23,0,0,1-.87,2.86c.35-10.13-.65-20.26.8-30.42a104.36,104.36,0,0,0,.55-21.5c-.29-4.43-2.08-8.84-3.67-13.08-.87-2.31-2.44-2.37-4-.47-4,4.8-6,10.64-6.83,16.61a119.77,119.77,0,0,0-.74,17.78c.06,9.91.31,19.82.68,29.71.11,2.67,1,5.31,1.49,8-1.13.33-1.8.25-1.87-1.26-.4-8.85-1.07-17.69-1.31-26.55-.23-8.31,0-16.63-.09-25-.09-5.58,2.44-10.35,4.25-15.36l3.29-5.26Z"/><path class="cls-13" d="M1218.85,490.07c-4.9.37-9.8.76-14.71,1.1-3.33.23-6.67.43-10,.55-5.37.2-10.76.21-16.12.5-8.6.47-17.2,1.08-25.79,1.65-4.63.31-9.25.75-13.89.94-.67,0-1.62-.92-2-1.65s0-1.56,0-2.36c.51-5,1.23-10,1.47-15,.38-7.87.43-15.75.62-23.62.31.39.88.78.89,1.17.06,9.2.19,18.41,0,27.61-.07,3.48-1,6.93-1.42,10.41-.26,2,.44,2.4,2.62,2.14,8.17-1,16.37-1.67,24.58-2.27,13.06-1,26.13-1.72,39.2-2.65,5.21-.37,10.39-1,15.59-1.46C1221.13,488.65,1220.17,489.42,1218.85,490.07Z"/><path class="cls-24" d="M172.23,366.4c1.11-1.42,1.27-2.84,0-4.27l1.95-2.51c.29.46.47.75.64,1,.58,1,1.16,2,1.73,3,.78-.57,1.57-1.14,2.34-1.73,1-.8,2.38-2.16,3.4-.68,2,2.85,5.68,5,4.35,9.46a6,6,0,0,0,0,1.59l-2.94,1c-1.21,3.44-2,3.78-5.72,2.47a3.25,3.25,0,0,0-1.25-.06l-4.48.29c0-2.37-.06-4.73-.08-7.1Z"/><path class="cls-25" d="M196.13,422.62c.82,1.78,1.72,3.53,2.43,5.35a23.7,23.7,0,0,1,.85,3.49c1.28,3.1-1.86,7.52,3.17,9.74a38.07,38.07,0,0,1-5.48,2l-7.26,2.19c-4,.65-7.93,1.66-11.94,1.88-5.74.31-11.52,0-17.29,0-4.49,0-6.23-.51-6.57-5.72.1-2,.06-4,2.61-4.61.34-.08.73-.76.76-1.19.42-5.73,3.59-10.31,6.22-15.11l.13.71c-.43,1.52-.77,3.08-1.33,4.54-1.11,2.85-2.38,5.63-3.51,8.47-.51,1.28-.61,2.75-1.29,3.91-2.09,3.62-.86,6.93,3.27,7.48,3.73.5,7.54.42,11.32.59,9.07-.31,18-1.37,26.38-5.59a8.93,8.93,0,0,0-2.31-1.33c-.72-.35-1.4-.78-2.1-1.18.61-.66,1.17-1.83,1.81-1.87,2.33-.18,2.59-1.61,2.31-3.32a43.18,43.18,0,0,0-1.22-4.52c-.63-2.27-1.26-4.55-1.88-6.82Z"/><path class="cls-13" d="M798.46,514.65c3.88-.69,7.74-1.71,11.65-2,7.71-.57,14.74-2.63,20.86-7.53,2.3-1.84,5.19-3.05,7.22-5.11,2.64-2.68,4.64-6,7-8.9a9,9,0,0,1,2.25-1.48l1.2,2.07-1,18.72c-3.5.84-7,1.81-10.51,2.48a41.21,41.21,0,0,1-5.9.29c3.73-1.09,7.5-2.11,11.19-3.33,1.09-.37,2.79-1.29,2.84-2,.2-3.31-.1-6.65-.24-10.55C831,508.84,816.13,515.59,798.46,514.65Z"/><path class="cls-26" d="M736.25,465.59c.77-4,1.39-8,2.36-12,.87-3.59,2.11-7.09,3.23-10.61.11-.34.57-.56,1.32-1.24.84,8.7,1.63,16.9,2.46,25.43h-9.25Z"/><path class="cls-27" d="M527.08,249.94c3.13-3.23,6.15-3.62,8-.68.87,1.38.87,3.67.51,5.39-.31,1.51-1.61,2.85-2.59,4.18a5.51,5.51,0,0,1-8.27.73c-1.11-1-2.28-1.91-3.38-2.91a9.23,9.23,0,0,1-1.39-1.6c-1.77-2.53-1.6-5.39.38-6.91S524.81,247.3,527.08,249.94Zm1.61,8.34c3-1.6,4.55-4.51,4-7-.11-.46-.79-1.17-1.07-1.11-.66.13-1.67.57-1.78,1C529.31,253.38,529.09,255.6,528.69,258.28ZM523.61,254c.24-1.51.45-2.81.66-4.11-.92.27-2.23.25-2.7.87C520.48,252.13,521.45,253.09,523.61,254Z"/><path class="cls-28" d="M1136.15,475.1c-.51,4.74-1,9.48-1.55,14.21a6.16,6.16,0,0,1-.9,2.62,1.92,1.92,0,0,1-1.72.66,2,2,0,0,1-1-1.54c0-6.73,0-13.46.14-20.18.11-4.07.71-8.13.8-12.2.13-6.56,0-13.12,0-19.68l1.15-.38c.7.94,1.77,1.78,2,2.82a32.62,32.62,0,0,1,1.08,7.33c.13,8.52.06,17.05.06,25.57C1136.21,474.59,1136.18,474.85,1136.15,475.1Zm-1.68-32.53h-.81q-1,24.12-2.05,48.23l.91,0C1134.28,474.8,1136.5,458.77,1134.47,442.57Z"/><path class="cls-29" d="M935.88,500.35l-3.54-.22,7.13-2.44c2.66,0,5.33,0,8-.13q9-.44,18-1c4.3-.29,8.6-.62,12.88-1.13a15.75,15.75,0,0,0,3.81-1.53h4.77l2.21,1.46-.57,1.12-9.07,1.25c-10.11.65-20.23,1.33-30.35,2C944.7,499.94,940.29,500.12,935.88,500.35Z"/><path class="cls-30" d="M831.23,513.19a41.21,41.21,0,0,0,5.9-.29c3.54-.67,7-1.64,10.51-2.48,1.16,1.29,0,1.43-.85,1.61-7.52,1.6-15,3.52-22.58,4.65-9.27,1.39-18.62,2.36-28,3.05-16.26,1.19-32.54,2-48.81,3-.71-.36-1.41-.73-2.11-1.1l1.21-.34c2.09-.06,4.19-.1,6.29-.2,14.66-.7,29.34-1.22,44-2.2A159.71,159.71,0,0,0,831.23,513.19Z"/><path class="cls-31" d="M163.76,421.4l-.13-.71a31.46,31.46,0,0,0,2.07-5.2c1-4.65,1.68-9.34,2.46-14,.55-3.31.72-6.72,1.65-9.91,2.1-7.15,1.47-14.47,1.88-21.72a2.89,2.89,0,0,1,.45-.94c0,2.37.05,4.73.08,7.1.29,1.82,1.56,1.69,3,1.86,1.13.14,3.13,1.5,3,1.85-.48,1.8-1.12,3.93-2.46,5.05-2.06,1.73-3.06,3.9-4.1,6.17q-.54,4-1.06,8c-2.06,1.86-1.09,4.44-1.64,6.65C167.65,411,167.12,416.67,163.76,421.4Z"/><path class="cls-32" d="M168.5,325.86q-.85-6.86-1.7-13.71c.06-.77.11-1.54.17-2.32.21,1.16.35,2.34.66,3.47a16.68,16.68,0,0,0,1,2.34c.87-.41,2.43-.73,2.49-1.24.31-2.49,1.13-5.57,0-7.42-1.26-2.14-1.44-4.23-1.91-6.39-.36-1.66-.42-3.29,1.61-4.22.48-.21.57-1.29.83-2h.48c0,7.85.09,15.7.1,23.54,0,2.47-.11,4.93-.17,7.4-.48,1.36-.95,2.72-1.42,4.08l-.72.24Z"/><path class="cls-33" d="M163.59,300.84q-.75-8.55-1.49-17.1l.73-2.9,3.51-1.89,0,0,.54,2.15c-.36.87-1.06,1.77-1,2.63.23,5.53.63,11.06,1,16.59Z"/><path class="cls-34" d="M871.14,511.49c2.32-1.37,2.32-1.37,4.26,1l.72,12.27v9.05C873.19,531.91,870.84,521.09,871.14,511.49Z"/><path class="cls-35" d="M1131.39,509.87l-.42-7.44,2.62,1.21c0-2.22-.08-3.95,0-5.67s-.71-2-2.07-1.85l3.18-.8V516.2C1131.17,516.06,1130.25,514.13,1131.39,509.87Z"/><path class="cls-36" d="M177.59,328c0,.37-.07.74-.11,1.11-1.12-2.37-.51-4.19,1.76-5.45.67-.37,1.36-.67,2.48-1.22,1.15.58,3.41,2.1,5.09-1.84l3.53,4.19,3.83.32-2.2,4c-.54-2.6-3.07-3.12-4.7-3a5.49,5.49,0,0,1-5.64-2.72c-.8,1.84-1.14,4-3.78,3.37Z"/><path class="cls-37" d="M529.18,340.7,527.92,336c3.43,0,6.73-.1,10,.1.6,0,1.42,1.24,1.57,2,.08.41-1,1.4-1.72,1.52C535,340.1,532.21,340.34,529.18,340.7Z"/><path class="cls-31" d="M168.5,325.86l1.46,3.8.72-.24c.47-1.36.94-2.72,1.42-4.08V346C168.71,339.53,168.68,332.69,168.5,325.86Z"/><path class="cls-38" d="M519.8,341.31l-2-1v-3.94c2.56-.12,5.26-.69,7.73-.16,1.17.24,1.9,2.58,2.83,4l-.6.77c-2.13-.14-4.26-.34-6.4-.39C520.85,340.51,520.33,341,519.8,341.31Z"/><path class="cls-39" d="M189.84,445.41l7.26-2.19a38.07,38.07,0,0,0,5.48-2c-5-2.22-1.89-6.64-3.17-9.74.76,1.8,3.66,3.12,1.26,5.68a3.87,3.87,0,0,0,1.41,1.78,11.68,11.68,0,0,0,3,.63c1.29,2.74-1,3.23-2.61,4.1Z"/><path class="cls-40" d="M163.59,300.84l3.28-.55c0,3.18.07,6.36.1,9.54-.06.78-.11,1.55-.17,2.32C165.63,308.41,163.14,305,163.59,300.84Z"/><path class="cls-41" d="M166.91,281.07l-.54-2.15c3.75,1.39,5,4.39,5.23,8.08l-3.68-1.58C167.59,284,167.25,282.52,166.91,281.07Z"/><path class="cls-33" d="M167.92,285.42,171.6,287l.57,7.4h-.48a10.17,10.17,0,0,0,0-2.41c-.3-1.17-.58-3-1.34-3.26A3.41,3.41,0,0,1,167.92,285.42Z"/><path class="cls-42" d="M166.34,279l-3.51,1.89-.73,2.9v-7.3Z"/><path class="cls-43" d="M426.53,448q0,4,0,7.92C425,454.37,425,449.64,426.53,448Z"/><path class="cls-18" d="M704.21,486.7c9.37,2.26,18.8,1.36,28.22.56,4.72-.4,9.43-1,14.13-1.5.32,10.35.64,21,1,31.58a83.51,83.51,0,0,1-9.64-.27c-5.16-.72-10.22-2.15-15.38-2.77-6.58-.8-12.29-2.84-16.22-8.55-.32-.48-1.35-.48-2-.7-.11-1.92-.23-3.84-.33-5.77-.18-3.27-.41-6.53-.47-9.8A10.43,10.43,0,0,1,704.21,486.7Z"/><path class="cls-44" d="M704.24,505.05c.7.22,1.73.22,2,.7,3.93,5.71,9.64,7.75,16.22,8.55,5.16.62,10.22,2.05,15.38,2.77a83.51,83.51,0,0,0,9.64.27l0,0c0,.7-.08,1.4-.13,2.22,8.08-.39,16.14-.67,24.18-1.21,11.31-.76,22.64-1.51,33.92-2.68A76.49,76.49,0,0,0,822,512.36c4.93-1.65,9.45-4.58,14.07-7.08,2.11-1.14,4-2.62,6.16-4,.51,5.86.25,6.27-4.82,8-1.33.46-2.63,1-4,1.48-16.85,5.8-34.37,7.28-52,8.17-9,.44-17.9.69-26.85,1.18-2.71.15-5.39.79-8.08,1.2l-1.21.34c-10.78-1.72-21.73-2.9-31.8-7.46-2.83-1.28-5.09-3.83-7.63-5.77a11.66,11.66,0,0,0-1.5-.86Z"/><path class="cls-45" d="M210.57,482v1.3c-10.26-6.64-21.17-8.92-33-5v-1c7.37-3.29,14.75-2.23,22.12,0,1.85.55,3.74,1,5.54,1.69a27.2,27.2,0,0,1,3.49,1.95Z"/><path class="cls-46" d="M164.16,450.06c.47-.5.93-1.44,1.39-1.43,1.89,0,3.78.32,5.68.52Z"/><path class="cls-26" d="M780.67,508.78c-.3,4.88-.7,5.2-5.5,5.38-8.06.31-16.11.71-24.17,1.07-.34,0-.68,0-1.49-.1-.32-8.25-.59-16.46-1-24.67-.62-13.64-1.39-27.28-1.93-40.92-.25-6.47-.18-13-.07-19.43,0-1.65.69-3,3.09-3,4.85-.05,9.69-.78,14.54-.92a98.63,98.63,0,0,1,10.58.53,2.17,2.17,0,0,1,1.59,1.25,71.69,71.69,0,0,1,2,10.78c.45,7.06.36,14.15.65,21.22.49,11.84,1.11,23.68,1.67,35.51Z"/><path class="cls-18" d="M735.94,468.85c2.37.14,4.74.35,7.11.4,1.68,0,2.33.86,2.5,2.43.34,3.22.77,6.42,1.18,9.63.24,1.95-1.25,2.17-2.51,2.32-3.86.47-7.73.91-11.61,1.14-5,.31-10.08.32-15.11.61a25.73,25.73,0,0,0-5.64,1c-5.47,1.57-9.65-1.61-9.7-7.27,0-3-.52-5.92-.84-9.29l6.76-.56c4.88,0,9.75,0,14.63-.09C727.12,469.09,731.53,469,735.94,468.85Z"/><path class="cls-13" d="M988.53,496.45l.57-1.12c1.22-.13,2.45-.37,3.68-.38,8.15-.05,16.3,0,24.45-.09q29.28-.39,58.57-.92c5.4-.1,10.81-.43,16.21-.69,1.36-.06,2.66-.16,2.5-2.21-.71-9.5-1.5-19-1.89-28.53-.17-4.17.74-8.38.85-12.58.22-8.09.36-16.16,3.58-24.5-2.35,1.38-4.27,2.37-6.06,3.57-5.21,3.49-10.43,7-15.54,10.62-8.83,6.29-17.56,12.73-26.38,19.05-4.87,3.5-9.66,7.15-14.77,10.26-5.73,3.49-11.75,6.51-17.71,9.62-9.87,5.16-19.79,10.22-29.7,15.32h-4.77c9-4.55,17.92-9.05,26.83-13.67,6.85-3.55,13.78-7,20.39-11,7.08-4.27,13.91-9,20.68-13.71,6.38-4.47,12.46-9.38,18.82-13.88,5.15-3.65,10.51-7,15.8-10.45,3.4-2.22,6.77-4.5,10.27-6.55,1.38-.81,3.11-1.48,4.47.33-3.74,5.08-4.66,11-4.68,17,0,12.78.24,25.57.55,38.35.11,4.59.65,9.17,1,14.15-6.45.3-12.68.57-18.9.89-7.12.36-14.23.95-21.36,1.1-5.38.12-10.77-.4-16.15-.45-3.16,0-6.33.51-9.49.48-10.88-.1-21.76-.39-32.64-.5C994.67,496,991.6,496.29,988.53,496.45Z"/><path class="cls-47" d="M746.53,521.3c2.69-.41,5.37-1,8.08-1.2,8.95-.49,17.9-.74,26.85-1.18,17.62-.89,35.14-2.37,52-8.17,1.33-.45,2.63-1,4-1.48,5.07-1.74,5.33-2.15,4.82-8-2.12,1.4-4.05,2.88-6.16,4-4.62,2.5-9.14,5.43-14.07,7.08a76.49,76.49,0,0,1-16.53,3.28c-11.28,1.17-22.61,1.92-33.92,2.68-8,.54-16.1.82-24.18,1.21,0-.82.09-1.52.13-2.22l46.18-2.51c1.59-.08,3.19-.1,4.79-.15,17.66.94,32.51-5.81,46.55-17.38.14,3.9.44,7.24.24,10.55,0,.75-1.75,1.67-2.84,2-3.69,1.22-7.46,2.24-11.19,3.33a159.71,159.71,0,0,1-34.43,5.71c-14.64,1-29.32,1.5-44,2.2C750.72,521.2,748.62,521.24,746.53,521.3Z"/><path class="cls-48" d="M857.54,472.55l-1.71-.91c.3-.28.58-.8.9-.83,4.45-.35,9-2,13.27.65.58.37,1.33.73,1.61,1.29a54.8,54.8,0,0,1,2.77,6.34c.27.81-.13,1.85-.22,2.78l-2.85-.85-1.38-1.47,3-.06c-.19-1.08-.3-2.19-.59-3.24-.84-3-3.21-4.41-6-4.73a51.72,51.72,0,0,0-7.87,0C858.09,471.57,857.82,472.2,857.54,472.55Z"/><path class="cls-1" d="M869.93,479.55l1.38,1.47-.64.61c-3.55-2-7.16-3.92-10.64-6-1-.6-1.57-1.81-2.34-2.73Z"/><path class="cls-1" d="M735.94,468.85c-4.41.1-8.82.24-13.23.3-4.88.06-9.75.07-14.63.09a8.18,8.18,0,0,1,1.76-.42C718.54,468.81,727.24,468.84,735.94,468.85Z"/><path class="cls-1" d="M780.67,508.78v0Z"/><path class="cls-49" d="M508.58,394.16l-.9-7.14Z"/><path class="cls-1" d="M549.62,356.56c0,2.82.13,5.65,0,8.47,0,.64-.61,1.27-.93,1.91,0-2.78-.12-5.56,0-8.34A6,6,0,0,1,549.62,356.56Z"/><path class="cls-1" d="M1204.92,484.73l-60.64,3.74c.77-12.68.57-25.25-2.21-38a8.75,8.75,0,0,1,1.7.76c6.78,5.45,13.23,11.38,20.38,16.27a108.67,108.67,0,0,0,31.09,15c2.93.85,6.09.92,9.15,1.35Z"/><path class="cls-50" d="M1204.92,484.73l-.53-.91h10.5c0,.1,0,.2,0,.3Z"/><path class="cls-10" d="M1098.92,493.72c-.52-2.65-1.38-5.29-1.49-8-.37-9.89-.62-19.8-.68-29.71a119.77,119.77,0,0,1,.74-17.78c.87-6,2.83-11.81,6.83-16.61,1.59-1.9,3.16-1.84,4,.47,1.59,4.24,3.38,8.65,3.67,13.08a104.36,104.36,0,0,1-.55,21.5c-1.45,10.16-.45,20.29-.8,30.42a12.61,12.61,0,0,0,.27,2.63c.85,2.78.26,3.87-2.71,4S1102,493.75,1098.92,493.72Zm6.63-66.81c-6.38,20.08-4.65,40.53-3.11,61h3.08c.07-.76.17-1.36.17-2,.09-13.1.34-26.18,1.94-39.22A48.84,48.84,0,0,0,1105.55,426.91Z"/><path class="cls-51" d="M1131.54,496.12c1.36-.13,2.17.24,2.07,1.85s0,3.45,0,5.67l-2.62-1.21c-.09-1.78-.22-3.57-.23-5.35C1130.74,496.76,1131.26,496.44,1131.54,496.12Z"/><path class="cls-1" d="M1098.88,495.91c-.17,1.74-.41,3.49-.51,5.24-.09,1.47,0,2.94,0,4.41-.34-.43-1-.86-1-1.31-.1-2.47-.08-4.94,0-7.41C1097.33,495.83,1097.6,494.92,1098.88,495.91Z"/><path class="cls-52" d="M319,440.09c5.12.3,8.6,3.28,8.66,8.81.09,8.25-.88,16.51-1.42,24.76,0,.13-.2.25-.56.65-1.82-1.43-2.15-3.54-2.51-5.55-.57-3.21-1-6.45-1.44-9.68C320.8,452.79,319.9,446.5,319,440.09Z"/><path class="cls-53" d="M857,479.57a29.41,29.41,0,0,1,5.34,11.88c.91,4,2,8,2.95,12,.24,1.06.58,2.6-1.24,2.56-1.65,0-4.15,2.2-4.8-1.08a99.47,99.47,0,0,1-1.33-11C857.53,489.25,857.31,484.58,857,479.57Zm4.17,24.71c2.08-.9.92-8.79-2.65-16.22Z"/><path class="cls-54" d="M861.27,477.3c3.65,2.82,7.23,4.87,9.76,7.83,1.44,1.67,1.34,4.8,1.63,7.31.39,3.41.53,6.87.65,10.31,0,.51-.63,1.05-1,1.57-.36-.33-.88-.6-1-1q-5-12.18-9.93-24.39A8.34,8.34,0,0,1,861.27,477.3Zm2.72,4.83,6.65,13.22C871,487.52,869.34,484.28,864,482.13Z"/><path class="cls-55" d="M869.93,479.55l-12.24-6.69a.81.81,0,0,0-.15-.31c.28-.35.55-1,.84-1a51.72,51.72,0,0,1,7.87,0c2.83.32,5.2,1.69,6,4.73.29,1.05.4,2.16.59,3.24Zm-7.67-6.87-.39.91,7.5,3.44c.16-.38.32-.76.49-1.14Z"/><path class="cls-56" d="M851.58,510c-2.1-2.3-1-5-.89-7.56.06-1.63.56-3.24.74-4.88.41-3.75.74-7.52,1.11-11.28v22h.38v-22.4l-.43-4.1,1-.06c.41,8.76.84,17.52,1.21,26.28a7,7,0,0,1-.55,2Z"/><path class="cls-57" d="M854.19,512.49c.18,6.44.37,12.89.52,19.33a5.46,5.46,0,0,1-.34,2.32,2.15,2.15,0,0,1-1.42.93c-.23,0-.79-.63-.89-1.05-1.09-4.74-2.61-9.39-.84-14.42.76-2.15.3-4.72.39-7.11Zm-.65,8.11v-6.83h-.88v8.93l0,8.47.86,0Z"/><path class="cls-58" d="M852.92,485.83v22.4h-.38v-22Z"/><path class="cls-59" d="M856.74,491.25c-.32,5.54,1.68,11,1,16.56l-1.1,0q-.15-8.31-.31-16.63A3.28,3.28,0,0,0,856.74,491.25Z"/><path class="cls-60" d="M856.74,491.25a3.28,3.28,0,0,1-.43,0q-.37-4.69-.77-9.39l.74-.05Q856.52,486.51,856.74,491.25Z"/><path class="cls-61" d="M854.19,512.49h-2.58l0-2.51,2.58-.06Z"/><path class="cls-62" d="M177.55,478.31c11.85-3.91,22.76-1.63,33,5l.38.89a32,32,0,0,1-5.64,1.05c-9.21.1-18.42,0-27.64,0a4.79,4.79,0,0,1-2.09-.14c-1-.54-2.4-1.3-2.5-2.1s.84-2.18,1.63-3A12.6,12.6,0,0,1,177.55,478.31Z"/><path class="cls-21" d="M195.64,383.89c-.36,1.13-.67,2.28-1.1,3.38-1.84,4.78-4.33,9.37-4.26,14.7a2.49,2.49,0,0,1-.43.22c.17-2,.33-3.95.5-5.92.07-2.31.92-5,0-6.82-1.23-2.44-4-4.08-5.77-6.28-.75-.92-1.48-2.7-1.08-3.55a46.15,46.15,0,0,1,4.15-6.29c.09,4.07,1,5.39,4.83,6.09C195.21,379.92,196.07,381.36,195.64,383.89Z"/><path class="cls-63" d="M177.59,328l.26-1.24c2.64.67,3-1.53,3.78-3.37a5.49,5.49,0,0,0,5.64,2.72c1.63-.15,4.16.37,4.7,3-2.81,5.26-2,11-2,16.56,0,.52-.07,1-.12,1.54-.18-1.1-.34-2.21-.56-3.31a19.2,19.2,0,0,0-.61-2.22c-.3-.9-.7-1.76-1-2.67a19,19,0,0,1-.37-2.13l-.65,0v3l-4.81-2.21c1.18-2.21-1-6.31,3.52-8.14-1.61-1.56-2.63-3.13-5-2A10.63,10.63,0,0,1,177.59,328Z"/><path class="cls-64" d="M198.27,367l.06,2.06c-.16,1.21-.37,2.42-.47,3.63-.21,2.41-1.9,3.5-3.85,4.21-2.27.83-2.4-1.32-3.17-2.53l.51-5.92a30.52,30.52,0,0,0,.15,4.18c.1.62.8,1.54,1.3,1.59a2.58,2.58,0,0,0,2.15-.9,12,12,0,0,0,.71-9.22l-4.32,4.35,2.13-4.27c1-1.56,2.31-2.48,4.27-2C197.92,363.8,198.09,365.42,198.27,367Z"/><path class="cls-65" d="M190.84,374.4c.77,1.21.9,3.36,3.17,2.53,2-.71,3.64-1.8,3.85-4.21.1-1.21.31-2.42.47-3.63a25.63,25.63,0,0,1,.48,5.34,59.67,59.67,0,0,1-1.75,8.1c-.14.54-.93.91-1.42,1.36.43-2.53-.43-4-3.15-4.47-3.84-.7-4.74-2-4.83-6.09v0h1C188.92,374.6,189.49,375.28,190.84,374.4Z"/><path class="cls-66" d="M206.82,354.7c-.09.54-.18,1.08-.28,1.61q-.89,4.24-1.79,8.49c-1.81,3.27-3,3.61-4.76.48q-.59-2.64-1.16-5.29l1.68-3.69C202.59,355.67,204.07,352.66,206.82,354.7ZM204,357.24c-2.8.9-3.45,2.9-3,5.4a7.9,7.9,0,0,0,1,1.93c.66-.37,1.65-.58,1.92-1.13C204.89,361.44,205.3,359.33,204,357.24Z"/><path class="cls-1" d="M189.85,402.19a2.49,2.49,0,0,0,.43-.22,100.93,100.93,0,0,0,1.78,10.43c.71,2.58,2.27,4.92,3.35,7.41a16.3,16.3,0,0,1,.72,2.81l-.92-.86c-1.15-5.34-4.9-9.8-5.23-15.43C189.94,405,189.89,403.57,189.85,402.19Z"/><path class="cls-67" d="M197.74,362.18c-2-.45-3.26.47-4.27,2-.25-2.84-1.54-2.24-3.05-.91l2.08-4.89h0l1.73.1c-.94,2.38-.81,2.52,2.54,2.53Z"/><path class="cls-68" d="M206.82,354.7c-2.75-2-4.23,1-6.31,1.6,1.66-1.7,3.31-3.42,5.05-5a2.59,2.59,0,0,1,1.53,1.14A5.66,5.66,0,0,1,206.82,354.7Z"/><path class="cls-69" d="M200,365.28c1.74,3.13,2.95,2.79,4.76-.48,0,.34.05.69.08,1a6,6,0,0,1-.62,1.7,30.9,30.9,0,0,1-2.27,2.46c-.54-.74-1.09-1.48-1.61-2.23-.29-.42-.54-.87-.81-1.3C199.67,366.07,199.83,365.67,200,365.28Z"/><path class="cls-1" d="M204.83,365.83c0-.34-.05-.69-.08-1q.9-4.24,1.79-8.49C207.73,359.8,205.9,362.75,204.83,365.83Z"/><path class="cls-70" d="M200,365.28c-.16.39-.32.79-.47,1.18-.12-1.27-.23-2.53-.35-3.8l-.67,0c-.08,1.46-.15,2.93-.23,4.39-.18-1.61-.35-3.23-.53-4.85l-1-1.13,2.07-1.06Q199.4,362.65,200,365.28Z"/><path class="cls-71" d="M510.91,452.37c3.58-.09,6.65.19,9,2.89s1.36,5.81.75,8.74a2.94,2.94,0,0,1-2.42,1.49,7,7,0,0,1-4.13-1.41C510.92,461,511.07,456.83,510.91,452.37Z"/><path class="cls-10" d="M1113.36,418.73c2.82,1.28,6,2.08,8.36,4,2.74,2.24,4.75,5.41,7,8.22a2.68,2.68,0,0,1,.54,1.73c-.46,7.15-1.11,14.3-1.47,21.45-.38,7.63-.55,15.26-.71,22.89-.1,4.41,0,8.84.07,13.25,0,2.17-.85,3.11-3,3.07-2.66,0-5.32-.06-8,0-1.74,0-2.39-.73-2.28-2.42.46-6.72.55-13.49,1.39-20.16,1.63-13.06,1.38-26.15,1-39.23-.07-3-1.51-5.92-2.37-8.86-.32-1.07-.8-2.08-1.2-3.12Zm5.55,9.23c4.86,20,1.35,39.92.68,59.87h2.55c.21-3.9.47-7.61.59-11.33.44-13.92.82-27.85,1.24-41.78C1124.07,431.45,1122.61,429.31,1118.91,428Z"/><path class="cls-72" d="M1129,467.21q.78-7.36,1.58-14.74l.5,0-.92,14.84Z"/><path class="cls-73" d="M1129.15,471v16.38h-.32V471Z"/><path class="cls-74" d="M1104.2,522.42c-.49-7.61-1-15.21-1.5-23l4-.28-1.42,23.34Z"/><path class="cls-75" d="M186.61,372.26a6,6,0,0,1,0-1.59c1.33-4.43-2.38-6.61-4.35-9.46-1-1.48-2.36-.12-3.4.68-.77.59-1.56,1.16-2.34,1.73-.57-1-1.15-2-1.73-3-.17-.29-.35-.58-.64-1l-1.95,2.51c.45-1.59.91-3.18,1.51-5.31l3.67,2.91,3.73-3a6.43,6.43,0,0,0-.58-.92c-2.67-2.73-2.66-2.71,0-5.57.45-.47,1.12-1.37,1-1.7-1.28-2.5,1.09-3.12,2.14-4.86l3.79,4.58-.46.9-1.12,2.18a11,11,0,0,0,2.25-.41c2-.79,7.12,1.93,6.78,3.84-.23,1.31-1.58,2.42-2.43,3.63h0l-1.89,1.3c-5.12-4-5.58-4.14-8.06-1.44l3.1,2.63.25-.65c.8.11,1.81,0,2.36.4s.74,1.77.45,2.07c-1.37,1.39-1.28,2.71-.5,4.31.16.33-.34,1-.53,1.5l-1.06,3.74Z"/><path class="cls-76" d="M918.2,500.41q-17.61,3-35.24,6.09c-3.66.63-4.09.16-4.3-3.57-.22-4-.68-8-1-12-.19-2.08.29-2.88,2.7-2.19,11.71,3.35,23.48,6.51,35.22,9.76,1,.27,1.88.68,2.82,1C918.31,499.8,918.25,500.11,918.2,500.41Zm-37,3.67,26.63-4.45-26.63-7.12Z"/><path class="cls-75" d="M171.69,390.93c1-2.27,2-4.44,4.1-6.17,1.34-1.12,2-3.25,2.46-5.05.1-.35-1.9-1.71-3-1.85-1.44-.17-2.71,0-3-1.86l4.48-.29a3.25,3.25,0,0,1,1.25.06c3.76,1.31,4.51,1,5.72-2.47l2.94-1h0l-5.77,8.64c2.66,2.62,5.55,5.38,8.31,8.26a5,5,0,0,1,1.12,2.58,26.67,26.67,0,0,1,0,4c-.47-1.76-.43-4-1.53-5.19-2.18-2.34-5-4.12-7.53-6.11-1.08-.83-1.88-.68-2.91.4C176.26,387,173.92,388.92,171.69,390.93Z"/><path class="cls-77" d="M163.76,421.4c3.36-4.73,3.89-10.42,5.23-15.81.55-2.21-.42-4.79,1.64-6.65,1.59-4,3.2-7.95,7.2-10.35,2.86-1.71,4.36-1.81,6.46.65a18.94,18.94,0,0,1,3.13,5.14,30,30,0,0,1,1.88,12h0c-1.71-.59-2.06-3.57-4.69-2.65-.41.14-1-.3-1.55-.47.24-.52.45-1.06.73-1.56.5-.87,1.63-1.86,1.46-2.54a37.08,37.08,0,0,0-2.58-6.93c-.66-1.38-1.93-1.86-3.22-.5-1,1-1.86,2.1-2.79,3.14a14.8,14.8,0,0,1-2.14,2.32c-2.58,1.88-2.58,2.89-.07,5,.59.51,1.28,1.82,1,2.25-2.34,4.06-2.76,9.12-6.81,12.31a14.4,14.4,0,0,0-3.78,5c-1.53,3.16-2.56,6.55-4,9.77s-.81,4.89,2.66,6.33c-.8.41-1.43,1-2,.94-1.72-.28-3.21.42-3,1.94a5.54,5.54,0,0,0,2.61,3.43c3.39,2,7.29,1.48,11,1.67v.52c-3.78-.17-7.59-.09-11.32-.59-4.13-.55-5.36-3.86-3.27-7.48.68-1.16.78-2.63,1.29-3.91,1.13-2.84,2.4-5.62,3.51-8.47C163,424.48,163.33,422.92,163.76,421.4Z"/><path class="cls-78" d="M172.22,446.39v-.52c6.63-.06,12.68-2.47,18.93-4.07v-1.07l-7.07-1.6,0-.91c1-.47,2-1.27,3-1.33,3.43-.21,5.27-2.26,7-4.91,3.61-5.41-1.23-11.33-6.23-12.67-.45-.12-1.07.41-1.61.63L183.73,421c-.33-1-.67-1.94-1-2.93-.15-.5-.21-1-.32-1.54-.54-2.66,1.47-6,4.14-6.34s3.44-1.38,2.68-3.81h0l.69-.06c.33,5.63,4.08,10.09,5.23,15.43.62,2.27,1.25,4.55,1.88,6.82a43.18,43.18,0,0,1,1.22,4.52c.28,1.71,0,3.14-2.31,3.32-.64,0-1.2,1.21-1.81,1.87.7.4,1.38.83,2.1,1.18a8.93,8.93,0,0,1,2.31,1.33C190.2,445,181.29,446.08,172.22,446.39Z"/><path class="cls-79" d="M528.69,258.28c.4-2.68.62-4.9,1.11-7,.11-.48,1.12-.92,1.78-1,.28-.06,1,.65,1.07,1.11C533.24,253.77,531.74,256.68,528.69,258.28Z"/><path class="cls-80" d="M523.61,254c-2.16-.86-3.13-1.82-2-3.24.47-.62,1.78-.6,2.7-.87C524.06,251.14,523.85,252.44,523.61,254Z"/><path class="cls-74" d="M1134.47,442.57c2,16.2-.19,32.23-2,48.27l-.91,0q1-24.12,2.05-48.23Z"/><path class="cls-10" d="M986.89,493.87c9.91-5.1,19.83-10.16,29.7-15.32,6-3.11,12-6.13,17.71-9.62,5.11-3.11,9.9-6.76,14.77-10.26,8.82-6.32,17.55-12.76,26.38-19.05,5.11-3.64,10.33-7.13,15.54-10.62,1.79-1.2,3.71-2.19,6.06-3.57-3.22,8.34-3.36,16.41-3.58,24.5-.11,4.2-1,8.41-.85,12.58.39,9.52,1.18,19,1.89,28.53.16,2-1.14,2.15-2.5,2.21-5.4.26-10.81.59-16.21.69q-29.28.53-58.57.92c-8.15.11-16.3,0-24.45.09-1.23,0-2.46.25-3.68.38Zm103.57-57.74c-6.23,4.74-12.32,9.46-18.48,14.07-4.94,3.7-9.91,7.35-15,10.88-7.21,5-14.33,10.25-21.85,14.78-7.22,4.35-14.86,8-22.42,11.76a81,81,0,0,1-8.72,3.2l.14.72,83.79-2.89A240.65,240.65,0,0,1,1090.46,436.13Z"/><path class="cls-81" d="M190,406.33l-.69.06a29.86,29.86,0,0,0-1.87-12,18.94,18.94,0,0,0-3.13-5.14c-2.1-2.46-3.6-2.36-6.46-.65-4,2.4-5.61,6.34-7.2,10.35q.52-4,1.06-8c2.23-2,4.57-3.92,6.66-6.08,1-1.08,1.83-1.23,2.91-.4,2.56,2,5.35,3.77,7.53,6.11,1.1,1.19,1.06,3.43,1.53,5.19l0,.52c-.17,2-.33,4-.5,5.92C189.89,403.57,189.94,405,190,406.33Z"/><path class="cls-82" d="M167.92,285.42a3.41,3.41,0,0,0,2.39,3.31c.76.28,1,2.09,1.34,3.26a10.17,10.17,0,0,1,0,2.41c-.26.68-.35,1.76-.83,2-2,.93-2,2.56-1.61,4.22.47,2.16.65,4.25,1.91,6.39,1.1,1.85.28,4.93,0,7.42-.06.51-1.62.83-2.49,1.24a16.68,16.68,0,0,1-1-2.34c-.31-1.13-.45-2.31-.66-3.47,0-3.18-.07-6.36-.1-9.54-.35-5.53-.75-11.06-1-16.59,0-.86.66-1.76,1-2.63C167.25,282.52,167.59,284,167.92,285.42Z"/><path class="cls-83" d="M1105.55,426.91a48.84,48.84,0,0,1,2.08,19.85c-1.6,13-1.85,26.12-1.94,39.22,0,.61-.1,1.21-.17,2h-3.08C1100.9,467.44,1099.17,447,1105.55,426.91Z"/><path class="cls-84" d="M861.17,504.28l-2.65-16.22C862.09,495.49,863.25,503.38,861.17,504.28Z"/><path class="cls-85" d="M864,482.13c5.36,2.15,7,5.39,6.66,13.22C868.34,490.77,866.16,486.45,864,482.13Z"/><path class="cls-86" d="M862.26,472.68l7.6,3.21c-.17.38-.33.76-.49,1.14l-7.5-3.44Z"/><path class="cls-87" d="M853.54,520.6v10.52l-.86,0,0-8.47C853,522,853.25,521.29,853.54,520.6Z"/><path class="cls-88" d="M853.54,520.6c-.29.69-.59,1.39-.88,2.09v-8.93h.88Z"/><path class="cls-31" d="M190.35,396.27l0-.52a26.67,26.67,0,0,0,0-4,5,5,0,0,0-1.12-2.58c-2.76-2.88-5.65-5.64-8.31-8.26l5.77-8.64c.35-1.25.7-2.49,1.06-3.74,0,1.59,0,3.19,0,4.78v0a46.15,46.15,0,0,0-4.15,6.29c-.4.85.33,2.63,1.08,3.55,1.82,2.2,4.54,3.84,5.77,6.28C191.27,391.26,190.42,394,190.35,396.27Z"/><path class="cls-89" d="M191.34,368.48l4.32-4.35a12,12,0,0,1-.71,9.22,2.58,2.58,0,0,1-2.15.9c-.5-.05-1.2-1-1.3-1.59a30.52,30.52,0,0,1-.15-4.18Z"/><path class="cls-90" d="M190.42,363.3c1.51-1.33,2.8-1.93,3.05.91l-2.13,4.27h0l-.51,5.92c-1.35.88-1.92.2-2.18-1.1C189.25,370,189.84,366.63,190.42,363.3Z"/><path class="cls-21" d="M190.42,363.3c-.58,3.33-1.17,6.67-1.76,10h-1c0-1.59,0-3.19,0-4.78.19-.51.69-1.17.53-1.5-.78-1.6-.87-2.92.5-4.31.29-.3,0-1.72-.45-2.07s-1.56-.29-2.36-.4l-.25.65-3.1-2.63c2.48-2.7,2.94-2.61,8.06,1.44l1.89-1.3Z"/><path class="cls-91" d="M204,357.24c1.26,2.09.85,4.2-.11,6.2-.27.55-1.26.76-1.92,1.13a7.9,7.9,0,0,1-1-1.93C200.59,360.14,201.24,358.14,204,357.24Z"/><path class="cls-92" d="M1118.91,428c3.7,1.35,5.16,3.49,5.06,6.76-.42,13.93-.8,27.86-1.24,41.78-.12,3.72-.38,7.43-.59,11.33h-2.55C1120.26,467.88,1123.77,448,1118.91,428Z"/><path class="cls-93" d="M881.2,504.08V492.51l26.63,7.12Z"/><path class="cls-94" d="M189.27,406.4c.76,2.43-.15,3.5-2.68,3.81s-4.68,3.68-4.14,6.34c.11.52.17,1,.32,1.54.29,1,.63,2,1,2.93l2.58-1.08c.54-.22,1.16-.75,1.61-.63,5,1.34,9.84,7.26,6.23,12.67-1.76,2.65-3.6,4.7-7,4.91-1,.06-2,.86-3,1.33l0,.91,7.07,1.6v1.07c-6.25,1.6-12.3,4-18.93,4.07-3.74-.19-7.64.33-11-1.67a5.54,5.54,0,0,1-2.61-3.43c-.16-1.52,1.33-2.22,3-1.94.52.09,1.15-.53,2-.94-3.47-1.44-4-3.16-2.66-6.33s2.42-6.61,4-9.77a14.4,14.4,0,0,1,3.78-5c4-3.19,4.47-8.25,6.81-12.31.24-.43-.45-1.74-1-2.25-2.51-2.13-2.51-3.14.07-5a14.8,14.8,0,0,0,2.14-2.32c.93-1,1.83-2.12,2.79-3.14,1.29-1.36,2.56-.88,3.22.5a37.08,37.08,0,0,1,2.58,6.93c.17.68-1,1.67-1.46,2.54-.28.5-.49,1-.73,1.56.52.17,1.14.61,1.55.47C187.21,402.83,187.56,405.81,189.27,406.4Zm-16.71,20.83c2.26.73,3.32.57,5.47-2.07,1.18-1.45,3.64-3.23.43-5.25-.15-.09.06-.66,0-1-.36-1.5-.76-3-1.19-4.65-7.23,2.94-10.63,8.74-14.31,14.19-1,1.48-.32,3.21,1.2,4.15.75.48,2.27.88,2.72.49A79.44,79.44,0,0,0,172.56,427.23Z"/><path class="cls-1" d="M1090.46,436.13a240.65,240.65,0,0,0-2.51,52.52l-83.79,2.89-.14-.72a81,81,0,0,0,8.72-3.2c7.56-3.75,15.2-7.41,22.42-11.76,7.52-4.53,14.64-9.75,21.85-14.78,5.06-3.53,10-7.18,15-10.88C1078.14,445.59,1084.23,440.87,1090.46,436.13Z"/><path class="cls-95" d="M172.56,427.23a79.44,79.44,0,0,1-5.7,5.88c-.45.39-2,0-2.72-.49-1.52-.94-2.2-2.67-1.2-4.15,3.68-5.45,7.08-11.25,14.31-14.19.43,1.65.83,3.15,1.19,4.65.08.32-.13.89,0,1,3.21,2,.75,3.8-.43,5.25C175.88,427.8,174.82,428,172.56,427.23Z"/></g></g></svg>