<svg xmlns="http://www.w3.org/2000/svg" viewBox="0 0 1440 861.25"><defs><style>.cls-1{fill:#ad3b2e;}.cls-2{fill:#fad7b8;}.cls-3{fill:#c2d4ed;}.cls-4{fill:#dcdcdc;}.cls-5{fill:#956945;}.cls-6{fill:#6f728c;}.cls-7{fill:#4a61ac;}.cls-8{fill:#c48484;}.cls-9{fill:#f4b272;}.cls-10{fill:#c1d3ec;}.cls-11{fill:#c4c9d4;}.cls-12{fill:#f5b273;}.cls-13{fill:#c2d3ed;}.cls-14{fill:#f0ab6b;}.cls-15{fill:#e08524;}.cls-16{fill:#98cd81;}.cls-17{fill:#eeac6e;}.cls-18{fill:#e9a160;}.cls-19{fill:#231e1e;}.cls-20{fill:#d67828;}.cls-21{fill:#d77929;}.cls-22{fill:#2b1f1d;}.cls-23{fill:#fac280;}.cls-24{fill:#76a566;}.cls-25{fill:#95c97f;}.cls-26{fill:#3e2918;}.cls-27{fill:#6e9a5f;}.cls-28{fill:#f2d0b3;}.cls-29{fill:#c97229;}.cls-30{fill:#493220;}.cls-31{fill:#7cae6b;}.cls-32{fill:#6e9a5e;}.cls-33{fill:#88be75;}.cls-34{fill:#e22124;}.cls-35{fill:#d97927;}.cls-36{fill:#679159;}.cls-37{fill:#6e708a;}.cls-38{fill:#27282a;}.cls-39{fill:#c8732b;}.cls-40{fill:#7db06c;}.cls-41{fill:#de9a5c;}.cls-42{fill:#241e21;}.cls-43{fill:#7bad6a;}.cls-44{fill:#dc7723;}.cls-45{fill:#bdcfe7;}.cls-46{fill:#392f25;}.cls-47{fill:#1c1e21;}.cls-48{fill:#d28a4a;}.cls-49{fill:#333134;}.cls-50{fill:#7cab6a;}.cls-51{fill:#343433;}.cls-52{fill:#d98e4c;}.cls-53{fill:#42464e;}.cls-54{fill:#e29a59;}.cls-55{fill:#935c2f;}.cls-56{fill:#37302b;}.cls-57{fill:#412925;}.cls-58{fill:#352314;}.cls-59{fill:#7eb16c;}.cls-60{fill:#d07629;}.cls-61{fill:#6d985e;}.cls-62{fill:#689159;}.cls-63{fill:#57794b;}.cls-64{fill:#e87e23;}.cls-65{fill:#5f8451;}.cls-66{fill:#d57829;}.cls-67{fill:#243122;}.cls-68{fill:#422d1c;}.cls-69{fill:#4a6740;}.cls-70{fill:#d98942;}.cls-71{fill:#ac9d91;}.cls-72{fill:#ce7427;}.cls-73{fill:#432d1a;}.cls-74{fill:#81b56f;}.cls-75{fill:#df995b;}.cls-76{fill:#56774a;}.cls-77{fill:#8d5427;}.cls-78{fill:#583a21;}.cls-79{fill:#6d995e;}.cls-80{fill:#e6a66a;}.cls-81{fill:#c9ac94;}.cls-82{fill:#574231;}.cls-83{fill:#435c3b;}.cls-84{fill:#515560;}.cls-85{fill:#35383e;}.cls-86{fill:#26282c;}.cls-87{fill:#544131;}.cls-88{fill:#e39d61;}.cls-89{fill:#010101;}.cls-90{fill:#aaadb6;}.cls-91{fill:#020201;}.cls-92{fill:#17110a;}.cls-93{fill:#a4d288;}.cls-94{fill:#b0d790;}.cls-95{fill:#231b13;}.cls-96{fill:#4f3e2e;}.cls-97{fill:#0f0b07;}.cls-98{fill:#b27b4c;}.cls-99{fill:#f5a052;}.cls-100{fill:#f1a965;}.cls-101{fill:#f4b172;}.cls-102{fill:#e0944f;}.cls-103{fill:#b46525;}.cls-104{fill:#d9995e;}.cls-105{fill:#754925;}.cls-106{fill:#623b1c;}.cls-107{fill:#e4a264;}.cls-108{fill:#e5a061;}.cls-109{fill:#e5a162;}.cls-110{fill:#a25e27;}.cls-111{fill:#dd9859;}.cls-112{fill:#5c4837;}.cls-113{fill:#352517;}.cls-114{fill:#4d3a29;}.cls-115{fill:#86bb73;}.cls-116{fill:#30422b;}.cls-117{fill:#9f1c1f;}.cls-118{fill:#c31f25;}.cls-119{fill:#eaa96b;}.cls-120{fill:#babfc9;}.cls-121{fill:#2d241c;}.cls-122{fill:#eba96b;}.cls-123{fill:#1f1711;}.cls-124{fill:#46372a;}.cls-125{fill:#534132;}.cls-126{fill:#c38956;}.cls-127{fill:#403429;}.cls-128{fill:#72a062;}.cls-129{fill:#251e17;}.cls-130{fill:#392d23;}.cls-131{fill:#8e6744;}.cls-132{fill:#533f2f;}.cls-133{fill:#332820;}</style></defs><g id="Layer_2" data-name="Layer 2"><g id="Layer_1-2" data-name="Layer 1"><path d="M1440,861.25H0V0H1440ZM871.61,513.73l-6.51-.15-4.39-1.24c.42-2,1.24-4.07,1.21-6.09-.21-13.43-.44-26.87-1-40.29-.48-11.64-1.36-23.27-2.12-34.89-.34-5.2-.66-5.75-6.07-5.73-8.29,0-16.58.47-24.86,1-1.13.06-2.2,1.4-3.29,2.15a31.86,31.86,0,0,0-1,5.05c-.15,4.06,0,8.14-.1,12.21a33.18,33.18,0,0,1-.94,5.05c-.64-3-1.27-6-1.91-9.06a12.67,12.67,0,0,0-3.32,5.79c-1.26,5-2.26,10-3.36,15a7.69,7.69,0,0,1-5.28,5.24c-1.58.11-3.15.29-4.73.3-7.55,0-15.11,0-22.67.07a39.85,39.85,0,0,0-5.27.68c.33,5.43.61,10.12.89,14.81-.38.75-.76,1.5-1.15,2.25-.31-2.42-2.4-2.52-4-2.64-3.48-.27-7.08-.66-10.47-.06-7.26,1.28-14-.64-20.91-2.24-4.11-1-8.43-1.74-12.12-3.65-6.58-3.41-11.67-8.1-12.18-16.54-.44-7.55-2-15-3-22.57q-.74-5.49-1.25-11c-.28-3-.35-6-.63-9-.41-4.22-1.71-5.42-6-5.45-6.35,0-12.7-.07-19.05.08a60.89,60.89,0,0,0-7.07,1c.52,6.54.95,12.49,1.47,18.43.4,4.66-2.48,7.75-7.15,7.61-9.9-.29-19.79-.45-29.68-.86-4.35-.18-8.68-.85-13.61-1.37V424.6l-23.28-.43-1.23-7.36a18.59,18.59,0,0,1-.83-4c.16-9.68.37-19.37.71-29.05.36-10.26.9-20.51,1.31-30.77.19-4.85-.49-9.52-2.89-13l-3.55-.92c-.09-3.69,0-7.4-.3-11.08-.4-5.25-1.3-10.48-1.55-15.74-.34-7.53-.81-8.43-7.94-11.16a19.82,19.82,0,0,1-2-1c.09-12.7,2.48-25.24,1.71-38.06-5.06-.12-9.58-1.2-14.12.31v13.22c4.14.66,4.65,3.5,4.4,7a39.44,39.44,0,0,0,0,9.53c1,5.66-1.76,9.46-6,11.7s-4.82,5.54-4.64,9.56q.45,10.06.86,20.12l-1.53,2.64H561.2c0,3,0,5.27,0,7.54.16,13.23.19,26.48.53,39.71.36,13.93,1,27.85,1.55,41.78l.93,6.47a81.46,81.46,0,0,0,.51,16.41l6.95,1.77-3.54,1.17-2.41,0a22.53,22.53,0,0,0-1.51,3c-.49,1.42-.75,2.92-1.12,4.38-.63-2.31-1.27-4.62-2-7.16h-22.5c0,3.67.14,7,0,10.36-.17,3.14-1.35,5.82-4.52,7.16-.94.4-1.82.93-2.55,1.31-1.21,6.42-1.21,6.42.68,12.15,1.58,4.76.79,7.19-3.35,9.95-1.9,1.27-3.88,2.41-6,3.74,0,8.24-.07,16.51,0,24.78a11.53,11.53,0,0,1-3.41,8.58,31.49,31.49,0,0,0-2,2.57,56.39,56.39,0,0,1,6.93-1.11c5.47-.17,10.94-.23,16.4-.1,7.59.17,15.18,1,22.76.76,12.88-.34,25.74-1.25,38.61-1.92,1.92-.07,3.83-.21,5.75-.2q27.13.11,54.29.25h5.3c8.85,0,17.72.38,26.53-.15,10.4-.62,20.76-1.3,31.19-1,5.8.2,11.62-.55,17.44-.81q15.87-.71,31.75-1.36l3.68,0q22.49-.45,45-.89c2.42,0,2.88-1.57,3-3.51a22.36,22.36,0,0,1,3.08-.61q20.07-1.22,40.14-2.35l11.18-.92,5.82-.09,18.05-2,32-5.44.43,0,.43-.05,1.07,2.4c0,1.57,0,3.15,0,4.72a27,27,0,0,0,0,14.48,6.84,6.84,0,0,0,2.88,6c3.51-.22,3.65-3.13,4.74-5.22a23.38,23.38,0,0,0,.94-4.45c.1-5.75.2-11.5-.07-17.23-.11-2.29,1.07-3,2.66-3.77l8.93-.3,2.17-3c1.19,7.06,2.15,14.17,3.71,21.15.53,2.33.29,5.61,4.28,7.26-.51-4.63-1-8.6-1.38-12.56l-1-12.08-.21-4.93c-.18-5.45-.54-10.9-.46-16.35,0-2.41-.5-4-2.61-5.2a34.84,34.84,0,0,1-3-2.09l.79-.75,4.83,2c.25-7-3.4-11.39-9.69-11.52a77.44,77.44,0,0,0-9,.79l-3.13.19c-3.22.24-3.11,2.68-3.26,5l-.83,8.79-1.35,3.21L936,488.13c-4.57,5.34-9.28,10.54-15.06,14.63a5.39,5.39,0,0,0-1.48.51c-8,5.36-16.79,7.71-26.3,8.25-3.81.21-7.58,1.22-11.37,1.87Zm-657-154.44-1.09-1a2.06,2.06,0,0,0,.12-.78c2.38-.54,3.77-2.07,4.8-4.66l-4.93-1.89-2.94-1.33-.36-2q.11-8,.22-15.89h0l2.09-3.2,1.33-3.17-6.66-4.78-5.34,1.6c-5.78,1.3-6,1.61-5.52,7.39.11,1.38.06,2.78.08,4.16l0,0L195.09,340l-.49,2.34c.21,3.22-2.64,4.17-4.46,5.64v12.37l.09,9.57c0,2.48,0,5,0,7.44l-2.28,18.05q-1.58,8-3.14,16-1.63,4.25-3.25,8.48l-.06-.12c-2.32,4.31-4.79,8.54-6.88,12.95-.66,1.38-.91,2.68-2.2,3.91-3.05,2.91-1.27,8.05,2.9,8.84a62.61,62.61,0,0,0,6.85.73c13.56,1.07,26.75-1.56,40-4,1.42-.27,2.72-1.16,4.74-2.06l-4.53-3.05a23,23,0,0,0-4.45-13l-7.36-17.14a.85.85,0,0,0-.14-.8l.18-8.17,3-7.82c2-.81,2.26-2.44,2-4.31l.27-2.79c2.47-.59,2.46-2.7,2.33-4.46-.11-1.58.14-2.64,1.5-3.39.65-2.06,1.3-4.11,2-6.31,2.42.6,4.52.2,4.63-3.21.92-4.58,3.37-9,1.56-14.11-4.09.9-6,3.74-7.74,6.77Zm1035.19,142.6c-.19,2.95-.51,5.91-.52,8.86,0,1.85,0,4.08,3.32,3.35V494.75c-4-.07-4-.07-3.19,4.89ZM181.62,300.82c.58,2.22-1.24,5.19,2.06,6.57a1.35,1.35,0,0,0,.21.87c.35,2.12.7,4.23,1,6.35.35,12.41,2.42,25.17,5.11,28.82,1.26-6.85-.18-13.06.16-19.21l.12-18.13c0-3.55,0-7.09,0-10.64-.22-2.46,2-5-.17-7.39-1-5.85-3.87-9.86-10.32-11C178.88,285.32,178.94,293.16,181.62,300.82ZM1254.2,440.06l-2.34-3.07c-1.36-3.31-2.23-6.95-4.19-9.86-3.33-5-7.7-9-13.85-10.42-4.43-2.16-8.57-1-12.63,1.08l-5.51,5.28c-1.7-.7-3.42-2-5,.16-6.55,3.87-13.19,7.59-19.6,11.67-9.55,6.06-18.93,12.39-28.38,18.61-2.62,1.44-5.32,2.77-7.85,4.35-22.39,14-46.44,24.73-70.63,35.13a20.86,20.86,0,0,1-6.75,1.24c-10.94.74-21.88,1.51-32.84,2-16.29.72-32.44.39-48.28-4.66-9-2.87-18.47-4.47-27.9-6.69V505.8c9.11,1.25,17.31-.54,25.47-2.84l13.47-2c2.65-.06,5.3,0,7.94-.2q25.38-1.66,50.75-3.43c4.93-.33,9.91-.37,14.8-1,13.89-1.9,27.83-2.06,41.81-2,20,.1,40,.12,59.95-.07,9.18-.08,18.36-.73,27.55-1.12l2.44,2.38c1.08,10,2.18,20,3.22,30.06.18,1.73.68,3.5,2.46,3.57a6.5,6.5,0,0,0,4.62-1.61,10.24,10.24,0,0,0,2.46-5.66c.54-9.17.72-18.36,1-27.55l-1-2a1.22,1.22,0,0,1,.87-.18,18.08,18.08,0,0,0,10,1l17.27-1c.29-2.62.53-4.84.78-7.07l1,7.71a16.48,16.48,0,0,0,9.69-.36l26.9-1.27q25.59-1.2,51.18-2.43a14.31,14.31,0,0,0,4.11-.78c.34-.13.29-1.37.42-2.1l-.5-3.31c12.86-.27,25.55-1.51,37.85-6.18-.54-1.4-.92-2.37-1.3-3.34-.5-3.39-.72-3.65-3.68-2.3-5.26,2.39-10.83,3.11-16.48,3.24-10.23.24-20.47.22-30.7.47-10,.25-19.77,0-28.79-5-16.52-8.35-31.58-19-46.72-29.55ZM357,464.59c1.33,2.28.19,5.56,3.06,7.82,2.78-8.91,2.84-17.6,1.95-26.14a8,8,0,0,0-8-7.12h-2.44A28.43,28.43,0,0,0,346,438c-6-.06-12,.28-18,.21s-7.39,1.37-6.73,7.5c.72,6.62,1.42,13.26,1.62,19.91s.84,12.93,5.15,18.38a23.36,23.36,0,0,1,3,5.55,13.08,13.08,0,0,1,.44,3.54c-3,.62-4.35-.61-5.13-2.91-.84-2.5-1.68-5-2.7-7.44-1.73-4.1-5.13-6-9.76-5.53s-7.65,2.9-8.44,7.31-1.08,9.09-2,13.56c-1.34,6.57-3.28,12.82-8.5,17.7s-11.66,7-18.65,7.55h-2.87c-4.4-4.43-8.63-9-13.29-13.16-1.5-1.33-4.08-1.81-6.22-2-4.67-.34-9.45.53-14-1.36-.33-.78-.46-2-1-2.27-4.49-2.29-5.14-6.4-5.31-10.74-.09-2.42,0-4.85,0-7.49a20.66,20.66,0,0,0-3.43-.53c-10.2.26-20.41.62-30.61.84a17.19,17.19,0,0,1-4-.87,28.64,28.64,0,0,1,5-.94c7.77-.08,15.56.07,23.34,0a32.12,32.12,0,0,0,5.56-1,7.77,7.77,0,0,0,2.25-.77c.27-.19,0-1.1,0-1.68,2.89-2.14.8-4-.48-5.67-2-2.64-4.5-5-6.42-7.68-3.65-5.17-5-10.83-2.73-17,.45-1.21.68-2.51,1.17-4.33-14.38,1.65-28.24.3-42,2.53.32,3.94.72,7.27.83,10.6.24,7.23.51,14.47.41,21.71-.06,4.32-1.17,5.13-5.49,5.33-2.44.11-4.88,0-6.19,0-4.5,5.64-8.17,10.35-11.95,15-3.31,4-5.74,8.87-10.53,11.62-1.82,1.05-1.3,2.84-.16,4.12a10.48,10.48,0,0,0,7.93,3.54c5,.17,10.11.22,14.89,2.15,0,.33,0,.66,0,1-2.11,0-4.23.14-6.34,0-8.75-.42-16.9-3.42-25.18-5.92-9.8-3-19.58-6.07-29.53-8.4-6-1.4-12.28-1.3-18.4-2.13-7.83-1.06-14.63,1.41-20.92,5.72a4.51,4.51,0,0,0-1.86,2.88c-.24,3.12-.09,6.28-.09,9.56a44.11,44.11,0,0,0,5.63,1.3c11.43,1,22.86,2.13,34.3,2.81,8.65.52,17.33.36,26,.66,12.71.44,25.42,1.14,38.14,1.52,4.41.13,8.83-.55,13.25-.54,19.65,0,39.28-.45,58.81-2.62,9.46-1.05,18.8-3.06,28.2-4.64l5.33.64c9.72-.33,19.48-.17,29.15-1.09,19.2-1.82,38.37-3.7,57.67-4.3,23-.73,46-2,68.94-3.12,10.77-.55,21.52-1.45,32.28-2.2l2.16.14c.92,6.25,1.84,12.49,2.8,19l44-1.56c-.17-2.26-.24-4.51-.53-6.74-.59-4.55-1.64-9.07-1.9-13.64-.55-9.71-.85-19.44-1-29.17-.27-14.87-.27-29.75-.53-44.63q-.48-27.31-1.21-54.63c-.3-11.46-.78-22.91-1.18-34.54H494.23v22.61l.06,70.63c-.08,2.11,0,4.23-.27,6.32a35.3,35.3,0,0,1-1.31,4.86c-.36-4.69-1-9.38-1-14.08-.32-26.88-.46-53.76-.78-80.64,0-3.1-.88-6.2-1.35-9.33-6.63-1.43-12.65-.16-19.47-.26,0,4.06-.15,7.37,0,10.67.88,17.49,2.38,35,2.65,52.45.33,22.1,1,44.24-1.31,66.29-.54,5.17-.14,10.7-4,15h-2c-1.12-1.56-2.33-3.06-3.33-4.68-3.42-5.54-6.85-11.06-10.08-16.71-1.49-2.61-3.1-3.77-6.32-3.23a82.9,82.9,0,0,1-14.23,1.26,31,31,0,0,1-10.8-1.8c-3.9-1.49-7.35-4.14-11.06-6.18-6.92-3.82-9.06-10.31-10.07-17.53-.85-6.06-1.84-12.09-2.82-18.45H355.29c-.63,3.39-1.23,6.63-1.81,9.79C363,439.14,366,443,365.9,451.51a133.63,133.63,0,0,1-.83,14.29,19.49,19.49,0,0,1-2.46,6.87c-1.6,2.91-3.75,3-5.76.38-.74-1-.74-2.54-1.08-3.84Zm225.22-215.7c-1.5-.69-2.84-1.68-4.29-1.9a4.22,4.22,0,0,0-4.69,4.92c.65,2.67,7.51,8.28,10.29,8.4,4.64.21,9.46-5.65,8.3-10.1-.71-2.72-2.36-3.85-5.1-3.18A31.52,31.52,0,0,0,582.22,248.89Z"/><path class="cls-1" d="M606.83,424.17l23.28.43v12.95c4.93.52,9.26,1.19,13.61,1.37,9.89.41,19.78.57,29.68.86,4.67.14,7.55-2.95,7.15-7.61-.52-5.94-.95-11.89-1.47-18.43a60.89,60.89,0,0,1,7.07-1c6.35-.15,12.7-.13,19.05-.08,4.29,0,5.59,1.23,6,5.45.28,3,.35,6,.63,9q.52,5.52,1.25,11c1,7.53,2.56,15,3,22.57.51,8.44,5.6,13.13,12.18,16.54,3.69,1.91,8,2.69,12.12,3.65,6.86,1.6,13.65,3.52,20.91,2.24,3.39-.6,7-.21,10.47.06,1.62.12,3.71.22,4,2.64.05,1.76.1,3.52.14,5.28.25,10.21.46,20.42.78,30.63a4.47,4.47,0,0,1-2.26,4.37q-15.87.67-31.75,1.36c-5.82.26-11.64,1-17.44.81-10.43-.35-20.79.33-31.19,1-8.81.53-17.68.14-26.53.15h-5.31a44.44,44.44,0,0,0-5.69-.78c-13.8-.08-27.6-.06-41.4-.07h-5.31c-.51-1-.77-1.31-.79-1.62-.77-13.06-1.5-26.11-2.26-39.16-.32-5.64-.71-11.28-1-16.92a37.53,37.53,0,0,1-.21-6.77c1.26-10,2.12-20.05.87-30.14Z"/><path class="cls-2" d="M466.42,514.39c-10.76.75-21.51,1.65-32.28,2.2-23,1.16-45.95,2.39-68.94,3.12-19.3.6-38.47,2.48-57.67,4.3-9.67.92-19.43.76-29.15,1.09l-2-1.77c7-.6,13.31-2.57,18.65-7.55s7.16-11.13,8.5-17.7c.91-4.47,1.18-9.06,2-13.56s3.82-6.88,8.44-7.31,8,1.43,9.76,5.53c1,2.43,1.86,4.94,2.7,7.44.78,2.3,2.11,3.53,5.13,2.91a13.08,13.08,0,0,0-.44-3.54,23.36,23.36,0,0,0-3-5.55c-4.31-5.45-5-11.75-5.15-18.38s-.9-13.29-1.62-19.91c-.66-6.13.63-7.58,6.73-7.5s12-.27,18-.21a28.43,28.43,0,0,1,5.51,1.14c-.78,10.33,1.86,20.18,4.22,30.07.34,1.3.34,2.86,1.08,3.84,2,2.65,4.16,2.53,5.76-.38a19.49,19.49,0,0,0,2.46-6.87,133.63,133.63,0,0,0,.83-14.29c.12-8.47-2.95-12.37-12.42-15.84.58-3.16,1.18-6.4,1.81-9.79h41.45c1,6.36,2,12.39,2.82,18.45,1,7.22,3.15,13.71,10.07,17.53,3.71,2,7.16,4.69,11.06,6.18a31,31,0,0,0,10.8,1.8,82.9,82.9,0,0,0,14.23-1.26c3.22-.54,4.83.62,6.32,3.23,3.23,5.65,6.66,11.17,10.08,16.71,1,1.62,2.21,3.12,3.33,4.68.59,6.07,1.23,12.14,1.73,18.22A9.5,9.5,0,0,1,466.42,514.39Z"/><path class="cls-3" d="M602.19,529.32c-12.87.67-25.73,1.58-38.61,1.92-7.58.2-15.17-.59-22.76-.76-5.46-.13-10.93-.07-16.4.1a56.39,56.39,0,0,0-6.93,1.11,31.49,31.49,0,0,1,2-2.57,11.53,11.53,0,0,0,3.41-8.58c-.11-8.27,0-16.54,0-24.78,2.15-1.33,4.13-2.47,6-3.74,4.14-2.76,4.93-5.19,3.35-9.95-1.89-5.73-1.89-5.73-.68-12.15.73-.38,1.61-.91,2.55-1.31,3.17-1.34,4.35-4,4.52-7.16.18-3.34,0-6.69,0-10.36h22.5c.69,2.54,1.33,4.85,2,7.16.35,1,.63,2,1.06,2.94,2.29,5.08,6.2,7,11.47,5.27a5.22,5.22,0,0,0,2.84-2.65,10.64,10.64,0,0,0-6.79-14.07L564.73,448a81.46,81.46,0,0,1-.51-16.41,6.71,6.71,0,0,0,1.3-1.43c5.71-11.82,9.62-24.32,13.46-36.83l6.51-20.17h1.91q.54,7.56,1.09,15.14c-.13,6.08.18,12.09,2.47,17.83,2.84,8.31,5.64,16.65,13.78,22v15.23c-.38,4.22-1.12,8.44-1.08,12.65.13,12.9.55,25.8.87,38.69.08,3.36.13,6.73.32,10.09.42,7.73.92,15.46,1.37,23Z"/><path class="cls-4" d="M494.29,441.9l-.06-70.63V348.66h14.82c.4,11.63.88,23.08,1.18,34.54q.72,27.32,1.21,54.63c.26,14.88.26,29.76.53,44.63.17,9.73.47,19.46,1,29.17.26,4.57,1.31,9.09,1.9,13.64.29,2.23.36,4.48.53,6.74l-44,1.56c-1-6.55-1.88-12.79-2.8-19,0-1.38.14-2.78.05-4.16-.36-5.72-.79-11.44-1.19-17.16,3.86-4.33,3.46-9.86,4-15,2.3-22.05,1.64-44.19,1.31-66.29-.27-17.49-1.77-35-2.65-52.45-.17-3.3,0-6.61,0-10.67,6.82.1,12.84-1.17,19.47.26.47,3.13,1.31,6.23,1.35,9.33.32,26.88.46,53.76.78,80.64.05,4.7.67,9.39,1,14.08.82,8.31.39,16.77,2.54,25.65,1-1.15,1.77-1.69,1.74-2.16C496.14,465,495.21,453.45,494.29,441.9Z"/><path class="cls-5" d="M171,523.22c-4.78-1.93-9.88-2-14.89-2.15a10.48,10.48,0,0,1-7.93-3.54c-1.14-1.28-1.66-3.07.16-4.12,4.79-2.75,7.22-7.57,10.53-11.62,3.78-4.62,7.45-9.33,11.95-15,1.31,0,3.75.09,6.19,0,4.32-.2,5.43-1,5.49-5.33.1-7.24-.17-14.48-.41-21.71-.11-3.33-.51-6.66-.83-10.6,13.79-2.23,27.65-.88,42-2.53-.49,1.82-.72,3.12-1.17,4.33-2.28,6.2-.92,11.86,2.73,17,1.92,2.71,4.39,5,6.42,7.68,1.28,1.68,3.37,3.53.48,5.67l-13-4.89.74-1.19c-3.62-.59-7.24-1.71-10.85-1.67-5.77.07-11.57.89-16.62,4a6.66,6.66,0,0,0-2.81,4c-.37,2,1.5,2.93,3.3,3.41,1,.28,2,.51,3,.76a17.19,17.19,0,0,0,4,.87c10.2-.22,20.41-.58,30.61-.84a20.66,20.66,0,0,1,3.43.53c0,2.64-.08,5.07,0,7.49.17,4.34.82,8.45,5.31,10.74.58.3.71,1.49,1,2.27-1.53,4.27-4.32,6.42-9,5.44a7.67,7.67,0,0,0-2.06.16c-4.77-2-8.07,2.42-12.3,2.78-7.35,5.69-16.65,4.79-25,7.26-3.39,1-7.34.08-10.82.94A20.32,20.32,0,0,1,171,523.22Z"/><path class="cls-6" d="M824.58,428.45c1.09-.75,2.16-2.09,3.29-2.15,8.28-.49,16.57-.93,24.86-1,5.41,0,5.73.53,6.07,5.73.76,11.62,1.64,23.25,2.12,34.89.56,13.42.79,26.86,1,40.29,0,2-.79,4.06-1.21,6.09-10.69-.14-21.34,2.23-32.8.85C827.71,484.74,824.17,456.69,824.58,428.45Z"/><path class="cls-7" d="M228.88,512.44a7.67,7.67,0,0,1,2.06-.16c4.72,1,7.51-1.17,9-5.44,4.53,1.89,9.31,1,14,1.36,2.14.16,4.72.64,6.22,2,4.66,4.13,8.89,8.73,13.29,13.16l-.42,1.13c-9.4,1.58-18.74,3.59-28.2,4.64-19.53,2.17-39.16,2.66-58.81,2.62-4.42,0-8.84.67-13.25.54-12.72-.38-25.43-1.08-38.14-1.52-8.67-.3-17.35-.14-26-.66-11.44-.68-22.87-1.8-34.3-2.81a44.11,44.11,0,0,1-5.63-1.3c0-3.28-.15-6.44.09-9.56a4.51,4.51,0,0,1,1.86-2.88c6.29-4.31,13.09-6.78,20.92-5.72,6.12.83,12.43.73,18.4,2.13,10,2.33,19.73,5.44,29.53,8.4,8.28,2.5,16.43,5.5,25.18,5.92,2.11.1,4.23,0,6.34,0,7.51,1.46,15,2,22.54.13,5.3-1.34,10.69-2.37,15.91-4,6.32-1.93,12.5-4.3,18.72-6.55C228.56,513.7,228.66,512.91,228.88,512.44Z"/><path class="cls-8" d="M776.94,483.56c-.29-4.69-.57-9.38-.9-14.81a39.85,39.85,0,0,1,5.27-.68c7.56-.1,15.12,0,22.67-.07,1.58,0,3.15-.19,4.73-.3,3.53.05,7.07-.05,10.58.18,3.81.26,4.24.65,4.43,4.41.37,7.06.47,14.14.78,21.2.31,7.42.74,14.83,1.11,22.24.06.37.13.74.19,1.11l.76,1c.08.46.16.92.23,1.38-.24.83-.49,1.66-.74,2.49-.08,1.94-.54,3.47-3,3.51q-22.49.42-45,.89a21.11,21.11,0,0,1,.08-2.64c1.75-12.15-.82-24.24-.53-36.37A16.1,16.1,0,0,0,776.94,483.56Z"/><path class="cls-9" d="M1162.67,453.51c9.45-6.22,18.83-12.55,28.38-18.61,6.41-4.08,13-7.8,19.59-11.67l1.74.42c-1.44,5.2-2.85,10.32-4.26,15.44-.22.48-.63,1-.62,1.44.14,12.91.33,25.83.49,38.74,0,3.86,0,7.71,0,12.22-39,3-77.69,1.43-117.4,1.85a16,16,0,0,1,2.12-1.84q16.56-7.78,33.14-15.54c11.71-5.51,23.13-11.54,33.7-19A21.16,21.16,0,0,0,1162.67,453.51Zm41.39-18.76c-5.83,4.23-11.09,8.34-16.64,12-8.82,5.87-17.82,11.46-26.75,17.15-14.89,9.48-29.78,19-47,23.9-1.29.37-2.51,1-3.77,1.45.06.35.11.69.16,1l91.93-3A246.93,246.93,0,0,1,1204.06,434.75Z"/><path class="cls-10" d="M563.29,425.09c-.53-13.93-1.19-27.85-1.55-41.78-.34-13.23-.37-26.48-.53-39.71,0-2.27,0-4.53,0-7.54h8.07l1.54,2.61,4.37,2.34,7.72.76c1,5.19,1.93,9.74,2.83,14.3q-.6,5.9-1.19,11.8c-1.47,5.39-2.93,10.79-4.44,16.17-.65,2.35-1.4,4.67-2.11,7-1.83,5.07-3.69,10.13-5.49,15.21-1,2.78-1.81,5.62-2.81,8.4-1.46,4-3,8-4.61,12.28Z"/><path class="cls-11" d="M570.8,333.42q-.42-10.05-.86-20.12c-.18-4,.28-7.28,4.64-9.56s7-6,6-11.7a39.44,39.44,0,0,1,0-9.53c.25-3.5-.26-6.34-4.4-7V262.29c4.54-1.51,9.06-.43,14.12-.31.77,12.82-1.62,25.36-1.71,38.06a19.82,19.82,0,0,0,2,1c7.13,2.73,7.6,3.63,7.94,11.16.25,5.26,1.15,10.49,1.55,15.74.28,3.68.21,7.39.3,11.08l-1.21-.09c.32-4.48-.92-6.23-5.34-6.28-5.24-.05-10.5.43-15.75.63C575.64,333.42,573.22,333.4,570.8,333.42Z"/><path class="cls-12" d="M1257.18,439.93c15.14,10.54,30.2,21.2,46.72,29.55,4,4,9.17,6,14.51,6.75a151.37,151.37,0,0,0,44.22-.49c6.95-1.05,13.95-1.79,20.92-2.67.38,1,.76,1.94,1.3,3.34-12.3,4.67-25,5.91-37.85,6.18l.5,3.31q-8.7.62-17.39,1.25c-12.47.92-24.94,2-37.42,2.76-9.14.59-18.31.89-27.46,1.38a16.6,16.6,0,0,0-3,.76h-6c.6-5.6,1.08-10.46,1.64-15.31a96.77,96.77,0,0,0-.58-27.19C1257.27,446.35,1257.22,443.14,1257.18,439.93Zm7.22,46.95c9,.38,58.84-2.64,63.79-4-25.15-5.09-46.3-17.3-65.84-33.29C1263.05,462.32,1263.71,474.4,1264.4,486.88Z"/><path class="cls-13" d="M599.14,339l1.21.09,3.55.92c2.4,3.47,3.08,8.14,2.89,13-.41,10.26-.95,20.51-1.31,30.77-.34,9.68-.55,19.37-.71,29.05a18.59,18.59,0,0,0,.83,4v9.27c-2-2-3.55-3-4.34-4.43-2.87-5.16-5.5-10.47-8.22-15.72-2-6-2.26-12.29-2.64-18.55-.18-3-.45-5.92-.68-8.89q-1.14-10.17-2.26-20.34l-.93-8.31c.48-2.58-1.06-5.56,1.53-7.73C591.64,340.68,596,342.06,599.14,339Z"/><path class="cls-14" d="M1215.68,423.07l5.51-5.28c4.24-.56,5.73,2.66,6.55,5.61a63.93,63.93,0,0,1,2.37,14c.2,4.71-.7,9.45-1.06,14.19-.6,8.11-1.15,16.22-1.72,24.34l-1.11,16.19a1.22,1.22,0,0,0-.87.18h-13.09c-.58-8.18-1.36-15.7-1.57-23.24-.25-8.8.25-17.62,0-26.41-.2-5.87,1.41-11.09,3.81-16.24A35.82,35.82,0,0,0,1215.68,423.07Zm5.52,63.31c0-1.76,0-3.32,0-4.89.07-4.77,0-9.55.26-14.32.49-10.92,1.19-21.84,1.59-32.77.1-2.71-.62-5.45-1-8.18l-1.14-.16c-1.35,3.11-3,6.11-3.2,9.68-.53,8.62-1.36,17.24-1.46,25.87-.08,7.4.66,14.81,1.08,22.21C1217.48,485.73,1217.85,487.5,1221.2,486.38Z"/><path class="cls-15" d="M1162.67,453.51a21.16,21.16,0,0,1-3.11,3.41c-10.57,7.5-22,13.53-33.7,19q-16.56,7.79-33.14,15.54a16,16,0,0,0-2.12,1.84c39.71-.42,78.42,1.12,117.4-1.85,0-4.51,0-8.36,0-12.22-.16-12.91-.35-25.83-.49-38.74,0-.48.4-1,.62-1.44.05,2.83.07,5.66.16,8.49q.51,14.31,1.06,28.61c.23,5.65.54,11.29.82,16.93-9.19.39-18.37,1-27.55,1.12-20,.19-40,.17-59.95.07-14-.07-27.92.09-41.81,2-4.89.67-9.87.71-14.8,1q-25.38,1.73-50.75,3.43c-2.64.18-5.29.14-7.94.2l6.71-2.89c-21.83-6.69-39.27-10.75-44.7-10.32.47,5.65.94,11.29,1.46,17.48,3.36-.28,6.14-.46,8.91-.74,4.72-.48,9.43-1,14.15-1.54-8.16,2.3-16.36,4.09-25.47,2.84V484.87c9.43,2.22,18.87,3.82,27.9,6.69,15.84,5.05,32,5.38,48.28,4.66,11-.48,21.9-1.25,32.84-2a20.86,20.86,0,0,0,6.75-1.24c24.19-10.4,48.24-21.09,70.63-35.13C1157.35,456.28,1160.05,455,1162.67,453.51Z"/><path class="cls-16" d="M210.34,406.11a.85.85,0,0,1,.14.8,27.18,27.18,0,0,1-3.36,4.45c-1.46,1.29-2.52,2.41-1.57,4.61,4.81,0,8,2.5,10,6.83a31.47,31.47,0,0,0,2.19,3.58c.75,4.14-.26,7.63-4,10l1.7,4.35a65.28,65.28,0,0,1-21,3.72l10.39-3.25-3.33-4.84c6.37-1.18,9.63-3.62,14.11-10.56a63.56,63.56,0,0,0-5.31-4.7c-.88-.64-2.6-1.14-3.4-.7-4.52,2.43-8.37,5.65-9.49,11-.55,2.69-1.61,3.9-4.13,3.28-1.67-.42-3.15-1.64-5.42-2.89,2.24-1.4,3.63-2.12,4.85-3.07s2.56-2.32,3.84-3.49l1.06-1.06c2.1-.2,3.21-1.35,3.12-3.47-.07-1.56.2-3.43-.55-4.61-1.36-2.12-.44-3.65.46-5.35.64-1.21,1.33-2.4,1.9-3.4L200,403.21c3.11-5.15,3-8.31-.56-11.82l-6,7.12,2.52,3.87c-2.13,6.44-4.93,12-10.1,16.14-1,.79-1.37,2.33-2,3.53h0l-2.17,1.06-.15-3.36.06.12c1.21-1.22,2.75-2.25,3.56-3.69,2.42-4.28,4.55-8.72,7-13.43-3.24-3.24-1.54-6.44,1-9.46a35.36,35.36,0,0,1,4.08-4.13c1.81-1.55,4.07-1.75,5.8-.24a11.76,11.76,0,0,1,3,4.79c1.3,3.71,2.24,7.55,3.32,11.34Z"/><path class="cls-17" d="M1226.38,494.31c-.3,9.19-.48,18.38-1,27.55a10.24,10.24,0,0,1-2.46,5.66,6.5,6.5,0,0,1-4.62,1.61c-1.78-.07-2.28-1.84-2.46-3.57-1-10-2.14-20-3.22-30.06Zm-5.48,23.37a74.22,74.22,0,0,0,1.48-20l-4.91.42c.5,5.78,1,11.15,1.41,16.51l1.08,5.55.94-.11Z"/><path class="cls-18" d="M993.89,503c-4.72.51-9.43,1.06-14.15,1.54-2.77.28-5.55.46-8.91.74-.52-6.19-1-11.83-1.46-17.48,5.43-.43,22.87,3.63,44.7,10.32l-6.71,2.89Zm-19.6-.43,26.73-4,0-.74-27.4-6.58c0,3.27,0,6.25,0,9.23A9.85,9.85,0,0,0,974.29,502.53Z"/><path class="cls-19" d="M825.61,515.73c-.37-7.41-.8-14.82-1.11-22.24-.31-7.06-.41-14.14-.78-21.2-.19-3.76-.62-4.15-4.43-4.41-3.51-.23-7-.13-10.58-.18a7.69,7.69,0,0,0,5.28-5.24c.1,1,.2,2,.3,2.81h9.23c-.3-2.72-.64-5-.78-7.2-.15-2.43-.12-4.88-.16-7.31a33.18,33.18,0,0,0,.94-5.05c.14-4.07,0-8.15.1-12.21a31.86,31.86,0,0,1,1-5.05c-.41,28.24,3.13,56.29,3.33,84.74,11.46,1.38,22.11-1,32.8-.85l4.39,1.24-.12.82-3,.31-12,.74-10.39.35Z"/><path class="cls-20" d="M1233.82,416.71c6.15,1.42,10.52,5.46,13.85,10.42,2,2.91,2.83,6.55,4.19,9.86a9.65,9.65,0,0,0-1.1,2.8c-.41,8.6-.72,17.21-1,25.82-.34,0-.67.09-1,.12,0-2.5,0-5,0-7.49v-6.13h-1v6q-.5,6-1,12c-.06,4.47-.18,8.94-.13,13.42,0,.73.72,1.46,1.11,2.2a20.34,20.34,0,0,0,1.08,3.31,11.79,11.79,0,0,0,1.79,2.11l2.25-2.16,1-6.26c.13.8.27,1.59.4,2.39-.24,2.22-.48,4.44-.77,7.06l-17.28,1a5.19,5.19,0,0,1-.48-.79c1.23-.1,2.45-.25,3.68-.31,4.87-.27,5.31-.49,5.14-5.16-.66-18.19,1.6-36.23,2.61-54.33a5.49,5.49,0,0,0-.81-3.43c-3.78-5-8.1-9.38-14.55-10.72-1-.22-2.19.33-3.29.53l-2.28-2.26Z"/><path class="cls-21" d="M940.37,474.91c.15-2.27,0-4.71,3.26-5,1.16,4.17,1.83,4.68,5.43,4.12l3.19,2.19c-.14.89-.64,1.91-.36,2.64,1,2.72,2.32,5.34,3.52,8-3.76-.91-1.6,2.14-2.23,3.33-.87-1.88-1.68-3.78-2.62-5.62a61.06,61.06,0,0,0-3.09-5.39c-.12-.19-1.1.18-1.69.29a34,34,0,0,0-1,5c-.19,3.68-.14,7.37-.18,11.05L942.8,489c-.36-1.41-.73-2.82-1.1-4.23-.39.75-1.07,1.48-1.11,2.25-.39,7.1-.67,14.21-1,21.31.24,1.05.47,2.09.71,3.13-.17,1.58-.36,3.16-.51,4.74-.56,5.79-.79,11.55,1.5,17.24,3.21-.05,3.54-2.14,3.42-4.33-.33-6-.79-11.95-1.2-17.92,0-.94.05-1.88.07-2.82.43-1.51.85-3,1.28-4.53.34,1,.69,2,1,3q0,12.95-.07,25.9c-1.09,2.09-1.23,5-4.74,5.22a6.84,6.84,0,0,1-2.88-6l0-14.48c0-1.57,0-3.15,0-4.72V499.38l-.06-12.47,1.35-3.21Q940,479.3,940.37,474.91Z"/><path class="cls-22" d="M602.19,529.32l4-1.6c-.45-7.51-1-15.24-1.37-23-.19-3.36-.24-6.73-.32-10.09-.32-12.89-.74-25.79-.87-38.69,0-4.21.7-8.43,1.08-12.65.31-1.47.67-2.92.93-4.4.29-1.66.48-3.34.72-5,1.25,10.09.39,20.11-.87,30.14a37.53,37.53,0,0,0,.21,6.77c.33,5.64.72,11.28,1,16.92.76,13.05,1.49,26.1,2.26,39.16,0,.31.28.61.79,1.62h5.31c13.8,0,27.6,0,41.4.07a44.44,44.44,0,0,1,5.69.78q-27.13-.14-54.28-.25C606,529.11,604.11,529.25,602.19,529.32Z"/><path class="cls-23" d="M218.73,476.45l13,4.89c0,.58.26,1.49,0,1.68a7.77,7.77,0,0,1-2.25.77c-10,0-20.06,0-30.09-.08-2.4,0-5,.48-6.95-1.57.76-3,.66-3.26,2.64-3.92,3.62-1.21,7.34-2.6,11.08-2.85C210.31,475.1,214.54,476,218.73,476.45Z"/><path class="cls-24" d="M194.41,444.42a65.28,65.28,0,0,0,21-3.72l-1.7-4.35c3.75-2.34,4.76-5.83,4-10l.12-2.33a23,23,0,0,1,4.45,13l4.53,3.05c-2,.9-3.32,1.79-4.74,2.06-13.21,2.44-26.4,5.07-40,4a62.61,62.61,0,0,1-6.85-.73c-4.17-.79-6-5.93-2.9-8.84,1.29-1.23,1.54-2.53,2.2-3.91,2.09-4.41,4.56-8.64,6.88-12.95l.15,3.36-2.07,3.2c-1,2-2.17,4-3,6.08-.7,1.75-.9,3.7-1.58,5.47-1.16,3.06-.74,5,2.37,5.79,5.6,1.35,11.31,2.76,17.11.76Z"/><path class="cls-25" d="M184.93,314.61c-.34-2.12-.69-4.23-1-6.35,1.9-5.84.53-18.84-2.1-22.11.62-2.08,1.17-3.9,2.08-6.91.8,4.75,2.43,7.72,6.24,8.82,2.13,2.42-.05,4.93.17,7.39-2.71,1.27-3.61,3.2-2.22,6,.77,1.54,1.5,3.09,2.26,4.64l-.12,18.13c-.6,2-1.2,4-1.92,6.35-.51-3.44-.85-6.54-1.46-9.59C186.38,318.82,185.57,316.73,184.93,314.61Z"/><path class="cls-26" d="M1233.82,416.71h-7.64l2.28,2.26c1.13,3.47,3,6.88,3.26,10.41,1.13,13.19.29,26.37-1,39.54-.7,7-.87,14-1.21,21a8.2,8.2,0,0,0,.72,2.43h5.49a5.19,5.19,0,0,0,.48.79,18.06,18.06,0,0,1-9.94-1l1.11-16.19c.57-8.12,1.12-16.23,1.72-24.34.36-4.74,1.26-9.48,1.06-14.19a63.93,63.93,0,0,0-2.37-14c-.82-2.95-2.31-6.17-6.55-5.61C1225.25,415.7,1229.39,414.55,1233.82,416.71Z"/><path class="cls-27" d="M210.23,347.63l.36,2-4.92,1.61c-.52-2.78,1.79-6.33-3-7.16-1.57,2.64-3.21,5.38-4.83,8.09l3,4-4.15,3L193,357.33l-2.88,3V348c1.82-1.47,4.67-2.42,4.46-5.64,1.71-.23,3.9.13,5-.8,2.91-2.4,2.76-2.67,5.77,0,1.36,1.21,2.54,2.64,3.81,4Z"/><path class="cls-28" d="M354,439.15a8,8,0,0,1,8,7.12c.89,8.54.83,17.23-1.95,26.14-2.87-2.26-1.73-5.54-3.06-7.82-.06-1.21-.06-2.44-.21-3.64C355.88,453.68,354.93,446.42,354,439.15Z"/><path class="cls-29" d="M1383.55,473.07c-7,.88-14,1.62-20.92,2.67a151.37,151.37,0,0,1-44.22.49c-5.34-.76-10.5-2.72-14.51-6.75,9,5,18.84,5.25,28.79,5,10.23-.25,20.47-.23,30.7-.47,5.65-.13,11.22-.85,16.48-3.24C1382.83,469.42,1383.05,469.68,1383.55,473.07Z"/><path class="cls-30" d="M1226.38,494.31l-13.78,1.19-2.44-2.38c-.28-5.64-.59-11.28-.82-16.93q-.57-14.29-1.06-28.61c-.09-2.83-.11-5.66-.16-8.49,1.41-5.12,2.82-10.24,4.26-15.44l-1.74-.42c1.62-2.2,3.34-.86,5-.16a35.82,35.82,0,0,1-1.23,3.38c-2.4,5.15-4,10.37-3.81,16.24.3,8.79-.2,17.61,0,26.41.21,7.54,1,15.06,1.57,23.24h13.09Z"/><path class="cls-31" d="M210.34,406.11l-1.1-1.06c0-2.46-.14-4.93.08-7.37.42-4.46-1.4-7.77-4.66-10.6-3.06-2.65-5.88-3.22-8.89-.58-2.56,2.25-4.44,5.27-6.62,7.94-.18-3.9,1.81-6.93,4-9.9l4.75-6.64-7.68-.52c0-2.48,0-5,0-7.44h1c.31,1.58.63,3.16.93,4.67,4.86,0,9.49.7,13.36-2.53.11-.09.35,0,.52-.05l.06.06-4.85,7.34c.78,1.08,1.48,2.84,2.78,3.75,5.23,3.65,7.24,8.56,6.48,14.76Z"/><path class="cls-32" d="M210.52,397.94c.76-6.2-1.25-11.11-6.48-14.76-1.3-.91-2-2.67-2.78-3.75l4.85-7.34c.74-1.4,1.48-2.79,2.21-4.19,0,2,.05,4.05.07,6.07-.35,2.69.55,4.34,3.53,4.5,2.8.15,4.72,1.21,3.89,4.55l-.27,2.79c-.69,1.44-1.37,2.87-2,4.31Z"/><path class="cls-33" d="M189.15,394.44c2.18-2.67,4.06-5.69,6.62-7.94,3-2.64,5.83-2.07,8.89.58,3.26,2.83,5.08,6.14,4.66,10.6-.22,2.44-.07,4.91-.08,7.37-1.09-3.79-2-7.63-3.33-11.34a11.76,11.76,0,0,0-3-4.79c-1.73-1.51-4-1.31-5.8.24a35.36,35.36,0,0,0-4.08,4.13c-2.53,3-4.23,6.22-1,9.46-2.42,4.71-4.55,9.15-7,13.43-.81,1.44-2.35,2.47-3.56,3.69q1.62-4.23,3.25-8.48c.7-.91,1.81-1.74,2-2.76.9-4.36,1.54-8.79,2.28-13.19C189.08,395.11,189.11,394.78,189.15,394.44Z"/><path class="cls-34" d="M582.22,248.89a31.52,31.52,0,0,1,4.51-1.86c2.74-.67,4.39.46,5.1,3.18,1.16,4.45-3.66,10.31-8.3,10.1-2.78-.12-9.64-5.73-10.29-8.4a4.22,4.22,0,0,1,4.69-4.92C579.38,247.21,580.72,248.2,582.22,248.89Zm6,1c-3.07,1.36-3.53,2.63-2.74,7.07C588.14,255.34,588.84,253.2,588.26,249.89Zm-10.83,2.94a17.37,17.37,0,0,0,2-2.49c.09-.16-1.06-1.28-1.15-1.23a6.7,6.7,0,0,0-2,1.82C576.18,251.16,576.89,251.94,577.43,252.83Z"/><path class="cls-35" d="M921,502.76c5.78-4.09,10.49-9.29,15.06-14.63a28.79,28.79,0,0,1,.61,4.39c0,6-.2,11.9-.32,17.85l-32,5.44c0-.36,0-.72,0-1.08,8-1.83,16.09-3.63,24.11-5.53a12,12,0,0,0,3.83-1.7,3.82,3.82,0,0,0,1.69-2.39c.13-2.71-.1-5.43-.24-9.25l-5,3.78Z"/><path class="cls-36" d="M209.21,345.52c-1.27-1.33-2.45-2.76-3.81-4-3-2.66-2.86-2.39-5.77,0-1.13.93-3.32.57-5,.8.17-.78.33-1.56.49-2.34,2.45-1.68,1.1-4.17,1.35-6.32l0,0a16.47,16.47,0,0,0,1.14-3.29c.62-5.18,2.27-6.06,6.61-3.44.72.44,1.65,1.18,2.27,1,3.51-1,3.81,1.27,4,3.72h0l-7-.88v5.7l4.58-1.3Z"/><path class="cls-37" d="M822.58,450.76c0,2.43,0,4.88.16,7.31.14,2.24.48,4.48.78,7.2h-9.23c-.1-.86-.2-1.83-.3-2.81,1.1-5,2.1-10,3.36-15a12.67,12.67,0,0,1,3.32-5.79C821.31,444.72,821.94,447.74,822.58,450.76Z"/><path class="cls-38" d="M586.53,349.84l.93,8.31-1.73-2.08c-.9-4.56-1.81-9.11-2.83-14.3l-7.72-.76c-.31-1.5.33-1.47,1.64-1.4,2.23.12,5.12,2.2,6.38-1.63,4.51,2.5,8.74,1.29,13-1a6.42,6.42,0,0,0-4-1.89,41.15,41.15,0,0,0-7.76.42c-.51.08-.8,1.7-1.19,2.61-3.49-4.5-9.28-4.24-12.5.57l-1.54-2.61,1.53-2.64c2.42,0,4.84,0,7.25-.09,5.25-.2,10.51-.68,15.75-.63,4.42.05,5.66,1.8,5.34,6.28-3.12,3.08-7.5,1.7-11.08,3.13-1-1-2.15-.81-2.17.55A62.16,62.16,0,0,0,586.53,349.84Z"/><path class="cls-39" d="M1262.2,492.05a16.6,16.6,0,0,1,3-.76c9.15-.49,18.32-.79,27.46-1.38,12.48-.81,25-1.84,37.42-2.76q8.7-.64,17.39-1.25c-.13.73-.08,2-.42,2.1a14.31,14.31,0,0,1-4.11.78q-25.59,1.26-51.18,2.43l-26.9,1.27Z"/><path class="cls-40" d="M200.79,356.12l-3-4c1.62-2.71,3.26-5.45,4.83-8.09,4.83.83,2.52,4.38,3,7.16l4.92-1.61,2.94,1.33c2.54,2.14,1.54,4.34.13,6.55a2.06,2.06,0,0,1-.12.78,7.81,7.81,0,0,0-1,.1,18.29,18.29,0,0,1-3.88-1.51,8.19,8.19,0,0,0-7.93-.73Z"/><path class="cls-41" d="M1249.71,465.61c.33-8.61.64-17.22,1-25.82a9.65,9.65,0,0,1,1.1-2.8l2.34,3.07c.64,4.67,1.76,9.32,1.81,14,.07,6.31-.68,12.63-1.08,18.94-.38,2.48-.77,5-1.15,7.44-.35-1.87-.69-3.74-1-5.61.11-2,.23-4,.34-6a19.34,19.34,0,0,0,.89-4c.1-6,.07-12,0-18a8.15,8.15,0,0,0-.65-2.13,2.39,2.39,0,0,0-.31.42,3,3,0,0,0-.15.51,25.16,25.16,0,0,0-.94,3.83c-.6,6.85-1.1,13.7-1.63,20.55C1250.11,468.5,1249.9,467.05,1249.71,465.61Z"/><path class="cls-42" d="M228.88,512.44c-.22.47-.32,1.26-.67,1.39-6.22,2.25-12.4,4.62-18.72,6.55-5.22,1.6-10.61,2.63-15.91,4-7.53,1.89-15,1.33-22.54-.13,0-.34,0-.67,0-1a20.32,20.32,0,0,0,9.81.2c3.48-.86,7.43.07,10.82-.94,8.31-2.47,17.61-1.57,25-7.26C220.81,514.86,224.11,510.42,228.88,512.44Z"/><path class="cls-43" d="M190.11,288.06c-3.81-1.1-5.44-4.07-6.24-8.82-.91,3-1.46,4.83-2.08,6.91,2.63,3.27,4,16.27,2.1,22.11a1.35,1.35,0,0,1-.21-.87c0-2.4.85-5.08-2.06-6.57-2.68-7.66-2.74-15.5-1.83-23.78C186.24,278.2,189.14,282.21,190.11,288.06Z"/><path class="cls-44" d="M965.89,502.89l.21,4.93c.28,4-1.2,8.2,1,12.08.43,4,.87,7.93,1.38,12.56-4-1.65-3.75-4.93-4.28-7.26-1.56-7-2.52-14.09-3.71-21.15,0-.64,0-1.27,0-1.91l1.1-1.35c.25,2,1.71,2.14,3.28,2.06Z"/><path class="cls-45" d="M565.73,450.89l2.41,0c1.15.41,2.32.77,3.44,1.25,3.51,1.48,4.55,3.09,4.38,7-.08,1.91.11,4-2.35,4.8s-4.5-.13-6-2.13A11.34,11.34,0,0,1,565.73,450.89Z"/><path class="cls-46" d="M218.73,476.45c-4.19-.41-8.42-1.35-12.57-1.08-3.74.25-7.46,1.64-11.08,2.85-2,.66-1.88,1-2.64,3.92,2,2.05,4.55,1.56,6.95,1.57,10,.07,20.06.06,30.09.08a32.12,32.12,0,0,1-5.56,1c-7.78.09-15.57-.06-23.34,0a28.64,28.64,0,0,0-5,.94c-1-.25-2-.48-3-.76-1.8-.48-3.67-1.4-3.3-3.41a6.66,6.66,0,0,1,2.81-4c5.05-3.12,10.85-3.94,16.62-4,3.61,0,7.23,1.08,10.85,1.67C219.22,475.66,219,476.06,218.73,476.45Z"/><path class="cls-47" d="M565.73,450.89a11.34,11.34,0,0,0,1.89,10.91c1.49,2,3.4,3,6,2.13s2.27-2.89,2.35-4.8c.17-3.88-.87-5.49-4.38-7-1.12-.48-2.29-.84-3.44-1.25l3.54-1.17a10.64,10.64,0,0,1,6.79,14.07,5.22,5.22,0,0,1-2.84,2.65c-5.27,1.7-9.18-.19-11.47-5.27-.43-.95-.71-2-1.06-2.94.37-1.46.63-3,1.12-4.38A22.53,22.53,0,0,1,565.73,450.89Z"/><path class="cls-48" d="M921,502.76l7.82-3.12c2.57,1.8,2.74,2.74,1.1,6.32v-5.13l-20.07,9.76-8.63,2.09-13.83,1.62-5.54-.91c3.79-.65,7.56-1.66,11.37-1.87,9.51-.54,18.35-2.89,26.3-8.25A5.39,5.39,0,0,1,921,502.76Z"/><path class="cls-49" d="M606.39,433.91c-.24,1.67-.43,3.35-.72,5-.26,1.48-.62,2.93-.93,4.4V428.09c-8.14-5.33-10.94-13.67-13.78-22l2.08-.18c2.72,5.25,5.35,10.56,8.22,15.72.79,1.41,2.32,2.41,4.34,4.43v-9.27l1.23,7.36C606.68,427.42,606.53,430.66,606.39,433.91Z"/><path class="cls-31" d="M208.32,367.9c-.73,1.4-1.47,2.79-2.21,4.19l-.06-.06c.71-4.95-.75-8.85-4.57-11.06l-9.13,2.8c-.26,1.46-.69,3.82-1.11,6.17h-1l-.09-9.57,2.88-3,3.62,1.77,4.15-3h0c1.49,2.78,3.69,4.35,7.52,3.68v8.1Z"/><path class="cls-50" d="M220.08,358.31c1.75-3,3.65-5.87,7.74-6.77,1.81,5.08-.64,9.53-1.56,14.11-3.53,1.3-4.14,1.13-5-1.75C220.75,362.07,220.47,360.17,220.08,358.31Z"/><path class="cls-51" d="M494.29,441.9c.92,11.55,1.85,23.11,2.7,34.67,0,.47-.78,1-1.74,2.16-2.15-8.88-1.72-17.34-2.54-25.65a35.3,35.3,0,0,0,1.31-4.86C494.29,446.13,494.21,444,494.29,441.9Z"/><path class="cls-52" d="M826.05,521.73c.25-.83.5-1.66.74-2.49,2.08-.14,4.17-.22,6.24-.43,3.25-.31,6.49-.7,9.73-1.06l-.08,0,26.63-.18,0,1.16q-20.07,1.15-40.14,2.35A22.36,22.36,0,0,0,826.05,521.73Z"/><path class="cls-53" d="M563.29,425.09l1.79,1.84c1.6-4.26,3.15-8.25,4.61-12.28,1-2.78,1.82-5.62,2.81-8.4,1.8-5.08,3.66-10.14,5.49-15.21l1,2.26c-3.84,12.51-7.75,25-13.46,36.83a6.71,6.71,0,0,1-1.3,1.43Z"/><path class="cls-54" d="M946.76,469.77a77.44,77.44,0,0,1,9-.79c6.29.13,9.94,4.48,9.69,11.52l-4.83-2-1.94-1.33,1.84-2.19-7.22-3c-1.79-1.43-1.89,0-2.14,1.25a7.34,7.34,0,0,1-1-.2Z"/><path class="cls-55" d="M1253.78,480.43c.38-2.48.77-5,1.15-7.44.1,2.76.19,5.51.29,8.27l1.13,0c.28-6.15.6-12.29.8-18.44.14-4.41.11-8.83.16-13.24a96.77,96.77,0,0,1,.58,27.19c-.56,4.85-1,9.71-1.64,15.31h6l2.69.42a16.4,16.4,0,0,1-9.69.37l-1-7.7c-.14-.8-.28-1.59-.41-2.39Z"/><path class="cls-56" d="M354,439.15c.94,7.27,1.89,14.53,2.8,21.8.15,1.2.15,2.43.21,3.64l-1.23,4.62c-2.36-9.89-5-19.74-4.22-30.07Z"/><path class="cls-57" d="M776.94,483.56a16.1,16.1,0,0,1,.73,3.56c-.29,12.13,2.28,24.22.53,36.37a21.11,21.11,0,0,0-.08,2.64l-3.68,0a4.47,4.47,0,0,0,2.26-4.37c-.32-10.21-.53-20.42-.78-30.63,0-1.76-.09-3.52-.14-5.28Z"/><path class="cls-58" d="M1257.31,449.55c0,4.41,0,8.83-.16,13.24-.2,6.15-.52,12.29-.8,18.44l-1.13,0c-.1-2.76-.19-5.51-.29-8.27.4-6.31,1.15-12.63,1.08-18.94,0-4.67-1.17-9.32-1.81-14l3-.13C1257.22,443.14,1257.27,446.35,1257.31,449.55Z"/><path class="cls-59" d="M217.84,424.05l-.12,2.33a31.47,31.47,0,0,1-2.19-3.58c-2-4.33-5.17-6.84-10-6.83-1-2.2.11-3.32,1.57-4.61a27.18,27.18,0,0,0,3.36-4.45Z"/><path class="cls-60" d="M953.18,490.25c.63-1.19-1.53-4.24,2.23-3.33l1,2.11-.12,1.31c-2.19,3,.17,5.65.62,8.45s.91,5.49,1.37,8.23l-8.93.3-1.47-1.3.06-4.39c2.58,4.05,2.58,4.05,7.84,2.3Z"/><path class="cls-61" d="M189.15,394.44c0,.34-.07.67-.08,1H187.9l2.28-18.05,7.68.52-4.75,6.64C191,387.51,189,390.54,189.15,394.44Z"/><path class="cls-62" d="M184.93,314.61c.64,2.12,1.45,4.21,1.89,6.37.61,3,1,6.15,1.46,9.59.72-2.37,1.32-4.36,1.92-6.35-.34,6.15,1.1,12.36-.16,19.21C187.35,339.78,185.28,327,184.93,314.61Z"/><path class="cls-63" d="M210.43,331.74c-.19-2.45-.49-4.69-4-3.72-.62.17-1.55-.57-2.27-1-4.34-2.62-6-1.74-6.61,3.44a16.47,16.47,0,0,1-1.14,3.29c0-1.38,0-2.78-.08-4.16-.48-5.78-.26-6.09,5.52-7.39a35.79,35.79,0,0,1,5.53,2.47c1.79,1.16,4.57,1.1,5.14,3.88Z"/><path class="cls-64" d="M1249.43,499.64c-.82-5-.82-5,3.19-4.89V514.1c-3.3.73-3.33-1.5-3.32-3.35,0-2.95.33-5.91.52-8.86,2.32-1.72,2.32-1.72.76-5.13Z"/><path class="cls-65" d="M215.81,383c.83-3.34-1.09-4.4-3.89-4.55-3-.16-3.88-1.81-3.53-4.5l3.17-.94c.29,0,.57.09.86.15,2.35,2.57,5,2.25,6-.88a22.93,22.93,0,0,0,.56-4.65c.22,2.5.45,5,.67,7.52-1.36.75-1.61,1.81-1.5,3.39C218.27,380.32,218.28,382.43,215.81,383Z"/><path class="cls-63" d="M209.21,345.52,208,335.26l-4.58,1.3v-5.7l7,.88q-.1,8-.22,15.89Z"/><path class="cls-66" d="M965.89,502.89l-1,0c-.3-3.1-.83-6.21-.86-9.31-.06-6.1-1.3-11.41-7.55-14.12-.07-.49-.13-1-.19-1.48l3.5,1.31a34.84,34.84,0,0,0,3,2.09c2.11,1.16,2.65,2.79,2.61,5.2C965.35,492,965.71,497.44,965.89,502.89Z"/><path class="cls-67" d="M219.64,375.17c-.22-2.51-.45-5-.67-7.52-.1-.62-.2-1.24-.29-1.86v-4.6l-4.05-1.9,5.45-1c.39,1.86.67,3.76,1.2,5.59.84,2.88,1.45,3.05,5,1.75-.11,3.41-2.21,3.81-4.63,3.21C220.94,371.06,220.29,373.11,219.64,375.17Z"/><path class="cls-68" d="M936.32,510.37c.12-5.95.28-11.9.32-17.85a28.79,28.79,0,0,0-.61-4.39l2.16-1.22.06,12.47q-.54,5.49-1.07,11l-.43.05Z"/><path class="cls-69" d="M212.52,328.54c-.57-2.78-3.35-2.72-5.14-3.88a35.79,35.79,0,0,0-5.53-2.47l5.34-1.6,6.66,4.78Z"/><path class="cls-70" d="M904.37,514.73c0,.36,0,.72,0,1.08l-18.05,2,6.39-2,8.57-2.13,1.95.16Z"/><path class="cls-71" d="M467.44,493.21c.4,5.72.83,11.44,1.19,17.16.09,1.38,0,2.78-.05,4.16l-2.16-.14a9.5,9.5,0,0,0,.76-3c-.5-6.08-1.14-12.15-1.73-18.22Z"/><path class="cls-72" d="M947.91,506l1.47,1.3c-1.59.76-2.77,1.48-2.66,3.77.27,5.73.17,11.48.07,17.23a23.38,23.38,0,0,1-.94,4.45q0-12.94.07-25.9Z"/><path class="cls-73" d="M958.31,507c-.46-2.74-.93-5.48-1.37-8.23s-2.81-5.46-.62-8.45q2.1,5.9,4.18,11.8c0,.64,0,1.27,0,1.91Z"/><path class="cls-74" d="M190.32,306.09c-.76-1.55-1.49-3.1-2.26-4.64-1.39-2.8-.49-4.73,2.22-6C190.29,299,190.3,302.54,190.32,306.09Z"/><path class="cls-52" d="M892.66,515.74l-6.39,2-5.82.1L870,517.6l10.9-1.11Z"/><path class="cls-31" d="M187.9,395.43h1.17c-.74,4.4-1.38,8.83-2.28,13.19-.22,1-1.33,1.85-2,2.76Q186.34,403.41,187.9,395.43Z"/><path class="cls-75" d="M881.82,513.39l5.54.91-10,1.11-4.9,0-1.18-.87a4,4,0,0,0,.34-.76Z"/><path class="cls-76" d="M214.63,359.29l4.05,1.9v4.6c-.3-.05-.59-.08-.89-.11h0l-.55-4.41-3.58,2.35-2.3-2.29c.41-1,.82-2,1.22-3a7.81,7.81,0,0,1,1-.1Z"/><path class="cls-77" d="M946.76,469.77l3.31,3.28-1,1c-3.6.56-4.27.05-5.43-4.12Z"/><path class="cls-78" d="M949.06,474.08l1-1a7.34,7.34,0,0,0,1,.2l7.52,3.92,1.94,1.33-.79.75-3.49-1.3-4-1.68Z"/><path class="cls-27" d="M213.66,357.47c1.41-2.21,2.41-4.41-.13-6.55l4.93,1.89C217.43,355.4,216,356.93,213.66,357.47Z"/><path class="cls-72" d="M938.26,517.48l0,14.48A27,27,0,0,1,938.26,517.48Z"/><path class="cls-72" d="M937.18,510.36q.54-5.49,1.07-11v13.38Z"/><path class="cls-66" d="M967.09,519.9c-2.19-3.88-.71-8-1-12.08Z"/><path class="cls-79" d="M181.62,300.82c2.91,1.49,2,4.17,2.06,6.57C180.38,306,182.2,303,181.62,300.82Z"/><path class="cls-70" d="M870,517.6l10.45.26-11.18.91c0-.39,0-.77,0-1.16l.34-.11Z"/><path class="cls-80" d="M1249.43,499.64l1.15-2.88c1.56,3.41,1.56,3.41-.76,5.13Z"/><path class="cls-81" d="M273.05,524.46l.42-1.13h2.87l2,1.77Z"/><path class="cls-72" d="M940.37,474.91q-.4,4.39-.83,8.79Q940,479.3,940.37,474.91Z"/><path class="cls-82" d="M871.61,513.73a4,4,0,0,1-.34.76L865,514.4l.12-.82Z"/><path class="cls-83" d="M213.49,390.12c.68-1.44,1.36-2.87,2-4.31C215.75,387.68,215.49,389.31,213.49,390.12Z"/><path class="cls-63" d="M196.44,333.7c-.25,2.15,1.1,4.64-1.35,6.32Z"/><path class="cls-84" d="M585.73,356.07l1.73,2.08q1.13,10.17,2.26,20.34a37.46,37.46,0,0,0-1,4.26c-.21,1.83-.18,3.69-.25,5.53q-.54-7.57-1.09-15.14v-6.92l-1.78,5-1.08-3.31Q585.14,362,585.73,356.07Z"/><path class="cls-85" d="M584.54,367.87l1.08,3.31c0,.65-.09,1.3-.13,1.95L579,393.3,578,391c.71-2.33,1.46-4.65,2.11-7C581.61,378.66,583.07,373.26,584.54,367.87Z"/><path class="cls-86" d="M588.49,388.28c.07-1.84,0-3.7.25-5.53a37.46,37.46,0,0,1,1-4.26c.23,3,.5,5.93.68,8.89.38,6.26.68,12.52,2.64,18.55l-2.08.18C588.67,400.37,588.36,394.36,588.49,388.28Z"/><path class="cls-10" d="M585.49,373.13c0-.65.09-1.3.13-1.95l1.78-5v6.92Z"/><path class="cls-52" d="M825.61,515.73l14,.07,3.27,1a2.61,2.61,0,0,0-.2,1l.08,0-8.63-.28-8.33-.63Z"/><path class="cls-87" d="M834.13,517.47l8.63.28c-3.24.36-6.48.75-9.73,1.06-2.07.21-4.16.29-6.24.43-.07-.46-.15-.92-.22-1.38Z"/><path class="cls-88" d="M834.13,517.47l-7.56.39-.77-1Z"/><path class="cls-89" d="M1204.06,434.75a246.93,246.93,0,0,0-2.06,52.59l-91.93,3c0-.34-.1-.68-.16-1,1.26-.49,2.48-1.08,3.77-1.45,17.21-4.93,32.1-14.42,47-23.9,8.93-5.69,17.93-11.28,26.75-17.15C1193,443.09,1198.23,439,1204.06,434.75Z"/><path class="cls-90" d="M583.2,338c-1.26,3.83-4.15,1.75-6.38,1.63-1.31-.07-2-.1-1.64,1.4l-4.37-2.34c3.22-4.81,9-5.07,12.5-.57Z"/><path class="cls-91" d="M1264.4,486.88c-.69-12.48-1.35-24.56-2.05-37.27,19.54,16,40.69,28.2,65.84,33.29C1323.24,484.24,1273.44,487.26,1264.4,486.88Z"/><path class="cls-10" d="M586.53,349.84a62.16,62.16,0,0,1-.64-7.18c0-1.36,1.13-1.58,2.17-.55C585.47,344.28,587,347.26,586.53,349.84Z"/><path class="cls-92" d="M1221.2,486.38c-3.35,1.12-3.72-.65-3.83-2.56-.42-7.4-1.16-14.81-1.08-22.21.1-8.63.93-17.25,1.46-25.87.22-3.57,1.85-6.57,3.2-9.68l1.14.16c.34,2.73,1.06,5.47,1,8.18-.4,10.93-1.1,21.85-1.59,32.77-.21,4.77-.19,9.55-.26,14.32C1221.18,483.06,1221.2,484.62,1221.2,486.38Z"/><path class="cls-93" d="M196.52,425.23c-1.28,1.17-2.48,2.43-3.84,3.49s-2.61,1.67-4.85,3.07c2.27,1.25,3.75,2.47,5.42,2.89,2.52.62,3.58-.59,4.13-3.28,1.12-5.38,5-8.6,9.49-11,.8-.44,2.52.06,3.4.7a63.56,63.56,0,0,1,5.31,4.7c-4.48,6.94-7.74,9.38-14.11,10.56l3.33,4.84-10.39,3.25h0c-1.87-.06-3.76,0-5.63-.19-3.95-.43-8.37.25-11.18-3.82l3.71-4.08c-2.73-2.82-2.73-2.82-1.79-6.83l4.68,3.36c2.06-2.35,4-4.55,5.86-6.68Z"/><path class="cls-93" d="M183.77,422.05c.67-1.2,1.06-2.74,2-3.53,5.17-4.14,8-9.7,10.1-16.14l-2.52-3.87,6-7.12c3.55,3.51,3.67,6.67.56,11.82l2.56,4.13c-.57,1-1.26,2.19-1.9,3.4-.9,1.7-1.82,3.23-.46,5.35.75,1.18.48,3.05.55,4.61.09,2.12-1,3.27-3.12,3.47a9.41,9.41,0,0,0-1.4-9.09c-5.67.87-5.66.89-9.24,4.31C186,420.35,184.83,421.17,183.77,422.05Z"/><path class="cls-94" d="M183.77,422.05c1.06-.88,2.18-1.7,3.17-2.66,3.58-3.42,3.57-3.44,9.24-4.31a9.41,9.41,0,0,1,1.4,9.09l-1.06,1.06-6.45.94c-1.88,2.13-3.8,4.33-5.86,6.68l-4.68-3.36c0-.69,0-1.39,0-2.08l4.2-5.36Z"/><path class="cls-93" d="M183.77,422.05l-4.2,5.35c0-.36,0-.73,0-1.09l2.07-3.2Z"/><path class="cls-95" d="M1218.88,514.58c-.45-5.36-.91-10.73-1.41-16.51l4.91-.42a74.22,74.22,0,0,1-1.48,20C1220.23,516.65,1219.56,515.61,1218.88,514.58Z"/><path class="cls-96" d="M1218.88,514.58c.68,1,1.35,2.07,2,3.1V520l-.94.11Z"/><path class="cls-97" d="M974.29,502.53a9.85,9.85,0,0,1-.67-2c0-3,0-6,0-9.23l27.4,6.58,0,.74Z"/><path class="cls-98" d="M850,515.45l12-.74,4.23,1.1-11.91.7Z"/><path class="cls-99" d="M850,515.45l4.28,1.06-11.4.29-3.27-1Z"/><path class="cls-100" d="M866.19,515.81l-4.23-1.1,3-.31,6.29.09,1.18.87Z"/><path class="cls-101" d="M1235.68,492.39h-5.49a8.2,8.2,0,0,1-.72-2.43c.34-7,.51-14.06,1.21-21,1.33-13.17,2.17-26.35,1-39.54-.3-3.53-2.13-6.94-3.26-10.41,1.1-.2,2.27-.75,3.29-.53,6.45,1.34,10.77,5.73,14.55,10.72a5.49,5.49,0,0,1,.81,3.43c-1,18.1-3.27,36.14-2.61,54.33.17,4.67-.27,4.89-5.14,5.16C1238.13,492.14,1236.91,492.29,1235.68,492.39Zm.69-65.15c.29,4,.13,7.44.87,10.66,1.87,8.08.84,16.16.55,24.25-.26,7.4-.71,14.8-1,22.2a7.38,7.38,0,0,0,.91,2.5l1.12-.08c.2-1.44.5-2.86.57-4.3.73-15.87,1.27-31.76,2.24-47.61C1241.91,430.74,1240.44,428.68,1236.37,427.24Z"/><path class="cls-102" d="M1249.71,465.61c.19,1.44.4,2.89.6,4.34-.16,5.57-.33,11.14-.41,16.71,0,.45.64.92,1,1.38l1.91,1-2.25,2.16a11.79,11.79,0,0,1-1.79-2.11,21.38,21.38,0,0,1-1.09-3.31l.06-10.33,1-9.69C1249,465.7,1249.37,465.65,1249.71,465.61Z"/><path class="cls-103" d="M1248.7,465.73c-.33,3.23-.65,6.46-1,9.69-.34-1.77-.69-3.53-1-5.29q.48-6,1-12a5.2,5.2,0,0,0,1,.08C1248.71,460.74,1248.71,463.23,1248.7,465.73Z"/><path class="cls-104" d="M1252.79,489l-1.91-1c.35-1.84.76-3.66,1-5.51.35-2.56.57-5.14.85-7.71.35,1.87.69,3.74,1,5.61l0,2.32Z"/><path class="cls-105" d="M1246.69,470.13c.34,1.76.69,3.52,1,5.29l-.06,10.33c-.38-.74-1.1-1.47-1.1-2.2C1246.51,479.07,1246.63,474.6,1246.69,470.13Z"/><path class="cls-106" d="M1248.72,458.24a5.2,5.2,0,0,1-1-.08v-6h1Z"/><path class="cls-107" d="M953.18,490.25l2.63,13.68c-5.26,1.75-5.26,1.75-7.84-2.3a1.85,1.85,0,0,1-.18-.66l-1-12.83c-.35-2.89-.71-5.78-1.06-8.67v.06c.59-.11,1.57-.48,1.69-.29a61.06,61.06,0,0,1,3.09,5.39C951.5,486.47,952.31,488.37,953.18,490.25Zm-2.07,13.53c1.14-1.27,1.95-1.82,1.88-2.15-.87-3.81-1.87-7.59-2.84-11.38l-1.07.3C949.71,494.64,950.34,498.72,951.11,503.78Z"/><path class="cls-108" d="M943.52,511.23c.42,6,.88,11.94,1.21,17.92.12,2.19-.21,4.28-3.42,4.33-2.29-5.69-2.06-11.45-1.5-17.24.15-1.58.34-3.16.51-4.74Zm-1.76,9.83v7.22l.87,0V513.37h-.87Z"/><path class="cls-109" d="M942.8,489c.6,2.18,1.19,4.36,1.79,6.53q.54,3.17,1.1,6.33l-.81,2c-.43,1.51-.85,3-1.28,4.53l-4,0c.31-7.1.59-14.21,1-21.31,0-.77.72-1.5,1.11-2.25v21.55h1.1Z"/><path class="cls-110" d="M945.68,501.9c-.36-2.11-.73-4.22-1.09-6.33,0-3.68,0-7.37.18-11.05a34,34,0,0,1,1-5v-.06c.35,2.89.71,5.78,1.06,8.67l1,12.83c-.5-1.43-1-2.86-1.83-5.21C945.84,498.46,945.76,500.18,945.68,501.9Z"/><path class="cls-111" d="M952.25,476.27l4,1.68q.08.74.18,1.47c-.39.64-.78,1.28-1.16,1.92l4.27,9.82-1.07,0L956.44,489l-1-2.11c-1.2-2.67-2.49-5.29-3.52-8C951.61,478.18,952.11,477.16,952.25,476.27Z"/><path class="cls-112" d="M942.8,489v17.31h-1.1V484.81C942.07,486.22,942.44,487.63,942.8,489Z"/><path class="cls-113" d="M945.68,501.9c.08-1.72.16-3.44.28-6.14.83,2.35,1.33,3.78,1.83,5.21a1.85,1.85,0,0,0,.18.66l-.06,4.39-2,.85c-.35-1-.7-2-1-3C945.15,503.22,945.42,502.56,945.68,501.9Z"/><path class="cls-114" d="M939.61,508.37l4,0c0,.94-.05,1.88-.07,2.82l-3.21.27C940.08,510.46,939.85,509.42,939.61,508.37Z"/><path class="cls-16" d="M179.53,426.31c0,.36,0,.73,0,1.09,0,.7,0,1.4,0,2.09-.94,4-.94,4,1.79,6.83l-3.71,4.08c2.81,4.07,7.23,3.39,11.18,3.82,1.87.2,3.76.13,5.63.19-5.8,2-11.51.59-17.11-.76-3.11-.76-3.53-2.73-2.37-5.79.68-1.77.88-3.72,1.58-5.47C177.36,430.3,178.51,428.33,179.53,426.31Z"/><path class="cls-115" d="M191.24,369.94c.42-2.35.85-4.71,1.11-6.17l9.13-2.8c3.82,2.21,5.28,6.11,4.57,11.06-.17,0-.41,0-.52.05-3.87,3.23-8.5,2.57-13.36,2.53C191.87,373.1,191.55,371.52,191.24,369.94Z"/><path class="cls-116" d="M211.36,361.34l2.3,2.29-2.09,4.22V373l-3.17.94c0-2,0-4-.07-6.07h0Z"/><path class="cls-117" d="M588.26,249.89c.58,3.31-.12,5.45-2.74,7.07C584.73,252.52,585.19,251.25,588.26,249.89Z"/><path class="cls-118" d="M577.43,252.83c-.54-.89-1.25-1.67-1.1-1.9a6.7,6.7,0,0,1,2-1.82c.09-.05,1.24,1.07,1.15,1.23A17.37,17.37,0,0,1,577.43,252.83Z"/><path class="cls-119" d="M904.37,514.73l-1.19-1,8.74-2.32,18-5.49c1.64-3.58,1.47-4.52-1.1-6.32l5-3.78c.14,3.82.37,6.54.24,9.25a3.82,3.82,0,0,1-1.69,2.39,12,12,0,0,1-3.83,1.7C920.46,511.1,912.41,512.9,904.37,514.73Z"/><path class="cls-120" d="M583.31,338.1c.39-.91.68-2.53,1.19-2.61a41.15,41.15,0,0,1,7.76-.42,6.42,6.42,0,0,1,4,1.89c-4.29,2.31-8.52,3.52-13,1Z"/><path class="cls-27" d="M211.36,361.34l-3.07,6.55v-8.1c-3.83.67-6-.9-7.52-3.68a8.19,8.19,0,0,1,7.93.73,18.29,18.29,0,0,0,3.88,1.51C212.18,359.35,211.77,360.34,211.36,361.34Z"/><path class="cls-121" d="M1252.74,474.82c-.28,2.57-.5,5.15-.85,7.71-.25,1.85-.66,3.67-1,5.51-.34-.46-1-.93-1-1.38.08-5.57.25-11.14.41-16.71.53-6.85,1-13.7,1.63-20.55a25.16,25.16,0,0,1,.94-3.83q.11,11.63.2,23.26C1253,470.83,1252.85,472.82,1252.74,474.82Z"/><path class="cls-104" d="M1253.08,468.83q-.09-11.62-.2-23.26a3,3,0,0,1,.15-.51,2.39,2.39,0,0,1,.31-.42,8.15,8.15,0,0,1,.65,2.13c0,6,.08,12,0,18A19.34,19.34,0,0,1,1253.08,468.83Z"/><path class="cls-122" d="M958.51,491.18l1.07,0,1.71,1.9c2-6.06-1.18-9.32-6-11.72.38-.64.77-1.28,1.16-1.92,6.25,2.71,7.49,8,7.55,14.12,0,3.1.56,6.21.86,9.31-1.57.08-3,0-3.28-2.06Z"/><path class="cls-66" d="M958.51,491.18l3.09,9.61-1.1,1.35q-2.09-5.89-4.18-11.8l.12-1.31Z"/><path class="cls-123" d="M929.89,506l-18,5.49-2.1-.86,20.07-9.76Z"/><path class="cls-82" d="M877.35,515.41l10-1.11,13.83-1.62c0,.31,0,.62,0,.93l-8.57,2.13-11.76.75Z"/><path class="cls-124" d="M901.23,513.61c0-.31,0-.62,0-.93l8.63-2.09,2.1.86-8.74,2.32Z"/><path class="cls-125" d="M877.35,515.41l3.55,1.08L870,517.6l-.35-.1-.34.11-26.63.18a2.61,2.61,0,0,1,.2-1l11.4-.29,11.91-.7,6.26-.45Z"/><path class="cls-126" d="M958.63,477.17l-7.52-3.92c.25-1.21.35-2.68,2.14-1.25,2,2,4.23,3.38,7.22,3Z"/><path class="cls-127" d="M960.47,475c-3,.4-5.22-1-7.22-3Z"/><path class="cls-74" d="M211.56,373c0-1.73,0-3.45,0-5.18l4.33-3.61,1.89,1.45h0c-.87,3.16-.86,6.95-5.37,7.5C212.13,373.12,211.85,373.07,211.56,373Z"/><path class="cls-128" d="M212.42,373.18c4.51-.55,4.5-4.34,5.37-7.5.3,0,.59.06.89.11.09.62.19,1.24.29,1.86a22.93,22.93,0,0,1-.56,4.65C217.37,375.43,214.77,375.75,212.42,373.18Z"/><path class="cls-128" d="M217.79,365.69l-1.89-1.45-4.33,3.61,2.09-4.22,3.58-2.35Z"/><path class="cls-129" d="M1236.37,427.24c4.07,1.44,5.54,3.5,5.29,7.62-1,15.85-1.51,31.74-2.24,47.61-.07,1.44-.37,2.86-.57,4.3l-1.12.08a7.38,7.38,0,0,1-.91-2.5c.26-7.4.71-14.8,1-22.2.29-8.09,1.32-16.17-.55-24.25C1236.5,434.68,1236.66,431.25,1236.37,427.24Z"/><path class="cls-130" d="M951.11,503.78c-.77-5.06-1.4-9.14-2-13.23l1.07-.3c1,3.79,2,7.57,2.84,11.38C953.06,502,952.25,502.51,951.11,503.78Z"/><path class="cls-21" d="M946.83,488.14c-.35-2.89-.71-5.78-1.06-8.67C946.12,482.36,946.48,485.25,946.83,488.14Z"/><path class="cls-131" d="M941.76,521.06v-7.68h.87v7.56A5.07,5.07,0,0,1,941.76,521.06Z"/><path class="cls-132" d="M941.76,521.06a5.07,5.07,0,0,0,.87-.13v7.31l-.87,0Z"/><path class="cls-133" d="M955.31,481.34c4.8,2.4,8,5.66,6,11.72l-1.71-1.9Z"/></g></g></svg>