<svg xmlns="http://www.w3.org/2000/svg" viewBox="0 0 1440 861.25"><defs><style>.cls-1{fill:#918e8d;}.cls-2{fill:#ad3b2e;}.cls-3{fill:#fad7b8;}.cls-4{fill:#6d162c;}.cls-5{fill:#dcdcdc;}.cls-6{fill:#956945;}.cls-7{fill:#6f728c;}.cls-8{fill:#4a61ac;}.cls-9{fill:#c38383;}.cls-10{fill:#f5b273;}.cls-11{fill:#f4b172;}.cls-12{fill:#f9cad7;}.cls-13{fill:#f2ae6f;}.cls-14{fill:#e78b22;}.cls-15{fill:#d67828;}.cls-16{fill:#eda969;}.cls-17{fill:#efad6f;}.cls-18{fill:#fbc381;}.cls-19{fill:#97cc81;}.cls-20{fill:#6b965b;}.cls-21{fill:#e09b5c;}.cls-22{fill:#95c97f;}.cls-23{fill:#f1d0b3;}.cls-24{fill:#e92124;}.cls-25{fill:#6e9b5f;}.cls-26{fill:#85bb72;}.cls-27{fill:#679159;}.cls-28{fill:#db7a27;}.cls-29{fill:#4d331f;}.cls-30{fill:#88be75;}.cls-31{fill:#3c2817;}.cls-32{fill:#201e21;}.cls-33{fill:#6e708a;}.cls-34{fill:#56784a;}.cls-35{fill:#633f21;}.cls-36{fill:#81b36e;}.cls-37{fill:#21181f;}.cls-38{fill:#d19359;}.cls-39{fill:#7fb36d;}.cls-40{fill:#343333;}.cls-41{fill:#de7822;}.cls-42{fill:#7db06c;}.cls-43{fill:#d67929;}.cls-44{fill:#4c1d20;}.cls-45{fill:#e9a363;}.cls-46{fill:#33281f;}.cls-47{fill:#342e29;}.cls-48{fill:#6e9a5e;}.cls-49{fill:#45302f;}.cls-50{fill:#e77d23;}.cls-51{fill:#312319;}.cls-52{fill:#7aab69;}.cls-53{fill:#cf8e54;}.cls-54{fill:#7caf6b;}.cls-55{fill:#6d975d;}.cls-56{fill:#5d4a36;}.cls-57{fill:#54402f;}.cls-58{fill:#81b46f;}.cls-59{fill:#a99a8f;}.cls-60{fill:#dc8f42;}.cls-61{fill:#4a301a;}.cls-62{fill:#ee8527;}.cls-63{fill:#6e4523;}.cls-64{fill:#648d57;}.cls-65{fill:#243222;}.cls-66{fill:#547648;}.cls-67{fill:#6f9b5f;}.cls-68{fill:#56361a;}.cls-69{fill:#5e8351;}.cls-70{fill:#d2a36c;}.cls-71{fill:#e58e3f;}.cls-72{fill:#eb8d39;}.cls-73{fill:#4f6f45;}.cls-74{fill:#79ab69;}.cls-75{fill:#edad6e;}.cls-76{fill:#5b7b4b;}.cls-77{fill:#441a1d;}.cls-78{fill:#775a42;}.cls-79{fill:#010100;}.cls-80{fill:#020101;}.cls-81{fill:#bf8958;}.cls-82{fill:#160f09;}.cls-83{fill:#e3a367;}.cls-84{fill:#ecaa6c;}.cls-85{fill:#e4a062;}.cls-86{fill:#e3a063;}.cls-87{fill:#372b21;}.cls-88{fill:#a15d27;}.cls-89{fill:#d48a46;}.cls-90{fill:#281e14;}.cls-91{fill:#965624;}.cls-92{fill:#f4b273;}.cls-93{fill:#794a25;}.cls-94{fill:#6c3f1c;}.cls-95{fill:#120c08;}.cls-96{fill:#2c2117;}.cls-97{fill:#a0d086;}.cls-98{fill:#aed68e;}.cls-99{fill:#7eb26d;}.cls-100{fill:#273624;}.cls-101{fill:#2c241c;}.cls-102{fill:#efae6f;}.cls-103{fill:#271a11;}.cls-104{fill:#b1d790;}.cls-105{fill:#735741;}.cls-106{fill:#2d1b11;}.cls-107{fill:#654d39;}.cls-108{fill:#1a0d07;}.cls-109{fill:#d1945a;}.cls-110{fill:#5b4533;}.cls-111{fill:#9dcf85;}.cls-112{fill:#1e1710;}.cls-113{fill:#f6ab67;}.cls-114{fill:#d6a56e;}.cls-115{fill:#d4a169;}.cls-116{fill:#3b2417;}.cls-117{fill:#3d2f24;}.cls-118{fill:#916844;}.cls-119{fill:#503d2e;}.cls-120{fill:#594636;}.cls-121{fill:#2a211a;}.cls-122{fill:#afd68e;}</style></defs><g id="Layer_2" data-name="Layer 2"><g id="Layer_1-2" data-name="Layer 1"><path d="M1440,1.33V861.25H0V1.33ZM886.63,517.52l2.74-.15c3.49-.24,7-.22,10.47-.76,11.77-1.81,23.5-3.83,35.25-5.76,1.73.32,2.17,1.52,2.19,3.09s.12,3.16.19,4.75c0,3.33-.06,6.68.08,10,.16,3.56,1,6.89,4.09,9.5,4.79-1.48,4.94-5.64,5.12-9.31.31-6.3.06-12.64,0-19l1.17-2.07,10.52-1.22,2.12-2.05,1,2.3c.64,4.28,1.3,8.57,1.93,12.86s.22,8.81,4.84,11.84L967,519.39q-.45-6-.91-11.94c0-.61-.09-1.22-.13-1.84-.15-4.88-.82-9.81-.32-14.62.65-6.22-1.86-10.13-7.08-12.83l6.78,1.81c.44-7.38-4.54-10.85-10.25-11.05a68.51,68.51,0,0,0-8.89.76h-2.68c-2.88.13-2.9,2.54-3.26,4.42-.51,2.68-.64,5.44-.93,8.17a16,16,0,0,1-5.09,6.74c-2.22,5.45-7.19,8.38-11.18,12.22l-16,8.5-.4,0c-5.91.78-11.8,1.74-17.73,2.29-12.58,1.16-25.18,2.11-37.78,3.15l-25.43.57-.17-2.45c0-5.53,0-11.06.16-16.59a27.61,27.61,0,0,1,1-4.91c.49,7.15,1,14.3,1.49,21.56,4.08,0,7.59.13,11.09,0q9.28-.4,18.54-1.11c3.44-.26,3.81-.74,4.07-4.22.07-1.06.07-2.12,0-3.18-.33-13.07-.52-26.14-1.07-39.2-.5-11.64-1.37-23.25-2.13-34.87-.3-4.49-.59-5.27-4.83-5.32-9-.09-18,.38-27,.78-.82,0-1.59,1.24-2.39,1.9a30.06,30.06,0,0,0-1,4.91c-.15,4.15,0,8.31-.1,12.45a30.35,30.35,0,0,1-1,4.92q-.95-4.47-1.88-8.94a14.73,14.73,0,0,0-3.38,6.3c-1.27,5.09-2.29,10.24-3.41,15.36-1.39,1.9-.71,3,1.43,3.19,2.46.19,4.95,0,7.41.17,1.5.11,1.71,1,.66,2.07a52.57,52.57,0,0,0-7.31-1.06q-12.45-.09-24.88.23c-5.23.12-10.45.53-15.16.79.32,5.23.61,9.93.9,14.64l-1.11,3.28c-.16-1.73-.72-3.11-2.81-3.12-1.07,0-2.13-.11-3.19-.05a106.23,106.23,0,0,1-36.66-4.14c-5.68-1.71-10-5-13.89-9.24-2.71-2.93-2.67-6.35-3.13-9.82-.9-6.82-1.95-13.62-2.82-20.44-.6-4.71-1-9.44-1.51-14.16a48.53,48.53,0,0,1-.53-7.39c.24-4.11-2-5.06-5.74-5.05-7.26,0-14.52,0-21.77.12a38,38,0,0,0-4.09.51,33.79,33.79,0,0,0-.39,5.21c.34,4.57.95,9.11,1.35,13.68.38,4.34-2,7.14-6.43,7.16a325.64,325.64,0,0,1-44-2.28V425.26l-4.29-.52-9.39-.78c-2-.17-4.07-.3-6.22-.45-.47-11.18-1.07-21.74-1.29-32.3-.07-3.32-.85-5.32-3.9-7.22-9.71-6.06-16.33-14.45-17.66-26.28-.12-1.09-.86-2.11-1.59-3.83C578.4,366.48,573.16,380,560,387.61c.29,20.45.58,40.8.88,61.68l-23.08,1c-.42,4.09-.86,7.37-1.07,10.65a6.91,6.91,0,0,1-4,6.34,7.49,7.49,0,0,0-4.45,6.74c-.11,3.35-.48,6.83.23,10,.75,3.37,0,5.27-2.9,7-3.65,2.09-5.12,5.32-5.05,9.73.1,6.33-.46,12.67-.92,19a10.81,10.81,0,0,1-4.16,8.21c-.83-5.58-2-11.13-2.41-16.74-.63-9.68-.86-19.39-1-29.1-.27-14.65-.26-29.32-.52-44q-.48-27.26-1.22-54.5c-.3-11.6-.78-23.21-1.19-35H494.54a10.86,10.86,0,0,0-.34,1.78c.15,20.31.37,40.62.45,60.93,0,10.06-.21,20.12-.32,30.18v9.57l-.6.05-1.6-4c-.15-2.46-.51-4.93-.43-7.39.87-27.06.47-54.1-.73-81.14a96.14,96.14,0,0,0-1.48-10.05c-5.72,0-10.82,0-15.91,0-2.09,0-3.32,1.06-3.38,3.22-.07,2.47-.22,4.95-.06,7.41.69,10.58,1.82,21.15,2.17,31.74.94,29.16,1.58,58.34-.84,87.47-.41,5-.11,10.32-3.93,14.44l-2.11,0c-3.49-5.46-7.15-10.83-10.43-16.41-5.21-8.88-5.09-8.85-15.32-7.47a69.4,69.4,0,0,1-12,.71c-7.24-.29-12.6-5-18.59-8.35s-8.05-9.17-9.24-15.24c-1.29-6.52-1.9-13.17-2.84-20H355.3c-.64,3.45-1.21,6.54-1.77,9.58,9.91,3.33,12.85,7.61,12.42,17.75a95.35,95.35,0,0,1-.68,11.11,29.56,29.56,0,0,1-2.82,8.39c-1.15,2.29-3.1,2.53-4.74.79-1-1-1.22-2.66-1.8-4,.38-1.83.75-3.67,1.12-5.5,1.29,2.45.24,5.82,3.09,8.32,2.49-7.74,2.3-15.16,2.33-22.53,0-6.25-2.2-9.15-8.27-11.15l-2.27.88c-1.22-1.9-3.05-2.09-5.1-2-6.54.25-13.08.57-19.62.53-4.74,0-6.3,1.4-5.93,6.25.74,9.63,1.4,19.27,2.2,28.89a12.31,12.31,0,0,0,1.26,4.48c1.94,3.74,4.17,7.34,6.12,11.08a15.79,15.79,0,0,1,.9,3.76c-3.26,1-4.52-.4-5.31-2.68-.92-2.66-1.79-5.35-2.94-7.91-1.69-3.78-5.29-5.62-9.53-5.14s-7.45,2.95-8.29,7-1.64,8.32-2.1,12.52c-1.12,10.2-5.22,18.33-14.57,23.57-4.87,2.73-10.24,2.19-15.29,3.48-.78-.89-1.51-1.83-2.35-2.65-2.86-2.79-6.09-5.28-8.56-8.37a12,12,0,0,0-10.35-4.83c-4.13,0-8.27-.73-12.4-1.14-.36-.76-.51-1.92-1.1-2.22-4.25-2.19-5-6.06-5.22-10.24-.1-2.58,0-5.17,0-8.48-2.18,0-3.88,0-5.57,0-9.15.27-18.29.64-27.44.78-2,0-4.06-.7-6.1-1.08a38.77,38.77,0,0,1,5.08-.78c6.51-.17,13-.2,19.54-.28l13.28-1.06c2-.54.9-2.08,1-3.22a22.72,22.72,0,0,0-2-4.17c-1.69-2.24-3.75-4.2-5.47-6.41-4.47-5.78-6.58-12-3.43-19.21a12.24,12.24,0,0,0,.45-3.33c-14.14.64-27.83.64-41.73,2,.36,4.07.82,7.55.93,11,.22,7.41.42,14.83.3,22.24-.06,3.57-1,4.14-4.59,4.38-1.94.13-3.92,0-5.82.32a5.2,5.2,0,0,0-3,1.66c-4,5.12-7.86,10.4-11.88,15.52a70.35,70.35,0,0,1-7.27,8.31c-3.06,2.82-3.35,4.06-.17,6.4a11.12,11.12,0,0,0,6.83,2.17c4.45.05,8.89,1.12,13.34,1.77l-5.45,1.08c-8.82,0-16.94-3.12-25.14-5.79-15.78-5.13-31.6-10-48.4-10.43a34.7,34.7,0,0,0-15.92,3.06c-4.78,2.19-7.11,5.08-6.52,10.55.5,4.63.37,5.23,5,5.69,11.92,1.19,23.86,2.3,35.82,3.06,7.93.5,15.91.21,23.86.5,13.41.48,26.81,1.33,40.22,1.65,7.41.17,14.84-.58,22.26-.66,26-.26,51.9-1.45,77.41-7,10.58-.06,21.18.29,31.73-.31,11.8-.68,23.52-2.62,35.31-3.33,23.62-1.4,47.27-2.37,70.92-3.46,16.75-.78,33.52-1.46,50.28-2.25a38.94,38.94,0,0,0,5.19-.92l2,.06,2.89,18.95,43.09-.91c2.41,0,4.82,0,7.23-.05,22.58-.36,45.16-.6,67.73-1.18,5.77-.14,11.51-1.37,17.26-2.09l4.4,0c9.35-.23,18.7-.68,28.05-.63,11.65.07,23.3.55,34.95.84,4.05.11,8.1.4,12.14.25,10.41-.41,20.81-1.08,31.22-1.5,4.06-.17,8.13.17,12.19.07,10.74-.27,21.49-.58,32.22-1,4.56-.19,9.1-.83,13.65-1.26l2.49.1a36,36,0,0,0,5.68.89c3.68,0,7.35-.4,11-.54,10.14-.39,20.29-.72,30.38-1.07l1.49-3.82c2.12-.09,4.23-.13,6.35-.27,6.14-.41,12.29-.85,18.44-1.28l13-1.12,5.8-.11ZM216.8,443c4.12.21,8.07-.07,12-3.86l-5.69-1.33c-.32-.4-.94-.83-.9-1.2.52-4.93-1.81-8.87-4.37-12.73l-7.36-17.16a.89.89,0,0,0-.15-.86l.3-8.17c2.36-6.79,6.48-12.94,7.31-20.31.09-.85,1.15-1.6,1.77-2.4.43-1,.93-2.07,1.28-3.14.47-1.41.81-2.85,1.2-4.28,2.11.72,3.81.7,4-2.15l.23-2,0,0c2.38-3.55,2.59-7.34,1.56-11.4-4.41,1.3-5.67,2.44-8,7.1l-1,1.06c-1.9-.15-4.16.62-5.11-2l.91-1.15c2.35-.56,4.05-1.67,4-4.68l-3.06-.5a1.36,1.36,0,0,0-.77-.27l-4.3-3.16c-.21-7.88-1.17-15.85,3.2-22.68l-6.12-4.38c-2,.22-3.67.54-5.4.57-4.28.06-6.52,2.59-6,6.86.18,1.57.12,3.17.16,4.75-.3,1.45-.65,2.9-.89,4.36-.55,3.35-.63,6.85-3.39,9.41-1.57.13-1.9,1.11-1.87,2.51.06,3.45,0,6.9,0,10.34l.15,8.47-.07,1.09-.05,7.42q-1.62,11.16-3.22,22.3l-2.41,12.66-3.07,7.45L174.62,433A15,15,0,0,1,173,436.1c-3.39,4-2.19,8.59,2.9,9.27a92.65,92.65,0,0,0,15.8.64c5.57-.22,11.11-1.16,16.66-1.78Zm1033,58.53c-.17,3-.47,6-.48,8.94,0,1.81-.14,4.1,3.27,3.52V494.22c-2.19-.22-3.93,0-3.68,2.85a25.26,25.26,0,0,0,.65,3.06ZM181.67,300.73c-.55,4,1.63,7.31,3.11,10.78l.21,3q.94,5.42,1.9,10.82a1.37,1.37,0,0,0,.08.87c-.39,5.67-.12,11.22,2.72,16.42,1.42-5.84.37-11.69.47-17.5l.21-13.46q0-8.14,0-16.28c0-2.47,1.79-5-.11-7.39a34.5,34.5,0,0,0-1-4.55c-.72-2-1.62-3.95-4.23-4l-5.06-2.58C179,285.52,179,293.2,181.67,300.73Zm1072.24,138-1.18-1.06c-.72-1.7-1.55-3.36-2.14-5.11-2.7-8-11.64-16.91-22.16-16.16-.72.05-1.39.71-2.08,1.09l-.95,1c-1.74-1.1-3.36-1.4-5,.26-1.43,1.42-3,2.66-4.57,4l-2.47.13c-1.49.47-3.17.66-4.46,1.46q-21.57,13.38-43,26.92a4,4,0,0,0-1,.3c-25.14,16.64-52.3,29.33-80,41.05a15.3,15.3,0,0,1-5.1,1.23c-17.3.89-34.6,1.8-51.92,2.41a66.27,66.27,0,0,1-14.75-1.08c-8.14-1.57-16.12-3.89-24.21-5.72-4.1-.94-8.3-1.49-12.45-2.21l-7.76-2.2v20.74c11.82,1,22.49-2.5,33.34-4.33,3.88-.2,7.76-.34,11.64-.62q26.14-1.83,52.3-3.74c10.92-.81,21.83-1.72,32.74-2.62a6.08,6.08,0,0,0,1.47-.54c8.65,0,17.29.09,25.93.08,18.34,0,36.68,0,55-.22,9.7-.12,19.39-.74,29.08-1.13l13,1.05-10.94,1.29c1.29,10.76,2.45,20.91,3.82,31a4.05,4.05,0,0,0,2.46,2.86c1.35.2,3.44-.33,4.2-1.32a11.92,11.92,0,0,0,2.68-6.12c.54-9.15.67-18.33.94-27.5,0-.72.08-1.44.11-2.15a.54.54,0,0,1,.61-.26l1.57.21a11.9,11.9,0,0,0,3.28,1.08c4.87.06,9.74-.06,14.61-.12l9-.05c2.13,0,4.25,0,6.37-.14,12.9-.67,25.79-1.4,38.68-2.07,14.32-.74,28.64-1.4,43-2.18,1.29-.08,3.29-.49,3.64-1.31.51-1.19-.17-2.9-.38-4.67a101.71,101.71,0,0,0,38-6l-1.82-6.07c-2.59.84-5,2-7.47,2.36-7.53,1-15.09,1.91-22.67,2.22-9.19.36-18.41,0-27.62.08a38,38,0,0,1-19.84-4.82c-9.35-5.37-18.73-10.7-27.87-16.41-6.27-3.91-12.16-8.44-18.21-12.7C1257.73,439.66,1256.82,436.86,1253.91,438.78ZM587.55,334.87c.16,8.1.59,16.05,3.11,24,2.84,8.93,7.46,16.24,15,21.72a17,17,0,0,0,3.33,1.38c-.61-16.33,1.38-32.18-2.77-48l-4.77-.38c-.56-6.32-1.31-12.63-1.63-19-.26-5.4-1.6-10.26-6.47-13.06-2.64-1.51-3.28-3.34-3.14-6,.47-9,.81-18,1.36-26.94.41-6.78.52-6.77-6.06-7.32,2.76-1.93,5.28-4,6.22-7.49,1.18-4.38-1.15-7.08-5.5-6.14a20,20,0,0,0-4,1.75,15.37,15.37,0,0,0-3.31-1.74,4.39,4.39,0,0,0-5.14,1.78c-1.26,2-.55,3.7,1,5.18,1,1,2.11,1.87,3.09,2.88,1.2,1.21,2.33,2.5,3.49,3.76l-6.16,1.5c0,4-.07,7.86.06,11.69,0,1,.47,2.49,1.13,2.76,3.07,1.28,2.62,3.83,2.71,6.25.09,2.82-.29,5.75.37,8.43,1.23,5-.77,8-4.93,10.34s-6.07,6.16-5.83,11q.51,10.26,1.06,20.52c-1.68.35-3.35.81-5,1-3.54.45-4.59,1.26-5.35,4.76a17.38,17.38,0,0,0-.32,3.68c0,9.9-.12,19.8.06,29.7.06,3.41.81,6.8,1.41,11.41,2.8-2.8,5-4.53,6.62-6.72q5.45-7.49,10.37-15.35c5.2-8.34,9.23-17.09,8-27.34Z"/><path class="cls-1" d="M1440,1.33H0C.18,1,.34.33.53.32,2,.23,3.37.27,4.78.27Q720,.27,1435.22.34C1436.77.34,1438.82-.89,1440,1.33Z"/><path class="cls-2" d="M626,424.74l4.29.52v12.16a325.64,325.64,0,0,0,44,2.28c4.41,0,6.81-2.82,6.43-7.16-.4-4.57-1-9.11-1.35-13.68a33.79,33.79,0,0,1,.39-5.21,38,38,0,0,1,4.09-.51c7.25-.08,14.51-.1,21.77-.12,3.7,0,6,.94,5.74,5.05a48.53,48.53,0,0,0,.53,7.39c.47,4.72.91,9.45,1.51,14.16.87,6.82,1.92,13.62,2.82,20.44.46,3.47.42,6.89,3.13,9.82,3.94,4.24,8.21,7.53,13.89,9.24a106.23,106.23,0,0,0,36.66,4.14c1.06-.06,2.12.05,3.19.05,2.09,0,2.65,1.39,2.81,3.12.3,11,.66,22.07.83,33.1,0,2-.71,4-1.1,6.05-4.55.44-9.09,1.08-13.65,1.27-10.73.47-21.48.78-32.22,1-4.06.1-8.13-.24-12.19-.07-10.41.42-20.81,1.09-31.22,1.5-4,.15-8.09-.14-12.14-.25-11.65-.29-23.3-.77-34.95-.84-9.35,0-18.7.4-28.05.63-.71-.93-1.88-1.78-2.06-2.81a73.45,73.45,0,0,1-1.14-9.93c-.51-11.95-.88-23.91-1.31-35.87-.28-5.78-.78-11.55-.79-17.33,0-4.55.56-9.09.88-13.64q0-11.62,0-23.24a27.74,27.74,0,0,1,4.93-1.09C616.47,424.76,621.23,424.79,626,424.74Z"/><path class="cls-3" d="M466.59,514.13a38.94,38.94,0,0,1-5.19.92c-16.76.79-33.53,1.47-50.28,2.25-23.65,1.09-47.3,2.06-70.92,3.46-11.79.71-23.51,2.65-35.31,3.33-10.55.6-21.15.25-31.73.31a3.85,3.85,0,0,0,.54-.89c5.06-1.29,10.43-.75,15.3-3.48,9.35-5.24,13.45-13.37,14.57-23.57.46-4.2,1.24-8.38,2.1-12.52s3.95-6.48,8.29-7,7.84,1.36,9.53,5.14c1.15,2.56,2,5.25,2.94,7.91.79,2.28,2.05,3.65,5.31,2.68a15.79,15.79,0,0,0-.9-3.76c-1.95-3.74-4.18-7.34-6.12-11.08a12.31,12.31,0,0,1-1.26-4.48c-.8-9.62-1.46-19.26-2.2-28.89-.37-4.85,1.19-6.28,5.93-6.25,6.54,0,13.08-.28,19.62-.53,2.05-.07,3.88.12,5.1,2-1.45,10.37,2,20.07,4,30,.58,1.37.84,3,1.8,4,1.64,1.74,3.59,1.5,4.74-.79a29.56,29.56,0,0,0,2.82-8.39,95.35,95.35,0,0,0,.68-11.11c.43-10.14-2.51-14.42-12.42-17.75.56-3,1.13-6.13,1.77-9.58H397c.94,6.82,1.55,13.47,2.84,20,1.19,6.07,3.16,11.87,9.24,15.24s11.35,8.06,18.59,8.35a69.4,69.4,0,0,0,12-.71c10.23-1.38,10.11-1.41,15.32,7.47,3.28,5.58,6.94,10.95,10.43,16.41.63,6.25,1.29,12.49,1.84,18.75A7.73,7.73,0,0,1,466.59,514.13Z"/><path class="cls-4" d="M606.75,449.29c-.32,4.55-.89,9.09-.88,13.64,0,5.78.51,11.55.79,17.33a31.56,31.56,0,0,0-.84,5c-.08,11.77-.11,23.54,0,35.3a75.8,75.8,0,0,0,1,8.31c-5.75.72-11.49,2-17.26,2.09-22.57.58-45.15.82-67.73,1.18-2.41,0-4.82,0-7.23.05.31-1.41.61-2.82.92-4.22a10.81,10.81,0,0,0,4.16-8.21c.46-6.33,1-12.67.92-19-.07-4.41,1.4-7.64,5.05-9.73,2.95-1.69,3.65-3.59,2.9-7-.71-3.21-.34-6.69-.23-10a7.49,7.49,0,0,1,4.45-6.74,6.91,6.91,0,0,0,4-6.34c.21-3.28.65-6.56,1.07-10.65l23.08-1c-.3-20.88-.59-41.23-.88-61.68,13.15-7.62,18.39-21.13,25.92-33.73.73,1.72,1.47,2.74,1.59,3.83,1.33,11.83,8,20.22,17.66,26.28,3.05,1.9,3.83,3.9,3.9,7.22.22,10.56.82,21.12,1.29,32.3,2.15.15,4.19.28,6.22.45l9.39.78c-4.75.05-9.51,0-14.26.22a27.74,27.74,0,0,0-4.93,1.09C602.55,433.79,605.38,441.54,606.75,449.29Z"/><path class="cls-5" d="M515.47,528c-.31,1.4-.61,2.81-.92,4.22l-43.09.91-2.89-18.95c0-2.08.16-4.16,0-6.23-.3-5-.71-10-1.07-15,3.82-4.12,3.52-9.47,3.93-14.44,2.42-29.13,1.78-58.31.84-87.47-.35-10.59-1.48-21.16-2.17-31.74-.16-2.46,0-4.94.06-7.41.06-2.16,1.29-3.21,3.38-3.22,5.09,0,10.19,0,15.91,0A96.14,96.14,0,0,1,491,358.68c1.2,27,1.6,54.08.73,81.14-.08,2.46.28,4.93.43,7.39.63,7.72,1.23,15.45,1.9,23.16.23,2.54.65,5.06,1.11,8.53,1.15-1.48,2-2,1.92-2.53-.85-11.6-1.8-23.19-2.73-34.79.11-10.06.35-20.12.32-30.18-.08-20.31-.3-40.62-.45-60.93a10.86,10.86,0,0,1,.34-1.78H509.1c.41,11.79.89,23.4,1.19,35q.72,27.26,1.22,54.5c.26,14.66.25,29.33.52,44,.17,9.71.4,19.42,1,29.1C513.43,516.88,514.64,522.43,515.47,528Z"/><path class="cls-6" d="M170,522.67c-4.45-.65-8.89-1.72-13.34-1.77a11.12,11.12,0,0,1-6.83-2.17c-3.18-2.34-2.89-3.58.17-6.4a70.35,70.35,0,0,0,7.27-8.31c4-5.12,7.85-10.4,11.88-15.52a5.2,5.2,0,0,1,3-1.66c1.9-.32,3.88-.19,5.82-.32,3.61-.24,4.53-.81,4.59-4.38.12-7.41-.08-14.83-.3-22.24-.11-3.49-.57-7-.93-11,13.9-1.39,27.59-1.39,41.73-2a12.24,12.24,0,0,1-.45,3.33c-3.15,7.19-1,13.43,3.43,19.21,1.72,2.21,3.78,4.17,5.47,6.41a23.41,23.41,0,0,1,2.05,4.17,58.72,58.72,0,0,0-21.16-6,32.12,32.12,0,0,0-20.22,3.69,6.28,6.28,0,0,0-2.87,3.85c-.35,2,1.58,2.88,3.29,3.46a14,14,0,0,0,2,.38c2,.38,4.08,1.11,6.1,1.08,9.15-.14,18.29-.51,27.44-.78,1.69,0,3.39,0,5.57,0,0,3.31-.08,5.9,0,8.48.17,4.18,1,8.05,5.22,10.24.59.3.74,1.46,1.1,2.22-1.44,4.43-4.34,6.4-9.05,5.48a7.38,7.38,0,0,0-2.07.18c-4.54-1.51-8.69,1.05-11.86,3-4.92,3-10,4.12-15.34,5.15s-10.74,1.63-16.09,2.55S175.2,524.37,170,522.67Z"/><path class="cls-7" d="M824.64,428.12c.8-.66,1.57-1.86,2.39-1.9,9-.4,18-.87,27-.78,4.24.05,4.53.83,4.83,5.32.76,11.62,1.63,23.23,2.13,34.87.55,13.06.74,26.13,1.07,39.2,0,1.06,0,2.12,0,3.18-.26,3.48-.63,4-4.07,4.22q-9.25.69-18.54,1.11c-3.5.16-7,0-11.09,0-.5-7.26-1-14.41-1.49-21.56a44,44,0,0,0,.21-4.73c-.58-9.81-1.4-19.62-1.8-29.44S824.81,438,824.64,428.12Z"/><path class="cls-8" d="M228.93,512.18A7.38,7.38,0,0,1,231,512c4.71.92,7.61-1.05,9.05-5.48,4.13.41,8.27,1.18,12.4,1.14a12,12,0,0,1,10.35,4.83c2.47,3.09,5.7,5.58,8.56,8.37.84.82,1.57,1.76,2.34,2.65a3.85,3.85,0,0,1-.54.89c-25.51,5.53-51.42,6.72-77.41,7-7.42.08-14.85.83-22.26.66-13.41-.32-26.81-1.17-40.22-1.65-8-.29-15.93,0-23.86-.5-12-.76-23.9-1.87-35.82-3.06-4.65-.46-4.52-1.06-5-5.69-.59-5.47,1.74-8.36,6.52-10.55A34.7,34.7,0,0,1,91,507.53c16.8.48,32.62,5.3,48.4,10.43,8.2,2.67,16.32,5.79,25.14,5.79,4.53.35,9.06.82,13.59,1,4.18.17,8.46.54,12.54-.12a152.73,152.73,0,0,0,19-4.42c6.32-1.87,12.46-4.34,18.66-6.62C228.65,513.47,228.73,512.67,228.93,512.18Z"/><path class="cls-9" d="M826.66,521.15,825.17,525c-10.09.35-20.24.68-30.38,1.07-3.68.14-7.35.53-11,.54a36,36,0,0,1-5.68-.89c2-13-.52-26-.35-39a15.54,15.54,0,0,0-.76-3.55c-.29-4.71-.58-9.41-.9-14.64,4.71-.26,9.93-.67,15.16-.79q12.43-.3,24.88-.23a52.57,52.57,0,0,1,7.31,1.06c.37,8.27.71,16.54,1.12,24.8.32,6.66.72,13.31,1.09,20,.06.82.12,1.63.17,2.45l1.05,1.94c0,.61.07,1.22.1,1.83S826.76,520.61,826.66,521.15Z"/><path class="cls-10" d="M1210.19,492.71c-9.69.39-19.38,1-29.08,1.13-18.33.23-36.67.18-55,.22-8.64,0-17.28-.05-25.93-.08L1090,492.83c2-1.14,2.68-1.64,3.46-2,11.32-5.3,22.68-10.52,34-15.89,11.94-5.68,23.69-11.71,34.27-19.74a54.42,54.42,0,0,0,4.16-3.89q21.5-13.49,43-26.92c1.29-.8,3-1,4.47-1.46-4.34,8.15-5.25,16.9-5.37,26C1207.78,463.59,1208.88,478.15,1210.19,492.71ZM1110.36,489l.21,1.14,91.36-2.78c-.88-17.74-.6-35.12,2.19-52.86-1.17.9-1.95,1.55-2.77,2.15-5,3.62-9.85,7.41-15,10.81-8.51,5.64-17.18,11.05-25.8,16.53-14.75,9.36-29.47,18.77-46.51,23.63C1112.8,487.94,1111.59,488.5,1110.36,489Z"/><path class="cls-11" d="M1259.25,441c6,4.26,11.94,8.79,18.21,12.7,9.14,5.71,18.52,11,27.87,16.41a38,38,0,0,0,19.84,4.82c9.21-.12,18.43.28,27.62-.08,7.58-.31,15.14-1.27,22.67-2.22,2.5-.32,4.88-1.52,7.47-2.36l1.82,6.07a101.71,101.71,0,0,1-38,6c.21,1.77.89,3.48.38,4.67-.35.82-2.35,1.23-3.64,1.31-14.32.78-28.64,1.44-43,2.18-12.89.67-25.78,1.4-38.68,2.07-2.12.12-4.24.1-6.37.14a25.43,25.43,0,0,1,.18-2.63c2.35-13.44,3.32-26.93,1.89-40.55a49.4,49.4,0,0,1-.13-7.4C1257.43,441.74,1258.6,441.39,1259.25,441Zm72.09,42.12h9.38l0-.68h-9.4c-5.18-.9-10.54-1.25-15.53-2.81-18.7-5.84-35.41-15.46-50.57-27.82a38.32,38.32,0,0,0-3.33-2.15c.72,6.85,1.62,12.95,2,19.09s.07,12.15.07,18.43Z"/><path class="cls-12" d="M585.5,261.25c6.58.55,6.47.54,6.06,7.32-.55,9-.89,18-1.36,26.94-.14,2.65.5,4.48,3.14,6,4.87,2.8,6.21,7.66,6.47,13.06.32,6.34,1.07,12.65,1.63,19l-13.89,1.34h-2c-3.64.05-7.29.23-10.92.08a22.32,22.32,0,0,1-4.83-1.25q-.54-10.26-1.06-20.52c-.24-4.81,1.56-8.6,5.83-11s6.16-5.32,4.93-10.34c-.66-2.68-.28-5.61-.37-8.43-.09-2.42.36-5-2.71-6.25-.66-.27-1.1-1.79-1.13-2.76-.13-3.83-.06-7.66-.06-11.69l6.16-1.5Z"/><path class="cls-13" d="M1227,491.59a.54.54,0,0,0-.61.26h-14.14c-.56-8-1.36-15.5-1.55-23-.25-9.67-.14-19.37.09-29.05a31.06,31.06,0,0,1,1.66-8.19c.9-3,2.2-5.86,3.33-8.77,1.53-1.32,3.14-2.56,4.57-4,1.66-1.66,3.28-1.36,5-.26,3.42,6,4.62,12.57,4.73,19.26.09,5.06-1,10.13-1.27,15.21C1228.16,465.88,1227.63,478.74,1227,491.59Zm-5.13-65.89c-3.13,4.8-3.59,6.31-4.21,10.34a152,152,0,0,0-1.41,27.46c.19,6.87.73,13.74,1.14,20.6.13,2.29,1.21,3.06,3.53,2,.08-.74.19-1.42.23-2.11.62-11.27,1.26-22.54,1.81-33.82C1223.38,442.29,1223.77,434.35,1221.9,425.7Z"/><path class="cls-4" d="M569.79,333.69a22.32,22.32,0,0,0,4.83,1.25c3.63.15,7.28,0,10.92-.08,1.22,10.25-2.81,19-8,27.34q-4.9,7.86-10.37,15.35c-1.59,2.19-3.82,3.92-6.62,6.72-.6-4.61-1.35-8-1.41-11.41-.18-9.9-.08-19.8-.06-29.7a17.38,17.38,0,0,1,.32-3.68c.76-3.5,1.81-4.31,5.35-4.76C566.44,334.5,568.11,334,569.79,333.69Z"/><path class="cls-4" d="M587.55,334.87l13.89-1.34,4.77.38c4.15,15.85,2.16,31.7,2.77,48a17,17,0,0,1-3.33-1.38c-7.53-5.48-12.15-12.79-15-21.72C588.14,350.92,587.71,343,587.55,334.87Z"/><path class="cls-14" d="M1165.85,451.31a54.42,54.42,0,0,1-4.16,3.89c-10.58,8-22.33,14.06-34.27,19.74-11.29,5.37-22.65,10.59-34,15.89-.78.36-1.49.86-3.46,2l10.18,1.15a6.08,6.08,0,0,1-1.47.54c-10.91.9-21.82,1.81-32.74,2.62q-26.14,1.94-52.3,3.74c-3.88.28-7.76.42-11.64.62l11.24-3a3.88,3.88,0,0,0-2.36-1.51c-9.73-2.52-19.48-5-29.19-7.56a44.82,44.82,0,0,1-5.27-2.1c4.15.72,8.35,1.27,12.45,2.21,8.09,1.83,16.07,4.15,24.21,5.72a66.27,66.27,0,0,0,14.75,1.08c17.32-.61,34.62-1.52,51.92-2.41a15.3,15.3,0,0,0,5.1-1.23c27.67-11.72,54.83-24.41,80-41.05A4,4,0,0,1,1165.85,451.31Z"/><path class="cls-15" d="M958.5,506.64,948,507.86c0-2.21,0-4.41.08-6.62l2.14,3.88,5-1.07a10.3,10.3,0,0,0,.22-2.39c-1.31-6.87-3-13.64-6.13-19.94a19,19,0,0,0-2.24-2.87l-1.19,1.2a30.1,30.1,0,0,0-1.07,5c-.19,3.69-.12,7.4-.15,11.09-.35-1.06-.7-2.12-1-3.18q-.37-5.82-.73-11.64l-1.12-.06c-.37,1.44-.75,2.89-1.12,4.34-.38,5.52-.89,11-1.07,16.56-.06,2.16.62,4.36,1,6.54l-.06,2.22c-.82,7.41-2.27,14.85.84,22.27,3.27-.21,3.54-2.3,3.44-4.45-.29-5.94-.7-11.87-1.06-17.8a2,2,0,0,0-1.92-2.49c1.9-.69,3.41-1.59,3-4.05a16.2,16.2,0,0,1,.11-3.1l.63.25,1.26,8.42c0,6.32.26,12.66,0,19-.18,3.67-.33,7.83-5.12,9.31-3-2.61-3.93-5.94-4.09-9.5-.14-3.33-.06-6.68-.08-10,.2-2.23.54-4.45.57-6.68.08-4.7-.19-9.42,0-14.11.24-5.22.85-10.42,1.3-15.62.29-2.73.42-5.49.93-8.17.36-1.88.38-4.29,3.26-4.42.71,1.28,1.56,3.73,2.09,3.66,3.41-.44,5.18,2.35,7.78,3.38l-.18.28c-1.13.05-2.29.35-1.42,1.71a26.86,26.86,0,0,0,3.29,3.65c.64,1.23,1.28,2.46,1.93,3.69a23.81,23.81,0,0,0,.33,3.29c.35,1.46.9,2.87,1.37,4.3l-.21,1.48-2.2-4.25c-.59-1.28-1.17-2.55-1.75-3.83l-1.13.55,1.86,3.14c.64,2.9,1.31,5.79,1.9,8.7C957.69,501.82,958.08,504.23,958.5,506.64Z"/><path class="cls-15" d="M1226.35,417.54c.69-.38,1.36-1,2.08-1.09,10.52-.75,19.46,8.18,22.16,16.16.59,1.75,1.42,3.41,2.14,5.11-1.65.07-1.94,1.15-2,2.53-.31,6.69-.52,13.39-1,20.06-.46,5.93-1.27,11.83-1.92,17.75v-9.31h-1.16c0,5.35,0,10.71.05,16.07,0,.15.71.3,1.08.45q1.07,3.24,2.12,6.49l-3.38,1c-4.87.06-9.74.18-14.61.12a11.9,11.9,0,0,1-3.28-1.08c.4-7,.75-14.09,1.23-21.12.62-9.13,1.47-18.25,2-27.39.27-5.1,0-10.23,0-15.34a11.17,11.17,0,0,1,1,2.94,322.83,322.83,0,0,1-1.57,46,68.17,68.17,0,0,0-.22,14.87c3.65,0,6.65,0,9.64,0,2.6,0,4-1,3.91-3.77,0-1.42,0-2.83,0-4.25.07-6.71-.1-13.44.29-20.14.63-10.55,1.65-21.08,2.45-31.62a4.09,4.09,0,0,0-.61-2.48c-4.1-5.78-9.1-10.36-16.43-11.52-.51-.08-1.15.6-1.73.93Zm21.52,39.91.66.41v-6.08h-.66Z"/><path class="cls-16" d="M976.44,487.29a44.82,44.82,0,0,0,5.27,2.1c9.71,2.58,19.46,5,29.19,7.56a3.88,3.88,0,0,1,2.36,1.51l-11.24,3c-10.85,1.83-21.52,5.29-33.34,4.33V485.09Zm24.65,11.15-.09-.8-27.24-6.45v11.38Z"/><path class="cls-17" d="M1226.31,494c-.27,9.17-.4,18.35-.94,27.5a11.92,11.92,0,0,1-2.68,6.12c-.76,1-2.85,1.52-4.2,1.32a4.05,4.05,0,0,1-2.46-2.86c-1.37-10.12-2.53-20.27-3.82-31l10.94-1.29Zm-6.26,24.31c2.24-6.67,2.77-13.46,2.52-20.8l-4.49.41C1217.59,505,1217.8,511.72,1220.05,518.31Z"/><path class="cls-18" d="M232.5,483.17l-13.28,1.06c-2.62-.22-5.23-.57-7.86-.64-5.11-.13-10.23,0-15.34-.21-1.21-.05-3-.76-3.44-1.69-.86-1.82.91-2.76,2.33-3.51A28.84,28.84,0,0,1,210.22,475c1.52.34,3,.7,4.56,1,3.57.75,7.25,1.18,10.71,2.31C228.19,479.17,231.27,480,232.5,483.17Z"/><path class="cls-19" d="M210.36,405.83a.89.89,0,0,1,.15.86c-1.12,1.49-2.17,3-3.37,4.46-.94,1.11-2.06,2.08-3.48,3.49a19.1,19.1,0,0,0,3.4,1.72c4.38,1,7.92,2.89,9,7.77.16.73,1.12,1.29,1.71,1.92a8.28,8.28,0,0,1,.09,1c-.17,2.19.64,4.92-1.67,6.22-3.1,1.73-3.86,4-3.08,7.22.1.41-.37.95-.58,1.43l-4.2,1.11L203,443c.71-.91,1.41-1.83,2.08-2.68l-2.85-3.83,4-2c1.75-1.4,3.46-2.85,5.25-4.2,3.83-2.9,3.87-3.07,1.12-7.48-2.41-4.07-5.69-3.1-8.85-1.33-3.42-2.19-3.93-5.6-3.33-8.54.51-2.51,2.25-5.2,5.87-5.11,1.93.05,2-1.62,2.07-3.08l1,.07Z"/><path class="cls-20" d="M219.74,375c-.62.8-1.68,1.55-1.77,2.4-.83,7.37-4.95,13.52-7.31,20.31l-.24-7.77c-.46-3.12-3-4.52-5.13-6.28-2.77-2.3-3-4.07-1.07-7.13.72-1.14,1.31-2.38,1.95-3.57h0l2-1.11,2.33,2.91c.82-3.1,1.37-5.21,1.93-7.32.22,2.1.44,4.2.69,6.64,4.7-1.27,4.15-4.79,4.88-7.56l.94.07Z"/><path class="cls-21" d="M1249.87,491.76q-1-3.25-2.12-6.49l0-7.21c.65-5.92,1.46-11.82,1.92-17.75.51-6.67.72-13.37,1-20.06.06-1.38.35-2.46,2-2.53l1.18,1.06c.69,5,2,10,1.93,15-.17,9.1-1.18,18.19-1.84,27.28q-.46,3.9-.91,7.81C1252.87,490.82,1252,492,1249.87,491.76Zm2.91-48.5-1-.12c0,3.87.12,7.75,0,11.62-.15,3.7-.61,7.4-.91,11.09-.33,3.87-.76,7.74-.91,11.62-.14,3.65,0,7.32.07,11l1.32,0C1253,473.42,1253.85,458.38,1252.78,443.26Z"/><path class="cls-22" d="M190.22,288c1.9,2.43.15,4.92.11,7.39-3.06,1.67-2.34,4.38-1.85,7,.58,3.11,1.25,6.2,1.89,9.3l-.21,13.46-1.52,3-1.67-1.9a1.37,1.37,0,0,1-.08-.87c-.09-2.26-.32-4.53-.24-6.79,0-1.67.07-3.17-1.66-4l-.21-3q0-5.37.07-10.73c-.55-6.29-1.13-12.58-1.58-18.88,0-.38.91-.84,1.4-1.26C184.67,284.48,186.83,286.7,190.22,288Z"/><path class="cls-23" d="M354.18,438.86c6.07,2,8.3,4.9,8.27,11.15,0,7.37.16,14.79-2.33,22.53-2.85-2.5-1.8-5.87-3.09-8.32-.15-1.37-.31-2.74-.46-4.11Q355.37,449.49,354.18,438.86Z"/><path class="cls-24" d="M585.5,261.25l-4.12,0c-1.16-1.26-2.29-2.55-3.49-3.76-1-1-2.06-1.92-3.09-2.88-1.57-1.48-2.28-3.19-1-5.18a4.39,4.39,0,0,1,5.14-1.78,15.37,15.37,0,0,1,3.31,1.74,20,20,0,0,1,4-1.75c4.35-.94,6.68,1.76,5.5,6.14C590.78,257.22,588.26,259.32,585.5,261.25Z"/><path class="cls-25" d="M210.56,348.42l4.3,3.16-9.75-1,1-2.13c.12-3.33-.5-4-3.19-3.21-1,1.12-1.89,2.3-2.93,3.35-1.88,1.92-3.14,3.78-1,6.41.36.44-.12,2.22-.72,2.63a3.62,3.62,0,0,1-3.14.39c-2.68-1.51-3.5-.23-3.91,2.12h-1.06c0-3.44,0-6.89,0-10.34,0-1.4.3-2.38,1.87-2.51.82-.24,1.86-.25,2.4-.77,2.49-2.38,4.84-4.91,7.32-7.48,3.17,1.53,5.88,3.21,7.47,6.28Z"/><path class="cls-26" d="M190.31,369.72c0-.36,0-.72.07-1.09a9.4,9.4,0,0,0,.91-8.46h0l5.07,2.51,4.1-3.14c4.18,3.25,6.63,7,5.69,12.27-1.2.59-2.38,1.19-3.59,1.75s-2.16,1.3-3.24,1.29a63.55,63.55,0,0,1-6.92-.7C191.68,372.63,191,371.18,190.31,369.72Z"/><path class="cls-27" d="M209.27,345.34c-1.59-3.07-4.3-4.75-7.47-6.28-2.48,2.57-4.83,5.1-7.32,7.48-.54.52-1.58.53-2.4.77,2.76-2.56,2.84-6.06,3.39-9.41.24-1.46.59-2.91.89-4.36a33,33,0,0,0,1.29-4.26c.57-3.59,2.88-5,5.75-3a7.52,7.52,0,0,0,4.66,1.56c2.67,0,2.69,2,1.24,4.12l-5.8-1.37v5.85l4.49-1.27Z"/><path class="cls-28" d="M923.09,501.23c4-3.84,9-6.77,11.18-12.22.66.3,1.9.62,1.9.91-.17,6.84-.47,13.68-.76,20.53,0,.13-.21.26-.32.4-11.75,1.93-23.48,3.95-35.25,5.76-3.45.54-7,.52-10.47.76l2.32-1.24,2.18-.84c3.94-.24,8,.11,11.58-2.06,1.32.22,2.74.87,3.95.59,6.36-1.46,12.71-3,19-4.81s7.82-6.31,4.16-12.42c-.87.57-1.74,1.14-2.6,1.72Z"/><path class="cls-29" d="M1226.31,494l-3.16-.24-13-1.05c-1.31-14.56-2.41-29.12-2.21-43.77.12-9.11,1-17.86,5.37-26l2.46-.13c-1.13,2.91-2.43,5.78-3.33,8.77a31.06,31.06,0,0,0-1.66,8.19c-.23,9.68-.34,19.38-.09,29.05.19,7.54,1,15.07,1.55,23h14.14C1226.39,492.56,1226.35,493.28,1226.31,494Z"/><path class="cls-30" d="M209.28,404.81c-.33,0-.65-.05-1-.06h0c-.74-3.71-1.38-7.45-2.26-11.13-.81-3.37-5.87-6.91-7.81-5.28a31.91,31.91,0,0,0-7.41,8.66c-.92,1.68.3,4.53.63,7.51-1.19,2.34-2.59,5.54-4.38,8.5a78.52,78.52,0,0,1-5,6.66l-.48-.12,3.07-7.45c2.14-1.23,2.25-3.32,2.46-5.45.23-2.42.65-4.82,1-7.23q.6-2.64,1.18-5.26c4.65-8.83,7.57-10.2,15.84-7.44l1.05,1a13.71,13.71,0,0,1,3.23,10.73C209.21,400.59,209.31,402.7,209.28,404.81Z"/><path class="cls-31" d="M1226.35,417.54l2.11,1.38.6,1.8,2.61,6.5a1.84,1.84,0,0,0,.12.73c0,5.11.27,10.24,0,15.34-.49,9.14-1.34,18.26-2,27.39-.48,7-.83,14.08-1.23,21.12l-1.57-.21c.6-12.85,1.13-25.71,1.83-38.56.27-5.08,1.36-10.15,1.27-15.21-.11-6.69-1.31-13.29-4.73-19.26Z"/><path class="cls-32" d="M825.63,513.31c-.37-6.65-.77-13.3-1.09-20-.41-8.26-.75-16.53-1.12-24.8,1.05-1.09.84-2-.66-2.07-2.46-.17-5,0-7.41-.17-2.14-.17-2.82-1.29-1.43-3.19.56.76,1.08,2.13,1.7,2.17,2.53.19,5.09,0,7.58-.09-.22-5.36-.42-10.08-.61-14.8a30.35,30.35,0,0,0,1-4.92c.14-4.14,0-8.3.1-12.45a30.06,30.06,0,0,1,1-4.91c.17,9.84.17,19.69.56,29.52s1.22,19.63,1.8,29.44a44,44,0,0,1-.21,4.73,27.61,27.61,0,0,0-1,4.91C825.63,502.25,825.67,507.78,825.63,513.31Z"/><path class="cls-33" d="M822.59,450.4c.19,4.72.39,9.44.61,14.8-2.49.06-5.05.28-7.58.09-.62,0-1.14-1.41-1.7-2.17,1.12-5.12,2.14-10.27,3.41-15.36a14.73,14.73,0,0,1,3.38-6.3Q821.64,445.93,822.59,450.4Z"/><path class="cls-34" d="M209.27,345.34,208,335.13l-4.49,1.27v-5.85l5.8,1.37c1.45-2.09,1.43-4.11-1.24-4.12a7.52,7.52,0,0,1-4.66-1.56c-2.87-1.92-5.18-.55-5.75,3a33,33,0,0,1-1.29,4.26c0-1.58,0-3.18-.16-4.75-.48-4.27,1.76-6.8,6-6.86,1.73,0,3.44-.35,5.4-.57l6.12,4.38c-4.37,6.83-3.41,14.8-3.2,22.68Z"/><path class="cls-35" d="M1249.87,491.76c2.09.19,3-.94,3.22-2.86q.45-3.9.91-7.8c.66-9.09,1.67-18.18,1.84-27.28.09-5-1.24-10-1.93-15,2.91-1.92,3.82.88,5.34,2.24-.65.37-1.82.72-1.84,1.11a49.4,49.4,0,0,0,.13,7.4c1.43,13.62.46,27.11-1.89,40.55a25.43,25.43,0,0,0-.18,2.63l-9,.05Z"/><path class="cls-36" d="M203,443l5.36,0,.06,1.21c-5.55.62-11.09,1.56-16.66,1.78a92.65,92.65,0,0,1-15.8-.64c-5.09-.68-6.29-5.3-2.9-9.27a15,15,0,0,0,1.58-3.09l6.94-13.46.47.12c-.08,1.42-.15,2.83-.23,4.25-.72,1.08-1.44,2.16-2.15,3.24-4.2,3.36-2.17,9.07-5.11,12.73a8.09,8.09,0,0,0,6,4.29C188.15,445.88,195.57,444.91,203,443Z"/><path class="cls-37" d="M228.93,512.18c-.2.49-.28,1.29-.61,1.41-6.2,2.28-12.34,4.75-18.66,6.62a152.73,152.73,0,0,1-19,4.42c-4.08.66-8.36.29-12.54.12-4.53-.18-9.06-.65-13.59-1l5.45-1.08c5.2,1.7,10.41,1.07,15.64.17s10.76-1.52,16.09-2.55,10.42-2.2,15.34-5.15C220.24,513.23,224.39,510.67,228.93,512.18Z"/><path class="cls-38" d="M851.23,515.19c12.6-1,25.2-2,37.78-3.15,5.93-.55,11.82-1.51,17.73-2.29-.86.67-1.62,1.69-2.58,1.95-3.44.92-6.94,1.58-10.42,2.34L881,515.22l-7.27.19-5.48.77-14.74.34-2.26-.32C851.25,515.86,851.24,515.52,851.23,515.19Z"/><path class="cls-39" d="M184.67,280.64c-.49.42-1.43.88-1.4,1.26.45,6.3,1,12.59,1.58,18.88l-3.18,0c-2.66-7.53-2.63-15.21-1.77-23.9l5.06,2.58C184.86,279.82,184.77,280.23,184.67,280.64Z"/><path class="cls-40" d="M494.33,441.58c.93,11.6,1.88,23.19,2.73,34.79,0,.49-.77,1.05-1.92,2.53-.46-3.47-.88-6-1.11-8.53-.67-7.71-1.27-15.44-1.9-23.16l1.6,4,.6-.05Z"/><path class="cls-41" d="M966,505.61c0,.62.08,1.23.13,1.84.26,4-1.12,8.1.91,11.94l1.38,12.2c-4.62-3-4.21-7.61-4.84-11.84s-1.29-8.58-1.93-12.86Z"/><path class="cls-42" d="M205.11,350.61l9.75,1a1.36,1.36,0,0,1,.77.27c2.09,2.14-.37,3.5-.91,5.18-.3.38-.61.76-.91,1.15l-1.24-.12-8.52-3.2c-2.14,0-4.06-.37-4.62-2.77C200.73,348.81,203.06,350.31,205.11,350.61Z"/><path class="cls-43" d="M966,505.61l-4.35,1.28-1-2.3q-1-4.72-2.09-9.47l.21-1.47,4.82,8.66,1.37-.44c-.86-6-.29-12.22-2.5-18.1-.38-1-1.68-1.73-2.67-2.43-2.13-1.5-4.34-2.9-6.52-4.34l.18-.28,3.63.23,1.57.86,0,.35c5.22,2.7,7.73,6.61,7.08,12.83C965.17,495.8,965.84,500.73,966,505.61Z"/><path class="cls-44" d="M606.77,528.91a75.8,75.8,0,0,1-1-8.31c-.1-11.76-.07-23.53,0-35.3a31.56,31.56,0,0,1,.84-5c.43,12,.8,23.92,1.31,35.87a73.45,73.45,0,0,0,1.14,9.93c.18,1,1.35,1.88,2.06,2.81Z"/><path class="cls-45" d="M946.23,469.68a68.51,68.51,0,0,1,8.89-.76c5.71.2,10.69,3.67,10.25,11.05l-6.78-1.81,0-.35c0-.75,0-1.51,0-2.27l2.16-.3a10.47,10.47,0,0,0-8.37-3.49L951.08,473Z"/><path class="cls-46" d="M210.22,475a28.84,28.84,0,0,0-15.31,3.22c-1.42.75-3.19,1.69-2.33,3.51.43.93,2.23,1.64,3.44,1.69,5.11.22,10.23.08,15.34.21,2.63.07,5.24.42,7.86.64-6.51.08-13,.11-19.54.28a38.77,38.77,0,0,0-5.08.78,14,14,0,0,1-2-.38c-1.71-.58-3.64-1.49-3.29-3.46a6.28,6.28,0,0,1,2.87-3.85,32.12,32.12,0,0,1,20.22-3.69Z"/><path class="cls-36" d="M217.78,426.05c-.59-.63-1.55-1.19-1.71-1.92-1.09-4.88-4.63-6.74-9-7.77a19.1,19.1,0,0,1-3.4-1.72c1.42-1.41,2.54-2.38,3.48-3.49,1.2-1.42,2.25-3,3.37-4.46l7.36,17.16Z"/><path class="cls-47" d="M354.18,438.86q1.2,10.63,2.39,21.25c.15,1.37.31,2.74.46,4.11-.37,1.83-.74,3.67-1.12,5.5-2-9.91-5.45-19.61-4-30Z"/><path class="cls-48" d="M189.27,394.16c-.4,1.75-.79,3.5-1.19,5.26-.35,0-.69,0-1,0q1.61-11.15,3.22-22.3l7.4,1.08-5.31,7.42C190.8,388.29,188.82,390.78,189.27,394.16Z"/><path class="cls-49" d="M777,483.15a15.54,15.54,0,0,1,.76,3.55c-.17,13,2.34,26,.35,39l-2.49-.11c.39-2,1.13-4,1.1-6.05-.17-11-.53-22.07-.83-33.1Z"/><path class="cls-50" d="M1249.56,500.13a25.26,25.26,0,0,1-.65-3.06c-.25-2.85,1.49-3.07,3.68-2.85V514c-3.41.58-3.28-1.71-3.27-3.52,0-3,.31-6,.48-8.94,2.06-1.35,2.06-1.35.81-4.32C1250.17,498.43,1249.86,499.28,1249.56,500.13Z"/><path class="cls-51" d="M935.09,510.85c.11-.14.31-.27.32-.4.29-6.85.59-13.69.76-20.53,0-.29-1.24-.61-1.9-.91a16,16,0,0,0,5.09-6.74c-.45,5.2-1.06,10.4-1.3,15.62-.21,4.69.06,9.41,0,14.11,0,2.23-.37,4.45-.57,6.68-.07-1.58-.18-3.16-.19-4.74S936.82,511.17,935.09,510.85Z"/><path class="cls-52" d="M219.9,359.1c2.38-4.66,3.64-5.8,8-7.1,1,4.06.82,7.85-1.56,11.4-.11-2.31-.23-4.63-.37-7.29-4.25,2.61-4.25,2.61-2.47,8.06l2.86-.8c-.08.67-.15,1.34-.23,2l-4.18.18Z"/><path class="cls-53" d="M923.09,501.23l6.85-2.92c1,2.4,1.89,4.82.12,7.27-.12-1.61-.24-3.23-.36-4.8l-18.82,9.28-3.74-.33Z"/><path class="cls-48" d="M217.78,426.05l.09-2.2c2.56,3.86,4.89,7.8,4.37,12.73,0,.37.58.8.9,1.2.59,1.23.71,2.45-.82,2.94-1.76.58-3.61.88-5.42,1.3l-.19-.23,3.07-2.54-3.22-2.38c5-2.68,2.95-6.28,1.31-9.83A8.28,8.28,0,0,0,217.78,426.05Z"/><path class="cls-54" d="M197.66,378.22l-7.4-1.08q0-3.7.05-7.42c.68,1.46,1.37,2.91,2.09,4.43a63.55,63.55,0,0,0,6.92.7c1.08,0,2.17-.81,3.24-1.29s2.39-1.16,3.59-1.75c0,.37,0,.73,0,1.1h0a33.64,33.64,0,0,1-3.95,3.33A32.07,32.07,0,0,1,197.66,378.22Z"/><path class="cls-55" d="M187,326.19l1.67,1.9,1.52-3c-.1,5.81,1,11.66-.47,17.5C186.85,337.41,186.58,331.86,187,326.19Z"/><path class="cls-56" d="M210.22,475l2.15-1a58.72,58.72,0,0,1,21.16,6c-.13,1.14,1,2.68-1,3.22-1.23-3.2-4.31-4-7-4.88-3.46-1.13-7.14-1.56-10.71-2.31C213.25,475.66,211.74,475.3,210.22,475Z"/><path class="cls-57" d="M907.14,509.73l3.74.33,2.25,1-7.68,2.13c-3.59,2.17-7.64,1.82-11.58,2.06,0-.42-.08-.83-.13-1.25,3.48-.76,7-1.42,10.42-2.34,1-.26,1.72-1.28,2.58-1.95Z"/><path class="cls-58" d="M190.37,311.65c-.64-3.1-1.31-6.19-1.89-9.3-.49-2.6-1.21-5.31,1.85-7Q190.36,303.5,190.37,311.65Z"/><path class="cls-59" d="M467.54,492.92c.36,5,.77,10,1.07,15,.12,2.07,0,4.15,0,6.23l-2-.06a7.73,7.73,0,0,0,.68-2.5c-.55-6.26-1.21-12.5-1.84-18.75Z"/><path class="cls-60" d="M851.23,515.19c0,.33,0,.67,0,1l-8.54.85a21.31,21.31,0,0,0-12.6.15l-3.26.5-1.05-1.94Z"/><path class="cls-61" d="M958.53,495.12q1.05,4.74,2.09,9.47l-2.12,2.05c-.42-2.41-.81-4.82-1.29-7.21-.59-2.91-1.26-5.8-1.9-8.7.34,0,.68.08,1,.14Z"/><path class="cls-62" d="M826.66,521.15c.1-.54.19-1.08.29-1.62l5.32-.18,14.6-.07,4.58.32c-6.15.43-12.3.87-18.44,1.28C830.89,521,828.78,521.06,826.66,521.15Z"/><path class="cls-63" d="M946.23,469.68l4.85,3.3,6,4-3.63-.23c-2.6-1-4.37-3.82-7.78-3.38-.53.07-1.38-2.38-2.09-3.66Z"/><path class="cls-64" d="M184.67,280.64c.1-.41.19-.82.29-1.23,2.61.07,3.51,2,4.23,4a34.5,34.5,0,0,1,1,4.55C186.83,286.7,184.67,284.48,184.67,280.64Z"/><path class="cls-65" d="M219.9,359.1l2.1,6.46c.07.65.15,1.31.22,2-.39,1.43-.73,2.87-1.2,4.28-.35,1.07-.85,2.1-1.28,3.14l-.84-8.41q0-3.18,0-6.38Z"/><path class="cls-66" d="M216.9,442c1.81-.42,3.66-.72,5.42-1.3,1.53-.49,1.41-1.71.82-2.94l5.69,1.33c-4,3.79-7.91,4.07-12,3.86A3,3,0,0,1,216.9,442Z"/><path class="cls-67" d="M181.67,300.73l3.18,0q0,5.36-.07,10.73C183.3,308,181.12,304.78,181.67,300.73Z"/><path class="cls-68" d="M948.06,501.24c0,2.21-.06,4.41-.08,6.62l-1.17,2.07-1.26-8.42c.4-2.13.81-4.27,1.21-6.4.37,1.42.73,2.85,1.09,4.28Z"/><path class="cls-69" d="M218.92,360.16q0,3.19,0,6.38l-.94-.07c-.25-1.26-.5-2.53-.81-4.06l-3.64,1.92c.25-1.61.32-3.11-2-3,.35-1.08.7-2.15,1.06-3.23l1.24.12C214.76,360.78,217,360,218.92,360.16Z"/><path class="cls-54" d="M209.28,404.81c0-2.11-.07-4.22.1-6.31a13.71,13.71,0,0,0-3.23-10.73l4.27,2.12.24,7.77-.3,8.17Z"/><path class="cls-54" d="M187,399.44c.35,0,.69,0,1,0-.34,2.41-.76,4.81-1,7.23-.21,2.13-.32,4.22-2.46,5.45Q185.83,405.77,187,399.44Z"/><path class="cls-70" d="M870.22,518.37l-5.81.11L853,518.17c.13-.33.27-.66.41-1l14.81-.06,2.22.33A7.12,7.12,0,0,1,870.22,518.37Z"/><path class="cls-71" d="M853,518.17l11.45.31-13,1.12-4.58-.32a6,6,0,0,0,.18-.82Z"/><path class="cls-72" d="M870.22,518.37a7.12,7.12,0,0,0,.18-.92l4.11-.22,11.67-.17a1.32,1.32,0,0,0,.45.46Z"/><path class="cls-55" d="M185,314.5c1.73.86,1.71,2.36,1.66,4-.08,2.26.15,4.53.24,6.79Q185.95,319.9,185,314.5Z"/><path class="cls-43" d="M967,519.39c-2-3.84-.65-7.95-.91-11.94Q966.57,513.42,967,519.39Z"/><path class="cls-73" d="M214.72,357c.54-1.68,3-3,.91-5.18l3.06.5C218.77,355.36,217.07,356.47,214.72,357Z"/><path class="cls-74" d="M191.29,360.17a9.4,9.4,0,0,1-.91,8.46l-.15-8.47Z"/><path class="cls-48" d="M216.9,442a3,3,0,0,0-.1,1l-8.4,1.26-.06-1.21,4.2-1.11,4.17-.12Z"/><path class="cls-75" d="M1249.56,500.13c.3-.85.61-1.7,1-2.95,1.25,3,1.25,3-.81,4.32Z"/><path class="cls-76" d="M222.22,367.53c-.07-.66-.15-1.32-.22-2l4.18-.18C226,368.23,224.33,368.25,222.22,367.53Z"/><path class="cls-38" d="M891.69,516.13l-2.32,1.24-2.74.15a1.32,1.32,0,0,1-.45-.46,9.1,9.1,0,0,0,.16-.91Z"/><path class="cls-77" d="M606.75,449.29c-1.37-7.75-4.2-15.5,0-23.24Q606.76,437.68,606.75,449.29Z"/><path class="cls-78" d="M832.27,519.35l-5.32.18c0-.61-.06-1.22-.1-1.83l3.26-.5,2.1.31a2.07,2.07,0,0,1-.08.89A6,6,0,0,1,832.27,519.35Z"/><path class="cls-79" d="M1110.36,489c1.23-.46,2.44-1,3.71-1.38,17-4.86,31.76-14.27,46.51-23.63,8.62-5.48,17.29-10.89,25.8-16.53,5.12-3.4,10-7.19,15-10.81.82-.6,1.6-1.25,2.77-2.15-2.79,17.74-3.07,35.12-2.19,52.86l-91.36,2.78Z"/><path class="cls-80" d="M1331.34,483.14l-67.46,4.06c0-6.28.25-12.37-.07-18.43s-1.23-12.24-2-19.09a38.32,38.32,0,0,1,3.33,2.15c15.16,12.36,31.87,22,50.57,27.82,5,1.56,10.35,1.91,15.53,2.81A1.94,1.94,0,0,0,1331.34,483.14Z"/><path class="cls-81" d="M1331.34,483.14a1.94,1.94,0,0,1,0-.68h9.4l0,.68Z"/><path class="cls-82" d="M1221.9,425.7c1.87,8.65,1.48,16.59,1.09,24.51-.55,11.28-1.19,22.55-1.81,33.82,0,.69-.15,1.37-.23,2.11-2.32,1-3.4.25-3.53-2-.41-6.86-1-13.73-1.14-20.6a152,152,0,0,1,1.41-27.46C1218.31,432,1218.77,430.5,1221.9,425.7Z"/><path class="cls-83" d="M948.06,501.24l-.21-1.85-1-10.8,0,.06-1-8.57,0,0,1.19-1.2a19,19,0,0,1,2.24,2.87c3.15,6.3,4.82,13.07,6.13,19.94a10.3,10.3,0,0,1-.22,2.39l-5,1.07Zm3.26,1.36,1.93-.37L949.68,487l-1.31.26C949.88,492.29,949.41,497.66,951.32,502.6Z"/><path class="cls-84" d="M953.24,477c2.18,1.44,4.39,2.84,6.52,4.34,1,.7,2.29,1.43,2.67,2.43,2.21,5.88,1.64,12.07,2.5,18.1l-1.37.44-4.82-8.66c-.47-1.44-1-2.85-1.37-4.31a23.82,23.82,0,0,1-.33-3.28l4.14,7.27c2.27-6.46-1.36-9.51-5.64-12.23-.15.42-.29.84-.43,1.26a26.86,26.86,0,0,1-3.29-3.65C951,477.35,952.11,477.05,953.24,477Z"/><path class="cls-85" d="M943.71,510.9c.36,5.93.77,11.86,1.06,17.8.1,2.15-.17,4.24-3.44,4.45-3.11-7.42-1.66-14.86-.84-22.27Zm-1.08,9.57v-7.56h-.81v15.22h.81Z"/><path class="cls-86" d="M943.63,492.92c.34,1.06.69,2.12,1,3.18.08,1.72.17,3.44.25,5.16a16.2,16.2,0,0,0-.11,3.1c.39,2.46-1.12,3.36-3,4.05l-1.24.25c-.34-2.18-1-4.38-1-6.54.18-5.53.69-11,1.07-16.56q.44-.07.9-.12v20.79h1.23V492.88A7.87,7.87,0,0,1,943.63,492.92Z"/><path class="cls-87" d="M955.11,482.36c.14-.42.28-.84.43-1.26,4.28,2.72,7.91,5.77,5.64,12.23L957,486.06Z"/><path class="cls-88" d="M944.92,501.26c-.08-1.72-.17-3.44-.25-5.16,0-3.69,0-7.4.15-11.09a30.1,30.1,0,0,1,1.07-5l0,0,1,8.57,0-.06c0,2.17-.08,4.35-.13,6.52-.4,2.13-.81,4.27-1.21,6.4Z"/><path class="cls-89" d="M943.63,492.92a7.87,7.87,0,0,0-.84,0l-1.23-7.44q-.46,0-.9.12c.37-1.45.75-2.9,1.12-4.34l1.12.06Q943.26,487.1,943.63,492.92Z"/><path class="cls-90" d="M940.55,508.66l1.24-.25a2,2,0,0,1,1.92,2.49l-3.22,0Z"/><path class="cls-91" d="M956.33,490.87c-.34-.06-.68-.1-1-.14l-1.86-3.14,1.13-.55C955.16,488.32,955.74,489.59,956.33,490.87Z"/><path class="cls-92" d="M1229.06,420.72l-.6-1.8c.58-.32,1.22-1,1.73-.92,7.33,1.16,12.33,5.74,16.43,11.52a4.09,4.09,0,0,1,.61,2.48c-.8,10.54-1.82,21.07-2.45,31.62-.39,6.7-.22,13.43-.29,20.14,0,1.42,0,2.83,0,4.25.1,2.72-1.31,3.81-3.91,3.77-3,0-6,0-9.64,0a68.17,68.17,0,0,1,.22-14.87,322.83,322.83,0,0,0,1.57-46,11.17,11.17,0,0,0-1-2.94,1.84,1.84,0,0,1-.12-.73C1231.75,424.67,1231.84,422.12,1229.06,420.72Zm8,65.7,1.87.12c.17-1.45.43-2.9.5-4.35.73-15.85,1.25-31.71,2.25-47.53.27-4.29-1.54-6.07-5.45-7.58.72,7,1.81,13.6,2,20.2s-.89,13-1,19.5S1236.25,479.9,1237.08,486.42Z"/><path class="cls-93" d="M1247.78,478.06l0,7.21c-.37-.15-1.08-.3-1.08-.45-.06-5.36-.05-10.72-.05-16.07h1.16Z"/><path class="cls-94" d="M1247.87,457.45v-5.67h.66v6.08Z"/><path class="cls-95" d="M1001.09,498.44l-27.33,4.13V491.19l27.24,6.45Z"/><path class="cls-96" d="M1220.05,518.31c-2.25-6.59-2.46-13.28-2-20.39l4.49-.41C1222.82,504.85,1222.29,511.64,1220.05,518.31Z"/><path class="cls-97" d="M203,443c-7.41,1.93-14.83,2.9-22.49,1.2a8.09,8.09,0,0,1-6-4.29c2.94-3.66.91-9.37,5.11-12.73-.25,3.16,1.66,4.36,4.5,4.89,3.86-1.79,6.09-6.6,11.15-6.41.12,0,.25-.23.39-.34,4.11-3.33,3.67-7.93-1.24-11.73-5,2.17-8.24,6.31-11.67,10.28-.34-2.92,1.6-4.73,3.57-6.09,4.82-3.35,5.93-8.95,8.68-13.54.42-.7,0-2-.24-3a34,34,0,0,0-1.13-3.36l5.9-6.78c4.14,3.27,4.34,6.65.49,11.85,1.6.44,2.9.87,4.23,1.15s2.68.44,4,.65h0c-.05,1.45-.14,3.12-2.07,3.07-3.62-.09-5.36,2.6-5.87,5.11-.6,2.94-.09,6.35,3.33,8.54,3.16-1.77,6.44-2.74,8.85,1.33-6.6-1.7-6.61-1.7-12.17,7.27,1.81,1.57,2.41,4.69,5.8,4.41l-4,2,2.85,3.83C204.39,441.15,203.69,442.07,203,443Zm-21.75-2.58c1.21,3.31,4,3.5,6.86,3.38s5.55-.63,8.33-.79c2.2-.13,4.16-.4,5-3.53-1.43-.64-2.73-1.56-4.15-1.78-2.86-.45-5.83-.23-8.65-.8C185.17,436.18,182.86,437.25,181.23,440.4Z"/><path class="cls-98" d="M206.17,434.48c-3.39.28-4-2.84-5.8-4.41,5.56-9,5.57-9,12.17-7.27,2.75,4.41,2.71,4.58-1.12,7.48C209.63,431.63,207.92,433.08,206.17,434.48Z"/><path class="cls-36" d="M216.71,441.79l-4.17.12c.21-.48.68-1,.58-1.43-.78-3.2,0-5.49,3.08-7.22,2.31-1.3,1.5-4,1.67-6.22,1.64,3.55,3.73,7.15-1.31,9.83l3.22,2.38Z"/><path class="cls-74" d="M206.17,372.91c0-.37,0-.73,0-1.1.94-5.3-1.51-9-5.69-12.27l-4.1,3.14-5.07-2.51c.41-2.35,1.23-3.63,3.91-2.12a3.62,3.62,0,0,0,3.14-.39c.6-.41,1.08-2.19.72-2.63-2.16-2.63-.9-4.49,1-6.41,1-1.05,2-2.23,2.93-3.35a3.11,3.11,0,0,0,3.19,3.21l-1,2.13c-2.05-.3-4.38-1.8-5.68,1.48.56,2.4,2.48,2.76,4.62,2.77-.52.89-1.05,1.77-2,3.33l6.21,2.23v8.22c0,1.06-.1,2.11-.16,3.16Z"/><path class="cls-74" d="M210.42,389.89l-4.27-2.12-1.05-1c-1.84-2.18-3.67-4.36-5.13-6.11l-7.62,5,5.31-7.42a32.07,32.07,0,0,0,4.56-2,33.64,33.64,0,0,0,3.95-3.33c-.64,1.2-1.23,2.44-1.95,3.58-1.95,3.06-1.7,4.83,1.07,7.13C207.4,385.37,210,386.77,210.42,389.89Z"/><path class="cls-99" d="M213.51,364.33l3.64-1.92c.31,1.53.56,2.8.81,4.06-.73,2.77-.18,6.29-4.88,7.56-.25-2.44-.47-4.54-.69-6.64C212.77,366.37,213.14,365.35,213.51,364.33Z"/><path class="cls-100" d="M213.51,364.33c-.37,1-.74,2-1.12,3.06-.56,2.11-1.11,4.22-1.93,7.32l-2.33-2.91c.06-1.05.11-2.1.16-3.16q1.61-3.67,3.22-7.35C213.83,361.22,213.76,362.72,213.51,364.33Z"/><path class="cls-101" d="M1252.78,443.26c1.07,15.12.21,30.16-1.51,45.16l-1.32,0c0-3.66-.21-7.33-.07-11,.15-3.88.58-7.75.91-11.62.3-3.69.76-7.39.91-11.09.16-3.87,0-7.75,0-11.62Z"/><path class="cls-15" d="M1254,481.1q-.46,3.9-.91,7.8Q1253.54,485,1254,481.1Z"/><path class="cls-42" d="M206.16,348.48a3.11,3.11,0,0,1-3.19-3.21C205.66,344.52,206.28,345.15,206.16,348.48Z"/><path class="cls-102" d="M905.45,513.23l7.68-2.13,16.93-5.52c1.77-2.45.9-4.87-.12-7.27.86-.58,1.73-1.15,2.6-1.72,3.66,6.11,2.22,10.59-4.16,12.42s-12.62,3.35-19,4.81C908.19,514.1,906.77,513.45,905.45,513.23Z"/><path class="cls-103" d="M891.69,516.13l-5.35,0L881,516c0-.27,0-.53,0-.8L893.74,514c0,.42.09.83.13,1.25Z"/><path class="cls-19" d="M208.3,404.75c-1.34-.21-2.7-.36-4-.65s-2.63-.71-4.23-1.15c3.85-5.2,3.65-8.58-.49-11.85l-5.9,6.78a34,34,0,0,1,1.13,3.36c.23,1,.66,2.28.24,3-2.75,4.59-3.86,10.19-8.68,13.54-2,1.36-3.91,3.17-3.57,6.09-.33,0-.65,0-1,.07.08-1.42.15-2.83.23-4.25a76.58,76.58,0,0,0,5-6.66c1.79-3,3.19-6.16,4.38-8.5-.33-3-1.55-5.83-.63-7.51a31.91,31.91,0,0,1,7.41-8.66c1.94-1.63,7,1.91,7.81,5.28C206.92,397.3,207.56,401,208.3,404.75Z"/><path class="cls-54" d="M192.35,385.64l7.62-5c1.46,1.75,3.29,3.93,5.13,6.11-8.27-2.76-11.19-1.39-15.84,7.44C188.82,390.78,190.8,388.29,192.35,385.64Z"/><path class="cls-15" d="M1229.06,420.72c2.78,1.4,2.69,3.95,2.61,6.5Z"/><path class="cls-104" d="M181.8,423.92c.33,0,.65-.06,1-.07,3.43-4,6.71-8.11,11.67-10.28,4.91,3.8,5.35,8.4,1.24,11.73-.14.11-.27.34-.39.34-5.06-.19-7.29,4.62-11.15,6.41-2.84-.53-4.75-1.73-4.5-4.89C180.36,426.08,181.08,425,181.8,423.92Z"/><path class="cls-105" d="M853,518.17l-5.91.29-6.51-.28a2,2,0,0,0,0-.73l2.18-.4,8.54-.85,2.26.32a.9.9,0,0,1-.14.66C853.23,517.51,853.09,517.84,853,518.17Z"/><path class="cls-106" d="M853.37,517.18a.9.9,0,0,0,.14-.66l14.74-.34c0,.31,0,.63-.07.94Z"/><path class="cls-107" d="M868.18,517.12c0-.31,0-.63.07-.94l5.48-.77,1.09,1a2.62,2.62,0,0,1-.31.82l-4.11.22Z"/><path class="cls-108" d="M874.82,516.41l-1.09-1,7.27-.19c0,.27,0,.53,0,.8Z"/><path class="cls-25" d="M211.51,361.29q-1.62,3.68-3.22,7.35v-8.22l-6.21-2.23c.92-1.56,1.45-2.44,2-3.33l8.52,3.2C212.21,359.14,211.86,360.21,211.51,361.29Z"/><path class="cls-109" d="M957.05,477l-6-4,1.35-1.23,6.21,3.79c0,.76,0,1.52,0,2.27Z"/><path class="cls-110" d="M958.64,475.54l-6.21-3.79a10.47,10.47,0,0,1,8.37,3.49Z"/><path class="cls-111" d="M226.41,363.37l-2.86.8c-1.78-5.45-1.78-5.45,2.47-8.06.14,2.66.26,5,.37,7.29Z"/><path class="cls-112" d="M930.06,505.58l-16.93,5.52-2.25-1,18.82-9.28C929.82,502.35,929.94,504,930.06,505.58Z"/><path class="cls-113" d="M842.71,517.05l-2.18.4-8.32.06-2.1-.31A21.31,21.31,0,0,1,842.71,517.05Z"/><path class="cls-114" d="M840.54,518.18l6.51.28a6,6,0,0,1-.18.82l-14.6.07a6,6,0,0,0-.14-1Z"/><path class="cls-15" d="M946.76,495.11c0-2.17.09-4.35.13-6.52q.48,5.4,1,10.8C947.49,498,947.13,496.53,946.76,495.11Z"/><path class="cls-115" d="M874.82,516.41,881,516l5.35.13a9.1,9.1,0,0,1-.16.91l-11.67.17A2.62,2.62,0,0,0,874.82,516.41Z"/><path class="cls-116" d="M840.54,518.18l-8.41.22a2.07,2.07,0,0,0,.08-.89l8.32-.06A2,2,0,0,1,840.54,518.18Z"/><path class="cls-117" d="M951.32,502.6c-1.91-4.94-1.44-10.31-3-15.32l1.31-.26,3.57,15.21Z"/><path class="cls-15" d="M946.91,488.65l-1-8.57Z"/><path class="cls-118" d="M941.82,520.59v-7.67h.81v7.56A2.74,2.74,0,0,1,941.82,520.59Z"/><path class="cls-119" d="M941.82,520.59a2.74,2.74,0,0,0,.81-.12v7.67h-.81Z"/><path class="cls-120" d="M941.56,485.44l1.23,7.44v13.35h-1.23Z"/><path class="cls-121" d="M1237.08,486.42c-.83-6.52-.08-13.1.08-19.64s1.18-13,1-19.5-1.23-13.18-2-20.2c3.91,1.51,5.72,3.29,5.45,7.58-1,15.82-1.52,31.68-2.25,47.53-.07,1.45-.33,2.9-.5,4.35Z"/><path class="cls-122" d="M181.23,440.4c1.63-3.15,3.94-4.22,7.42-3.52,2.82.57,5.79.35,8.65.8,1.42.22,2.72,1.14,4.15,1.78-.87,3.13-2.83,3.4-5,3.53-2.78.16-5.55.66-8.33.79S182.44,443.71,181.23,440.4Z"/></g></g></svg>