<svg xmlns="http://www.w3.org/2000/svg" viewBox="0 0 1440 864"><defs><style>.cls-1{fill:#010000;}.cls-2{fill:#ae3c30;}.cls-3{fill:#fbd8b8;}.cls-4{fill:#6f192e;}.cls-5{fill:#dcdcdc;}.cls-6{fill:#946945;}.cls-7{fill:#70738c;}.cls-8{fill:#4b61ac;}.cls-9{fill:#c58583;}.cls-10{fill:#f5b376;}.cls-11{fill:#d67a2b;}.cls-12{fill:#ed2425;}.cls-13{fill:#ebaa6f;}.cls-14{fill:#f4b276;}.cls-15{fill:#d47a2d;}.cls-16{fill:#fac384;}.cls-17{fill:#d07c32;}.cls-18{fill:#d07d33;}.cls-19{fill:#709d61;}.cls-20{fill:#f6d5b8;}.cls-21{fill:#d67b2b;}.cls-22{fill:#85ba73;}.cls-23{fill:#d4792b;}.cls-24{fill:#71728a;}.cls-25{fill:#68915a;}.cls-26{fill:#6c935d;}.cls-27{fill:#86ba73;}.cls-28{fill:#d27c2f;}.cls-29{fill:#d27a2d;}.cls-30{fill:#351b10;}.cls-31{fill:#ee9026;}.cls-32{fill:#7cac6b;}.cls-33{fill:#d4782c;}.cls-34{fill:#719b62;}.cls-35{fill:#cd7e38;}.cls-36{fill:#c98041;}.cls-37{fill:#e78028;}.cls-38{fill:#561d2b;}.cls-39{fill:#76a069;}.cls-40{fill:#5d8051;}.cls-41{fill:#f0af73;}.cls-42{fill:#769e67;}.cls-43{fill:#2b140d;}.cls-44{fill:#ea8026;}.cls-45{fill:#401f1c;}.cls-46{fill:#516e47;}.cls-47{fill:#e69f5a;}.cls-48{fill:#592b12;}.cls-49{fill:#c57b38;}.cls-50{fill:#be773b;}.cls-51{fill:#ac5f29;}.cls-52{fill:#46151b;}.cls-53{fill:#e17f28;}.cls-54{fill:#82b471;}.cls-55{fill:#567c49;}.cls-56{fill:#5d824f;}.cls-57{fill:#c37938;}.cls-58{fill:#36141b;}.cls-59{fill:#501e29;}.cls-60{fill:#765e51;}.cls-61{fill:#7baa6a;}.cls-62{fill:#9a3d35;}.cls-63{fill:#984038;}.cls-64{fill:#533c2a;}.cls-65{fill:#eaaa70;}.cls-66{fill:#4c6344;}.cls-67{fill:#5a3219;}.cls-68{fill:#d48840;}.cls-69{fill:#6c925f;}.cls-70{fill:#7c4621;}.cls-71{fill:#877768;}.cls-72{fill:#5a3118;}.cls-73{fill:#f08024;}.cls-74{fill:#8b3e39;}.cls-75{fill:#925224;}.cls-76{fill:#5b7950;}.cls-77{fill:#cb8546;}.cls-78{fill:#792523;}.cls-79{fill:#521926;}.cls-80{fill:#9d3d3a;}.cls-81{fill:#150f18;}.cls-82{fill:#483426;}.cls-83{fill:#020201;}.cls-84{fill:#c77935;}.cls-85{fill:#915f3c;}.cls-86{fill:#080605;}.cls-87{fill:#d9b195;}.cls-88{fill:#efae73;}.cls-89{fill:#f1af72;}.cls-90{fill:#e9a769;}.cls-91{fill:#edac71;}.cls-92{fill:#4c2c16;}.cls-93{fill:#a45e2a;}.cls-94{fill:#160e0a;}.cls-95{fill:#3c261b;}.cls-96{fill:#c5956b;}.cls-97{fill:#1d1410;}.cls-98{fill:#8e4f23;}.cls-99{fill:#442015;}.cls-100{fill:#7dad6c;}.cls-101{fill:#5f8151;}.cls-102{fill:#202d1d;}.cls-103{fill:#e8a96d;}.cls-104{fill:#ce7c35;}.cls-105{fill:#7c3b1a;}.cls-106{fill:#e89850;}.cls-107{fill:#9dcf85;}.cls-108{fill:#7bac69;}.cls-109{fill:#97ca82;}.cls-110{fill:#6f9a60;}.cls-111{fill:#719e62;}.cls-112{fill:#583c24;}.cls-113{fill:#85ba72;}.cls-114{fill:#9bcc85;}.cls-115{fill:#261910;}.cls-116{fill:#402d1f;}.cls-117{fill:#b17b4e;}.cls-118{fill:#845e3b;}.cls-119{fill:#341e11;}.cls-120{fill:#986432;}.cls-121{fill:#452711;}.cls-122{fill:#0a0706;}.cls-123{fill:#010101;}.cls-124{fill:#18100b;}.cls-125{fill:#261a13;}.cls-126{fill:#aed690;}.cls-127{fill:#afd791;}.cls-128{fill:#afd790;}.cls-129{fill:#83b672;}</style></defs><g id="Layer_2" data-name="Layer 2"><g id="Layer_1-2" data-name="Layer 1"><path class="cls-1" d="M1440,864H0V0H1440ZM192.87,342.21c1.18-1.35,2.36-2.7,3.72-4.24L193,336l-.61-1c-3.06-1.72-3.76-4.41-3.38-7.72.48-4.31.74-8.65,1.1-13a1.25,1.25,0,0,0,.12-.46c2.49-1.45,2.51-4,2.92-5.49-1.69-1.27-2.86-2.2-4.07-3.06-1.5-1.06-2.68-3.51-5-1-.45.49-1.78.4-2.63.23-2.53-.5-6.37.89-7.22,3.16-.32.88.51,2.19.81,3.31-.05,1.83-.1,3.65-.16,5.48a15.59,15.59,0,0,0-1.18,2.69c-.46,1.88-.48,3.91-1.17,5.69-.75,1.95-1.67,4.73-3.2,5.29-2.61.95-2.35,2-1.6,3.85,0,1,.05,2,0,3-.15,4.73-.33,9.45-.5,14.18l-.56,3.36a33.9,33.9,0,0,0-1,4.51c-.34,3.69-.42,7.41-.77,11.09a65.1,65.1,0,0,1-1.27,8.49c-1,4.53-2.34,9-3.62,13.47-.83,2.9-1.78,5.76-2.72,8.63-.63,1.92-1.32,3.81-2,5.71a39.75,39.75,0,0,0-3.54,5c-1.67,3.35-3,6.87-4.55,10.28a3.42,3.42,0,0,1-1.62,1.76c-3.73,1.21-2.42,4.14-2.26,6.54A3.82,3.82,0,0,0,147,434c3.24.33,6.48.81,9.72.82,7.51,0,15,.06,22.54-.4a158.47,158.47,0,0,0,17.06-2.3c2.33-.4,4.54-1.51,6.8-2.3l-.05-1.13c-1.71-.76-4.09-1.09-4.95-2.41s-.43-3.79-.63-5.74c0-.41-.48-.76-.7-1.16a4.87,4.87,0,0,1-.8-1.72c-.3-3.61-2.57-6.33-4.14-9.36-1.92-5-5-9.53-5.06-15.11-.71-5.64,1.47-10.68,3.36-15.77.69-1.84,1.55-3.62,2.33-5.43.44-.95.63-2.2,1.36-2.82,1.83-1.55,2-3.37,1.75-5.54-.09-.63.43-1.37.73-2,.5-1.08,1.46-2.13,1.51-3.22a65.69,65.69,0,0,0-.41-7.13v-4.48l.81,0a19.84,19.84,0,0,0,1,4.39,6,6,0,0,0,2.54,2.59c.49.26,1.91-.38,2.32-1a25.21,25.21,0,0,0,1.82-4.22,31.13,31.13,0,0,0,1.36-12.73l-.93-.65-6.11,5.47-2.26,3.92-2.17.63C194.2,344.69,191.38,345.6,192.87,342.21Zm1076.65,168,7,.87,1.29.1,8.54.05c.74,0,1.48,0,2.22,0q17-.46,34-.92,25.37-.66,50.73-1.25c2.13,0,2.91-.9,2.22-3-.2-1-.4-2-.63-3.11.72,0,1.62-.15,2.52-.13a117.1,117.1,0,0,0,34.38-4.29c3.42-.94,3.43-.92,2.24-4.52-.07-1,.14-2.74-.27-2.91a6.6,6.6,0,0,0-3.69-.18c-3.49.79-6.9,2.42-10.4,2.59-10.59.51-21.22.9-31.81.56s-21.07.5-31.2-3.1a8.58,8.58,0,0,0-1.06-.87c-9.23-5.56-18.59-10.9-27.67-16.7-7.58-4.84-14.83-10.21-22.23-15.34l-2.32-2.25c-1.23-2.81-2.45-3.39-3.83-1.81l-1.12-.57-1.76-3.25c-.55-1.85-1.11-3.71-1.67-5.56-1.85-2.44-3.8-4.81-5.54-7.33-3.49-5-8.62-6.56-14.29-7.14-1.16-.12-2.31-.38-3.46-.58l-3.09,1.09c-1.23.4-2.65.54-3.66,1.26-2,1.46-3.84,3.22-5.74,4.86h-1.14c-1.74.18-3.66-.05-5.17.63a110.93,110.93,0,0,0-10,5.34q-14.4,8.3-28.75,16.7c-12.92,7.53-25.69,15.3-38.78,22.51-7.69,4.23-15.8,7.7-23.85,11.23-8.55,3.76-17.26,7.17-25.87,10.79-1.78.75-3.44,1.75-5.15,2.63a59.78,59.78,0,0,1-7.08,1.19c-9.73.48-19.48.79-29.21,1.17l-2.23,0c-16.34,0-32.71.89-48.69-4.05-9.39-2.91-19-5-28.53-7.51a34.8,34.8,0,0,1-4.18-1.52c-2.92-1.2-4-.63-4,2.51-.08,5.68,0,11.36,0,17a2.36,2.36,0,0,0,2.58,2.6,56.53,56.53,0,0,0,8.33.06c14.86-1.66,29.71-3.53,44.58-5.18,4.24-.48,8.54-.42,12.82-.65,5.92-.33,11.85-.7,17.77-1.05,5.49,0,11,0,16.47-.15,6.22-.22,12.43-.66,18.65-1h1.67c11.82-.26,23.64-.89,35.45-.69,19.18.31,38.34,1.36,57.52,1.72,10.52.2,21-.33,31.57-.58,2.68-.07,5.35-.32,8-.49l1.29-.09h4.27l9.48.07,3.41,0a9.81,9.81,0,0,0,2.78,1c4.81.13,9.62.15,14.42.1.64,0,1.28-.63,1.91-1ZM955.69,478.71l-2.72.47c-1.14-1.28-2.11-1.54-2.7.45l-.72,2.37a6.9,6.9,0,0,0-1.19,2.18c-.27,2.26-.3,4.56-.42,6.84-.75,3.13-2,6.23-2.17,9.39-.77,12.23-1.22,24.48-1.77,36.72a22.59,22.59,0,0,0,2.13,12.37c1,2.07,2.9,1.89,4.46.22,2.39-2.55,2.93-5.6,2.92-8.9,0-7.14,0-14.27,0-21.43,4-.38,7.27-.84,10.5-1,3.64-.13,3.84-.19,3-3.83-1-4.3-2.12-8.57-3.19-12.86l1.19-.31c1.39,5,3,10,4.11,15.05.88,4.15,1.1,8.44,1.62,12.67q1.17,7.2,2.36,14.41l2,2.53a15.47,15.47,0,0,0,.57-2.54c-.06-7.8-.12-15.59-.24-23.38q-.18-12.4-.5-24.79a3.56,3.56,0,0,0-.77-2.44c-2.15-1.7-4.48-3.17-6.74-4.73l2.28,0,.37.08a16.82,16.82,0,0,0,3.28,2.44,2.49,2.49,0,0,0,2.28-.9c.85-2.38-2.23-8.53-4.52-9.87C966.16,477,960.91,478.09,955.69,478.71ZM170.44,276.31c.12-1.1.26-2.2.36-3.31.38-4.28-.89-8.12-2.68-12-1.27-2.74-3.85-2.82-5.9-4a16,16,0,0,0-2.73-1c-.18.95-.37,1.89-.55,2.83-.19,3.44-.88,6.94-.45,10.29.88,6.81.55,13.71,3.2,20.43,1.94,4.91,1.85,10.63,2.66,16,.24,5.75.39,11.52.77,17.26.09,1.37.94,2.68,1.44,4l1-.2a33.07,33.07,0,0,0,.74-4.58c.07-3-.26-5.95-.09-8.91.31-5.41.86-10.81,1.3-16.22Q170,286.63,170.44,276.31ZM1272,519.85c0,2.29,0,4.58-.13,6.87-.07,1.45-.46,2.89-.49,4.35,0,2.33,1.12,3.31,4.23,2.68v-18.2c.31-.9.63-1.81,1-2.72-4.34-.92-5-.41-4.91,3.74A32.86,32.86,0,0,0,1272,519.85Zm-391.07,8.49c3.07,0,6.15.18,9.2,0,5.94-.39,11.86-1,17.78-1.5,2.49-.24,5-.37,7.47-.74,7.88-1.2,15.74-2.5,23.6-3.75l5.37-1.09a6.44,6.44,0,0,1-.72-7,6.58,6.58,0,0,0,.26-1.91c.39-3.76.84-7.52,1.13-11.3a8.67,8.67,0,0,0-.68-2.68c-.88.44-2.09.66-2.6,1.37a40.6,40.6,0,0,1-12.41,11.51c-4.08,2.43-8.23,4.75-12.35,7.12-6.19,1-12.36,2.47-18.6,3q-19.85,1.74-39.76,2.67c-10.3.49-20.64.39-31,.55-.28-7.32-.73-14.63-.81-21.94-.08-8.55.12-17.1.29-25.65,0-2-.88-3-2.73-3.07-3.59-.17-7.19-.26-10.79-.33q-16-.35-32.07-.62c-1.72,0-3.44.2-4.72.28,0,4,0,7.62,0,11.21a37.24,37.24,0,0,0,.43,3.79l-3.33.59c-7.23-.18-14.46-.34-21.69-.55a11.51,11.51,0,0,1-2.47-.36Q740,485.48,730.33,483c-6.31-1.61-10.27-6.42-14-11.14-1.46-1.85-1.17-5.09-1.67-7.7q-.81-6.17-1.63-12.33c-.34-4.35-.63-8.7-1-13-.28-2.91-1-5.79-1.12-8.71-.2-4,0-8,0-12s-1-5.18-5-5.27c-6-.13-11.9-.08-17.85-.11-1.92-.14-3.83-.34-5.75-.39-2.07-.06-2.9,1-2.84,3.1.14,4.7.13,9.41.17,14.12l-.27,7.53c-.08,2.54-1.06,4-3.93,3.7-3.69-.38-7.4-.66-11.1-.84-12.16-.56-24.31-1.06-36.47-1.59-1.83-.08-2.61-1.06-2.56-2.9.07-2.69-.19-5.41.07-8.09s-.93-3.5-3.48-3.45c-5,.1-10,0-15.07-.05l-5.52-1c.71-.61,1.89-1.12,2-1.85a57.6,57.6,0,0,0,.7-6.57c.55-3,1.47-6.06,1.58-9.11.24-6.68.17-13.38,0-20.07,0-1.27-1.1-2.52-1.68-3.79a42.28,42.28,0,0,1-9.84-7.42c-6.48-6.25-9.4-13.9-10.77-22.45a28.73,28.73,0,0,0-1.11-3.71c-.71.86-1,1.12-1.17,1.43-4.6,7.19-9,14.51-13.84,21.55a29.35,29.35,0,0,1-12.4,10.74,2.81,2.81,0,0,0-1.08,2.17q-.4,16.88-.64,33.76c-.07,5.66,0,11.32,0,17,0,3.61-.39,7.24-.1,10.82.2,2.43-.46,3.2-2.79,3.19-6.48-.05-13,0-19.47.06-1,0-2,.08-3.34.14a24.66,24.66,0,0,0,.52,2.64c1.91,5.9,0,13.16-6.17,16.54-.48.26-1.11.56-1.3,1-1.79,4.3-3.62,8.92-2.2,13.4a7.9,7.9,0,0,1-2.66,9.08c-4.63,3.79-5.61,8.94-6.53,14.11-.83,4.63-.63,9.45-1.36,14.11a86.42,86.42,0,0,1-2.85,11,18.77,18.77,0,0,1-1.92,3.38c2.84,0,4.95.05,7.06,0,3.15-.07,6.32-.39,9.46-.29,7.34.24,14.66.87,22,1,10.52.16,21.06.28,31.57-.12,8.68-.33,17.34-1.42,26-2.18l1.11,0c13.26.43,26.53.79,39.79,1.31,10.68.42,21.34,1,32,1.54,4.45.2,8.92.44,13.37.37,11.41-.18,22.81-.54,34.22-.8,1.75,0,3.51.15,5.26.13,8.45-.11,16.91-.22,25.36-.41,7.77-.17,15.61,1.35,23.29-1l1.13,0,2.93,1.06c2.69.05,5.38.16,8.07.14,12.08-.08,24.15-.28,36.22-.27,4.82,0,4.82.19,5.91-4.27,2.59,0,5.19.14,7.78.05,4.13-.14,8.25-.41,12.38-.63ZM185,465.9a27.2,27.2,0,0,0-16.6,1.91c-2,.86-5,1.43-4.36,4.52.58,2.66,3.38,2.23,5.39,2.37,4.18.28,8.37.34,12.55.39,7.53.09,15.06.15,22.58.07.94,0,1.88-.91,2.81-1.41.09-1.73.64-3.51-.5-5.13-2.22-2.85-4.27-5.87-6.7-8.53-4.54-4.95-6.18-15.14-2.75-20.46a14.79,14.79,0,0,0,1.15-3.37,9.23,9.23,0,0,0-1.46-.26q-12.54.35-25.06.73c-5,.15-10,.38-15,.46-4,.07-3.85.24-3.15,4.05a33.12,33.12,0,0,1,.33,3.57c-.16,9.79-.38,19.58-.58,29.36-.42,2.24-2,2.84-4,2.84-2.67,0-5.35-.07-8,.12-.67.05-1.4.87-1.89,1.49-1.64,2.08-3.1,4.32-4.8,6.35-4,4.71-8.14,9.24-12,14-1.71,2.16-3.24,4.21-6,5.21-2.26.82-2.45,2.49-.73,4.29a21.59,21.59,0,0,0,2.89,2.51c4.55,3.25,10.32.59,15,3,.24.13.7-.26,1.06-.27a6.49,6.49,0,0,1,2.12.14c2.51.86,5,1.84,7.47,2.77-5.46-.43-11.11-.1-16.34-1.44-10.34-2.66-20.44-6.25-30.66-9.43-6.5-2-13-4-19.52-6-5.46-1.67-11.23-1.43-16.71-2.49A35.16,35.16,0,0,0,37,501.2c-1.7.94-4.07,1.63-4.12,4.35,0,2.51-.38,5-.18,7.53a4.71,4.71,0,0,0,1.83,3.35,15.11,15.11,0,0,0,5.31,1.34c6.79.86,13.58,1.76,20.39,2.35,9.35.81,18.72,1.41,28.09,2,4.83.29,9.69.11,14.52.45,7.5.54,15,1.82,22.49,1.93q33.23.46,66.47.23c18.72-.09,37.37-1.2,55.72-5.28a6,6,0,0,0,1.75.6c7.53.13,15.06.26,22.58.27,3.73,0,7.46-.13,11.17-.39,8.44-.59,16.87-1.49,25.33-1.9,10.5-.51,21-.67,31.53-.94,26.91-.68,53.82-1.29,80.73-2,9.86-.26,19.71-.74,29.57-1.13l2.73,1.69,1.53,18.88c5-.29,9.44-.72,13.87-.77,10.44-.11,20.87,0,31.83,0,.23-2,1.09-4.64.74-7.15-2-14.27-1.24-28.63-1.31-42.94-.07-15.08.61-30.17,1.18-45.25.71-18.85-.4-37.72,1.2-56.59.94-11,.18-22.15.11-33.23a61.52,61.52,0,0,0-.51-7.42,2.09,2.09,0,0,0-1.56-1.26c-4.61-.1-9.21,0-13.46,0-.87,22.57-1.71,44.66-2.57,66.74-.12,3.35-.31,6.7-.41,10.05-.23,7.54-.64,15.08-.56,22.62.1,11.26.58,22.51.84,33.77a12.07,12.07,0,0,1-.65,2.88l-.82,0c-.44-1.05-1.22-2.08-1.26-3.14-.19-4.5-.11-9-.21-13.51-.17-7.81-.79-15.64-.52-23.44.5-14.56,1.75-29.11,2.22-43.68.38-11.73.19-23.48,0-35.21-.06-5-.81-9.89-1-14.84-.09-2.11-1.18-2.46-2.85-2.48-5-.07-10.05-.21-15.07-.19-1.53,0-2.83.57-2.87,2.58,0,2.88-.45,5.75-.4,8.63.16,10.05.48,20.1.67,30.16.44,23.37,0,46.73-1.89,70-.89,11-2.21,22-3.41,32.93a10.93,10.93,0,0,1-4,7.63c-4.05-1.25-4.92-5.32-6.84-8.25-2.79-4.24-4.61-9.11-7-13.61-1.17-2.17-2.46-5-5.19-5a97.14,97.14,0,0,0-15.52,1.21A20,20,0,0,1,405.27,464c-4.69-2.25-9-5.34-13.38-8.14-5.81-3.69-7.65-9.6-8.4-15.91-.83-7-1.33-14-2-21.22-1.23-.13-2.71-.38-4.19-.42-4.46-.14-8.93-.17-13.4-.3-8.19-.24-16.38-.54-24.57-.73-.66,0-1.78.44-1.92.91-1,3.43-1.86,6.92-2.77,10.46,7,.91,13.06,6.53,12.66,13.8-.33,6-.69,12.08-1.49,18.06a18.52,18.52,0,0,1-2.91,6.9c-.56.91-2.52,1.8-3.38,1.48-1.35-.52-3.07-1.92-3.32-3.2-1.22-6.23-2.2-12.52-2.87-18.83a76.76,76.76,0,0,1-.07-11.65c.18-3.86-.74-5.17-4.34-5.21q-11.74-.13-23.47-.25c-2.73,0-4.47,1.48-4.4,4.22.1,4.62.52,9.22.68,13.83.1,3.15,0,6.3,0,9.45,0,4,0,7.95.11,11.92a5.1,5.1,0,0,0,.8,2.07c2.31,4.39,4.69,8.76,7,13.17.68,1.31,1.05,3.1-.82,3.36a4.35,4.35,0,0,1-3.44-2.09,40.38,40.38,0,0,1-2.92-8.31c-1.65-6.83-9.17-8.85-14.65-5.81a10.67,10.67,0,0,0-4.65,4.94c-1.3,3.37-1.7,7.1-2.41,10.69-1,4.89-1.57,9.75-3.77,14.46-2.91,6.21-7.57,10.08-13.21,13.44-4.93,2.95-10.46,1.8-15.6,3.07a16.1,16.1,0,0,0-1.39-2c-3.3-3.34-6.95-6.39-9.86-10.05s-6-5.22-10.44-5a38.42,38.42,0,0,1-7.51-.13c-2-.3-3.94-1.32-5.91-2a18.31,18.31,0,0,0-1.52-2.3c-.59-.65-1.6-1-2-1.72a20.52,20.52,0,0,1-2.2-14.48c.46-2.43-.47-3.53-2.94-3.39s-5,.37-7.52.35c-7.25-.05-14.54-.62-21.76-.15a20.64,20.64,0,0,1-11.45-2.4,4.75,4.75,0,0,1-2.41-3,4.16,4.16,0,0,1,1.84-3.14,27.77,27.77,0,0,1,5.82-2.55,31.76,31.76,0,0,1,18.36-.93Zm1048.66,46.44a12.23,12.23,0,0,0-.53,2.93Q1234,529,1235,542.73c.08,1.2.46,2.37.62,3.57.3,2.24,1.87,3,3.75,2.77,1.26-.16,2.43-1.08,3.63-1.66,3-3.24,3.82-7.23,4-11.42.41-8,.76-16,1.17-24.73Zm-628.08-160c-.36-7.53-.66-15.07-1.18-22.59a3.1,3.1,0,0,0-2.32-1.91c-5.19-.18-10.39-.07-15.59-.12-1.53,0-2.16.58-2.15,2.14,0,4.64-.1,9.28.1,13.91.06,1.4,1,2.75,1.58,4.12.75,13.47,11.23,27.68,18.68,29.36C605,368.85,605.32,360.58,605.61,352.32Zm-52,24.05c.87.21,2.1.88,2.55.53a26.8,26.8,0,0,0,5.46-5c4.14-5.5,7.87-11.31,12-16.8a37,37,0,0,0,8-24.16c-.07-2.54-.7-3.47-3.28-3.3-7.13.48-14.26.79-21.39,1.17-.55,1-1.55,2.06-1.59,3.12-.18,4.73-.09,9.48-.09,14.23,0,.36,0,.72,0,1.08-.36.66-1,1.31-1,2C554,358.28,553.84,367.32,553.66,376.37ZM829.52,522.65c11.45-.31,22.05-.54,32.64-.92,2.23-.08,3.39-1.66,3.51-3.88.08-1.58,0-3.17.06-4.75.26-10.68.74-21.36.75-32,0-11.82-.38-23.64-.6-35.46-.07-3.72-.07-7.45-.26-11.16-.13-2.68-1.92-4.06-4.52-4.46-9.48-1.45-19-.41-28.41.1a3.8,3.8,0,0,0-2.75,2.29,75.68,75.68,0,0,0-1.55,12.94c0,6.75.67,13.51.82,20.26.22,10,.25,19.92.3,29.88C829.56,504.27,829.52,513.1,829.52,522.65ZM577.2,304.23c-5.67-4.32-8.54-4.54-13.94,0-3.42,2.91-3.15,9,.61,11.3,3.23,2,6.66,3.72,9.91,5.72,1.46.9,2.65,2.23,4,3.26,1.62,1.2,2.91.78,3.76-1a4.28,4.28,0,0,1,.62-1.18c3-3.23,6.11-6.37,9-9.66,1.82-2,1.43-7-.52-9C587,299.85,581.71,300,577.2,304.23Zm-242,127.06a71.37,71.37,0,0,0,0,8.3c.93,7.8,2,15.59,3.2,23.35a22.09,22.09,0,0,0,1.74,4.44c3.6-9.08,3.83-18.24,3.71-27.39C343.79,435,340.61,432,335.16,431.29Zm481.42,40.29h10.94c-.84-8.65-1.66-17.1-2.56-26.39-1.3,1.38-2.34,2-2.68,2.92a85.28,85.28,0,0,0-2.77,8.65c-1.08,4.18-2,8.4-2.91,12.61A11.24,11.24,0,0,0,816.58,471.58Z"/><path class="cls-2" d="M688,412.66c5.95,0,11.9,0,17.85.11,4,.09,5,1.26,5,5.27s-.15,8,0,12c.15,2.92.84,5.8,1.12,8.71.42,4.34.71,8.69,1,13a60.7,60.7,0,0,0,.05,7.14,28.38,28.38,0,0,0,1.58,5.19c.5,2.61.21,5.85,1.67,7.7,3.72,4.72,7.68,9.53,14,11.14q9.7,2.46,19.41,4.88a11.51,11.51,0,0,0,2.47.36c7.23.21,14.46.37,21.69.55,1.24.8,2.32,1.49,2.3,3.38-.11,8.91,0,17.83,0,26.75-.55.67-1.46,1.28-1.57,2-.25,1.63,0,3.34-.13,5-.26,2.51-.73,5-1.11,7.5-7.68,2.31-15.52.79-23.29,1-8.45.19-16.91.3-25.36.41-1.75,0-3.51-.17-5.26-.13-11.41.26-22.81.62-34.22.8-4.45.07-8.92-.17-13.37-.37-10.68-.49-21.34-1.12-32-1.54-13.26-.52-26.53-.88-39.79-1.31,0-6.56,0-13.11,0-19.66,0-1.14.33-2.56-1.57-2.6q-.06-6.17-.13-12.32l.15-5.56c.52-.68,1.47-1.36,1.49-2.06.14-4.6.14-9.22,0-13.82,0-.69-1-1.35-1.52-2,0-2.68-.16-5.37-.08-8.05.09-2.94.31-5.88.61-8.81.23-2.23.67-4.44,1-6.66.32-5.15.72-10.3.93-15.46.15-3.68,0-7.38,0-11.45h5.79c5,0,10,.15,15.07.05,2.55-.05,3.75.63,3.48,3.45s0,5.4-.07,8.09c-.05,1.84.73,2.82,2.56,2.9,12.16.53,24.31,1,36.47,1.59,3.7.18,7.41.46,11.1.84,2.87.3,3.85-1.16,3.93-3.7l.27-7.53c.52-.7,1.44-1.36,1.49-2.08.19-2.5.11-5,.08-7.52C681.07,412.54,680.81,412.75,688,412.66Z"/><path class="cls-3" d="M248.14,518.17c5.14-1.27,10.67-.12,15.6-3.07,5.64-3.36,10.3-7.23,13.21-13.44,2.2-4.71,2.79-9.57,3.77-14.46.71-3.59,1.11-7.32,2.41-10.69a10.67,10.67,0,0,1,4.65-4.94c5.48-3,13-1,14.65,5.81a40.38,40.38,0,0,0,2.92,8.31,4.35,4.35,0,0,0,3.44,2.09c1.87-.26,1.5-2,.82-3.36-2.28-4.41-4.66-8.78-7-13.17a5.1,5.1,0,0,1-.8-2.07c-.1-4-.1-7.95-.11-11.92,0-3.15.11-6.3,0-9.45-.16-4.61-.58-9.21-.68-13.83-.07-2.74,1.67-4.25,4.4-4.22q11.73.11,23.47.25c3.6,0,4.52,1.35,4.34,5.21a76.76,76.76,0,0,0,.07,11.65c.67,6.31,1.65,12.6,2.87,18.83.25,1.28,2,2.68,3.32,3.2.86.32,2.82-.57,3.38-1.48a18.52,18.52,0,0,0,2.91-6.9c.8-6,1.16-12,1.49-18.06.4-7.27-5.69-12.89-12.66-13.8.91-3.54,1.75-7,2.77-10.46.14-.47,1.26-.93,1.92-.91,8.19.19,16.38.49,24.57.73,4.47.13,8.94.16,13.4.3,1.48,0,3,.29,4.19.42.66,7.21,1.16,14.24,2,21.22.75,6.31,2.59,12.22,8.4,15.91,4.41,2.8,8.69,5.89,13.38,8.14a20,20,0,0,0,11.92,1.65,97.14,97.14,0,0,1,15.52-1.21c2.73,0,4,2.83,5.19,5,2.41,4.5,4.23,9.37,7,13.61,1.92,2.93,2.79,7,6.84,8.25,0,1,.06,2,.08,3-1.87,3.25-1.5,6.72-.54,10s.73,8-1.14,9.61c-9.86.39-19.71.87-29.57,1.13-26.91.72-53.82,1.33-80.73,2-10.51.27-21,.43-31.53.94-8.46.41-16.89,1.31-25.33,1.9-3.71.26-7.44.39-11.17.39-7.52,0-15.05-.14-22.58-.27a6,6,0,0,1-1.75-.6C247.71,519,247.93,518.59,248.14,518.17Z"/><path class="cls-4" d="M600,450.71c-.35,2.22-.79,4.43-1,6.66-.3,2.93-.52,5.87-.61,8.81-.08,2.68,0,5.37.08,8.05l0,17.9-.15,5.56c-.27-1.6-.55-3.2-.82-4.79-.29,7.16-.92,14.3-1.35,21.45-.3,5.08-.37,10.17-.4,15.25,0,.55,1,1.09,1.52,1.64a7,7,0,0,0,1-2.14c.16-2.25.11-4.53.15-6.79l.51,10c-8.67.76-17.33,1.85-26,2.18-10.51.4-21.05.28-31.57.12-7.34-.11-14.66-.74-22-1-3.14-.1-6.31.22-9.46.29-2.11.06-4.22,0-7.06,0a18.77,18.77,0,0,0,1.92-3.38,86.42,86.42,0,0,0,2.85-11c.73-4.66.53-9.48,1.36-14.11.92-5.17,1.9-10.32,6.53-14.11a7.9,7.9,0,0,0,2.66-9.08c-1.42-4.48.41-9.1,2.2-13.4.19-.44.82-.74,1.3-1,6.21-3.38,8.08-10.64,6.17-16.54a24.66,24.66,0,0,1-.52-2.64c1.35-.06,2.35-.14,3.34-.14,6.49,0,13-.11,19.47-.06,2.33,0,3-.76,2.79-3.19-.29-3.58.08-7.21.1-10.82,0-5.66-.06-11.32,0-17q.24-16.87.64-33.76a2.81,2.81,0,0,1,1.08-2.17,29.35,29.35,0,0,0,12.4-10.74c4.83-7,9.24-14.36,13.84-21.55.2-.31.46-.57,1.17-1.43a28.73,28.73,0,0,1,1.11,3.71c1.37,8.55,4.29,16.2,10.77,22.45a42.28,42.28,0,0,0,9.84,7.42c.2,2.21.58,4.41.56,6.61-.09,8.79-.3,17.57-.47,26.36a57.6,57.6,0,0,1-.7,6.57c-.16.73-1.34,1.24-2,1.85-.78,2.48-2.08,4.92-2.22,7.43-.32,6-.13,12,0,17.95A7.68,7.68,0,0,0,600,450.71Z"/><path class="cls-5" d="M451.84,494.28c0-1,0-2-.08-3a10.93,10.93,0,0,0,4-7.63c1.2-11,2.52-21.93,3.41-32.93,1.89-23.31,2.33-46.67,1.89-70-.19-10.06-.51-20.11-.67-30.16-.05-2.88.35-5.75.4-8.63,0-2,1.34-2.57,2.87-2.58,5,0,10.05.12,15.07.19,1.67,0,2.76.37,2.85,2.48.21,4.95,1,9.89,1,14.84.17,11.73.36,23.48,0,35.21-.47,14.57-1.72,29.12-2.22,43.68-.27,7.8.35,15.63.52,23.44.1,4.5,0,9,.21,13.51,0,1.06.82,2.09,1.26,3.14l.82,0a12.07,12.07,0,0,0,.65-2.88c-.26-11.26-.74-22.51-.84-33.77-.08-7.54.33-15.08.56-22.62.1-3.35.29-6.7.41-10.05.86-22.08,1.7-44.17,2.57-66.74,4.25,0,8.85-.05,13.46,0a2.09,2.09,0,0,1,1.56,1.26,61.52,61.52,0,0,1,.51,7.42c.07,11.08.83,22.23-.11,33.23-1.6,18.87-.49,37.74-1.2,56.59-.57,15.08-1.25,30.17-1.18,45.25.07,14.31-.68,28.67,1.31,42.94.35,2.51-.51,5.19-.74,7.15-11,0-21.39-.08-31.83,0-4.43,0-8.87.48-13.87.77-.52-6.45-1-12.66-1.53-18.88-.13-2.32-.29-4.63-.4-7C452.26,503.86,452.06,499.07,451.84,494.28Z"/><path class="cls-6" d="M144.85,516.71c-2.49-.93-5-1.91-7.47-2.77a6.49,6.49,0,0,0-2.12-.14c-.36,0-.82.4-1.06.27-4.73-2.45-10.5.21-15-3a21.59,21.59,0,0,1-2.89-2.51c-1.72-1.8-1.53-3.47.73-4.29,2.74-1,4.27-3.05,6-5.21,3.84-4.81,8-9.34,12-14,1.7-2,3.16-4.27,4.8-6.35.49-.62,1.22-1.44,1.89-1.49,2.66-.19,5.34-.13,8-.12,2,0,3.58-.6,4-2.84.6-1.58,1.69-3.15,1.72-4.75.17-8.42.13-16.85,0-25.27,0-1-1-1.94-1.48-2.91-.7-3.81-.87-4,3.15-4.05,5-.08,10-.31,15-.46q12.53-.39,25.06-.73a9.23,9.23,0,0,1,1.46.26,14.79,14.79,0,0,1-1.15,3.37c-3.43,5.32-1.79,15.51,2.75,20.46,2.43,2.66,4.48,5.68,6.7,8.53-.1,1-.21,2-.27,2.64-2.84-1.15-5.7-2.55-8.71-3.45-3.49-1.05-7.11-1.66-10.68-2.46a31.76,31.76,0,0,0-18.36.93,27.77,27.77,0,0,0-5.82,2.55,4.16,4.16,0,0,0-1.84,3.14,4.75,4.75,0,0,0,2.41,3,20.64,20.64,0,0,0,11.45,2.4c7.22-.47,14.51.1,21.76.15,2.51,0,5-.21,7.52-.35s3.4,1,2.94,3.39A20.52,20.52,0,0,0,209.5,495c.41.72,1.42,1.07,2,1.72A19,19,0,0,1,213,499c-2.67,6.1-3.08,5.62-8.79,5.56a11.35,11.35,0,0,0-3,.79c-1.82,0-3.71-.41-5.44,0a36.67,36.67,0,0,0-6.07,2.37,15.43,15.43,0,0,0-1.92.93c-1.24.73-2.36,1.88-3.69,2.21-6.27,1.52-12.56,3-18.91,4.13-2.68.47-5.53-.15-8.26.1-4.07.37-8.11,1.08-12.16,1.64Z"/><path class="cls-7" d="M829.52,522.65c0-9.55,0-18.38,0-27.2,0-10-.08-19.92-.3-29.88-.15-6.75-.85-13.51-.82-20.26a75.68,75.68,0,0,1,1.55-12.94,3.8,3.8,0,0,1,2.75-2.29c9.46-.51,18.93-1.55,28.41-.1,2.6.4,4.39,1.78,4.52,4.46.19,3.71.19,7.44.26,11.16.22,11.82.62,23.64.6,35.46,0,10.68-.49,21.36-.75,32,0,1.58,0,3.17-.06,4.75-.12,2.22-1.28,3.8-3.51,3.88C851.57,522.11,841,522.34,829.52,522.65Z"/><path class="cls-8" d="M201.26,505.36a11.35,11.35,0,0,1,3-.79c5.71.06,6.12.54,8.79-5.56,2,.7,3.88,1.72,5.91,2a38.42,38.42,0,0,0,7.51.13c4.43-.22,7.64,1.47,10.44,5s6.56,6.71,9.86,10.05a16.1,16.1,0,0,1,1.39,2c-.21.42-.43.83-.64,1.24-18.35,4.08-37,5.19-55.72,5.28q-33.24.18-66.47-.23c-7.51-.11-15-1.39-22.49-1.93-4.83-.34-9.69-.16-14.52-.45-9.37-.55-18.74-1.15-28.09-2-6.81-.59-13.6-1.49-20.39-2.35a15.11,15.11,0,0,1-5.31-1.34,4.71,4.71,0,0,1-1.83-3.35c-.2-2.49.14-5,.18-7.53,0-2.72,2.42-3.41,4.12-4.35a35.16,35.16,0,0,1,24.64-3.83c5.48,1.06,11.25.82,16.71,2.49,6.51,2,13,4,19.52,6,10.22,3.18,20.32,6.77,30.66,9.43,5.23,1.34,10.88,1,16.34,1.44h0a6.42,6.42,0,0,0,1.25.53c7,1.35,13.82.58,20.66-.93,4.68-1,9.39-1.93,14-3.1,4.1-1,8.15-2.26,12.17-3.55a56.12,56.12,0,0,0,6.49-2.63A8.22,8.22,0,0,0,201.26,505.36Z"/><path class="cls-9" d="M777.23,488.21a37.24,37.24,0,0,1-.43-3.79c-.06-3.59,0-7.19,0-11.21,1.28-.08,3-.31,4.72-.28q16,.26,32.07.62c3.6.07,7.2.16,10.79.33,1.85.09,2.77,1,2.73,3.07-.17,8.55-.37,17.1-.29,25.65.08,7.31.53,14.62.81,21.94,0,.75,0,1.5,0,2.25,0,.37,0,.75,0,1.12l.06,1.17-.06,1.06c-1.09,4.46-1.09,4.27-5.91,4.27-12.07,0-24.14.19-36.22.27-2.69,0-5.38-.09-8.07-.14a24.47,24.47,0,0,1-.35-2.95Q777.14,509.9,777.23,488.21Z"/><path class="cls-10" d="M1414.05,494c1.19,3.6,1.18,3.58-2.24,4.52a117.1,117.1,0,0,1-34.38,4.29c-.9,0-1.8.09-2.52.13.23,1.15.43,2.13.63,3.11-9.24.73-18.47,1.69-27.72,2.13-10.11.49-20.24.48-30.36.71-8.26.18-16.52.33-24.77.63-2.57.1-5.12.63-7.68,1l-4.89,0c.09-1.39.09-2.78.29-4.15.79-5.18,2.14-10.33,2.35-15.53.39-9.14.11-18.3.07-27.45a32.85,32.85,0,0,0-.4-3.56c-.26-1.57-.53-3.14-.81-4.79l1.78.78,2.32,2.25a86.48,86.48,0,0,0,7.2,7c3.2,2.49,6.78,4.48,10.15,6.75,6.52,4.39,12.9,9,19.56,13.15,4.06,2.53,8.55,4.35,12.84,6.49,3.44,1.37,6.78,3.56,10.33,4,10.33,1.11,20.76,2.32,31.11,2,10.9-.38,21.74-2.56,32.62-3.85A20.11,20.11,0,0,1,1414.05,494Zm-60.7,9.31,12.6-.54c0-.18,0-.35,0-.53h-9.33a19.44,19.44,0,0,1-4.42-.44c-7.7-2.6-15.69-4.64-22.92-8.21A299.29,299.29,0,0,1,1300.69,477c-4.78-3.05-8.81-7.26-13.79-11.47,1.65,13.62,2.6,26.6.26,39.7,2.66,0,4.87.09,7.07,0,5-.24,10-.68,15-.83C1324,504,1338.65,503.67,1353.35,503.32Z"/><path class="cls-4" d="M555.29,347.25c0-.36,0-.72,0-1.08.37-2.14.89-4.26,1.08-6.42.31-3.63.41-7.28.6-10.93,7.13-.38,14.26-.69,21.39-1.17,2.58-.17,3.21.76,3.28,3.3a37,37,0,0,1-8,24.16c-4.16,5.49-7.89,11.3-12,16.8a26.8,26.8,0,0,1-5.46,5c-.45.35-1.68-.32-2.55-.53.54-1,1.55-1.91,1.56-2.87C555.34,364.75,555.29,356,555.29,347.25Z"/><path class="cls-10" d="M1247,510l-9.48-.07c-1.25-.84-3.71.06-3.78-2.46-.22-7.76-.75-15.54-.48-23.28.35-9.85,1.33-19.68,2.12-29.51a45.53,45.53,0,0,1,1.22-7.91,41.9,41.9,0,0,1,2.63-6.06,21.13,21.13,0,0,1,2.39-4.12c1.31-1.41,2.89-3,4.62-3.42.86-.19,2.5,2.06,3.41,3.45,2.52,3.82,2.56,8.3,2.42,12.57-.23,7.08-1.23,14.13-1.62,21.21-.52,9.64-.77,19.28-1.14,28.92,0,2.4-.25,4.81-.11,7.2C1249.32,508.32,1248.8,509.48,1247,510Zm-2.27-31,.54,1.57.8-.13-.54-11.21a42.79,42.79,0,0,0,.52-4.34q.2-11.53.24-23.09a12.43,12.43,0,0,0-.71-2.69c-4.46,8.21-5.31,16.7-6.25,25.07a184.06,184.06,0,0,0-.69,19.24c-.05,6.75.16,13.5.26,20.52l4.22-.28c.2-4.42.33-8.59.6-12.75C1244,486.89,1244.41,482.93,1244.75,479Z"/><path class="cls-4" d="M605.61,352.32c-.29,8.26-.59,16.53-.88,24.91-7.45-1.68-17.93-15.89-18.68-29.36,0-5.5.07-11,0-16.49,0-1.94.62-2.64,2.57-2.59q6.43.16,12.86,0c2-.06,2.55.75,2.52,2.64-.09,5.4-.14,10.81.06,16.2C604.1,349.21,605.06,350.76,605.61,352.32Z"/><path class="cls-11" d="M949.55,482l.72-2.37c.59-2,1.56-1.73,2.7-.45-.48,4.19,3.79,5,5.5,7.65l-1.08-3.11,10.06,4.49c2.26,1.56,4.59,3,6.74,4.73a3.56,3.56,0,0,1,.77,2.44q.31,12.39.5,24.79c.12,7.79.18,15.58.24,23.38a15.47,15.47,0,0,1-.57,2.54l-2-2.53c.64-.49,1.83-1,1.83-1.45,0-6.21,0-12.42-.25-18.62,0-1.15-1-2.27-1.79-3.84-2,3.16-2.75,5.6-1.55,8.35.11.25-.39.76-.6,1.15-.52-4.23-.74-8.52-1.62-12.67-1.09-5.08-2.72-10-4.11-15.05l-1.19.31C964.87,506,966,510.3,967,514.6c.86,3.64.66,3.7-3,3.83-3.23.12-6.46.58-10.5,1,0,7.16,0,14.29,0,21.43,0,3.3-.53,6.35-2.92,8.9-1.56,1.67-3.43,1.85-4.46-.22A22.59,22.59,0,0,1,944,537.13c.55-12.24,1-24.49,1.77-36.72.2-3.16,1.42-6.26,2.17-9.39.54-.68,1.48-1.33,1.54-2C949.68,486.66,949.55,484.32,949.55,482Zm4,20.86c0,4.89-.54,9.83,1,14.72a4.3,4.3,0,0,0,1.1-2.83c-.08-2.68-.33-5.36-.52-8l.15-10.19c.16,1.38.36,2.75.47,4.12.37,4.35.66,8.7,1.06,13,.22,2.39,1.59,3.1,3.89,2.55,2.06-.5,4.12-.66,3.23-3.76s-1.34-6.12-2.15-9.15c-1.41-5.29-2.25-10.85-6.2-15-.12,2-.23,4-.35,6l-1.65-4.65Zm-5-5.11c-.44,6.46-.74,12.93-1.37,19.37-.22,2.23.91,2.6,2.47,2.64s2.83-.44,2.76-2.52c-.12-3.89-.08-7.79-.1-11.68.22-5.27.5-10.54-2-15.23Zm12-11.65-.54.79c2,4,4.08,8,5.81,12.13s3,8.51,4.59,12.71a10.59,10.59,0,0,0,2.09,2.55,8.56,8.56,0,0,0,1-2.81c-.07-4.17-.35-8.34-.53-12.51-.12-2.67-.76-5-3.21-6.6C966.66,490.35,963.64,488.19,960.57,486.1Zm-11.14,34.8c-3,3.2-3.75,19.59-1.55,25,1.83.28,2.8-.47,2.8-2.38,0-6.57.06-13.13,0-19.7C950.65,523,950,522.11,949.43,520.9Z"/><path class="cls-12" d="M577.2,304.23c4.51-4.2,9.77-4.38,13.53-.57,1.95,2,2.34,7,.52,9-2.94,3.29-6,6.43-9,9.66a4.28,4.28,0,0,0-.62,1.18c-.85,1.82-2.14,2.24-3.76,1-1.39-1-2.58-2.36-4-3.26-3.25-2-6.68-3.7-9.91-5.72-3.76-2.35-4-8.39-.61-11.3C568.66,299.69,571.53,299.91,577.2,304.23Z"/><path class="cls-13" d="M827.65,526.79c0-.75,0-1.5,0-2.25,10.32-.16,20.66-.06,31-.55q19.9-.93,39.76-2.67c6.24-.54,12.41-2,18.6-3a4.44,4.44,0,0,0,1.61-.12c6.26-3.18,12.55-6.31,18.73-9.65,3.75-2,3.66-2.18,4.08,2.28.57,6.1.26,6.69-4.58,8.79-12.38,2.91-24.73,6-37.5,6.68l-14,1.08c-2.48.17-5,.49-7.45.5-11.54,0-23.08,0-34.62,0,.55-.31,1.1-.62,1.66-.92l10.09.35,18.11,0a11.41,11.41,0,0,1,2.11-.52c5.74-.33,11.5-.42,17.21-1s11.29-1.54,16.94-2.33a7.06,7.06,0,0,0,1.66,0c7.95-2.06,15.9-4.13,23.83-6.28,2.15-.58,3.21-4.21,2-6.38-8.9,5.08-18,9.79-28,12.12-3.69.4-7.36,1-11,1.17-12.43.67-24.86,1.21-37.29,1.79l-15.86.69Z"/><path class="cls-14" d="M1233.69,512.34l14.5-1.08c-.41,8.74-.76,16.74-1.17,24.73-.21,4.19-1.08,8.18-4,11.42-5.55,1.21-6.17.71-6.58-5.3,0-.37-.06-.74-.1-1.11Q1235,526.68,1233.69,512.34Zm6.52,26.88,1,0c1-7.8,2-15.59,2.95-23.54h-5.27c0,4-.18,7.92.05,11.79S1239.75,535.31,1240.21,539.22Z"/><path class="cls-15" d="M1062.62,511.21c-5.92.35-11.85.72-17.77,1.05-4.28.23-8.58.17-12.82.65-14.87,1.65-29.72,3.52-44.58,5.18a56.53,56.53,0,0,1-8.33-.06,2.36,2.36,0,0,1-2.58-2.6c0-5.69-.07-11.37,0-17,.05-3.14,1.1-3.71,4-2.51a34.8,34.8,0,0,0,4.18,1.52c9.51,2.51,19.14,4.6,28.53,7.51,16,4.94,32.35,4.05,48.69,4.05l2.23,0a11.58,11.58,0,0,1-2.14.48c-4.64.21-9.29.31-13.93.58a24.08,24.08,0,0,0-4,.93l.15.24Zm-37.34.08c0-.32,0-.64,0-1-.93-.28-1.86-.57-2.79-.84l-18.21-5.16q-11.51-3.21-23-6.39c-1.77-.49-2.67.18-2.6,2.09.18,4.54.32,9.09.47,13.63.09,3,1.05,3.71,4,3.34,7.17-.9,14.37-1.61,21.53-2.58C1011.59,513.49,1018.43,512.34,1025.28,511.29Z"/><path class="cls-16" d="M207.4,473.75c-.93.5-1.87,1.4-2.81,1.41-7.52.08-15.05,0-22.58-.07-4.18,0-8.37-.11-12.55-.39-2-.14-4.81.29-5.39-2.37-.66-3.09,2.34-3.66,4.36-4.52A27.2,27.2,0,0,1,185,465.9C192.83,467.53,200.85,468.55,207.4,473.75Z"/><path class="cls-17" d="M1100.49,506.62c1.71-.88,3.37-1.88,5.15-2.63,8.61-3.62,17.32-7,25.87-10.79,8-3.53,16.16-7,23.85-11.23,13.09-7.21,25.86-15,38.78-22.51q14.35-8.37,28.75-16.7a110.93,110.93,0,0,1,10-5.34c1.51-.68,3.43-.45,5.17-.63l-2.13,2.82c-2-2.77-3.89-.24-5.22.54-18.64,10.84-37.64,21.05-55.45,33.34-8.32,5.74-17.76,10-27,14.24-13.86,6.43-28,12.31-42,18.42Z"/><path class="cls-18" d="M1232,510c-2.68.17-5.35.42-8,.49-10.52.25-21,.78-31.57.58-19.18-.36-38.34-1.41-57.52-1.72-11.81-.2-23.63.43-35.45.69h-1.67a4,4,0,0,1,1.23-.54c5.59-.42,11.19-.78,16.78-1.19.91-.06,1.8-.26,2.7-.39,1.39-.05,2.79-.2,4.18-.14,7.89.32,15.78.74,23.67,1,7.72.25,15.44.53,23.16.51,19.25-.06,38.51-.3,57.77-.42,2,0,2.51-.91,2.46-2.77-.22-7.24-.54-14.49-.42-21.73.17-9.56.66-19.12,1.17-28.67.08-1.51,1-3,1.52-4.44l-.06,11.16a6.4,6.4,0,0,0-1,2c-.12,2.13,0,4.26,0,6.39-.14,5.86-.52,11.73-.34,17.57C1230.81,495.64,1231.5,502.82,1232,510Z"/><path class="cls-19" d="M167.2,351.2c.17-4.73.35-9.45.5-14.18,0-1,0-2,0-3,.27-.55.38-1.35.82-1.62,2.16-1.33,4.83-2.06,5.15-5.25,0-.28,1.09-.46,2-.82v5.49A8.64,8.64,0,0,0,177,329a20.35,20.35,0,0,0,1.37-3.35c.25-1.37-.07-3,2-3,1.61.06,3.22.34,3.12,2.65a2.41,2.41,0,0,0,.77,1.6c1,.87,2.07,1.6,3.11,2.38a3.84,3.84,0,0,1,.46.11c-1.13,2.54,1,3.52,2.34,4.91l-6.64.44c.31-.74.94-1.56.89-2.35a7.34,7.34,0,0,0-1-3.46c-.37-.6-1.85-1.21-2.25-.95a8.3,8.3,0,0,0-2,2.67c-.54.89-.68,2.26-1.44,2.74-1.69,1.06-2.53,2.32-1.54,4.09s2.89,3.17,4.86,2.25c2.15-1,3.22-.09,4.54,1.15,1.47,1.37,3,2.58,5.19,1.31-.58,1.46-1.17,2.91-1.75,4.36-2.47,1.17-1.8,3.83-2.72,5.74a4.45,4.45,0,0,1-.3-5.71c.77-1.22.16-2.85-1.75-2.17-1.66.6-2.39.15-3.47-1.06s-2.94-2.74-4.82-1.1c-1.65,1.45-2.9,1.59-4.36-.12a5,5,0,0,0-1.55-.88c-2.57,2.06-2.72,2.41-2.23,4.82C169.12,348,167.63,349.54,167.2,351.2Z"/><path class="cls-20" d="M335.16,431.29c5.45.75,8.63,3.71,8.7,8.7.12,9.15-.11,18.31-3.71,27.39a22.09,22.09,0,0,1-1.74-4.44c-1.18-7.76-2.27-15.55-3.2-23.35A71.37,71.37,0,0,1,335.16,431.29Z"/><path class="cls-21" d="M1251.73,429.57c1.15.2,2.3.46,3.46.58,5.67.58,10.8,2.13,14.29,7.14,1.74,2.52,3.69,4.89,5.54,7.33a15.42,15.42,0,0,1,.31,3.55c-.77,5.62-1.8,11.2-2.51,16.83s-1.1,11-1.7,16.54c-.27,2.44-.71,4.85-1.07,7.27l-.54,15v1.61l.67-.5,1.47,1.74.6,2.88-2.72-2.32v2.92l-2.93-.64.52-.65c1.64-1.49,1.69-6.08.09-7.77h0l1-10.09c.83-12.83,1.57-25.66,3.68-38.37.46-2.73,1-6.16-.27-8.3a30.92,30.92,0,0,0-8.16-8.84,15.54,15.54,0,0,0-9.81-3.58c.85,2.55,1.61,4.8,2.37,7.06l-.53,1.71c-1.16-2.84-2.36-5.65-3.45-8.51A11.3,11.3,0,0,1,1251.73,429.57Z"/><path class="cls-22" d="M167.2,351.2c.43-1.66,1.92-3.19.57-5.05.49-.7,1-1.41,1.5-2.07,0,0,.81.33.82.52.06,1.66.79,2.9,2.48,2.57,1.25-.24,2.31-1.36,3.53-1.9.75-.34,2.14-.74,2.4-.42,2.29,2.82,6.13,4.82,5.36,9.38-.29,1.74-.48,3.51-2.92,3.75-.69.07-1.48,1-1.89,1.67-1,1.61-2,1.77-3.73,1.13-1.23-.47-2.72-.2-4-.48A39.15,39.15,0,0,1,167.2,359c-.59-1.44,1.68-3.24-.56-4.46C166.83,353.44,167,352.32,167.2,351.2Z"/><path class="cls-23" d="M1414.05,494a20.11,20.11,0,0,0-4.52-.49c-10.88,1.29-21.72,3.47-32.62,3.85-10.35.36-20.78-.85-31.11-2-3.55-.39-6.89-2.58-10.33-4l1.21-.49c10.13,3.6,20.76,2.77,31.2,3.1s21.22-.05,31.81-.56c3.5-.17,6.91-1.8,10.4-2.59a6.6,6.6,0,0,1,3.69.18C1414.19,491.27,1414,493,1414.05,494Z"/><path class="cls-24" d="M816.58,471.58a11.24,11.24,0,0,1,0-2.21c.93-4.21,1.83-8.43,2.91-12.61a85.28,85.28,0,0,1,2.77-8.65c.34-.9,1.38-1.54,2.68-2.92.9,9.29,1.72,17.74,2.56,26.39Z"/><path class="cls-25" d="M187.35,329.36c-1-.78-2.14-1.51-3.11-2.38a2.41,2.41,0,0,1-.77-1.6c.1-2.31-1.51-2.59-3.12-2.65-2.08-.07-1.76,1.59-2,3A20.35,20.35,0,0,1,177,329a8.64,8.64,0,0,1-1.33,2.75V326.3c-.89.36-1.95.54-2,.82-.32,3.19-3,3.92-5.15,5.25-.44.27-.55,1.07-.82,1.62-.75-1.81-1-2.9,1.6-3.85,1.53-.56,2.45-3.34,3.2-5.29.69-1.78.71-3.81,1.17-5.69a15.59,15.59,0,0,1,1.18-2.69c.31-1.2.65-2.38.9-3.59.21-1,.11-2.9.5-3,1.85-.48,4-1,5.71-.5,2.27.69,2.21,2,.36,3.79a4.77,4.77,0,0,0,2,8.22l.93-3.61,1.31.07Z"/><path class="cls-26" d="M191.81,408.25c1.57,3,3.84,5.75,4.14,9.36a4.87,4.87,0,0,0,.8,1.72c.22.4.65.75.7,1.16.2,1.95-.3,4.3.63,5.74s3.24,1.65,4.95,2.41l.05,1.13c-2.26.79-4.47,1.9-6.8,2.3a158.47,158.47,0,0,1-17.06,2.3c-7.49.46-15,.42-22.54.4-3.24,0-6.48-.49-9.72-.82a3.82,3.82,0,0,1-3.62-3.88c-.16-2.4-1.47-5.33,2.26-6.54a3.42,3.42,0,0,0,1.62-1.76c1.56-3.41,2.88-6.93,4.55-10.28a39.75,39.75,0,0,1,3.54-5l.3.16c-.63,1.71-1.16,3.46-1.92,5.1s-1.79,3.27-2.7,4.89c-.56,1-1.12,2-1.69,3-1.11,2-.52,4.91-3.32,6-1.73,4.44-.33,6.74,4.43,7.27l6.72,1h.59c5.63,1.23,11.19.32,16.75-.59l.54.05,11.22-1.63,4.46-1.13,5.9-1.51-2.74-3.59c2.08-3,1.9-8.11-.35-10.54C192.94,412.73,192.37,410.49,191.81,408.25Z"/><path class="cls-27" d="M190.69,430.6l-4.46,1.13-7.3.54,9.13-2.95c-1.1-1.55-1.91-2.71-2.78-3.95,1.34-1.06,2.48-2,3.65-2.89,2.54-1.92,4-4.38,3.35-7.6-.26-1.3-1.31-2.44-1.62-3.75-.61-2.59-2.48-3.86-4.39-5.43-2.61-2.15-4.35-.86-6.31.67-.09.07-.34-.07-.51-.11-1.83-5.95-1.72-5.91,3.53-8.91,1.4-.8,2.17-2.69,3.24-4.08.17,0,.35-.08.53-.13.06,5.58,3.14,10.15,5.06,15.11.56,2.24,1.13,4.48,1.69,6.71l.52,7.25a28.77,28.77,0,0,0-3.11,2,2.78,2.78,0,0,0-1.09,2c.08.59.94,1.17,1.57,1.58a9.56,9.56,0,0,0,2.17.69Z"/><path class="cls-28" d="M1285,510.49c2.56-.33,5.11-.86,7.68-1,8.25-.3,16.51-.45,24.77-.63,10.12-.23,20.25-.22,30.36-.71,9.25-.44,18.48-1.4,27.72-2.13.69,2.06-.09,2.91-2.22,3q-25.36.59-50.73,1.25-17,.44-34,.92c-.74,0-1.48,0-2.22,0Z"/><path class="cls-29" d="M1249.33,499.3c.37-9.64.62-19.28,1.14-28.92.39-7.08,1.39-14.13,1.62-21.21.14-4.27.1-8.75-2.42-12.57-.91-1.39-2.55-3.64-3.41-3.45-1.73.38-3.31,2-4.62,3.42a21.13,21.13,0,0,0-2.39,4.12c-.19-.57-.38-1.15-.58-1.72l.57-2.19c1.9-1.64,3.71-3.4,5.74-4.86,1-.72,2.43-.86,3.66-1.26,1.12,1.44,2.82,2.73,3.24,4.36a71.61,71.61,0,0,1,2.75,14.28,85.49,85.49,0,0,1-1.6,19.22c-1.73,10-2.35,20.19-3.44,30.3A1.51,1.51,0,0,1,1249.33,499.3Z"/><path class="cls-30" d="M1249.33,499.3a1.51,1.51,0,0,0,.26-.48c1.09-10.11,1.71-20.3,3.44-30.3a85.49,85.49,0,0,0,1.6-19.22,71.61,71.61,0,0,0-2.75-14.28c-.42-1.63-2.12-2.92-3.24-4.36l3.09-1.09a11.3,11.3,0,0,0,.37,2.56c1.09,2.86,2.29,5.67,3.45,8.51.12,1.85.3,3.69.35,5.54a179.08,179.08,0,0,1-2.9,37.32c-1.17,6.26-1,12.75-1.52,19.14l-1,7.36-3.41,0c1.78-.5,2.3-1.66,2.2-3.48C1249.08,504.11,1249.28,501.7,1249.33,499.3Z"/><path class="cls-31" d="M1118.45,507.93c-.9.13-1.79.33-2.7.39-5.59.41-11.19.77-16.78,1.19a4,4,0,0,0-1.23.54c-6.22.35-12.43.79-18.65,1-5.48.18-11,.11-16.47.15h-18.36l-.15-.24a24.08,24.08,0,0,1,4-.93c4.64-.27,9.29-.37,13.93-.58a11.58,11.58,0,0,0,2.14-.48c9.73-.38,19.48-.69,29.21-1.17a59.78,59.78,0,0,0,7.08-1.19l5.82-.47c1,.56,2,1.53,3.08,1.61C1112.4,508,1115.43,507.9,1118.45,507.93Z"/><path class="cls-32" d="M190.72,342.27c-2.16,1.27-3.72.06-5.19-1.31-1.32-1.24-2.39-2.16-4.54-1.15-2,.92-3.85-.44-4.86-2.25s-.15-3,1.54-4.09c.76-.48.9-1.85,1.44-2.74a8.3,8.3,0,0,1,2-2.67c.4-.26,1.88.35,2.25.95a7.34,7.34,0,0,1,1,3.46c0,.79-.58,1.61-.89,2.35l6.64-.44,2.22.59.61,1c1.08,2.76,0,4.73-2.27,6.28Z"/><path class="cls-33" d="M936.77,519.61c4.84-2.1,5.15-2.69,4.58-8.79-.42-4.46-.33-4.31-4.08-2.28-6.18,3.34-12.47,6.47-18.73,9.65a4.44,4.44,0,0,1-1.61.12c4.12-2.37,8.27-4.69,12.35-7.12a40.6,40.6,0,0,0,12.41-11.51c.51-.71,1.72-.93,2.6-1.37A8.67,8.67,0,0,1,945,501c-.29,3.78-.74,7.54-1.13,11.3a6.58,6.58,0,0,1-.26,1.91,6.44,6.44,0,0,0,.72,7l-5.37,1.09L942.6,520Z"/><path class="cls-34" d="M166.64,354.56c2.24,1.22,0,3,.56,4.46-1.19,2,.06,2.72,1.63,3.21a33.21,33.21,0,0,1,3.51.82c.49.21,1.1,1.48.91,1.75-1.29,1.85-2.83,3.53-4.2,5.33-1.93,2.53-4.24,4.91-4.06,8.46-1.26,5-2.28,10-3.83,14.89-1.37,4.27-3.33,8.35-5,12.52l-.53.62-.3-.16c.66-1.9,1.35-3.79,2-5.71.94-2.87,1.89-5.73,2.72-8.63,1.28-4.47,2.57-8.94,3.62-13.47a65.1,65.1,0,0,0,1.27-8.49c.35-3.68.43-7.4.77-11.09A33.9,33.9,0,0,1,166.64,354.56Z"/><path class="cls-35" d="M1336.68,491l-1.21.49c-4.29-2.14-8.78-4-12.84-6.49-6.66-4.15-13-8.76-19.56-13.15-3.37-2.27-7-4.26-10.15-6.75a86.48,86.48,0,0,1-7.2-7c7.4,5.13,14.65,10.5,22.23,15.34,9.08,5.8,18.44,11.14,27.67,16.7A8.58,8.58,0,0,1,1336.68,491Z"/><path class="cls-36" d="M1238.67,439c.2.57.39,1.15.58,1.72a41.9,41.9,0,0,0-2.63,6.06,45.53,45.53,0,0,0-1.22,7.91c-.79,9.83-1.77,19.66-2.12,29.51-.27,7.74.26,15.52.48,23.28.07,2.52,2.53,1.62,3.78,2.46h-4.27c-.18-2.5-.5-5-.53-7.5-.14-10.13-.18-20.26-.26-30.39q.27-5.89.53-11.79l.15-8.89Q1235.92,445.16,1238.67,439Z"/><path class="cls-37" d="M936.77,519.61l5.83.34-3.67,2.39c-7.86,1.25-15.72,2.55-23.6,3.75-2.47.37-5,.5-7.47.75l-8.59-.55C912,525.58,924.39,522.52,936.77,519.61Z"/><path class="cls-38" d="M605.61,352.32c-.55-1.56-1.51-3.11-1.57-4.69-.2-5.39-.15-10.8-.06-16.2,0-1.89-.51-2.7-2.52-2.64q-6.44.16-12.86,0c-2-.05-2.6.65-2.57,2.59.09,5.5,0,11,0,16.49-.56-1.37-1.52-2.72-1.58-4.12-.2-4.63-.05-9.27-.1-13.91,0-1.56.62-2.15,2.15-2.14,5.2.05,10.4-.06,15.59.12a3.1,3.1,0,0,1,2.32,1.91C605,337.25,605.25,344.79,605.61,352.32Z"/><path class="cls-39" d="M169.5,297c-.44,5.41-1,10.81-1.3,16.22-.17,3,.16,5.94.09,8.91a33.07,33.07,0,0,1-.74,4.58l-1,.2c-.5-1.34-1.35-2.65-1.44-4-.38-5.74-.53-11.51-.77-17.27l.18-1.5c.45,1.54.89,3.09,1.47,5.1,2.8-2.72,2.37-5.35,2.12-8a31.68,31.68,0,0,1,.14-4.24Z"/><path class="cls-40" d="M197.38,351.2a65.69,65.69,0,0,1,.41,7.13c0,1.09-1,2.14-1.51,3.22-.3.66-.82,1.4-.73,2,.29,2.17.08,4-1.75,5.54-.73.62-.92,1.87-1.36,2.82a2.39,2.39,0,0,1-.23-.22c-.24-.68-.49-1.37-.76-2.15l2.63-1.81c-1.25-2.5-2.79-4.33-6-3.85a2.2,2.2,0,0,1-1.75-1.27c-.57-2.29-.87-4.64-1.26-7l1.08-2.84.3,6.18.85.22,1.6-2c.61,1.56,0,4,2.83,3.94s4.17-1.35,4.49-4.46a49.57,49.57,0,0,0,0-5.45Z"/><path class="cls-41" d="M970.1,488.25l-.37-.08-13-7.17c.26-.45.47-1.24.8-1.3a20.92,20.92,0,0,1,12,1.07c3.26,1.35,3.89,4.32,5.1,7.74Zm-.46-2.55a7.36,7.36,0,0,0-8-3.81Z"/><path class="cls-42" d="M164.53,304.07l-.18,1.5c-.81-5.35-.72-11.07-2.66-16-2.65-6.72-2.32-13.62-3.2-20.43-.43-3.35.26-6.85.45-10.29,1.65-1.44,3.28-1.28,4.88.09l-2.47,2c-1.64-.81-1.71.54-2,2.25-.89,5.23,1.37,10.28.79,15.49-.08.71.86,2.16,1.38,2.19,3.33.18,2,2.63,2.32,4.31a13.58,13.58,0,0,0-.15,6.83C164.53,295.92,164.31,300,164.53,304.07Z"/><path class="cls-43" d="M1277.83,511.13l-1.29-.1c0-1.5.09-3,.14-4.5a6.72,6.72,0,0,0,.56-1.77,63.76,63.76,0,0,1,2.38-17.21c.36-3.75.76-7.49,1.06-11.24.23-2.74.33-5.5.49-8.25l1.06,0c.66,8.93-.78,17.71-2,26.5-.71,5.15-1.54,10.29-2.31,15.43C1277.91,510.39,1277.87,510.76,1277.83,511.13Z"/><path class="cls-44" d="M970.72,529.15c.21-.39.71-.9.6-1.15-1.2-2.75-.47-5.19,1.55-8.35.76,1.57,1.74,2.69,1.79,3.84.24,6.2.29,12.41.25,18.62,0,.48-1.19,1-1.83,1.45Q971.9,536.36,970.72,529.15Z"/><path class="cls-45" d="M777.23,488.21q-.08,21.69-.14,43.38a24.47,24.47,0,0,0,.35,2.95l-2.93-1.06,1.68-14.55c0-8.92-.1-17.84,0-26.75,0-1.89-1.06-2.58-2.3-3.38Z"/><path class="cls-46" d="M175,311c-.3-1.12-1.13-2.43-.81-3.31.85-2.27,4.69-3.66,7.22-3.16.85.17,2.18.26,2.63-.23,2.34-2.53,3.52-.08,5,1,1.21.86,2.38,1.79,4.07,3.06-.41,1.47-.43,4-2.93,5.49.63-3.17-.47-5-3.08-5.47a32.45,32.45,0,0,1-5.65-1.5C177.34,305.3,175.23,306.58,175,311Z"/><path class="cls-47" d="M843.2,527.82c11.54,0,23.08.08,34.62,0,2.48,0,5-.33,7.45-.5l-4.39,1-33.08,1.22-20.1-.48-.06-1.17Z"/><path class="cls-48" d="M1232.48,472c.08,10.13.12,20.26.26,30.39,0,2.5.35,5,.53,7.5L1232,510c-.48-7.18-1.17-14.36-1.39-21.56-.18-5.84.2-11.71.34-17.57Z"/><path class="cls-49" d="M1271.65,506.63l-1.47-1.74-.67.5v-1.61c.5-.95,1.38-1.87,1.44-2.85.24-3.48.2-7,.26-10.46a2.64,2.64,0,0,0,.34-.75c.8-7,1.68-14,2.33-21.06.42-4.56.34-9.18.81-13.74.17-1.63,1.31-3.17,2-4.74l1.76,3.25c0,.42,0,.83-.07,1.24l-2.05-1.84c-.37.53-.55.66-.57.82-1,10.36-2.11,20.71-2.94,31.09C1272.24,492,1272,499.33,1271.65,506.63Z"/><path class="cls-50" d="M1233.69,512.34q1.32,14.32,2.62,28.66c0,.37.08.74.1,1.11.41,6,1,6.51,6.58,5.3-1.2.58-2.37,1.5-3.63,1.66-1.88.24-3.45-.53-3.75-2.77-.16-1.2-.54-2.37-.62-3.57q-1-13.72-1.83-27.46A12.23,12.23,0,0,1,1233.69,512.34Z"/><path class="cls-51" d="M1276.69,450.18c-.69,1.57-1.83,3.11-2,4.74-.47,4.56-.39,9.18-.81,13.74-.65,7-1.53,14-2.33,21.06a2.64,2.64,0,0,1-.34.75l-1.16-1.66c.36-2.42.8-4.83,1.07-7.27.6-5.51,1-11.05,1.7-16.54s1.74-11.21,2.51-16.83a15.42,15.42,0,0,0-.31-3.55C1275.58,446.47,1276.14,448.33,1276.69,450.18Z"/><path class="cls-52" d="M600,450.71a7.68,7.68,0,0,1-1-2.52c-.09-6-.28-12,0-17.95.14-2.51,1.44-4.95,2.22-7.43l5.52,1H601c0,4.07.12,7.77,0,11.45C600.72,440.41,600.32,445.56,600,450.71Z"/><path class="cls-53" d="M1275.56,515.55v18.2c-3.11.63-4.28-.35-4.23-2.68,0-1.46.42-2.9.49-4.35.11-2.29.09-4.58.13-6.87.84.36,1.68.73,2.7,1.19Z"/><path class="cls-54" d="M197.89,344.45l2.26-3.92c1-.58,2-1.21,3-1.73,1.43-.72,2.89-.79,3.07,1.17a28.48,28.48,0,0,1-.39,5.1c-.37-1.28-.75-2.56-1.15-4-3.52,1.78-5.21,5.2-3.65,7.06.43.51,2.32-.2,3.54-.35l.18.67c-.53,1.42-.77,3.47-2.79,3.07-1-.21-2-1.63-2.65-2.73A24.59,24.59,0,0,1,197.89,344.45Z"/><path class="cls-55" d="M163.82,259c-1.6-1.37-3.23-1.53-4.88-.09.18-.94.37-1.88.55-2.83a16,16,0,0,1,2.73,1c2.05,1.18,4.63,1.26,5.9,4,1.79,3.87,3.06,7.71,2.68,12-.1,1.11-.24,2.21-.36,3.31a3.27,3.27,0,0,1-.54,0c-.48-2.65,2-6-.57-7.85-3.31-2.35-4.41-5.52-5.46-9A2,2,0,0,0,163.82,259Z"/><path class="cls-56" d="M175,311c.23-4.41,2.34-5.69,6.47-4.14a32.45,32.45,0,0,0,5.65,1.5c2.61.48,3.71,2.3,3.08,5.47a1.07,1.07,0,0,1-.11.46l-1,.6,0-.05c.67-1.65.68-3.38-1.32-3.67-.94-.13-2.09,1.29-3.15,2h-2.23c1.85-1.76,1.91-3.1-.36-3.79-1.72-.52-3.86,0-5.71.5-.39.1-.29,2-.5,3-.25,1.21-.59,2.39-.9,3.59C174.9,314.64,175,312.82,175,311Z"/><path class="cls-57" d="M970.1,488.25l4.5.26c-1.21-3.42-1.84-6.39-5.1-7.74a20.92,20.92,0,0,0-12-1.07c-.33.06-.54.85-.8,1.3h-1l0-2.28c5.22-.62,10.47-1.71,15.45,1.21,2.29,1.34,5.37,7.49,4.52,9.87a2.49,2.49,0,0,1-2.28.9A16.82,16.82,0,0,1,970.1,488.25Z"/><path class="cls-58" d="M604,414.39c.17-8.79.38-17.57.47-26.36,0-2.2-.36-4.4-.56-6.61.58,1.27,1.65,2.52,1.68,3.79.16,6.69.23,13.39,0,20.07C605.45,408.33,604.53,411.35,604,414.39Z"/><path class="cls-59" d="M555.29,347.25c0,8.75.05,17.5-.07,26.25,0,1-1,1.91-1.56,2.87.18-9.05.34-18.09.59-27.14C554.27,348.56,554.93,347.91,555.29,347.25Z"/><path class="cls-60" d="M153.9,441.24c.51,1,1.47,1.93,1.48,2.91.12,8.42.16,16.85,0,25.27,0,1.6-1.12,3.17-1.72,4.75.2-9.78.42-19.57.58-29.36A33.12,33.12,0,0,0,153.9,441.24Z"/><path class="cls-61" d="M169.9,276.27a3.27,3.27,0,0,0,.54,0Q170,286.63,169.5,297l-1.24,0c.22-1,.53-1.92.65-2.89a16.75,16.75,0,0,0,.33-4.6c-.42-2.68-1.22-5.3-1.86-7.94C166.79,279.06,167.22,277.12,169.9,276.27Z"/><path class="cls-62" d="M688,412.66c-7.17.09-6.91-.12-6.85,7.23,0,2.51.11,5-.08,7.52,0,.72-1,1.38-1.49,2.08,0-4.71,0-9.42-.17-14.12-.06-2.1.77-3.16,2.84-3.1C684.15,412.32,686.06,412.52,688,412.66Z"/><path class="cls-63" d="M599,532.3l-.51-10c-.05-2.61-.09-5.22-.14-7.83l.15-4.47c1.9,0,1.56,1.46,1.57,2.6,0,6.55,0,13.1,0,19.66Z"/><path class="cls-64" d="M207.4,473.75c-6.55-5.2-14.57-6.22-22.37-7.85l2.21-.55c3.57.8,7.19,1.41,10.68,2.46,3,.9,5.87,2.3,8.71,3.45.06-.61.17-1.62.27-2.64C208,470.24,207.49,472,207.4,473.75Z"/><path class="cls-40" d="M186.75,393.14a5.29,5.29,0,0,1-.54.13l-.71-3.48q.62-3.94,1.21-7.87l.61-1.15a61,61,0,0,1,2.36-6.26,13.22,13.22,0,0,1,2.53-2.79,2.39,2.39,0,0,0,.23.22c-.78,1.81-1.64,3.59-2.33,5.43C188.22,382.46,186,387.5,186.75,393.14Z"/><path class="cls-65" d="M1275.56,515.55l-.91,5.49c-1-.46-1.86-.83-2.7-1.19a32.86,32.86,0,0,1-.35-3.28c-.09-4.15.57-4.66,4.91-3.74C1276.19,513.74,1275.87,514.65,1275.56,515.55Z"/><path class="cls-51" d="M1278.38,454.67c0-.41,0-.82.07-1.24l1.12.57q.81,7,1.6,14.06c-.16,2.75-.26,5.51-.49,8.25-.3,3.75-.7,7.49-1.06,11.24,0-.92-.08-1.84-.06-2.76.16-7.87.47-15.74.43-23.6C1280,459,1279,456.84,1278.38,454.67Z"/><path class="cls-49" d="M1250.43,510l1-7.36c0,1.74.11,3.48.06,5.21,0,1.48.47,2.27,2,2.16.82-.05,1.65,0,2.47,0l10.55-.5,2.93.64c-.63.33-1.27.95-1.91,1-4.8.05-9.61,0-14.42-.1A9.81,9.81,0,0,1,1250.43,510Z"/><path class="cls-66" d="M197.89,344.45a24.59,24.59,0,0,0,1.44,4.37c.6,1.1,1.61,2.52,2.65,2.73,2,.4,2.26-1.65,2.79-3.07l1.06,0a25.21,25.21,0,0,1-1.82,4.22c-.41.62-1.83,1.26-2.32,1a6,6,0,0,1-2.54-2.59,19.84,19.84,0,0,1-1-4.39l-.81,0v4.48l-1.16.07c0-1.67,0-3.35,0-5l-.49-1.16Z"/><path class="cls-46" d="M189.05,314.88l1-.6c-.36,4.32-.62,8.66-1.1,13-.38,3.31.32,6,3.38,7.72l-2.22-.59c-1.3-1.39-3.47-2.37-2.34-4.91,0-2.85-.09-5.71.12-8.55A52.54,52.54,0,0,1,189.05,314.88Z"/><path class="cls-67" d="M1281.17,468.06q-.8-7-1.6-14.06c1.38-1.58,2.6-1,3.83,1.81l-1.78-.78c.28,1.65.55,3.22.81,4.79-.07,2.75-.13,5.51-.2,8.27Z"/><path class="cls-68" d="M880.88,528.34l4.39-1,14-1.08,8.59.55c-5.92.5-11.84,1.1-17.78,1.49C887,528.52,884,528.35,880.88,528.34Z"/><path class="cls-69" d="M205.83,348.44l-1.06,0-.18-.67,1.26-2.74a28.48,28.48,0,0,0,.39-5.1c-.18-2-1.64-1.89-3.07-1.17-1,.52-2,1.15-3,1.73l6.11-5.47.93.65A31.13,31.13,0,0,1,205.83,348.44Z"/><path class="cls-70" d="M955.73,481h1l13,7.17-2.28,0-10.06-4.49Z"/><path class="cls-71" d="M451.84,494.28c.22,4.79.42,9.58.65,14.37.11,2.32.27,4.63.4,7l-2.73-1.69c1.87-1.63,2.14-6.18,1.14-9.61S450,497.53,451.84,494.28Z"/><path class="cls-72" d="M1238.67,439q-2.75,6.18-5.51,12.37l-.75-.12q1.77-5.81,3.55-11.61h0l2.13-2.82h1.14Z"/><path class="cls-73" d="M827.7,529.08l20.1.48c-4.13.22-8.25.49-12.38.63-2.59.09-5.19,0-7.78-.05Z"/><path class="cls-74" d="M776.19,518.93l-1.68,14.55-1.13,0c.38-2.5.85-5,1.11-7.5.18-1.66-.12-3.37.13-5C774.73,520.21,775.64,519.6,776.19,518.93Z"/><path class="cls-59" d="M557,328.82c-.19,3.65-.29,7.3-.6,10.93-.19,2.16-.71,4.28-1.08,6.42,0-4.75-.09-9.5.09-14.23C555.44,330.88,556.44,329.86,557,328.82Z"/><path class="cls-75" d="M955.73,481l1.66,2.73,1.08,3.11c-1.71-2.65-6-3.46-5.5-7.65l2.72-.47C955.7,479.47,955.71,480.23,955.73,481Z"/><path class="cls-76" d="M195.72,345.08c.16.39.33.77.49,1.16-2.25-.9-3,1.35-4.44,2.12.32-2.6-1.16-2.29-2.8-1.73.58-1.45,1.17-2.9,1.75-4.36h0l2.16-.06C191.38,345.6,194.2,344.69,195.72,345.08Z"/><path class="cls-49" d="M1276.68,506.53c0,1.5-.09,3-.14,4.5l-7-.87v-3l2.72,2.32C1275,510.42,1275.29,507.66,1276.68,506.53Z"/><path class="cls-77" d="M949.55,482c0,2.32.13,4.66-.07,7-.06.72-1,1.37-1.54,2,.12-2.28.15-4.58.42-6.84A6.9,6.9,0,0,1,949.55,482Z"/><path class="cls-19" d="M192.87,342.21l-2.16.06c2.25-1.55,3.35-3.52,2.27-6.28l3.61,2C195.23,339.51,194.05,340.86,192.87,342.21Z"/><path class="cls-78" d="M714.67,464.17a28.38,28.38,0,0,1-1.58-5.19,60.7,60.7,0,0,1-.05-7.14Q713.85,458,714.67,464.17Z"/><path class="cls-49" d="M1277.83,511.13c0-.37.08-.74.11-1.11l2.18.49,4.89,0,1.36.69Z"/><path class="cls-79" d="M598.46,510l-.15,4.47-1-1.21v18c-.53-.55-1.52-1.09-1.52-1.64,0-5.08.1-10.17.4-15.25.43-7.15,1.06-14.29,1.35-21.45.27,1.59.55,3.19.82,4.79Q598.41,503.86,598.46,510Z"/><path class="cls-80" d="M598.48,492.13l0-17.9c.53.67,1.5,1.33,1.52,2,.14,4.6.14,9.22,0,13.82C600,490.77,599,491.45,598.48,492.13Z"/><path class="cls-1" d="M597.28,531.24v-18l1,1.21c.05,2.61.09,5.22.14,7.83,0,2.26,0,4.54-.15,6.79A7,7,0,0,1,597.28,531.24Z"/><path class="cls-81" d="M201.26,505.36a8.22,8.22,0,0,1-1.84,1.67,56.12,56.12,0,0,1-6.49,2.63c-4,1.29-8.07,2.53-12.17,3.55-4.65,1.17-9.36,2.06-14,3.1-6.84,1.51-13.7,2.28-20.66.93a6.42,6.42,0,0,1-1.25-.53c4.05-.56,8.09-1.27,12.16-1.64,2.73-.25,5.58.37,8.26-.1,6.35-1.14,12.64-2.61,18.91-4.13,1.33-.33,2.45-1.48,3.69-2.21a15.43,15.43,0,0,1,1.92-.93,36.67,36.67,0,0,1,6.07-2.37C197.55,505,199.44,505.32,201.26,505.36Z"/><path class="cls-82" d="M843.2,527.82l-15.56.09c0-.37,0-.75,0-1.12l16.89-.26a2.17,2.17,0,0,1,.32.36Z"/><path class="cls-83" d="M1353.35,503.32c-14.7.35-29.39.66-44.09,1.08-5,.15-10,.59-15,.83-2.2.1-4.41,0-7.07,0,2.34-13.1,1.39-26.08-.26-39.7,5,4.21,9,8.42,13.79,11.47a299.29,299.29,0,0,0,28.57,16.59c7.23,3.57,15.22,5.61,22.92,8.21a19.44,19.44,0,0,0,4.42.44Z"/><path class="cls-84" d="M1280.12,510.51l-2.18-.49c.77-5.14,1.6-10.28,2.31-15.43,1.2-8.79,2.64-17.57,2-26.5.07-2.76.13-5.52.2-8.27a32.85,32.85,0,0,1,.4,3.56c0,9.15.32,18.31-.07,27.45-.21,5.2-1.56,10.35-2.35,15.53C1280.21,507.73,1280.21,509.12,1280.12,510.51Z"/><path class="cls-85" d="M1353.35,503.32l3.25-1.07h9.33c0,.18,0,.35,0,.53Z"/><path class="cls-86" d="M1244.75,479c-.34,4-.75,7.93-1,11.91-.27,4.16-.4,8.33-.6,12.75l-4.22.28c-.1-7-.31-13.77-.26-20.52a184.06,184.06,0,0,1,.69-19.24c.94-8.37,1.79-16.86,6.25-25.07a12.43,12.43,0,0,1,.71,2.69q-.06,11.55-.24,23.09a42.79,42.79,0,0,1-.52,4.34C1245.28,472.44,1245,475.7,1244.75,479Z"/><path class="cls-87" d="M1244.75,479c.27-3.26.53-6.52.8-9.77l.54,11.21-.8.13Z"/><path class="cls-88" d="M960.57,486.1c3.07,2.09,6.09,4.25,9.21,6.26,2.45,1.59,3.09,3.93,3.21,6.6.18,4.17.46,8.34.53,12.51a8.7,8.7,0,0,1-1,2.82,10.83,10.83,0,0,1-2.09-2.56c-1.61-4.2-2.86-8.55-4.59-12.71S962,490.93,960,486.89Zm9.51,17.65c1.23-7,.43-8.59-6.51-12.78Z"/><path class="cls-89" d="M955.19,494.35c.12-2,.23-4,.35-6,4,4.16,4.79,9.72,6.2,15,.81,3,1.29,6.14,2.15,9.15s-1.17,3.26-3.23,3.76c-2.3.55-3.67-.16-3.89-2.55-.4-4.34-.69-8.69-1.06-13-.11-1.37-.31-2.74-.47-4.12C955.23,495.8,955.21,495.07,955.19,494.35Zm2.74,8.95c.34,3,.62,6.09,1.05,9.12.07.54.73,1,1.13,1.5a11.58,11.58,0,0,0,1-1.9,3.18,3.18,0,0,0-.19-1.36q-1.2-5.93-2.42-11.84l-.74-4.16-.92.15c0,1.9-.12,3.81,0,5.69A10.91,10.91,0,0,0,957.93,503.3Z"/><path class="cls-90" d="M952.3,505.56c0,3.89,0,7.79.1,11.68.07,2.08-1.17,2.56-2.76,2.52s-2.69-.41-2.47-2.64c.63-6.44.93-12.91,1.37-19.37l1.13,2.72v17.17h.38v-11l.66-4.48Z"/><path class="cls-91" d="M949.43,520.9c.53,1.21,1.22,2.07,1.23,2.94.08,6.57,0,13.13,0,19.7,0,1.91-1,2.66-2.8,2.38C945.68,540.49,946.41,524.1,949.43,520.9Zm-.93,10.93c0,3.43-.84,6.92,0,10.29l1.12,0V523.6C947.9,526.19,948.62,529.06,948.5,531.83Z"/><path class="cls-77" d="M949.67,500.47l-1.13-2.72c.6-2.55,1.2-5.1,1.74-7.42,2.52,4.69,2.24,10,2,15.23l-1.59-3.37V495.7h-.33Z"/><path class="cls-92" d="M955.09,506.71c.19,2.68.44,5.36.52,8a4.3,4.3,0,0,1-1.1,2.83c-1.51-4.89-.93-9.83-1-14.72C954.06,504.14,954.57,505.43,955.09,506.71Z"/><path class="cls-93" d="M955.09,506.71c-.52-1.28-1-2.57-1.55-3.85V489.7l1.65,4.65c0,.72,0,1.45,0,2.17Z"/><path class="cls-94" d="M908.74,522.88c10.08-2.33,19.15-7,28-12.12,1.23,2.17.17,5.8-2,6.38-7.93,2.15-15.88,4.22-23.83,6.28a7.06,7.06,0,0,1-1.66,0Z"/><path class="cls-95" d="M908.74,522.88l.58.57c-5.65.79-11.27,1.79-16.94,2.33s-11.47.64-17.21,1a11.41,11.41,0,0,0-2.11.52l-18.11,0-10.09-.35a1.89,1.89,0,0,0-.32-.37l15.86-.69c12.43-.58,24.86-1.12,37.29-1.79C901.38,523.86,905.05,523.28,908.74,522.88Z"/><path class="cls-96" d="M855,527.25l18.11,0Z"/><path class="cls-97" d="M1240.21,539.22c-.46-3.91-1.09-7.81-1.32-11.73s-.05-7.75-.05-11.79h5.27c-1,7.95-2,15.74-2.95,23.54Z"/><path class="cls-14" d="M1025.28,511.29c-6.85,1.05-13.69,2.2-20.56,3.13-7.16,1-14.36,1.68-21.53,2.58-3,.37-3.92-.34-4-3.34-.15-4.54-.29-9.09-.47-13.63-.07-1.91.83-2.58,2.6-2.09q11.51,3.17,23,6.39l18.21,5.16c.93.27,1.86.56,2.79.84C1025.31,510.65,1025.3,511,1025.28,511.29Zm-13.1-.82,0-.35-29-7.75v11.82Z"/><path class="cls-10" d="M1118.45,507.93c-3,0-6,.08-9.06-.17-1.06-.08-2.05-1.05-3.08-1.61,14-6.11,28.14-12,42-18.42,9.23-4.28,18.67-8.5,27-14.24,17.81-12.29,36.81-22.5,55.45-33.34,1.33-.78,3.22-3.31,5.22-.54h0c-1,1.05-2.44,2-2.76,3.18a70.75,70.75,0,0,0-1.24,8.5h0c-.53,1.47-1.44,2.93-1.52,4.44-.51,9.55-1,19.11-1.17,28.67-.12,7.24.2,14.49.42,21.73,0,1.86-.46,2.75-2.46,2.77-19.26.12-38.52.36-57.77.42-7.72,0-15.44-.26-23.16-.51-7.89-.27-15.78-.69-23.67-1C1121.24,507.73,1119.84,507.88,1118.45,507.93Zm103.68-3.61c0-18.89,1.15-37.05,5.12-55.61-1.29.85-2,1.27-2.63,1.74-3.42,2.48-6.69,5.18-10.27,7.41-7.34,4.59-14.84,8.94-22.29,13.37-9.73,5.81-19.4,11.71-29.22,17.37-9.39,5.42-19.09,10.17-29.71,12.8-2.59.64-5.08,1.69-7.62,2.56l.12.36Z"/><path class="cls-98" d="M1232.48,472l-1.55-1.15c0-2.13-.11-4.26,0-6.39a6.4,6.4,0,0,1,1-2l1.11-2.21Q1232.75,466.13,1232.48,472Z"/><path class="cls-99" d="M1233,460.23l-1.11,2.21.06-11.16h0a3.5,3.5,0,0,0,.45-.07l.75.12Z"/><path class="cls-100" d="M187.32,380.77c-.21.38-.41.76-.61,1.15-.59-1.72-.79-3.76-1.86-5.1a38.14,38.14,0,0,0-7-6.87c-.93-.69-3.16-.24-4.49.37a18.65,18.65,0,0,0-8.39,8.27c-.18-3.55,2.13-5.93,4.06-8.46,1.37-1.8,2.91-3.48,4.2-5.33.19-.27-.42-1.54-.91-1.75a33.21,33.21,0,0,0-3.51-.82c-1.57-.49-2.82-1.26-1.63-3.21a39.15,39.15,0,0,0,4.07,1.28c1.33.28,2.82,0,4,.48,1.7.64,2.78.48,3.73-1.13.41-.71,1.2-1.6,1.89-1.67,2.44-.24,2.63-2,2.92-3.75.77-4.56-3.07-6.56-5.36-9.38-.26-.32-1.65.08-2.4.42-1.22.54-2.28,1.66-3.53,1.9-1.69.33-2.42-.91-2.48-2.57,0-.19-.79-.56-.82-.52-.53.66-1,1.37-1.5,2.07-.49-2.41-.34-2.76,2.23-4.82a5,5,0,0,1,1.55.88c1.46,1.71,2.71,1.57,4.36.12,1.88-1.64,3.62-.23,4.82,1.1s1.81,1.66,3.47,1.06c1.91-.68,2.52.95,1.75,2.17a4.45,4.45,0,0,0,.3,5.71,2.46,2.46,0,0,1-.08.46l-1.08,2.84a75.21,75.21,0,0,1-4.64,6.2c-2.49,2.71-2.41,4.79.49,7.25,1.9,1.6,3.66,3.37,5.43,5.12a2.24,2.24,0,0,1,.45,1.28C187,377.27,187.16,379,187.32,380.77Z"/><path class="cls-101" d="M189.05,314.88a52.54,52.54,0,0,0-1.12,6c-.21,2.84-.1,5.7-.12,8.55a3.84,3.84,0,0,0-.46-.11l-.84-11.51-1.31-.07-.93,3.61a4.77,4.77,0,0,1-2-8.22h2.23c1.24,1.21,2.42,2.62,4.47,1.66Z"/><path class="cls-102" d="M186.17,352.83a2.46,2.46,0,0,0,.08-.46c.92-1.91.25-4.57,2.72-5.74,1.64-.56,3.12-.87,2.8,1.73-2.92,2.33-2.76,5.65-2.85,8.88l-1.6,2-.85-.22Z"/><path class="cls-10" d="M1266.61,509.47l-10.55.5c-3.55-1.09-3.73-1.1-3.38-5.16.45-5.24,1.4-10.42,1.83-15.66,1-12,1.81-24,2.67-36a56.27,56.27,0,0,0,.22-7.78,47,47,0,0,0-1.32-6.47c-.76-2.26-1.52-4.51-2.37-7.06a15.54,15.54,0,0,1,9.81,3.58,30.92,30.92,0,0,1,8.16,8.84c1.22,2.14.73,5.57.27,8.3-2.11,12.71-2.85,25.54-3.68,38.37-2,3.2-1.1,6.69-1,10.09h0l-.09,7.77Zm-5.67-68.09c.62,5.56,1.66,10.77,1.65,16,0,7.19-.84,14.38-1.3,21.58-.5,7.71-1,15.42-1.41,23.14,0,.7.55,1.43.85,2.15a45.24,45.24,0,0,0,2.37-11c1.11-14.63,2.07-29.28,3.06-43.93C1266.47,444.76,1265.87,443.82,1260.94,441.38Z"/><path class="cls-103" d="M1276.68,506.53c-1.39,1.13-1.68,3.89-4.43,3l-.6-2.88c.37-7.3.59-14.61,1.17-21.89.83-10.38,1.94-20.73,2.94-31.09,0-.16.2-.29.57-.82l2.05,1.84c.57,2.17,1.6,4.34,1.61,6.52,0,7.86-.27,15.73-.43,23.6,0,.92,0,1.84.06,2.76a63.76,63.76,0,0,0-2.38,17.21A6.72,6.72,0,0,1,1276.68,506.53Zm.87-48.95c-.84,8.19-1.77,16.39-2.48,24.6s-1.22,16.51-1.81,24.78l.76.05C1276.66,490.61,1278.94,474.18,1277.55,457.58Z"/><path class="cls-104" d="M1256.08,438.93a47,47,0,0,1,1.32,6.47,56.27,56.27,0,0,1-.22,7.78c-.86,12-1.68,24-2.67,36-.43,5.24-1.38,10.42-1.83,15.66-.35,4.06-.17,4.07,3.38,5.16-.82,0-1.65,0-2.47,0-1.58.11-2.09-.68-2-2.16,0-1.73,0-3.47-.06-5.21.47-6.39.35-12.88,1.52-19.14a179.08,179.08,0,0,0,2.9-37.32c-.05-1.85-.23-3.69-.35-5.54Z"/><path class="cls-105" d="M1270.05,488.81l1.16,1.66c-.06,3.49,0,7-.26,10.46-.06,1-.94,1.9-1.44,2.85Z"/><path class="cls-106" d="M1267.22,501.05c0-3.4-.9-6.89,1-10.09Z"/><path class="cls-106" d="M1267.13,508.82l.09-7.77C1268.82,502.74,1268.77,507.33,1267.13,508.82Z"/><path class="cls-107" d="M185.5,389.79c.24,1.16.48,2.32.71,3.48-1.06,1.39-1.83,3.28-3.23,4.08-5.25,3-5.36,3-3.53,8.91.17,0,.42.18.51.11,2-1.53,3.7-2.82,6.31-.67,1.91,1.57,3.78,2.84,4.39,5.43.31,1.31,1.36,2.45,1.62,3.75.63,3.22-.81,5.68-3.35,7.6-1.17.89-2.31,1.83-3.65,2.89.87,1.24,1.68,2.4,2.78,3.95l-9.13,2.95L175,433.36l-.54-.05a9,9,0,0,0-2.12-.42c-3.34.12-6.67.31-10,.53-1.55.1-3.09.32-4.63.48h-.59a8.34,8.34,0,0,0-1.7-1c-1.83-.61-3.78-.9-5.53-1.68-2.7-1.19-3-4-.88-6a4,4,0,0,0,1.33-1.94c.34-2.18.44-4.4.64-6.61.91-1.62,1.91-3.2,2.7-4.89s1.29-3.39,1.92-5.1c.18-.2.35-.41.52-.62a11.58,11.58,0,0,0,6.16-7.85c.5-2.75,2.12-4.07,3.42-5.92,1.12-1.59,2.33-3,.25-4.94-.68-.64-.62-2.79-.09-3.84a56.39,56.39,0,0,1,4.25-6.17c1.45-2.09,5.25-3.9,7.17-3.09a5.84,5.84,0,0,1,3,2.44c1.34,3,2.81,6.15,3.13,9.35C183.62,387.9,183.66,389.11,185.5,389.79Zm-9.71,5.79c-.19-1.26-.33-2.61-.62-3.93a2.65,2.65,0,0,0-.91-1.5c-.2-.15-.95.27-1.33.58-2.36,1.88-4.21,3.95-2.77,7.34.16.37-.39,1.41-.86,1.64-5.54,2.71-10.33,6.21-13.13,11.93a4.08,4.08,0,0,1-1.2,1.52c-2.62,1.87-1.57,4.75-1.92,7.19-.1.68,1.06,1.55,1.65,2.32l.52-.4-1.29-2.62c4.87.94,6.85.23,10.39-3.4a3.92,3.92,0,0,1,2-1.25c3.79-.5,6.09-3.26,8.67-5.55a1.92,1.92,0,0,0,0-1.86c-2.42-1.72-.85-4.88-2.57-6.85-.21-.23.24-1.24.61-1.74C173.87,397.81,174.86,396.72,175.79,395.58Zm-23.41,32.78c3.48,3.43,6.37,4.43,10.22,3.7a6.68,6.68,0,0,1,3-.24c3.34,1.06,6.26-.59,9.3-1.26,2-.45,2.14-1.73.79-3.27-1.72-2-6.79-3.06-9.51-2.3-1.24.34-2.7-.08-4.05-.22s-2.87-.88-3.89-.41A41,41,0,0,0,152.38,428.36Zm24.19-5.87-.3.8c.73,0,1.65.29,2.17,0a69.69,69.69,0,0,0,9-6.3c1-.86,1.5-3.74.83-4.62-1.22-1.6-3.55-3.35-5.31-3.25-2,.11-4,2-5.68,3.51-1.36,1.18-2.13,3-3.45,4.27-1.15,1.09-1.18,1.55.09,2.53A18,18,0,0,1,176.57,422.49Zm-6.43-37.91c3,4.35,4.22,4.41,7.42.53C174.75,381.35,174.75,381.35,170.14,384.58Z"/><path class="cls-108" d="M190.69,430.6l2.87-2.16a9.56,9.56,0,0,1-2.17-.69c-.63-.41-1.49-1-1.57-1.58a2.78,2.78,0,0,1,1.09-2,28.77,28.77,0,0,1,3.11-2L193.5,415c2.25,2.43,2.43,7.58.35,10.54l2.74,3.59Z"/><path class="cls-27" d="M151,416.61c-.2,2.21-.3,4.43-.64,6.61a4,4,0,0,1-1.33,1.94c-2.12,2-1.82,4.84.88,6,1.75.78,3.7,1.07,5.53,1.68a8.34,8.34,0,0,1,1.7,1l-6.72-1c-3.2-1.36-4.92-3.64-4.43-7.26,2.8-1.05,2.21-4,3.32-6C149.87,418.64,150.43,417.62,151,416.61Z"/><path class="cls-27" d="M157.72,433.9c1.54-.16,3.08-.38,4.63-.48,3.33-.22,6.66-.41,10-.53a9,9,0,0,1,2.12.42C168.91,434.22,163.35,435.13,157.72,433.9Z"/><path class="cls-108" d="M175,433.36l3.92-1.09,7.3-.54Z"/><path class="cls-108" d="M146,425.61c-.49,3.62,1.23,5.9,4.43,7.27C145.65,432.35,144.25,430.05,146,425.61Z"/><path class="cls-27" d="M185.5,389.79c-1.84-.68-1.88-1.89-2.08-3.81-.32-3.2-1.79-6.34-3.13-9.35a5.84,5.84,0,0,0-3-2.44c-1.92-.81-5.72,1-7.17,3.09a56.39,56.39,0,0,0-4.25,6.17c-.53,1.05-.59,3.2.09,3.84,2.08,2,.87,3.35-.25,4.94-1.3,1.85-2.92,3.17-3.42,5.92a11.58,11.58,0,0,1-6.16,7.85c1.7-4.17,3.66-8.25,5-12.52,1.55-4.87,2.57-9.91,3.83-14.89a18.65,18.65,0,0,1,8.39-8.27c1.33-.61,3.56-1.06,4.49-.37a38.14,38.14,0,0,1,7,6.87c1.07,1.34,1.27,3.38,1.86,5.1Q186.11,385.85,185.5,389.79Z"/><path class="cls-109" d="M169.9,276.27c-2.68.85-3.11,2.79-2.52,5.22.64,2.64,1.44,5.26,1.86,7.94a16.75,16.75,0,0,1-.33,4.6c-.12,1-.43,1.92-.65,2.89a31.68,31.68,0,0,0-.14,4.24c.25,2.66.68,5.29-2.12,8-.58-2-1-3.56-1.47-5.1-.22-4,0-8.15-.84-12a13.58,13.58,0,0,1,.15-6.83c-.06-2.24-.1-4.49-.19-6.73-.06-1.24-.22-2.46-.34-3.7.05-.93-.5-1.83-.52-2.76-.11-3.53-.11-7.07,0-10.6,0-.67.71-1.31,1.08-2,1,3.45,2.15,6.62,5.46,9C171.92,270.26,169.42,273.62,169.9,276.27Z"/><path class="cls-110" d="M187.32,380.77c-.16-1.75-.31-3.5-.5-5.25a2.24,2.24,0,0,0-.45-1.28c-1.77-1.75-3.53-3.52-5.43-5.12-2.9-2.46-3-4.54-.49-7.25a75.21,75.21,0,0,0,4.64-6.2c.39,2.33.69,4.68,1.26,7a2.2,2.2,0,0,0,1.75,1.27c3.19-.48,4.73,1.35,6,3.85l-2.63,1.81c.27.78.52,1.47.76,2.15a13.22,13.22,0,0,0-2.53,2.79A61,61,0,0,0,187.32,380.77Z"/><path class="cls-111" d="M188.92,357.24c.09-3.23-.07-6.55,2.85-8.88,1.45-.77,2.19-3,4.44-2.12,0,1.68,0,3.36,0,5a49.57,49.57,0,0,1,0,5.45c-.32,3.11-1.66,4.36-4.49,4.46S189.53,358.8,188.92,357.24Zm5.27-9.4c-1.68,2.16-3.31,3.79-4.34,5.74-.57,1.09-.29,2.72-.11,4.07a2,2,0,0,0,1.5,1.24,2.65,2.65,0,0,0,2-.94A10.2,10.2,0,0,0,194.19,347.84Z"/><path class="cls-112" d="M969.64,485.7l-8-3.81A7.36,7.36,0,0,1,969.64,485.7Z"/><path class="cls-113" d="M163.87,259.45c-.37.65-1.06,1.29-1.08,2-.11,3.53-.11,7.07,0,10.6,0,.93.57,1.83.52,2.76.12,1.24.28,2.46.34,3.7.09,2.24.13,4.49.19,6.73-.28-1.68,1-4.13-2.32-4.31-.52,0-1.46-1.48-1.38-2.19.58-5.21-1.68-10.26-.79-15.49.29-1.71.36-3.06,2-2.25l2.47-2A2,2,0,0,1,163.87,259.45Z"/><path class="cls-114" d="M205.85,345.07l-1.26,2.74c-1.22.15-3.11.86-3.54.35-1.56-1.86.13-5.28,3.65-7.06C205.1,342.51,205.48,343.79,205.85,345.07Z"/><path class="cls-25" d="M189,314.83c-2,1-3.23-.45-4.47-1.66,1.06-.72,2.21-2.14,3.15-2C189.69,311.45,189.68,313.18,189,314.83Z"/><path class="cls-17" d="M1232.41,451.22a3.5,3.5,0,0,1-.45.07,70.75,70.75,0,0,1,1.24-8.5c.32-1.22,1.81-2.13,2.76-3.18Q1234.19,445.42,1232.41,451.22Z"/><path class="cls-115" d="M970.08,503.75,963.57,491C970.51,495.16,971.31,496.77,970.08,503.75Z"/><path class="cls-116" d="M958.51,498.82q1.22,5.93,2.42,11.84a3.18,3.18,0,0,1,.19,1.36,11.58,11.58,0,0,1-1,1.9c-.4-.5-1.06-1-1.13-1.5-.43-3-.71-6.08-1.05-9.12C958.13,501.81,958.32,500.32,958.51,498.82Z"/><path class="cls-117" d="M958.51,498.82c-.19,1.5-.38,3-.58,4.48a10.91,10.91,0,0,1-1-2.8c-.17-1.88,0-3.79,0-5.69l.92-.15C958,496.05,958.27,497.44,958.51,498.82Z"/><path class="cls-118" d="M949.67,500.47l.71-4.77h.33v6.49l-.66,4.48-.38,0Z"/><path class="cls-119" d="M949.67,506.71l.38,0v11h-.38Z"/><path class="cls-120" d="M948.5,531.83c.12-2.77-.6-5.64,1.15-8.23v13.31C949.27,535.22,948.89,533.52,948.5,531.83Z"/><path class="cls-121" d="M948.5,531.83c.39,1.69.77,3.39,1.15,5.08v5.19l-1.12,0C947.66,538.75,948.51,535.26,948.5,531.83Z"/><path class="cls-122" d="M1012.18,510.47l-29,3.72V502.37l29,7.75Z"/><path class="cls-123" d="M1222.13,504.32h-96.5l-.12-.36c2.54-.87,5-1.92,7.62-2.56,10.62-2.63,20.32-7.38,29.71-12.8,9.82-5.66,19.49-11.56,29.22-17.37,7.45-4.43,15-8.78,22.29-13.37,3.58-2.23,6.85-4.93,10.27-7.41.65-.47,1.34-.89,2.63-1.74C1223.28,467.27,1222.09,485.43,1222.13,504.32Z"/><path class="cls-124" d="M1260.94,441.38c4.93,2.44,5.53,3.38,5.22,7.93-1,14.65-2,29.3-3.06,43.93a45.24,45.24,0,0,1-2.37,11c-.3-.72-.89-1.45-.85-2.15.41-7.72.91-15.43,1.41-23.14.46-7.2,1.28-14.39,1.3-21.58C1262.6,452.15,1261.56,446.94,1260.94,441.38Z"/><path class="cls-125" d="M1277.55,457.58c1.39,16.6-.89,33-3.53,49.43l-.76-.05c.59-8.27,1.09-16.53,1.81-24.78S1276.71,465.77,1277.55,457.58Z"/><path class="cls-126" d="M175.79,395.58c-.93,1.14-1.92,2.23-2.77,3.42-.37.5-.82,1.51-.61,1.74,1.72,2,.15,5.13,2.57,6.85a1.92,1.92,0,0,1,0,1.86c-2.58,2.29-4.88,5.05-8.67,5.55a3.92,3.92,0,0,0-2,1.25c-3.54,3.63-5.52,4.34-10.39,3.4l1.29,2.62-.52.4c-.59-.77-1.75-1.64-1.65-2.32.35-2.44-.7-5.32,1.92-7.19a4.08,4.08,0,0,0,1.2-1.52c2.8-5.72,7.59-9.22,13.13-11.93.47-.23,1-1.27.86-1.64-1.44-3.39.41-5.46,2.77-7.34.38-.31,1.13-.73,1.33-.58a2.65,2.65,0,0,1,.91,1.5C175.46,393,175.6,394.32,175.79,395.58Z"/><path class="cls-127" d="M152.38,428.36a41,41,0,0,1,5.87-4c1-.47,2.57.28,3.89.41s2.81.56,4.05.22c2.72-.76,7.79.33,9.51,2.3,1.35,1.54,1.21,2.82-.79,3.27-3,.67-6,2.32-9.3,1.26a6.68,6.68,0,0,0-3,.24C158.75,432.79,155.86,431.79,152.38,428.36Z"/><path class="cls-128" d="M176.57,422.49a18,18,0,0,0-2.62-3.1c-1.27-1-1.24-1.44-.09-2.53,1.32-1.25,2.09-3.09,3.45-4.27,1.7-1.47,3.71-3.4,5.68-3.51,1.76-.1,4.09,1.65,5.31,3.25.67.88.14,3.76-.83,4.62a69.69,69.69,0,0,1-9,6.3c-.52.33-1.44,0-2.17,0Z"/><path class="cls-126" d="M170.14,384.58c4.61-3.23,4.61-3.23,7.42.53C174.36,389,173.17,388.93,170.14,384.58Z"/><path class="cls-129" d="M194.19,347.84a10.2,10.2,0,0,1-.92,10.11,2.65,2.65,0,0,1-2,.94,2,2,0,0,1-1.5-1.24c-.18-1.35-.46-3,.11-4.07C190.88,351.63,192.51,350,194.19,347.84Z"/></g></g></svg>